<?xml version="1.0" standalone="no"?>
<!DOCTYPE svg PUBLIC "-//W3C//DTD SVG 1.1//EN" "http://www.w3.org/Graphics/SVG/1.1/DTD/svg11.dtd" >
<svg xmlns="http://www.w3.org/2000/svg" xmlns:xlink="http://www.w3.org/1999/xlink" version="1.1">
<metadata>
Created by FontForge 20170924 at Mon Mar 18 22:53:08 2019
 By www-data
Copyright \(c\) 2010-2018 by Colophon Foundry. All rights reserved.
</metadata>
<defs>
<font id="ApercuPro-Medium" horiz-adv-x="620" >
  <font-face 
    font-family="Apercu Pro Medium"
    font-weight="500"
    font-stretch="normal"
    units-per-em="1000"
    panose-1="2 11 6 3 5 6 1 4 1 3"
    ascent="788"
    descent="-212"
    x-height="504"
    cap-height="700"
    bbox="-656 -281 1160 1125"
    underline-thickness="62"
    underline-position="-160"
    stemh="92"
    stemv="111"
    unicode-range="U+000D-FB02"
  />
<missing-glyph horiz-adv-x="621" 
d="M83 0v700h455v-700h-455zM186 92h249v516h-249v-516z" />
    <glyph glyph-name="f_f" unicode="ff" horiz-adv-x="625" 
d="M79 0v412h-69v92h69v28c0 117 63 176 168 176c35 0 63 -6 84 -18l-23 -87c-19 9 -38 13 -57 13c-45 0 -67 -25 -67 -75v-37h185v28c0 117 64 176 169 176c34 0 62 -6 84 -18l-23 -87c-21 9 -40 13 -58 13c-44 0 -66 -25 -66 -75v-37h110v-92h-110v-412h-106v412h-185
v-412h-105z" />
    <glyph glyph-name="f_f_i" unicode="ffi" horiz-adv-x="819" 
d="M79 0v412h-69v92h69v28c0 117 63 176 168 176c35 0 63 -6 84 -18l-23 -87c-19 9 -38 13 -57 13c-45 0 -67 -25 -67 -75v-37h185v9c0 127 88 195 223 195c53 0 108 -12 140 -29l-30 -88c-33 17 -69 25 -107 25c-73 0 -120 -37 -120 -101v-11h290v-504h-105v412h-185v-412
h-106v412h-185v-412h-105z" />
    <glyph glyph-name="f_f_l" unicode="ffl" horiz-adv-x="837" 
d="M79 0v412h-69v92h69v28c0 117 63 176 168 176c35 0 63 -6 84 -18l-23 -87c-19 9 -38 13 -57 13c-45 0 -67 -25 -67 -75v-37h185v28c0 117 64 176 169 176h227v-708h-105v616h-119c-44 0 -66 -25 -66 -75v-37h110v-92h-110v-412h-106v412h-185v-412h-105z" />
    <glyph glyph-name="f_i" unicode="fi" horiz-adv-x="547" 
d="M79 0v412h-69v92h69v9c0 127 89 195 222 195c53 0 108 -12 140 -29l-29 -88c-33 17 -69 25 -107 25c-75 0 -121 -37 -121 -101v-11h291v-504h-106v412h-185v-412h-105z" />
    <glyph glyph-name="f_l" unicode="fl" horiz-adv-x="547" 
d="M79 0v412h-69v92h69v28c0 117 63 176 168 176h228v-708h-106v616h-118c-45 0 -67 -25 -67 -75v-37h111v-92h-111v-412h-105z" />
    <glyph glyph-name=".notdef" horiz-adv-x="621" 
d="M83 0v700h455v-700h-455zM186 92h249v516h-249v-516z" />
    <glyph glyph-name="CR" unicode="&#xd;" horiz-adv-x="249" 
 />
    <glyph glyph-name="space" unicode=" " horiz-adv-x="249" 
 />
    <glyph glyph-name="A" unicode="A" horiz-adv-x="613" 
d="M11 0l241 700h109l242 -700h-119l-56 175h-242l-57 -175h-118zM218 278h177l-88 275z" />
    <glyph glyph-name="Aacute" unicode="&#xc1;" horiz-adv-x="613" 
d="M11 0l241 700h109l242 -700h-119l-56 175h-242l-57 -175h-118zM218 278h177l-88 275zM264 750l68 152h145l-135 -152h-78z" />
    <glyph glyph-name="Abreve" unicode="&#x102;" horiz-adv-x="613" 
d="M11 0l241 700h109l242 -700h-119l-56 175h-242l-57 -175h-118zM218 278h177l-88 275zM193 896h79c0 -23 12 -37 35 -37s35 14 35 37h79c0 -64 -45 -109 -114 -109s-114 45 -114 109z" />
    <glyph glyph-name="Acircumflex" unicode="&#xc2;" horiz-adv-x="613" 
d="M11 0l241 700h109l242 -700h-119l-56 175h-242l-57 -175h-118zM218 278h177l-88 275zM139 756l153 164h31l152 -164h-101l-67 72l-66 -72h-102z" />
    <glyph glyph-name="Adieresis" unicode="&#xc4;" horiz-adv-x="613" 
d="M11 0l241 700h109l242 -700h-119l-56 175h-242l-57 -175h-118zM218 278h177l-88 275zM146 840c0 37 28 65 65 65s64 -28 64 -65c0 -36 -27 -64 -64 -64s-65 28 -65 64zM337 840c0 37 27 65 64 65s65 -28 65 -65c0 -36 -28 -64 -65 -64s-64 28 -64 64z" />
    <glyph glyph-name="Agrave" unicode="&#xc0;" horiz-adv-x="613" 
d="M11 0l241 700h109l242 -700h-119l-56 175h-242l-57 -175h-118zM218 278h177l-88 275zM271 750l-136 152h146l68 -152h-78z" />
    <glyph glyph-name="Amacron" unicode="&#x100;" horiz-adv-x="613" 
d="M11 0l241 700h109l242 -700h-119l-56 175h-242l-57 -175h-118zM218 278h177l-88 275zM177 793v85h260v-85h-260z" />
    <glyph glyph-name="Aogonek" unicode="&#x104;" horiz-adv-x="613" 
d="M11 0l241 700h109l242 -700h-119l-56 175h-242l-57 -175h-118zM218 278h177l-88 275zM469 -94c0 36 22 73 55 94h79c-38 -32 -57 -58 -57 -79c0 -17 11 -28 28 -28c9 0 19 3 29 10l19 -69c-17 -9 -37 -14 -61 -14c-56 0 -92 33 -92 86z" />
    <glyph glyph-name="Aring" unicode="&#xc5;" horiz-adv-x="613" 
d="M11 0l241 700h109l242 -700h-119l-56 175h-242l-57 -175h-118zM218 278h177l-88 275zM203 850c0 57 44 101 103 101s104 -44 104 -101s-45 -99 -104 -99s-103 42 -103 99zM344 851c0 23 -15 38 -38 38c-21 0 -37 -17 -37 -38c0 -23 16 -38 37 -38c23 0 38 15 38 38z" />
    <glyph glyph-name="Aringacute" unicode="&#x1fa;" horiz-adv-x="613" 
d="M11 0l241 700h109l242 -700h-119l-56 175h-242l-57 -175h-118zM218 278h177l-88 275zM203 850c0 57 44 101 103 101s104 -44 104 -101s-45 -99 -104 -99s-103 42 -103 99zM344 851c0 23 -15 38 -38 38c-21 0 -37 -17 -37 -38c0 -23 16 -38 37 -38c23 0 38 15 38 38z
M264 973l68 152h145l-135 -152h-78z" />
    <glyph glyph-name="Atilde" unicode="&#xc3;" horiz-adv-x="613" 
d="M11 0l241 700h109l242 -700h-119l-56 175h-242l-57 -175h-118zM218 278h177l-88 275zM181 769l-59 49c24 49 68 82 115 82c32 0 51 -8 78 -23c24 -12 35 -18 55 -18c22 0 43 14 63 42l59 -49c-24 -48 -69 -82 -116 -82c-32 0 -49 8 -77 23c-24 12 -35 18 -55 18
c-22 0 -43 -14 -63 -42z" />
    <glyph glyph-name="AE" unicode="&#xc6;" horiz-adv-x="854" 
d="M11 0l306 700h476v-103h-311v-173h251v-102h-251v-219h321v-103h-432v175h-169l-73 -175h-118zM244 278h127v275h-12z" />
    <glyph glyph-name="AEacute" unicode="&#x1fc;" horiz-adv-x="854" 
d="M11 0l306 700h476v-103h-311v-173h251v-102h-251v-219h321v-103h-432v175h-169l-73 -175h-118zM244 278h127v275h-12zM536 750l68 152h145l-135 -152h-78z" />
    <glyph glyph-name="B" unicode="B" horiz-adv-x="614" 
d="M83 0v700h247c123 0 198 -66 198 -186c0 -61 -29 -109 -74 -132c69 -27 110 -85 110 -174c0 -131 -85 -208 -226 -208h-255zM194 421h131c63 0 95 27 95 88c0 63 -32 88 -97 88h-129v-176zM194 103h132c87 0 127 35 127 107c0 73 -40 108 -127 108h-132v-215z" />
    <glyph glyph-name="C" unicode="C" horiz-adv-x="699" 
d="M48 350c-3 229 152 360 324 358c147 0 249 -77 282 -208l-101 -27c-30 88 -90 132 -181 132c-119 0 -211 -87 -211 -255s92 -255 211 -255c91 0 151 44 181 132l101 -27c-33 -131 -135 -208 -282 -208c-172 -2 -327 129 -324 358z" />
    <glyph glyph-name="Cacute" unicode="&#x106;" horiz-adv-x="699" 
d="M48 350c-3 229 152 360 324 358c147 0 249 -77 282 -208l-101 -27c-30 88 -90 132 -181 132c-119 0 -211 -87 -211 -255s92 -255 211 -255c91 0 151 44 181 132l101 -27c-33 -131 -135 -208 -282 -208c-172 -2 -327 129 -324 358zM330 750l68 152h145l-135 -152h-78z" />
    <glyph glyph-name="Ccaron" unicode="&#x10c;" horiz-adv-x="699" 
d="M48 350c-3 229 152 360 324 358c147 0 249 -77 282 -208l-101 -27c-30 88 -90 132 -181 132c-119 0 -211 -87 -211 -255s92 -255 211 -255c91 0 151 44 181 132l101 -27c-33 -131 -135 -208 -282 -208c-172 -2 -327 129 -324 358zM357 756l-153 164h102l66 -72l67 72h101
l-152 -164h-31z" />
    <glyph glyph-name="Ccedilla" unicode="&#xc7;" horiz-adv-x="699" 
d="M48 350c-3 229 152 360 324 358c147 0 249 -77 282 -208l-101 -27c-30 88 -90 132 -181 132c-119 0 -211 -87 -211 -255s92 -255 211 -255c91 0 151 44 181 132l101 -27c-33 -131 -135 -208 -282 -208c-172 -2 -327 129 -324 358zM340 -250l-125 55l128 135h79z" />
    <glyph glyph-name="Ccircumflex" unicode="&#x108;" horiz-adv-x="699" 
d="M48 350c-3 229 152 360 324 358c147 0 249 -77 282 -208l-101 -27c-30 88 -90 132 -181 132c-119 0 -211 -87 -211 -255s92 -255 211 -255c91 0 151 44 181 132l101 -27c-33 -131 -135 -208 -282 -208c-172 -2 -327 129 -324 358zM204 756l153 164h31l152 -164h-101
l-67 72l-66 -72h-102z" />
    <glyph glyph-name="Cdotaccent" unicode="&#x10a;" horiz-adv-x="699" 
d="M48 350c-3 229 152 360 324 358c147 0 249 -77 282 -208l-101 -27c-30 88 -90 132 -181 132c-119 0 -211 -87 -211 -255s92 -255 211 -255c91 0 151 44 181 132l101 -27c-33 -131 -135 -208 -282 -208c-172 -2 -327 129 -324 358zM301 845c0 40 30 71 71 71
s72 -31 72 -71s-31 -71 -72 -71s-71 31 -71 71z" />
    <glyph glyph-name="D" unicode="D" horiz-adv-x="663" 
d="M83 0v700h209c171 2 326 -121 323 -350c3 -229 -152 -352 -323 -350h-209zM194 103h69c67 0 124 19 170 58s69 102 69 189c0 88 -23 151 -69 189c-45 39 -102 58 -170 58h-69v-494z" />
    <glyph glyph-name="Eth" unicode="&#xd0;" horiz-adv-x="663" 
d="M615 350c3 -229 -152 -352 -323 -350h-209v303h-72v94h72v303h209c171 2 326 -121 323 -350zM502 350c0 88 -23 151 -69 189c-45 39 -102 58 -170 58h-69v-200h108v-94h-108v-200h69c67 0 124 19 170 58s69 102 69 189z" />
    <glyph glyph-name="Dcaron" unicode="&#x10e;" horiz-adv-x="663" 
d="M83 0v700h209c171 2 326 -121 323 -350c3 -229 -152 -352 -323 -350h-209zM194 103h69c67 0 124 19 170 58s69 102 69 189c0 88 -23 151 -69 189c-45 39 -102 58 -170 58h-69v-494zM247 756l-153 164h102l66 -72l67 72h101l-152 -164h-31z" />
    <glyph glyph-name="Dcroat" unicode="&#x110;" horiz-adv-x="663" 
d="M615 350c3 -229 -152 -352 -323 -350h-209v303h-72v94h72v303h209c171 2 326 -121 323 -350zM502 350c0 88 -23 151 -69 189c-45 39 -102 58 -170 58h-69v-200h108v-94h-108v-200h69c67 0 124 19 170 58s69 102 69 189z" />
    <glyph glyph-name="E" unicode="E" horiz-adv-x="566" 
d="M83 0v700h422v-103h-311v-173h251v-102h-251v-219h321v-103h-432z" />
    <glyph glyph-name="Eacute" unicode="&#xc9;" horiz-adv-x="566" 
d="M83 0v700h422v-103h-311v-173h251v-102h-251v-219h321v-103h-432zM255 750l68 152h145l-135 -152h-78z" />
    <glyph glyph-name="Ebreve" unicode="&#x114;" horiz-adv-x="566" 
d="M83 0v700h422v-103h-311v-173h251v-102h-251v-219h321v-103h-432zM183 896h79c0 -23 12 -37 35 -37s35 14 35 37h79c0 -64 -45 -109 -114 -109s-114 45 -114 109z" />
    <glyph glyph-name="Ecaron" unicode="&#x11a;" horiz-adv-x="566" 
d="M83 0v700h422v-103h-311v-173h251v-102h-251v-219h321v-103h-432zM282 756l-153 164h102l66 -72l67 72h101l-152 -164h-31z" />
    <glyph glyph-name="Ecircumflex" unicode="&#xca;" horiz-adv-x="566" 
d="M83 0v700h422v-103h-311v-173h251v-102h-251v-219h321v-103h-432zM129 756l153 164h31l152 -164h-101l-67 72l-66 -72h-102z" />
    <glyph glyph-name="Edieresis" unicode="&#xcb;" horiz-adv-x="566" 
d="M83 0v700h422v-103h-311v-173h251v-102h-251v-219h321v-103h-432zM137 840c0 37 28 65 65 65s64 -28 64 -65c0 -36 -27 -64 -64 -64s-65 28 -65 64zM328 840c0 37 27 65 64 65s65 -28 65 -65c0 -36 -28 -64 -65 -64s-64 28 -64 64z" />
    <glyph glyph-name="Edotaccent" unicode="&#x116;" horiz-adv-x="566" 
d="M83 0v700h422v-103h-311v-173h251v-102h-251v-219h321v-103h-432zM226 845c0 40 30 71 71 71s72 -31 72 -71s-31 -71 -72 -71s-71 31 -71 71z" />
    <glyph glyph-name="Egrave" unicode="&#xc8;" horiz-adv-x="566" 
d="M83 0v700h422v-103h-311v-173h251v-102h-251v-219h321v-103h-432zM261 750l-136 152h146l68 -152h-78z" />
    <glyph glyph-name="Emacron" unicode="&#x112;" horiz-adv-x="566" 
d="M83 0v700h422v-103h-311v-173h251v-102h-251v-219h321v-103h-432zM168 793v85h260v-85h-260z" />
    <glyph glyph-name="Eogonek" unicode="&#x118;" horiz-adv-x="566" 
d="M83 0v700h422v-103h-311v-173h251v-102h-251v-219h321v-103h-432zM381 -94c0 36 22 73 55 94h79c-38 -32 -57 -58 -57 -79c0 -17 11 -28 28 -28c9 0 19 3 29 10l19 -69c-17 -9 -37 -14 -61 -14c-56 0 -92 33 -92 86z" />
    <glyph glyph-name="F" unicode="F" horiz-adv-x="546" 
d="M83 0v700h431v-103h-320v-184h259v-103h-259v-310h-111z" />
    <glyph glyph-name="G" unicode="G" horiz-adv-x="718" 
d="M48 350c0 231 152 358 325 358c147 0 248 -84 285 -216l-103 -27c-33 89 -94 140 -182 140c-125 0 -212 -90 -212 -255c0 -168 86 -255 210 -255c107 0 165 67 172 164h-139v94h247v-353h-93l-11 85c-33 -55 -96 -93 -181 -93c-170 -2 -321 127 -318 358z" />
    <glyph glyph-name="Gbreve" unicode="&#x11e;" horiz-adv-x="718" 
d="M48 350c0 231 152 358 325 358c147 0 248 -84 285 -216l-103 -27c-33 89 -94 140 -182 140c-125 0 -212 -90 -212 -255c0 -168 86 -255 210 -255c107 0 165 67 172 164h-139v94h247v-353h-93l-11 85c-33 -55 -96 -93 -181 -93c-170 -2 -321 127 -318 358zM259 896h79
c0 -23 12 -37 35 -37s35 14 35 37h79c0 -64 -45 -109 -114 -109s-114 45 -114 109z" />
    <glyph glyph-name="Gcircumflex" unicode="&#x11c;" horiz-adv-x="718" 
d="M48 350c0 231 152 358 325 358c147 0 248 -84 285 -216l-103 -27c-33 89 -94 140 -182 140c-125 0 -212 -90 -212 -255c0 -168 86 -255 210 -255c107 0 165 67 172 164h-139v94h247v-353h-93l-11 85c-33 -55 -96 -93 -181 -93c-170 -2 -321 127 -318 358zM205 756
l153 164h31l152 -164h-101l-67 72l-66 -72h-102z" />
    <glyph glyph-name="uni0122" unicode="&#x122;" horiz-adv-x="718" 
d="M48 350c0 231 152 358 325 358c147 0 248 -84 285 -216l-103 -27c-33 89 -94 140 -182 140c-125 0 -212 -90 -212 -255c0 -168 86 -255 210 -255c107 0 165 67 172 164h-139v94h247v-353h-93l-11 85c-33 -55 -96 -93 -181 -93c-170 -2 -321 127 -318 358zM265 -231
l43 179h133l-118 -179h-58z" />
    <glyph glyph-name="Gdotaccent" unicode="&#x120;" horiz-adv-x="718" 
d="M48 350c0 231 152 358 325 358c147 0 248 -84 285 -216l-103 -27c-33 89 -94 140 -182 140c-125 0 -212 -90 -212 -255c0 -168 86 -255 210 -255c107 0 165 67 172 164h-139v94h247v-353h-93l-11 85c-33 -55 -96 -93 -181 -93c-170 -2 -321 127 -318 358zM302 845
c0 40 30 71 71 71s72 -31 72 -71s-31 -71 -72 -71s-71 31 -71 71z" />
    <glyph glyph-name="H" unicode="H" horiz-adv-x="690" 
d="M83 0v700h111v-275h303v275h110v-700h-110v322h-303v-322h-111z" />
    <glyph glyph-name="Hbar" unicode="&#x126;" horiz-adv-x="690" 
d="M673 610v-93h-66v-517h-110v322h-303v-322h-111v517h-66v93h66v90h111v-90h303v90h110v-90h66zM497 425v92h-303v-92h303z" />
    <glyph glyph-name="Hcircumflex" unicode="&#x124;" horiz-adv-x="690" 
d="M83 0v700h111v-275h303v275h110v-700h-110v322h-303v-322h-111zM177 756l153 164h31l152 -164h-101l-67 72l-66 -72h-102z" />
    <glyph glyph-name="I" unicode="I" horiz-adv-x="277" 
d="M83 0v700h111v-700h-111z" />
    <glyph glyph-name="IJ" unicode="&#x132;" horiz-adv-x="798" 
d="M83 0v700h111v-700h-111zM299 172l110 24c12 -67 45 -101 100 -101c70 0 105 42 105 127v478h111v-466c0 -168 -80 -242 -216 -242c-119 0 -195 71 -210 180z" />
    <glyph glyph-name="Iacute" unicode="&#xcd;" horiz-adv-x="277" 
d="M83 0v700h111v-700h-111zM96 750l68 152h145l-135 -152h-78z" />
    <glyph glyph-name="Ibreve" unicode="&#x12c;" horiz-adv-x="277" 
d="M83 0v700h111v-700h-111zM24 896h79c0 -23 12 -37 35 -37s35 14 35 37h79c0 -64 -45 -109 -114 -109s-114 45 -114 109z" />
    <glyph glyph-name="Icircumflex" unicode="&#xce;" horiz-adv-x="277" 
d="M83 0v700h111v-700h-111zM-30 756l153 164h31l152 -164h-101l-67 72l-66 -72h-102z" />
    <glyph glyph-name="Idieresis" unicode="&#xcf;" horiz-adv-x="277" 
d="M83 0v700h111v-700h-111zM-22 840c0 37 28 65 65 65s64 -28 64 -65c0 -36 -27 -64 -64 -64s-65 28 -65 64zM169 840c0 37 27 65 64 65s65 -28 65 -65c0 -36 -28 -64 -65 -64s-64 28 -64 64z" />
    <glyph glyph-name="Idot" unicode="&#x130;" horiz-adv-x="277" 
d="M83 0v700h111v-700h-111zM67 845c0 40 30 71 71 71s72 -31 72 -71s-31 -71 -72 -71s-71 31 -71 71z" />
    <glyph glyph-name="Igrave" unicode="&#xcc;" horiz-adv-x="277" 
d="M83 0v700h111v-700h-111zM102 750l-136 152h146l68 -152h-78z" />
    <glyph glyph-name="Imacron" unicode="&#x12a;" horiz-adv-x="277" 
d="M83 0v700h111v-700h-111zM9 793v85h260v-85h-260z" />
    <glyph glyph-name="Iogonek" unicode="&#x12e;" horiz-adv-x="277" 
d="M83 0v700h111v-700h-111zM60 -94c0 36 22 73 55 94h79c-38 -32 -57 -58 -57 -79c0 -17 11 -28 28 -28c9 0 19 3 29 10l19 -69c-17 -9 -37 -14 -61 -14c-56 0 -92 33 -92 86z" />
    <glyph glyph-name="Itilde" unicode="&#x128;" horiz-adv-x="277" 
d="M83 0v700h111v-700h-111zM13 769l-59 49c24 49 68 82 115 82c32 0 51 -8 78 -23c24 -12 35 -18 55 -18c22 0 43 14 63 42l59 -49c-24 -48 -69 -82 -116 -82c-32 0 -49 8 -77 23c-24 12 -35 18 -55 18c-22 0 -43 -14 -63 -42z" />
    <glyph glyph-name="J" unicode="J" horiz-adv-x="525" 
d="M26 172l110 24c12 -67 45 -101 100 -101c70 0 105 42 105 127v478h111v-466c0 -168 -80 -242 -216 -242c-119 0 -195 71 -210 180z" />
    <glyph glyph-name="Jcircumflex" unicode="&#x134;" horiz-adv-x="525" 
d="M26 172l110 24c12 -67 45 -101 100 -101c70 0 105 42 105 127v478h111v-466c0 -168 -80 -242 -216 -242c-119 0 -195 71 -210 180zM228 756l153 164h31l152 -164h-101l-67 72l-66 -72h-102z" />
    <glyph glyph-name="K" unicode="K" horiz-adv-x="614" 
d="M83 0v700h111v-272l249 272h137l-285 -313l307 -387h-140l-268 345v-345h-111z" />
    <glyph glyph-name="uni0136" unicode="&#x136;" horiz-adv-x="614" 
d="M83 0v700h111v-272l249 272h137l-285 -313l307 -387h-140l-268 345v-345h-111zM215 -231l43 179h133l-118 -179h-58z" />
    <glyph glyph-name="L" unicode="L" horiz-adv-x="536" 
d="M83 0v700h111v-597h306v-103h-417z" />
    <glyph glyph-name="Lacute" unicode="&#x139;" horiz-adv-x="536" 
d="M83 0v700h111v-597h306v-103h-417zM96 750l68 152h145l-135 -152h-78z" />
    <glyph glyph-name="Lcaron" unicode="&#x13d;" horiz-adv-x="536" 
d="M83 0v700h111v-597h306v-103h-417zM363 542l27 179h118l-77 -179h-68z" />
    <glyph glyph-name="uni013B" unicode="&#x13b;" horiz-adv-x="536" 
d="M83 0v700h111v-597h306v-103h-417zM184 -231l43 179h133l-118 -179h-58z" />
    <glyph glyph-name="Ldot" unicode="&#x13f;" horiz-adv-x="536" 
d="M83 0v700h111v-597h306v-103h-417zM305 363c0 43 30 74 73 74s75 -31 75 -74s-32 -74 -75 -74c-41 0 -73 31 -73 74z" />
    <glyph glyph-name="Lslash" unicode="&#x141;" horiz-adv-x="536" 
d="M194 103h306v-103h-417v220l-74 -41l-44 81l118 66v374h111v-312l95 53l45 -81l-140 -78v-179z" />
    <glyph glyph-name="M" unicode="M" horiz-adv-x="775" 
d="M83 0v700h127l178 -464l178 464h126v-700h-110v474l-155 -410h-78l-155 410v-474h-111z" />
    <glyph glyph-name="N" unicode="N" horiz-adv-x="680" 
d="M83 0v700h119l284 -502v502h111v-700h-119l-284 501v-501h-111z" />
    <glyph glyph-name="Nacute" unicode="&#x143;" horiz-adv-x="680" 
d="M83 0v700h119l284 -502v502h111v-700h-119l-284 501v-501h-111zM298 750l68 152h145l-135 -152h-78z" />
    <glyph glyph-name="Ncaron" unicode="&#x147;" horiz-adv-x="680" 
d="M83 0v700h119l284 -502v502h111v-700h-119l-284 501v-501h-111zM325 756l-153 164h102l66 -72l67 72h101l-152 -164h-31z" />
    <glyph glyph-name="uni0145" unicode="&#x145;" horiz-adv-x="680" 
d="M83 0v700h119l284 -502v502h111v-700h-119l-284 501v-501h-111zM231 -231l43 179h133l-118 -179h-58z" />
    <glyph glyph-name="Eng" unicode="&#x14a;" horiz-adv-x="680" 
d="M385 -212v103c63 0 100 28 101 107v2l-292 501v-501h-111v700h119l284 -496v496h111v-700c0 -144 -79 -212 -212 -212z" />
    <glyph glyph-name="Ntilde" unicode="&#xd1;" horiz-adv-x="680" 
d="M83 0v700h119l284 -502v502h111v-700h-119l-284 501v-501h-111zM214 769l-59 49c24 49 68 82 115 82c32 0 51 -8 78 -23c24 -12 35 -18 55 -18c22 0 43 14 63 42l59 -49c-24 -48 -69 -82 -116 -82c-32 0 -49 8 -77 23c-24 12 -35 18 -55 18c-22 0 -43 -14 -63 -42z" />
    <glyph glyph-name="O" unicode="O" horiz-adv-x="742" 
d="M48 350c-3 229 147 360 323 358c176 2 326 -129 323 -358c3 -229 -147 -360 -323 -358c-176 -2 -326 129 -323 358zM581 350c0 170 -93 255 -210 255s-210 -85 -210 -255s93 -255 210 -255s210 85 210 255z" />
    <glyph glyph-name="Oacute" unicode="&#xd3;" horiz-adv-x="742" 
d="M48 350c-3 229 147 360 323 358c176 2 326 -129 323 -358c3 -229 -147 -360 -323 -358c-176 -2 -326 129 -323 358zM581 350c0 170 -93 255 -210 255s-210 -85 -210 -255s93 -255 210 -255s210 85 210 255zM328 750l68 152h145l-135 -152h-78z" />
    <glyph glyph-name="Obreve" unicode="&#x14e;" horiz-adv-x="742" 
d="M48 350c-3 229 147 360 323 358c176 2 326 -129 323 -358c3 -229 -147 -360 -323 -358c-176 -2 -326 129 -323 358zM581 350c0 170 -93 255 -210 255s-210 -85 -210 -255s93 -255 210 -255s210 85 210 255zM257 896h79c0 -23 12 -37 35 -37s35 14 35 37h79
c0 -64 -45 -109 -114 -109s-114 45 -114 109z" />
    <glyph glyph-name="Ocircumflex" unicode="&#xd4;" horiz-adv-x="742" 
d="M48 350c-3 229 147 360 323 358c176 2 326 -129 323 -358c3 -229 -147 -360 -323 -358c-176 -2 -326 129 -323 358zM581 350c0 170 -93 255 -210 255s-210 -85 -210 -255s93 -255 210 -255s210 85 210 255zM203 756l153 164h31l152 -164h-101l-67 72l-66 -72h-102z" />
    <glyph glyph-name="Odieresis" unicode="&#xd6;" horiz-adv-x="742" 
d="M48 350c-3 229 147 360 323 358c176 2 326 -129 323 -358c3 -229 -147 -360 -323 -358c-176 -2 -326 129 -323 358zM581 350c0 170 -93 255 -210 255s-210 -85 -210 -255s93 -255 210 -255s210 85 210 255zM211 840c0 37 28 65 65 65s64 -28 64 -65
c0 -36 -27 -64 -64 -64s-65 28 -65 64zM402 840c0 37 27 65 64 65s65 -28 65 -65c0 -36 -28 -64 -65 -64s-64 28 -64 64z" />
    <glyph glyph-name="Ograve" unicode="&#xd2;" horiz-adv-x="742" 
d="M48 350c-3 229 147 360 323 358c176 2 326 -129 323 -358c3 -229 -147 -360 -323 -358c-176 -2 -326 129 -323 358zM581 350c0 170 -93 255 -210 255s-210 -85 -210 -255s93 -255 210 -255s210 85 210 255zM335 750l-136 152h146l68 -152h-78z" />
    <glyph glyph-name="Ohungarumlaut" unicode="&#x150;" horiz-adv-x="742" 
d="M48 350c-3 229 147 360 323 358c176 2 326 -129 323 -358c3 -229 -147 -360 -323 -358c-176 -2 -326 129 -323 358zM581 350c0 170 -93 255 -210 255s-210 -85 -210 -255s93 -255 210 -255s210 85 210 255zM233 756l66 146h145l-131 -146h-80zM421 756l65 146h146
l-131 -146h-80z" />
    <glyph glyph-name="Omacron" unicode="&#x14c;" horiz-adv-x="742" 
d="M48 350c-3 229 147 360 323 358c176 2 326 -129 323 -358c3 -229 -147 -360 -323 -358c-176 -2 -326 129 -323 358zM581 350c0 170 -93 255 -210 255s-210 -85 -210 -255s93 -255 210 -255s210 85 210 255zM241 793v85h260v-85h-260z" />
    <glyph glyph-name="Oslash" unicode="&#xd8;" horiz-adv-x="742" 
d="M694 350c3 -229 -147 -360 -323 -358c-67 0 -127 17 -179 51l-60 -77l-74 55l66 85c-51 63 -76 145 -76 244c-3 229 147 360 323 358c67 0 127 -17 179 -51l60 77l74 -55l-66 -85c51 -63 76 -145 76 -244zM195 198l290 374c-33 22 -71 33 -114 33
c-117 0 -210 -85 -210 -255c0 -61 11 -112 34 -152zM581 350c0 61 -11 112 -34 152l-290 -374c33 -22 71 -33 114 -33c117 0 210 85 210 255z" />
    <glyph glyph-name="Otilde" unicode="&#xd5;" horiz-adv-x="742" 
d="M48 350c-3 229 147 360 323 358c176 2 326 -129 323 -358c3 -229 -147 -360 -323 -358c-176 -2 -326 129 -323 358zM581 350c0 170 -93 255 -210 255s-210 -85 -210 -255s93 -255 210 -255s210 85 210 255zM245 769l-59 49c24 49 68 82 115 82c32 0 51 -8 78 -23
c24 -12 35 -18 55 -18c22 0 43 14 63 42l59 -49c-24 -48 -69 -82 -116 -82c-32 0 -49 8 -77 23c-24 12 -35 18 -55 18c-22 0 -43 -14 -63 -42z" />
    <glyph glyph-name="OE" unicode="&#x152;" horiz-adv-x="1066" 
d="M48 350c-3 229 147 360 323 358c80 0 155 -28 212 -81v73h421v-103h-311v-173h251v-102h-251v-219h321v-103h-431v72c-57 -52 -132 -80 -212 -80c-176 -2 -326 129 -323 358zM582 350c0 170 -94 255 -211 255s-210 -85 -210 -255s93 -255 210 -255s211 85 211 255z" />
    <glyph glyph-name="P" unicode="P" horiz-adv-x="590" 
d="M83 0v700h256c137 0 214 -82 214 -207s-77 -207 -214 -207h-145v-286h-111zM194 389h142c68 0 104 36 104 104s-36 104 -104 104h-142v-208z" />
    <glyph glyph-name="Thorn" unicode="&#xde;" horiz-adv-x="590" 
d="M83 0v700h111v-143h145c137 0 214 -82 214 -207s-77 -207 -214 -207h-145v-143h-111zM194 246h142c68 0 104 36 104 104s-36 104 -104 104h-142v-208z" />
    <glyph glyph-name="Q" unicode="Q" horiz-adv-x="742" 
d="M48 350c-3 229 147 360 323 358c176 2 326 -129 323 -358c0 -85 -19 -157 -57 -215l67 -66l-77 -77l-62 62c-54 -41 -119 -62 -194 -62c-176 -2 -326 129 -323 358zM488 130l-86 87l77 76l75 -76c18 37 27 82 27 133c0 170 -93 255 -210 255s-210 -85 -210 -255
s93 -255 210 -255c45 0 84 12 117 35z" />
    <glyph glyph-name="R" unicode="R" horiz-adv-x="627" 
d="M83 0v700h246c133 0 209 -73 209 -192c0 -96 -49 -163 -137 -184l201 -324h-124l-197 315h-87v-315h-111zM194 418h135c61 0 98 29 98 90c0 59 -33 89 -98 89h-135v-179z" />
    <glyph glyph-name="Racute" unicode="&#x154;" horiz-adv-x="627" 
d="M83 0v700h246c133 0 209 -73 209 -192c0 -96 -49 -163 -137 -184l201 -324h-124l-197 315h-87v-315h-111zM194 418h135c61 0 98 29 98 90c0 59 -33 89 -98 89h-135v-179zM213 750l68 152h145l-135 -152h-78z" />
    <glyph glyph-name="Rcaron" unicode="&#x158;" horiz-adv-x="627" 
d="M83 0v700h246c133 0 209 -73 209 -192c0 -96 -49 -163 -137 -184l201 -324h-124l-197 315h-87v-315h-111zM194 418h135c61 0 98 29 98 90c0 59 -33 89 -98 89h-135v-179zM241 756l-153 164h102l66 -72l67 72h101l-152 -164h-31z" />
    <glyph glyph-name="uni0156" unicode="&#x156;" horiz-adv-x="627" 
d="M83 0v700h246c133 0 209 -73 209 -192c0 -96 -49 -163 -137 -184l201 -324h-124l-197 315h-87v-315h-111zM194 418h135c61 0 98 29 98 90c0 59 -33 89 -98 89h-135v-179zM220 -231l43 179h133l-118 -179h-58z" />
    <glyph glyph-name="S" unicode="S" horiz-adv-x="524" 
d="M35 186l91 56c23 -88 69 -147 146 -147c60 0 101 34 101 99c0 21 -6 38 -18 53c-24 31 -57 48 -122 80l-18 9c-85 43 -139 97 -139 192c0 102 79 180 187 180c91 0 154 -40 189 -121l-89 -57c-19 50 -53 75 -100 75c-45 0 -80 -33 -80 -73c0 -20 6 -38 19 -53
c25 -31 59 -48 123 -76c101 -47 160 -100 160 -204c0 -125 -90 -207 -216 -207c-121 0 -212 86 -234 194z" />
    <glyph glyph-name="Sacute" unicode="&#x15a;" horiz-adv-x="524" 
d="M35 186l91 56c23 -88 69 -147 146 -147c60 0 101 34 101 99c0 21 -6 38 -18 53c-24 31 -57 48 -122 80l-18 9c-85 43 -139 97 -139 192c0 102 79 180 187 180c91 0 154 -40 189 -121l-89 -57c-19 50 -53 75 -100 75c-45 0 -80 -33 -80 -73c0 -20 6 -38 19 -53
c25 -31 59 -48 123 -76c101 -47 160 -100 160 -204c0 -125 -90 -207 -216 -207c-121 0 -212 86 -234 194zM221 750l68 152h145l-135 -152h-78z" />
    <glyph glyph-name="Scaron" unicode="&#x160;" horiz-adv-x="524" 
d="M35 186l91 56c23 -88 69 -147 146 -147c60 0 101 34 101 99c0 21 -6 38 -18 53c-24 31 -57 48 -122 80l-18 9c-85 43 -139 97 -139 192c0 102 79 180 187 180c91 0 154 -40 189 -121l-89 -57c-19 50 -53 75 -100 75c-45 0 -80 -33 -80 -73c0 -20 6 -38 19 -53
c25 -31 59 -48 123 -76c101 -47 160 -100 160 -204c0 -125 -90 -207 -216 -207c-121 0 -212 86 -234 194zM248 756l-153 164h102l66 -72l67 72h101l-152 -164h-31z" />
    <glyph glyph-name="Scedilla" unicode="&#x15e;" horiz-adv-x="524" 
d="M35 186l91 56c23 -88 69 -147 146 -147c60 0 101 34 101 99c0 21 -6 38 -18 53c-24 31 -57 48 -122 80l-18 9c-85 43 -139 97 -139 192c0 102 79 180 187 180c91 0 154 -40 189 -121l-89 -57c-19 50 -53 75 -100 75c-45 0 -80 -33 -80 -73c0 -20 6 -38 19 -53
c25 -31 59 -48 123 -76c101 -47 160 -100 160 -204c0 -125 -90 -207 -216 -207c-121 0 -212 86 -234 194zM227 -250l-125 55l128 135h79z" />
    <glyph glyph-name="Scircumflex" unicode="&#x15c;" horiz-adv-x="524" 
d="M35 186l91 56c23 -88 69 -147 146 -147c60 0 101 34 101 99c0 21 -6 38 -18 53c-24 31 -57 48 -122 80l-18 9c-85 43 -139 97 -139 192c0 102 79 180 187 180c91 0 154 -40 189 -121l-89 -57c-19 50 -53 75 -100 75c-45 0 -80 -33 -80 -73c0 -20 6 -38 19 -53
c25 -31 59 -48 123 -76c101 -47 160 -100 160 -204c0 -125 -90 -207 -216 -207c-121 0 -212 86 -234 194zM95 756l153 164h31l152 -164h-101l-67 72l-66 -72h-102z" />
    <glyph glyph-name="uni0218" unicode="&#x218;" horiz-adv-x="524" 
d="M35 186l91 56c23 -88 69 -147 146 -147c60 0 101 34 101 99c0 21 -6 38 -18 53c-24 31 -57 48 -122 80l-18 9c-85 43 -139 97 -139 192c0 102 79 180 187 180c91 0 154 -40 189 -121l-89 -57c-19 50 -53 75 -100 75c-45 0 -80 -33 -80 -73c0 -20 6 -38 19 -53
c25 -31 59 -48 123 -76c101 -47 160 -100 160 -204c0 -125 -90 -207 -216 -207c-121 0 -212 86 -234 194zM159 -231l43 179h133l-118 -179h-58z" />
    <glyph glyph-name="uni1E9E" unicode="&#x1e9e;" horiz-adv-x="655" 
d="M267 10v102c40 -13 73 -19 100 -19c81 0 125 43 125 126c0 87 -55 132 -159 132h-21v34l106 212h-129c-59 0 -95 -40 -95 -117v-480h-111v488c0 136 88 212 206 212h263v-51l-116 -237c100 -11 170 -84 170 -188c0 -141 -90 -232 -228 -232c-32 0 -69 6 -111 18z" />
    <glyph glyph-name="T" unicode="T" horiz-adv-x="561" 
d="M225 0v597h-199v103h509v-103h-199v-597h-111z" />
    <glyph glyph-name="Tbar" unicode="&#x166;" horiz-adv-x="561" 
d="M535 597h-199v-200h90v-94h-90v-303h-111v303h-90v94h90v200h-199v103h509v-103z" />
    <glyph glyph-name="Tcaron" unicode="&#x164;" horiz-adv-x="561" 
d="M225 0v597h-199v103h509v-103h-199v-597h-111zM265 756l-153 164h102l66 -72l67 72h101l-152 -164h-31z" />
    <glyph glyph-name="uni0162" unicode="&#x162;" horiz-adv-x="561" 
d="M225 0v597h-199v103h509v-103h-199v-597h-111zM239 -250l-125 55l128 135h79z" />
    <glyph glyph-name="uni021A" unicode="&#x21a;" horiz-adv-x="561" 
d="M225 0v597h-199v103h509v-103h-199v-597h-111zM171 -231l43 179h133l-118 -179h-58z" />
    <glyph glyph-name="U" unicode="U" horiz-adv-x="657" 
d="M74 253v447h111v-450c0 -99 49 -155 144 -155s143 56 143 155v450h111v-447c0 -171 -102 -261 -254 -261c-153 0 -255 90 -255 261z" />
    <glyph glyph-name="Uacute" unicode="&#xda;" horiz-adv-x="657" 
d="M74 253v447h111v-450c0 -99 49 -155 144 -155s143 56 143 155v450h111v-447c0 -171 -102 -261 -254 -261c-153 0 -255 90 -255 261zM286 750l68 152h145l-135 -152h-78z" />
    <glyph glyph-name="Ubreve" unicode="&#x16c;" horiz-adv-x="657" 
d="M74 253v447h111v-450c0 -99 49 -155 144 -155s143 56 143 155v450h111v-447c0 -171 -102 -261 -254 -261c-153 0 -255 90 -255 261zM214 896h79c0 -23 12 -37 35 -37s35 14 35 37h79c0 -64 -45 -109 -114 -109s-114 45 -114 109z" />
    <glyph glyph-name="Ucircumflex" unicode="&#xdb;" horiz-adv-x="657" 
d="M74 253v447h111v-450c0 -99 49 -155 144 -155s143 56 143 155v450h111v-447c0 -171 -102 -261 -254 -261c-153 0 -255 90 -255 261zM160 756l153 164h31l152 -164h-101l-67 72l-66 -72h-102z" />
    <glyph glyph-name="Udieresis" unicode="&#xdc;" horiz-adv-x="657" 
d="M74 253v447h111v-450c0 -99 49 -155 144 -155s143 56 143 155v450h111v-447c0 -171 -102 -261 -254 -261c-153 0 -255 90 -255 261zM168 840c0 37 28 65 65 65s64 -28 64 -65c0 -36 -27 -64 -64 -64s-65 28 -65 64zM359 840c0 37 27 65 64 65s65 -28 65 -65
c0 -36 -28 -64 -65 -64s-64 28 -64 64z" />
    <glyph glyph-name="Ugrave" unicode="&#xd9;" horiz-adv-x="657" 
d="M74 253v447h111v-450c0 -99 49 -155 144 -155s143 56 143 155v450h111v-447c0 -171 -102 -261 -254 -261c-153 0 -255 90 -255 261zM293 750l-136 152h146l68 -152h-78z" />
    <glyph glyph-name="Uhungarumlaut" unicode="&#x170;" horiz-adv-x="657" 
d="M74 253v447h111v-450c0 -99 49 -155 144 -155s143 56 143 155v450h111v-447c0 -171 -102 -261 -254 -261c-153 0 -255 90 -255 261zM190 756l66 146h145l-131 -146h-80zM378 756l65 146h146l-131 -146h-80z" />
    <glyph glyph-name="Umacron" unicode="&#x16a;" horiz-adv-x="657" 
d="M74 253v447h111v-450c0 -99 49 -155 144 -155s143 56 143 155v450h111v-447c0 -171 -102 -261 -254 -261c-153 0 -255 90 -255 261zM199 793v85h260v-85h-260z" />
    <glyph glyph-name="Uogonek" unicode="&#x172;" horiz-adv-x="657" 
d="M472 700h111v-447c0 -141 -69 -228 -181 -253c-39 -32 -58 -58 -58 -79c0 -17 11 -28 28 -28c10 0 20 3 30 10l19 -69c-19 -11 -36 -14 -61 -14c-56 0 -92 33 -92 86c0 32 17 65 45 86c-144 7 -239 97 -239 261v447h111v-450c0 -99 49 -155 144 -155s143 56 143 155v450z
" />
    <glyph glyph-name="Uring" unicode="&#x16e;" horiz-adv-x="657" 
d="M74 253v447h111v-450c0 -99 49 -155 144 -155s143 56 143 155v450h111v-447c0 -171 -102 -261 -254 -261c-153 0 -255 90 -255 261zM225 850c0 57 44 101 103 101s104 -44 104 -101s-45 -99 -104 -99s-103 42 -103 99zM366 851c0 23 -15 38 -38 38c-21 0 -37 -17 -37 -38
c0 -23 16 -38 37 -38c23 0 38 15 38 38z" />
    <glyph glyph-name="Utilde" unicode="&#x168;" horiz-adv-x="657" 
d="M74 253v447h111v-450c0 -99 49 -155 144 -155s143 56 143 155v450h111v-447c0 -171 -102 -261 -254 -261c-153 0 -255 90 -255 261zM203 769l-59 49c24 49 68 82 115 82c32 0 51 -8 78 -23c24 -12 35 -18 55 -18c22 0 43 14 63 42l59 -49c-24 -48 -69 -82 -116 -82
c-32 0 -49 8 -77 23c-24 12 -35 18 -55 18c-22 0 -43 -14 -63 -42z" />
    <glyph glyph-name="V" unicode="V" horiz-adv-x="611" 
d="M249 0l-238 700h121l173 -544l174 544h121l-238 -700h-113z" />
    <glyph glyph-name="W" unicode="W" horiz-adv-x="891" 
d="M196 0l-185 700h117l129 -540l140 466h97l140 -466l129 540h117l-185 -700h-113l-137 446l-136 -446h-113z" />
    <glyph glyph-name="Wacute" unicode="&#x1e82;" horiz-adv-x="891" 
d="M196 0l-185 700h117l129 -540l140 466h97l140 -466l129 540h117l-185 -700h-113l-137 446l-136 -446h-113zM403 750l68 152h145l-135 -152h-78z" />
    <glyph glyph-name="Wcircumflex" unicode="&#x174;" horiz-adv-x="891" 
d="M196 0l-185 700h117l129 -540l140 466h97l140 -466l129 540h117l-185 -700h-113l-137 446l-136 -446h-113zM277 756l153 164h31l152 -164h-101l-67 72l-66 -72h-102z" />
    <glyph glyph-name="Wdieresis" unicode="&#x1e84;" horiz-adv-x="891" 
d="M196 0l-185 700h117l129 -540l140 466h97l140 -466l129 540h117l-185 -700h-113l-137 446l-136 -446h-113zM285 840c0 37 28 65 65 65s64 -28 64 -65c0 -36 -27 -64 -64 -64s-65 28 -65 64zM476 840c0 37 27 65 64 65s65 -28 65 -65c0 -36 -28 -64 -65 -64s-64 28 -64 64
z" />
    <glyph glyph-name="Wgrave" unicode="&#x1e80;" horiz-adv-x="891" 
d="M196 0l-185 700h117l129 -540l140 466h97l140 -466l129 540h117l-185 -700h-113l-137 446l-136 -446h-113zM410 750l-136 152h146l68 -152h-78z" />
    <glyph glyph-name="X" unicode="X" horiz-adv-x="590" 
d="M14 0l220 380l-184 320h121l124 -215l123 215h122l-185 -320l221 -380h-123l-158 274l-158 -274h-123z" />
    <glyph glyph-name="Y" unicode="Y" horiz-adv-x="540" 
d="M215 0v300l-205 400h121l139 -290l139 290h121l-205 -400v-300h-110z" />
    <glyph glyph-name="Yacute" unicode="&#xdd;" horiz-adv-x="540" 
d="M215 0v300l-205 400h121l139 -290l139 290h121l-205 -400v-300h-110zM228 750l68 152h145l-135 -152h-78z" />
    <glyph glyph-name="Ycircumflex" unicode="&#x176;" horiz-adv-x="540" 
d="M215 0v300l-205 400h121l139 -290l139 290h121l-205 -400v-300h-110zM102 756l153 164h31l152 -164h-101l-67 72l-66 -72h-102z" />
    <glyph glyph-name="Ydieresis" unicode="&#x178;" horiz-adv-x="540" 
d="M215 0v300l-205 400h121l139 -290l139 290h121l-205 -400v-300h-110zM110 840c0 37 28 65 65 65s64 -28 64 -65c0 -36 -27 -64 -64 -64s-65 28 -65 64zM301 840c0 37 27 65 64 65s65 -28 65 -65c0 -36 -28 -64 -65 -64s-64 28 -64 64z" />
    <glyph glyph-name="Ygrave" unicode="&#x1ef2;" horiz-adv-x="540" 
d="M215 0v300l-205 400h121l139 -290l139 290h121l-205 -400v-300h-110zM234 750l-136 152h146l68 -152h-78z" />
    <glyph glyph-name="Z" unicode="Z" horiz-adv-x="557" 
d="M38 0v52l318 545h-302v103h453v-52l-315 -545h327v-103h-481z" />
    <glyph glyph-name="Zacute" unicode="&#x179;" horiz-adv-x="557" 
d="M38 0v52l318 545h-302v103h453v-52l-315 -545h327v-103h-481zM238 750l68 152h145l-135 -152h-78z" />
    <glyph glyph-name="Zcaron" unicode="&#x17d;" horiz-adv-x="557" 
d="M38 0v52l318 545h-302v103h453v-52l-315 -545h327v-103h-481zM265 756l-153 164h102l66 -72l67 72h101l-152 -164h-31z" />
    <glyph glyph-name="Zdotaccent" unicode="&#x17b;" horiz-adv-x="557" 
d="M38 0v52l318 545h-302v103h453v-52l-315 -545h327v-103h-481zM209 845c0 40 30 71 71 71s72 -31 72 -71s-31 -71 -72 -71s-71 31 -71 71z" />
    <glyph glyph-name="uni01B5" unicode="&#x1b5;" horiz-adv-x="557" 
d="M38 0v52l147 252h-98v93h152l117 200h-302v103h453v-52l-145 -251h108v-93h-161l-117 -201h327v-103h-481z" />
    <glyph glyph-name="uni0122.ss02" horiz-adv-x="718" 
d="M48 350c0 231 152 358 325 358c147 0 248 -84 285 -216l-103 -27c-33 89 -94 140 -182 140c-125 0 -212 -90 -212 -255c0 -168 86 -255 210 -255c107 0 165 67 172 164h-139v94h247v-353h-93l-11 85c-33 -55 -96 -93 -181 -93c-170 -2 -321 127 -318 358zM323 -281
l-17 22c32 21 53 54 58 90c-33 12 -50 34 -50 61c0 33 27 62 64 62c39 0 65 -29 65 -68c0 -67 -47 -119 -120 -167z" />
    <glyph glyph-name="uni0136.ss02" horiz-adv-x="614" 
d="M83 0v700h111v-272l249 272h137l-285 -313l307 -387h-140l-268 345v-345h-111zM273 -281l-17 22c32 21 53 54 58 90c-33 12 -50 34 -50 61c0 33 27 62 64 62c39 0 65 -29 65 -68c0 -67 -47 -119 -120 -167z" />
    <glyph glyph-name="Lcaron.ss02" horiz-adv-x="536" 
d="M83 0v700h111v-597h306v-103h-417zM380 534l-17 22c32 21 53 54 58 90c-33 12 -50 34 -50 61c0 33 27 62 64 62c39 0 65 -29 65 -68c0 -67 -47 -119 -120 -167z" />
    <glyph glyph-name="uni013B.ss02" horiz-adv-x="536" 
d="M83 0v700h111v-597h306v-103h-417zM241 -281l-17 22c32 21 53 54 58 90c-33 12 -50 34 -50 61c0 33 27 62 64 62c39 0 65 -29 65 -68c0 -67 -47 -119 -120 -167z" />
    <glyph glyph-name="uni0145.ss02" horiz-adv-x="680" 
d="M83 0v700h119l284 -502v502h111v-700h-119l-284 501v-501h-111zM288 -281l-17 22c32 21 53 54 58 90c-33 12 -50 34 -50 61c0 33 27 62 64 62c39 0 65 -29 65 -68c0 -67 -47 -119 -120 -167z" />
    <glyph glyph-name="uni0156.ss02" horiz-adv-x="627" 
d="M83 0v700h246c133 0 209 -73 209 -192c0 -96 -49 -163 -137 -184l201 -324h-124l-197 315h-87v-315h-111zM194 418h135c61 0 98 29 98 90c0 59 -33 89 -98 89h-135v-179zM277 -281l-17 22c32 21 53 54 58 90c-33 12 -50 34 -50 61c0 33 27 62 64 62c39 0 65 -29 65 -68
c0 -67 -47 -119 -120 -167z" />
    <glyph glyph-name="uni0218.ss02" horiz-adv-x="524" 
d="M35 186l91 56c23 -88 69 -147 146 -147c60 0 101 34 101 99c0 21 -6 38 -18 53c-24 31 -57 48 -122 80l-18 9c-85 43 -139 97 -139 192c0 102 79 180 187 180c91 0 154 -40 189 -121l-89 -57c-19 50 -53 75 -100 75c-45 0 -80 -33 -80 -73c0 -20 6 -38 19 -53
c25 -31 59 -48 123 -76c101 -47 160 -100 160 -204c0 -125 -90 -207 -216 -207c-121 0 -212 86 -234 194zM217 -281l-17 22c32 21 53 54 58 90c-33 12 -50 34 -50 61c0 33 27 62 64 62c39 0 65 -29 65 -68c0 -67 -47 -119 -120 -167z" />
    <glyph glyph-name="uni021A.ss02" horiz-adv-x="561" 
d="M225 0v597h-199v103h509v-103h-199v-597h-111zM228 -281l-17 22c32 21 53 54 58 90c-33 12 -50 34 -50 61c0 33 27 62 64 62c39 0 65 -29 65 -68c0 -67 -47 -119 -120 -167z" />
    <glyph glyph-name="a" unicode="a" horiz-adv-x="517" 
d="M46 145c0 103 83 165 216 165h88v22c0 60 -39 88 -96 88c-49 0 -82 -23 -97 -68l-92 21c16 83 92 139 189 139c125 0 201 -70 201 -201v-311h-85l-14 68c-37 -51 -89 -76 -156 -76c-89 0 -154 54 -154 153zM350 211v13h-84c-72 0 -110 -26 -110 -78c0 -37 28 -62 69 -62
c61 0 125 45 125 127z" />
    <glyph glyph-name="aacute" unicode="&#xe1;" horiz-adv-x="517" 
d="M46 145c0 103 83 165 216 165h88v22c0 60 -39 88 -96 88c-49 0 -82 -23 -97 -68l-92 21c16 83 92 139 189 139c125 0 201 -70 201 -201v-311h-85l-14 68c-37 -51 -89 -76 -156 -76c-89 0 -154 54 -154 153zM350 211v13h-84c-72 0 -110 -26 -110 -78c0 -37 28 -62 69 -62
c61 0 125 45 125 127zM212 554l68 152h145l-135 -152h-78z" />
    <glyph glyph-name="abreve" unicode="&#x103;" horiz-adv-x="517" 
d="M46 145c0 103 83 165 216 165h88v22c0 60 -39 88 -96 88c-49 0 -82 -23 -97 -68l-92 21c16 83 92 139 189 139c125 0 201 -70 201 -201v-311h-85l-14 68c-37 -51 -89 -76 -156 -76c-89 0 -154 54 -154 153zM350 211v13h-84c-72 0 -110 -26 -110 -78c0 -37 28 -62 69 -62
c61 0 125 45 125 127zM141 700h79c0 -23 12 -37 35 -37s35 14 35 37h79c0 -64 -45 -109 -114 -109s-114 45 -114 109z" />
    <glyph glyph-name="acircumflex" unicode="&#xe2;" horiz-adv-x="517" 
d="M46 145c0 103 83 165 216 165h88v22c0 60 -39 88 -96 88c-49 0 -82 -23 -97 -68l-92 21c16 83 92 139 189 139c125 0 201 -70 201 -201v-311h-85l-14 68c-37 -51 -89 -76 -156 -76c-89 0 -154 54 -154 153zM350 211v13h-84c-72 0 -110 -26 -110 -78c0 -37 28 -62 69 -62
c61 0 125 45 125 127zM87 560l153 164h31l152 -164h-101l-67 72l-66 -72h-102z" />
    <glyph glyph-name="adieresis" unicode="&#xe4;" horiz-adv-x="517" 
d="M46 145c0 103 83 165 216 165h88v22c0 60 -39 88 -96 88c-49 0 -82 -23 -97 -68l-92 21c16 83 92 139 189 139c125 0 201 -70 201 -201v-311h-85l-14 68c-37 -51 -89 -76 -156 -76c-89 0 -154 54 -154 153zM350 211v13h-84c-72 0 -110 -26 -110 -78c0 -37 28 -62 69 -62
c61 0 125 45 125 127zM95 644c0 37 28 65 65 65s64 -28 64 -65c0 -36 -27 -64 -64 -64s-65 28 -65 64zM286 644c0 37 27 65 64 65s65 -28 65 -65c0 -36 -28 -64 -65 -64s-64 28 -64 64z" />
    <glyph glyph-name="agrave" unicode="&#xe0;" horiz-adv-x="517" 
d="M46 145c0 103 83 165 216 165h88v22c0 60 -39 88 -96 88c-49 0 -82 -23 -97 -68l-92 21c16 83 92 139 189 139c125 0 201 -70 201 -201v-311h-85l-14 68c-37 -51 -89 -76 -156 -76c-89 0 -154 54 -154 153zM350 211v13h-84c-72 0 -110 -26 -110 -78c0 -37 28 -62 69 -62
c61 0 125 45 125 127zM219 554l-136 152h146l68 -152h-78z" />
    <glyph glyph-name="amacron" unicode="&#x101;" horiz-adv-x="517" 
d="M46 145c0 103 83 165 216 165h88v22c0 60 -39 88 -96 88c-49 0 -82 -23 -97 -68l-92 21c16 83 92 139 189 139c125 0 201 -70 201 -201v-311h-85l-14 68c-37 -51 -89 -76 -156 -76c-89 0 -154 54 -154 153zM350 211v13h-84c-72 0 -110 -26 -110 -78c0 -37 28 -62 69 -62
c61 0 125 45 125 127zM125 597v85h260v-85h-260z" />
    <glyph glyph-name="aogonek" unicode="&#x105;" horiz-adv-x="517" 
d="M456 -97l19 -69c-20 -11 -35 -14 -62 -14c-55 0 -91 33 -91 86c0 36 23 71 59 94h-11l-14 68c-37 -51 -89 -76 -156 -76c-89 0 -154 54 -154 153c0 103 83 165 216 165h88v22c0 60 -39 88 -96 88c-49 0 -82 -23 -97 -68l-92 21c16 83 92 139 189 139
c125 0 201 -70 201 -201v-311c-38 -32 -57 -58 -57 -79c0 -17 11 -28 28 -28c9 0 19 3 30 10zM350 211v13h-84c-72 0 -110 -26 -110 -78c0 -37 28 -62 69 -62c61 0 125 45 125 127z" />
    <glyph glyph-name="aring" unicode="&#xe5;" horiz-adv-x="517" 
d="M46 145c0 103 83 165 216 165h88v22c0 60 -39 88 -96 88c-49 0 -82 -23 -97 -68l-92 21c16 83 92 139 189 139c125 0 201 -70 201 -201v-311h-85l-14 68c-37 -51 -89 -76 -156 -76c-89 0 -154 54 -154 153zM350 211v13h-84c-72 0 -110 -26 -110 -78c0 -37 28 -62 69 -62
c61 0 125 45 125 127zM151 654c0 57 44 101 103 101s104 -44 104 -101s-45 -99 -104 -99s-103 42 -103 99zM292 655c0 23 -15 38 -38 38c-21 0 -37 -17 -37 -38c0 -23 16 -38 37 -38c23 0 38 15 38 38z" />
    <glyph glyph-name="aringacute" unicode="&#x1fb;" horiz-adv-x="517" 
d="M46 145c0 103 83 165 216 165h88v22c0 60 -39 88 -96 88c-49 0 -82 -23 -97 -68l-92 21c16 83 92 139 189 139c125 0 201 -70 201 -201v-311h-85l-14 68c-37 -51 -89 -76 -156 -76c-89 0 -154 54 -154 153zM350 211v13h-84c-72 0 -110 -26 -110 -78c0 -37 28 -62 69 -62
c61 0 125 45 125 127zM151 654c0 57 44 101 103 101s104 -44 104 -101s-45 -99 -104 -99s-103 42 -103 99zM292 655c0 23 -15 38 -38 38c-21 0 -37 -17 -37 -38c0 -23 16 -38 37 -38c23 0 38 15 38 38zM212 790l68 152h145l-135 -152h-78z" />
    <glyph glyph-name="atilde" unicode="&#xe3;" horiz-adv-x="517" 
d="M46 145c0 103 83 165 216 165h88v22c0 60 -39 88 -96 88c-49 0 -82 -23 -97 -68l-92 21c16 83 92 139 189 139c125 0 201 -70 201 -201v-311h-85l-14 68c-37 -51 -89 -76 -156 -76c-89 0 -154 54 -154 153zM350 211v13h-84c-72 0 -110 -26 -110 -78c0 -37 28 -62 69 -62
c61 0 125 45 125 127zM129 573l-59 49c24 49 68 82 115 82c32 0 51 -8 78 -23c24 -12 35 -18 55 -18c22 0 43 14 63 42l59 -49c-24 -48 -69 -82 -116 -82c-32 0 -49 8 -77 23c-24 12 -35 18 -55 18c-22 0 -43 -14 -63 -42z" />
    <glyph glyph-name="ae" unicode="&#xe6;" horiz-adv-x="861" 
d="M46 145c0 103 86 165 219 165h85v22c0 61 -39 88 -96 88c-51 0 -83 -23 -97 -68l-92 21c16 84 90 139 189 139c72 0 130 -24 165 -72c43 48 99 72 168 72c150 0 230 -120 230 -244v-44h-357c3 -80 51 -140 131 -140c61 0 100 26 132 85l87 -32
c-44 -97 -112 -145 -223 -145c-92 0 -162 44 -199 112c-42 -75 -105 -112 -188 -112c-89 0 -154 54 -154 153zM463 310h246c-12 65 -53 110 -122 110c-67 0 -112 -47 -124 -110zM350 211v13h-84c-71 0 -110 -27 -110 -78c0 -36 25 -62 66 -62c63 0 128 45 128 127z" />
    <glyph glyph-name="aeacute" unicode="&#x1fd;" horiz-adv-x="861" 
d="M46 145c0 103 86 165 219 165h85v22c0 61 -39 88 -96 88c-51 0 -83 -23 -97 -68l-92 21c16 84 90 139 189 139c72 0 130 -24 165 -72c43 48 99 72 168 72c150 0 230 -120 230 -244v-44h-357c3 -80 51 -140 131 -140c61 0 100 26 132 85l87 -32
c-44 -97 -112 -145 -223 -145c-92 0 -162 44 -199 112c-42 -75 -105 -112 -188 -112c-89 0 -154 54 -154 153zM463 310h246c-12 65 -53 110 -122 110c-67 0 -112 -47 -124 -110zM350 211v13h-84c-71 0 -110 -27 -110 -78c0 -36 25 -62 66 -62c63 0 128 45 128 127zM382 554
l68 152h145l-135 -152h-78z" />
    <glyph glyph-name="b" unicode="b" horiz-adv-x="583" 
d="M178 56v-30v-26h-106v708h106v-227v-30c27 35 80 61 133 61c147 0 228 -103 228 -260s-81 -260 -228 -260c-59 0 -114 31 -133 64zM429 252c0 103 -52 168 -131 168c-77 0 -130 -65 -130 -168s53 -168 130 -168c79 0 131 65 131 168z" />
    <glyph glyph-name="c" unicode="c" horiz-adv-x="542" 
d="M44 252c0 143 83 260 239 260c108 0 184 -49 221 -142l-94 -39c-27 59 -67 89 -127 89c-84 0 -129 -68 -129 -168s45 -168 129 -168c60 0 99 30 127 89l94 -38c-37 -93 -113 -143 -221 -143c-156 0 -239 117 -239 260z" />
    <glyph glyph-name="cacute" unicode="&#x107;" horiz-adv-x="542" 
d="M44 252c0 143 83 260 239 260c108 0 184 -49 221 -142l-94 -39c-27 59 -67 89 -127 89c-84 0 -129 -68 -129 -168s45 -168 129 -168c60 0 99 30 127 89l94 -38c-37 -93 -113 -143 -221 -143c-156 0 -239 117 -239 260zM241 554l68 152h145l-135 -152h-78z" />
    <glyph glyph-name="ccaron" unicode="&#x10d;" horiz-adv-x="542" 
d="M44 252c0 143 83 260 239 260c108 0 184 -49 221 -142l-94 -39c-27 59 -67 89 -127 89c-84 0 -129 -68 -129 -168s45 -168 129 -168c60 0 99 30 127 89l94 -38c-37 -93 -113 -143 -221 -143c-156 0 -239 117 -239 260zM269 560l-153 164h102l66 -72l67 72h101l-152 -164
h-31z" />
    <glyph glyph-name="ccedilla" unicode="&#xe7;" horiz-adv-x="542" 
d="M44 252c0 143 83 260 239 260c108 0 184 -49 221 -142l-94 -39c-27 59 -67 89 -127 89c-84 0 -129 -68 -129 -168s45 -168 129 -168c60 0 99 30 127 89l94 -38c-37 -93 -113 -143 -221 -143c-156 0 -239 117 -239 260zM249 -250l-125 55l128 135h79z" />
    <glyph glyph-name="ccircumflex" unicode="&#x109;" horiz-adv-x="542" 
d="M44 252c0 143 83 260 239 260c108 0 184 -49 221 -142l-94 -39c-27 59 -67 89 -127 89c-84 0 -129 -68 -129 -168s45 -168 129 -168c60 0 99 30 127 89l94 -38c-37 -93 -113 -143 -221 -143c-156 0 -239 117 -239 260zM116 560l153 164h31l152 -164h-101l-67 72l-66 -72
h-102z" />
    <glyph glyph-name="cdotaccent" unicode="&#x10b;" horiz-adv-x="542" 
d="M44 252c0 143 83 260 239 260c108 0 184 -49 221 -142l-94 -39c-27 59 -67 89 -127 89c-84 0 -129 -68 -129 -168s45 -168 129 -168c60 0 99 30 127 89l94 -38c-37 -93 -113 -143 -221 -143c-156 0 -239 117 -239 260zM213 649c0 40 30 71 71 71s72 -31 72 -71
s-31 -71 -72 -71s-71 31 -71 71z" />
    <glyph glyph-name="d" unicode="d" horiz-adv-x="583" 
d="M44 252c0 78 19 141 58 188c39 48 93 72 163 72c60 0 112 -25 140 -61v30v227h106v-708h-106v28v30c-20 -35 -75 -66 -140 -66c-70 0 -124 24 -163 71c-39 48 -58 111 -58 189zM415 252c0 103 -51 168 -130 168c-77 0 -131 -65 -131 -168s54 -168 131 -168
c79 0 130 65 130 168z" />
    <glyph glyph-name="eth" unicode="&#xf0;" horiz-adv-x="575" 
d="M44 252c0 145 90 260 243 260c36 0 73 -12 98 -31c-18 39 -51 76 -98 111l-35 -53l-65 46l33 49c-28 15 -56 29 -84 40l52 76c27 -12 55 -26 83 -41l35 50l65 -45l-33 -49c131 -93 193 -217 193 -396c0 -159 -90 -277 -244 -277c-153 0 -243 115 -243 260zM421 252
c0 47 -12 87 -35 119c-23 33 -56 49 -99 49c-42 0 -75 -16 -98 -49c-23 -32 -35 -72 -35 -119s12 -87 35 -120c23 -32 56 -48 98 -48c43 0 76 16 99 48c23 33 35 73 35 120z" />
    <glyph glyph-name="dcaron" unicode="&#x10f;" horiz-adv-x="724" 
d="M44 252c0 78 19 141 58 188c39 48 93 72 163 72c60 0 112 -25 140 -61v30v227h106v-708h-106v28v30c-20 -35 -75 -66 -140 -66c-70 0 -124 24 -163 71c-39 48 -58 111 -58 189zM415 252c0 103 -51 168 -130 168c-77 0 -131 -65 -131 -168s54 -168 131 -168
c79 0 130 65 130 168zM578 542l27 179h118l-77 -179h-68z" />
    <glyph glyph-name="dslash" unicode="&#x111;" horiz-adv-x="583" 
d="M572 647v-82h-61v-565h-106v28v30c-20 -35 -75 -66 -140 -66c-70 0 -124 24 -163 71c-39 48 -58 111 -58 189s19 141 58 188c39 48 93 72 163 72c60 0 112 -25 140 -61v30v84h-129v82h129v61h106v-61h61zM415 252c0 103 -51 168 -130 168c-77 0 -131 -65 -131 -168
s54 -168 131 -168c79 0 130 65 130 168z" />
    <glyph glyph-name="e" unicode="e" horiz-adv-x="555" 
d="M511 268v-44h-359c9 -88 58 -140 133 -140c61 0 99 27 132 87l87 -34c-44 -97 -113 -145 -224 -145c-155 0 -236 126 -236 260s81 260 236 260c151 0 231 -120 231 -244zM157 310h246c-12 65 -52 110 -123 110c-60 0 -107 -39 -123 -110z" />
    <glyph glyph-name="eacute" unicode="&#xe9;" horiz-adv-x="555" 
d="M511 268v-44h-359c9 -88 58 -140 133 -140c61 0 99 27 132 87l87 -34c-44 -97 -113 -145 -224 -145c-155 0 -236 126 -236 260s81 260 236 260c151 0 231 -120 231 -244zM157 310h246c-12 65 -52 110 -123 110c-60 0 -107 -39 -123 -110zM239 554l68 152h145l-135 -152
h-78z" />
    <glyph glyph-name="ebreve" unicode="&#x115;" horiz-adv-x="555" 
d="M511 268v-44h-359c9 -88 58 -140 133 -140c61 0 99 27 132 87l87 -34c-44 -97 -113 -145 -224 -145c-155 0 -236 126 -236 260s81 260 236 260c151 0 231 -120 231 -244zM157 310h246c-12 65 -52 110 -123 110c-60 0 -107 -39 -123 -110zM167 700h79c0 -23 12 -37 35 -37
s35 14 35 37h79c0 -64 -45 -109 -114 -109s-114 45 -114 109z" />
    <glyph glyph-name="ecaron" unicode="&#x11b;" horiz-adv-x="555" 
d="M511 268v-44h-359c9 -88 58 -140 133 -140c61 0 99 27 132 87l87 -34c-44 -97 -113 -145 -224 -145c-155 0 -236 126 -236 260s81 260 236 260c151 0 231 -120 231 -244zM157 310h246c-12 65 -52 110 -123 110c-60 0 -107 -39 -123 -110zM266 560l-153 164h102l66 -72
l67 72h101l-152 -164h-31z" />
    <glyph glyph-name="ecircumflex" unicode="&#xea;" horiz-adv-x="555" 
d="M511 268v-44h-359c9 -88 58 -140 133 -140c61 0 99 27 132 87l87 -34c-44 -97 -113 -145 -224 -145c-155 0 -236 126 -236 260s81 260 236 260c151 0 231 -120 231 -244zM157 310h246c-12 65 -52 110 -123 110c-60 0 -107 -39 -123 -110zM113 560l153 164h31l152 -164
h-101l-67 72l-66 -72h-102z" />
    <glyph glyph-name="edieresis" unicode="&#xeb;" horiz-adv-x="555" 
d="M511 268v-44h-359c9 -88 58 -140 133 -140c61 0 99 27 132 87l87 -34c-44 -97 -113 -145 -224 -145c-155 0 -236 126 -236 260s81 260 236 260c151 0 231 -120 231 -244zM157 310h246c-12 65 -52 110 -123 110c-60 0 -107 -39 -123 -110zM121 644c0 37 28 65 65 65
s64 -28 64 -65c0 -36 -27 -64 -64 -64s-65 28 -65 64zM312 644c0 37 27 65 64 65s65 -28 65 -65c0 -36 -28 -64 -65 -64s-64 28 -64 64z" />
    <glyph glyph-name="edotaccent" unicode="&#x117;" horiz-adv-x="555" 
d="M511 268v-44h-359c9 -88 58 -140 133 -140c61 0 99 27 132 87l87 -34c-44 -97 -113 -145 -224 -145c-155 0 -236 126 -236 260s81 260 236 260c151 0 231 -120 231 -244zM157 310h246c-12 65 -52 110 -123 110c-60 0 -107 -39 -123 -110zM210 649c0 40 30 71 71 71
s72 -31 72 -71s-31 -71 -72 -71s-71 31 -71 71z" />
    <glyph glyph-name="egrave" unicode="&#xe8;" horiz-adv-x="555" 
d="M511 268v-44h-359c9 -88 58 -140 133 -140c61 0 99 27 132 87l87 -34c-44 -97 -113 -145 -224 -145c-155 0 -236 126 -236 260s81 260 236 260c151 0 231 -120 231 -244zM157 310h246c-12 65 -52 110 -123 110c-60 0 -107 -39 -123 -110zM245 554l-136 152h146l68 -152
h-78z" />
    <glyph glyph-name="emacron" unicode="&#x113;" horiz-adv-x="555" 
d="M511 268v-44h-359c9 -88 58 -140 133 -140c61 0 99 27 132 87l87 -34c-44 -97 -113 -145 -224 -145c-155 0 -236 126 -236 260s81 260 236 260c151 0 231 -120 231 -244zM157 310h246c-12 65 -52 110 -123 110c-60 0 -107 -39 -123 -110zM151 597v85h260v-85h-260z" />
    <glyph glyph-name="eogonek" unicode="&#x119;" horiz-adv-x="555" 
d="M511 268v-44h-359c9 -88 58 -140 133 -140c61 0 99 27 132 87l87 -34c-33 -75 -82 -121 -153 -137c-39 -32 -58 -58 -58 -79c0 -17 11 -28 28 -28c10 0 20 3 30 10l19 -69c-19 -11 -36 -14 -61 -14c-56 0 -92 33 -92 86c0 32 17 64 45 87c-143 8 -218 132 -218 259
c0 134 81 260 236 260c151 0 231 -120 231 -244zM157 310h246c-12 65 -52 110 -123 110c-60 0 -107 -39 -123 -110z" />
    <glyph glyph-name="f" unicode="f" horiz-adv-x="334" 
d="M79 0v412h-69v92h69v28c0 117 63 176 168 176c35 0 63 -6 84 -18l-23 -87c-19 9 -38 13 -57 13c-45 0 -67 -25 -67 -75v-37h111v-92h-111v-412h-105z" />
    <glyph glyph-name="g" unicode="g" horiz-adv-x="501" 
d="M34 -46c0 43 16 78 44 102c-20 19 -30 45 -30 79c0 44 23 80 62 101c-24 31 -36 66 -36 106c0 103 80 170 181 170c33 0 63 -7 91 -22l93 50l43 -73l-71 -37c17 -26 25 -55 25 -88c0 -103 -80 -168 -181 -168c-29 0 -56 5 -80 15c-19 -10 -29 -24 -29 -43
c0 -27 20 -41 52 -41h111c104 0 169 -50 169 -143c0 -58 -21 -101 -64 -130s-95 -44 -158 -44c-133 0 -222 61 -222 166zM336 342c0 51 -34 84 -81 84s-81 -33 -81 -84c0 -49 34 -82 81 -82s81 33 81 82zM373 -46c0 45 -31 62 -86 62h-78c-21 0 -40 1 -56 4
c-14 -14 -21 -34 -21 -60c0 -52 47 -82 124 -82c72 0 117 27 117 76z" />
    <glyph glyph-name="gbreve" unicode="&#x11f;" horiz-adv-x="501" 
d="M34 -46c0 43 16 78 44 102c-20 19 -30 45 -30 79c0 44 23 80 62 101c-24 31 -36 66 -36 106c0 103 80 170 181 170c33 0 63 -7 91 -22l93 50l43 -73l-71 -37c17 -26 25 -55 25 -88c0 -103 -80 -168 -181 -168c-29 0 -56 5 -80 15c-19 -10 -29 -24 -29 -43
c0 -27 20 -41 52 -41h111c104 0 169 -50 169 -143c0 -58 -21 -101 -64 -130s-95 -44 -158 -44c-133 0 -222 61 -222 166zM336 342c0 51 -34 84 -81 84s-81 -33 -81 -84c0 -49 34 -82 81 -82s81 33 81 82zM373 -46c0 45 -31 62 -86 62h-78c-21 0 -40 1 -56 4
c-14 -14 -21 -34 -21 -60c0 -52 47 -82 124 -82c72 0 117 27 117 76zM142 700h79c0 -23 12 -37 35 -37s35 14 35 37h79c0 -64 -45 -109 -114 -109s-114 45 -114 109z" />
    <glyph glyph-name="gcircumflex" unicode="&#x11d;" horiz-adv-x="501" 
d="M34 -46c0 43 16 78 44 102c-20 19 -30 45 -30 79c0 44 23 80 62 101c-24 31 -36 66 -36 106c0 103 80 170 181 170c33 0 63 -7 91 -22l93 50l43 -73l-71 -37c17 -26 25 -55 25 -88c0 -103 -80 -168 -181 -168c-29 0 -56 5 -80 15c-19 -10 -29 -24 -29 -43
c0 -27 20 -41 52 -41h111c104 0 169 -50 169 -143c0 -58 -21 -101 -64 -130s-95 -44 -158 -44c-133 0 -222 61 -222 166zM336 342c0 51 -34 84 -81 84s-81 -33 -81 -84c0 -49 34 -82 81 -82s81 33 81 82zM373 -46c0 45 -31 62 -86 62h-78c-21 0 -40 1 -56 4
c-14 -14 -21 -34 -21 -60c0 -52 47 -82 124 -82c72 0 117 27 117 76zM88 560l153 164h31l152 -164h-101l-67 72l-66 -72h-102z" />
    <glyph glyph-name="uni0123" unicode="&#x123;" horiz-adv-x="501" 
d="M34 -46c0 43 16 78 44 102c-20 19 -30 45 -30 79c0 44 23 80 62 101c-24 31 -36 66 -36 106c0 103 80 170 181 170c33 0 63 -7 91 -22l93 50l43 -73l-71 -37c17 -26 25 -55 25 -88c0 -103 -80 -168 -181 -168c-29 0 -56 5 -80 15c-19 -10 -29 -24 -29 -43
c0 -27 20 -41 52 -41h111c104 0 169 -50 169 -143c0 -58 -21 -101 -64 -130s-95 -44 -158 -44c-133 0 -222 61 -222 166zM336 342c0 51 -34 84 -81 84s-81 -33 -81 -84c0 -49 34 -82 81 -82s81 33 81 82zM373 -46c0 45 -31 62 -86 62h-78c-21 0 -40 1 -56 4
c-14 -14 -21 -34 -21 -60c0 -52 47 -82 124 -82c72 0 117 27 117 76zM195 586l94 161h69l-42 -161h-121z" />
    <glyph glyph-name="gdotaccent" unicode="&#x121;" horiz-adv-x="501" 
d="M34 -46c0 43 16 78 44 102c-20 19 -30 45 -30 79c0 44 23 80 62 101c-24 31 -36 66 -36 106c0 103 80 170 181 170c33 0 63 -7 91 -22l93 50l43 -73l-71 -37c17 -26 25 -55 25 -88c0 -103 -80 -168 -181 -168c-29 0 -56 5 -80 15c-19 -10 -29 -24 -29 -43
c0 -27 20 -41 52 -41h111c104 0 169 -50 169 -143c0 -58 -21 -101 -64 -130s-95 -44 -158 -44c-133 0 -222 61 -222 166zM336 342c0 51 -34 84 -81 84s-81 -33 -81 -84c0 -49 34 -82 81 -82s81 33 81 82zM373 -46c0 45 -31 62 -86 62h-78c-21 0 -40 1 -56 4
c-14 -14 -21 -34 -21 -60c0 -52 47 -82 124 -82c72 0 117 27 117 76zM184 649c0 40 30 71 71 71s72 -31 72 -71s-31 -71 -72 -71s-71 31 -71 71z" />
    <glyph glyph-name="h" unicode="h" horiz-adv-x="573" 
d="M72 0v708h106v-294c33 61 95 98 166 98c99 0 157 -55 157 -156v-356h-106v323c0 65 -28 97 -84 97c-70 0 -133 -73 -133 -206v-214h-106z" />
    <glyph glyph-name="hbar" unicode="&#x127;" horiz-adv-x="573" 
d="M501 356v-356h-106v323c0 65 -28 97 -84 97c-70 0 -133 -73 -133 -206v-214h-106v565h-61v82h61v61h106v-61h129v-82h-129v-151c33 61 95 98 166 98c99 0 157 -55 157 -156z" />
    <glyph glyph-name="hcircumflex" unicode="&#x125;" horiz-adv-x="573" 
d="M72 0v708h106v-294c33 61 95 98 166 98c99 0 157 -55 157 -156v-356h-106v323c0 65 -28 97 -84 97c-70 0 -133 -73 -133 -206v-214h-106zM70 756l153 164h31l152 -164h-101l-67 72l-66 -72h-102z" />
    <glyph glyph-name="i" unicode="i" horiz-adv-x="250" 
d="M72 0v504h106v-504h-106zM54 649c0 40 30 71 71 71s72 -31 72 -71s-31 -71 -72 -71s-71 31 -71 71z" />
    <glyph glyph-name="dotlessi" unicode="&#x131;" horiz-adv-x="250" 
d="M72 0v504h106v-504h-106z" />
    <glyph glyph-name="iacute" unicode="&#xed;" horiz-adv-x="250" 
d="M72 0v504h106v-504h-106zM83 554l68 152h145l-135 -152h-78z" />
    <glyph glyph-name="ibreve" unicode="&#x12d;" horiz-adv-x="250" 
d="M72 0v504h106v-504h-106zM11 700h79c0 -23 12 -37 35 -37s35 14 35 37h79c0 -64 -45 -109 -114 -109s-114 45 -114 109z" />
    <glyph glyph-name="icircumflex" unicode="&#xee;" horiz-adv-x="250" 
d="M72 0v504h106v-504h-106zM-43 560l153 164h31l152 -164h-101l-67 72l-66 -72h-102z" />
    <glyph glyph-name="idieresis" unicode="&#xef;" horiz-adv-x="250" 
d="M72 0v504h106v-504h-106zM-35 644c0 37 28 65 65 65s64 -28 64 -65c0 -36 -27 -64 -64 -64s-65 28 -65 64zM156 644c0 37 27 65 64 65s65 -28 65 -65c0 -36 -28 -64 -65 -64s-64 28 -64 64z" />
    <glyph glyph-name="i.loclTRK" horiz-adv-x="250" 
d="M72 0v504h106v-504h-106zM54 649c0 40 30 71 71 71s72 -31 72 -71s-31 -71 -72 -71s-71 31 -71 71z" />
    <glyph glyph-name="igrave" unicode="&#xec;" horiz-adv-x="250" 
d="M72 0v504h106v-504h-106zM89 554l-136 152h146l68 -152h-78z" />
    <glyph glyph-name="ij" unicode="&#x133;" horiz-adv-x="500" 
d="M72 0v504h106v-504h-106zM54 649c0 40 30 71 71 71s72 -31 72 -71s-31 -71 -72 -71s-71 31 -71 71zM243 -212l-26 94c72 19 105 52 105 132v490h106v-483c0 -136 -60 -205 -185 -233zM304 649c0 40 30 71 71 71s72 -31 72 -71s-31 -71 -72 -71s-71 31 -71 71z" />
    <glyph glyph-name="imacron" unicode="&#x12b;" horiz-adv-x="250" 
d="M72 0v504h106v-504h-106zM-5 597v85h260v-85h-260z" />
    <glyph glyph-name="iogonek" unicode="&#x12f;" horiz-adv-x="250" 
d="M72 0v504h106v-504h-106zM54 649c0 40 30 71 71 71s72 -31 72 -71s-31 -71 -72 -71s-71 31 -71 71zM44 -94c0 36 22 73 55 94h79c-38 -32 -57 -58 -57 -79c0 -17 11 -28 28 -28c9 0 19 3 29 10l19 -69c-17 -9 -37 -14 -61 -14c-56 0 -92 33 -92 86z" />
    <glyph glyph-name="itilde" unicode="&#x129;" horiz-adv-x="250" 
d="M72 0v504h106v-504h-106zM-1 573l-59 49c24 49 68 82 115 82c32 0 51 -8 78 -23c24 -12 35 -18 55 -18c22 0 43 14 63 42l59 -49c-24 -48 -69 -82 -116 -82c-32 0 -49 8 -77 23c-24 12 -35 18 -55 18c-22 0 -43 -14 -63 -42z" />
    <glyph glyph-name="j" unicode="j" horiz-adv-x="250" 
d="M-7 -212l-26 94c72 19 105 52 105 132v490h106v-483c0 -136 -60 -205 -185 -233zM54 649c0 40 30 71 71 71s72 -31 72 -71s-31 -71 -72 -71s-71 31 -71 71z" />
    <glyph glyph-name="uni0237" unicode="&#x237;" horiz-adv-x="250" 
d="M-7 -212l-26 94c72 19 105 52 105 132v490h106v-483c0 -136 -60 -205 -185 -233z" />
    <glyph glyph-name="jcircumflex" unicode="&#x135;" horiz-adv-x="250" 
d="M-7 -212l-26 94c72 19 105 52 105 132v490h106v-483c0 -136 -60 -205 -185 -233zM-43 560l153 164h31l152 -164h-101l-67 72l-66 -72h-102z" />
    <glyph glyph-name="k" unicode="k" horiz-adv-x="509" 
d="M72 0v708h106v-409l178 205h130l-206 -232l221 -272h-130l-193 246v-246h-106z" />
    <glyph glyph-name="uni0137" unicode="&#x137;" horiz-adv-x="509" 
d="M72 0v708h106v-409l178 205h130l-206 -232l221 -272h-130l-193 246v-246h-106zM162 -231l43 179h133l-118 -179h-58z" />
    <glyph glyph-name="kgreenlandic" unicode="&#x138;" horiz-adv-x="509" 
d="M72 0v504h106v-205l178 205h130l-206 -232l221 -272h-130l-193 246v-246h-106z" />
    <glyph glyph-name="l" unicode="l" horiz-adv-x="250" 
d="M72 0v708h106v-708h-106z" />
    <glyph glyph-name="lacute" unicode="&#x13a;" horiz-adv-x="250" 
d="M72 0v708h106v-708h-106zM83 750l68 152h145l-135 -152h-78z" />
    <glyph glyph-name="lcaron" unicode="&#x13e;" horiz-adv-x="384" 
d="M72 0v708h106v-708h-106zM239 542l27 179h118l-77 -179h-68z" />
    <glyph glyph-name="uni013C" unicode="&#x13c;" horiz-adv-x="250" 
d="M72 0v708h106v-708h-106zM16 -231l43 179h133l-118 -179h-58z" />
    <glyph glyph-name="ldot" unicode="&#x140;" horiz-adv-x="466" 
d="M72 0v708h106v-708h-106zM289 363c0 43 30 74 73 74s75 -31 75 -74s-32 -74 -75 -74c-41 0 -73 31 -73 74z" />
    <glyph glyph-name="lslash" unicode="&#x142;" horiz-adv-x="250" 
d="M281 382l-103 -56v-326h-106v268l-57 -31l-45 81l102 56v334h106v-276l57 31z" />
    <glyph glyph-name="m" unicode="m" horiz-adv-x="844" 
d="M72 0v504h106v-88c38 64 88 96 149 96c69 0 120 -35 140 -106c36 65 94 106 157 106c96 0 148 -57 148 -158v-354h-105v337c0 57 -23 83 -71 83c-68 0 -121 -77 -121 -216v-204h-105v337c0 57 -23 83 -71 83c-71 0 -121 -81 -121 -224v-196h-106z" />
    <glyph glyph-name="n" unicode="n" horiz-adv-x="566" 
d="M72 0v504h106v-88c37 59 96 96 161 96c93 0 155 -56 155 -156v-356h-105v328c0 61 -30 92 -82 92c-70 0 -129 -80 -129 -213v-207h-106z" />
    <glyph glyph-name="nacute" unicode="&#x144;" horiz-adv-x="566" 
d="M72 0v504h106v-88c37 59 96 96 161 96c93 0 155 -56 155 -156v-356h-105v328c0 61 -30 92 -82 92c-70 0 -129 -80 -129 -213v-207h-106zM251 554l68 152h145l-135 -152h-78z" />
    <glyph glyph-name="ncaron" unicode="&#x148;" horiz-adv-x="566" 
d="M72 0v504h106v-88c37 59 96 96 161 96c93 0 155 -56 155 -156v-356h-105v328c0 61 -30 92 -82 92c-70 0 -129 -80 -129 -213v-207h-106zM279 560l-153 164h102l66 -72l67 72h101l-152 -164h-31z" />
    <glyph glyph-name="uni0146" unicode="&#x146;" horiz-adv-x="566" 
d="M72 0v504h106v-88c37 59 96 96 161 96c93 0 155 -56 155 -156v-356h-105v328c0 61 -30 92 -82 92c-70 0 -129 -80 -129 -213v-207h-106zM173 -231l43 179h133l-118 -179h-58z" />
    <glyph glyph-name="eng" unicode="&#x14b;" horiz-adv-x="566" 
d="M309 -212l-25 94c72 19 105 52 105 132v314c0 61 -30 92 -82 92c-70 0 -129 -80 -129 -213v-207h-106v504h106v-88c37 59 96 96 161 96c93 0 155 -56 155 -156v-335c0 -136 -60 -205 -185 -233z" />
    <glyph glyph-name="ntilde" unicode="&#xf1;" horiz-adv-x="566" 
d="M72 0v504h106v-88c37 59 96 96 161 96c93 0 155 -56 155 -156v-356h-105v328c0 61 -30 92 -82 92c-70 0 -129 -80 -129 -213v-207h-106zM168 573l-59 49c24 49 68 82 115 82c32 0 51 -8 78 -23c24 -12 35 -18 55 -18c22 0 43 14 63 42l59 -49c-24 -48 -69 -82 -116 -82
c-32 0 -49 8 -77 23c-24 12 -35 18 -55 18c-22 0 -43 -14 -63 -42z" />
    <glyph glyph-name="o" unicode="o" horiz-adv-x="588" 
d="M44 252c0 144 95 260 250 260c154 0 250 -116 250 -260s-96 -260 -250 -260c-155 0 -250 116 -250 260zM433 252c0 47 -12 86 -37 119s-59 49 -102 49s-78 -16 -103 -49s-37 -72 -37 -119s12 -86 37 -119s60 -49 103 -49s77 16 102 49s37 72 37 119z" />
    <glyph glyph-name="oacute" unicode="&#xf3;" horiz-adv-x="588" 
d="M44 252c0 144 95 260 250 260c154 0 250 -116 250 -260s-96 -260 -250 -260c-155 0 -250 116 -250 260zM433 252c0 47 -12 86 -37 119s-59 49 -102 49s-78 -16 -103 -49s-37 -72 -37 -119s12 -86 37 -119s60 -49 103 -49s77 16 102 49s37 72 37 119zM251 554l68 152h145
l-135 -152h-78z" />
    <glyph glyph-name="obreve" unicode="&#x14f;" horiz-adv-x="588" 
d="M44 252c0 144 95 260 250 260c154 0 250 -116 250 -260s-96 -260 -250 -260c-155 0 -250 116 -250 260zM433 252c0 47 -12 86 -37 119s-59 49 -102 49s-78 -16 -103 -49s-37 -72 -37 -119s12 -86 37 -119s60 -49 103 -49s77 16 102 49s37 72 37 119zM180 700h79
c0 -23 12 -37 35 -37s35 14 35 37h79c0 -64 -45 -109 -114 -109s-114 45 -114 109z" />
    <glyph glyph-name="ocircumflex" unicode="&#xf4;" horiz-adv-x="588" 
d="M44 252c0 144 95 260 250 260c154 0 250 -116 250 -260s-96 -260 -250 -260c-155 0 -250 116 -250 260zM433 252c0 47 -12 86 -37 119s-59 49 -102 49s-78 -16 -103 -49s-37 -72 -37 -119s12 -86 37 -119s60 -49 103 -49s77 16 102 49s37 72 37 119zM126 560l153 164h31
l152 -164h-101l-67 72l-66 -72h-102z" />
    <glyph glyph-name="odieresis" unicode="&#xf6;" horiz-adv-x="588" 
d="M44 252c0 144 95 260 250 260c154 0 250 -116 250 -260s-96 -260 -250 -260c-155 0 -250 116 -250 260zM433 252c0 47 -12 86 -37 119s-59 49 -102 49s-78 -16 -103 -49s-37 -72 -37 -119s12 -86 37 -119s60 -49 103 -49s77 16 102 49s37 72 37 119zM134 644
c0 37 28 65 65 65s64 -28 64 -65c0 -36 -27 -64 -64 -64s-65 28 -65 64zM325 644c0 37 27 65 64 65s65 -28 65 -65c0 -36 -28 -64 -65 -64s-64 28 -64 64z" />
    <glyph glyph-name="ograve" unicode="&#xf2;" horiz-adv-x="588" 
d="M44 252c0 144 95 260 250 260c154 0 250 -116 250 -260s-96 -260 -250 -260c-155 0 -250 116 -250 260zM433 252c0 47 -12 86 -37 119s-59 49 -102 49s-78 -16 -103 -49s-37 -72 -37 -119s12 -86 37 -119s60 -49 103 -49s77 16 102 49s37 72 37 119zM258 554l-136 152
h146l68 -152h-78z" />
    <glyph glyph-name="ohungarumlaut" unicode="&#x151;" horiz-adv-x="588" 
d="M44 252c0 144 95 260 250 260c154 0 250 -116 250 -260s-96 -260 -250 -260c-155 0 -250 116 -250 260zM433 252c0 47 -12 86 -37 119s-59 49 -102 49s-78 -16 -103 -49s-37 -72 -37 -119s12 -86 37 -119s60 -49 103 -49s77 16 102 49s37 72 37 119zM136 560l66 146h145
l-131 -146h-80zM324 560l65 146h146l-131 -146h-80z" />
    <glyph glyph-name="omacron" unicode="&#x14d;" horiz-adv-x="588" 
d="M44 252c0 144 95 260 250 260c154 0 250 -116 250 -260s-96 -260 -250 -260c-155 0 -250 116 -250 260zM433 252c0 47 -12 86 -37 119s-59 49 -102 49s-78 -16 -103 -49s-37 -72 -37 -119s12 -86 37 -119s60 -49 103 -49s77 16 102 49s37 72 37 119zM164 597v85h260v-85
h-260z" />
    <glyph glyph-name="oslash" unicode="&#xf8;" horiz-adv-x="588" 
d="M549 502l-61 -78c36 -47 56 -107 56 -172c0 -144 -96 -260 -250 -260c-47 0 -88 10 -123 29l-58 -74l-74 55l61 78c-36 47 -56 107 -56 172c0 144 95 260 250 260c45 0 86 -10 123 -29l58 74zM170 169l186 236c-18 10 -39 15 -62 15c-43 0 -78 -16 -103 -49
s-37 -72 -37 -119c0 -29 5 -56 16 -83zM417 334l-185 -235c18 -10 39 -15 62 -15c43 0 77 16 102 49s37 72 37 119c0 31 -5 58 -16 82z" />
    <glyph glyph-name="otilde" unicode="&#xf5;" horiz-adv-x="588" 
d="M44 252c0 144 95 260 250 260c154 0 250 -116 250 -260s-96 -260 -250 -260c-155 0 -250 116 -250 260zM433 252c0 47 -12 86 -37 119s-59 49 -102 49s-78 -16 -103 -49s-37 -72 -37 -119s12 -86 37 -119s60 -49 103 -49s77 16 102 49s37 72 37 119zM168 573l-59 49
c24 49 68 82 115 82c32 0 51 -8 78 -23c24 -12 35 -18 55 -18c22 0 43 14 63 42l59 -49c-24 -48 -69 -82 -116 -82c-32 0 -49 8 -77 23c-24 12 -35 18 -55 18c-22 0 -43 -14 -63 -42z" />
    <glyph glyph-name="oe" unicode="&#x153;" horiz-adv-x="945" 
d="M44 252c0 144 95 260 250 260c81 0 149 -34 193 -90c41 56 103 90 183 90c151 0 231 -120 231 -244v-44h-357c3 -83 51 -140 131 -140c61 0 100 26 131 85l87 -32c-44 -97 -112 -145 -223 -145c-80 0 -144 34 -184 90c-44 -56 -111 -90 -192 -90
c-155 0 -250 116 -250 260zM433 252c0 90 -53 168 -139 168c-43 0 -78 -16 -103 -49s-37 -72 -37 -119s12 -86 37 -119s60 -49 103 -49s77 16 102 49s37 72 37 119zM547 310h246c-13 65 -54 110 -123 110c-65 0 -110 -47 -123 -110z" />
    <glyph glyph-name="p" unicode="p" horiz-adv-x="583" 
d="M72 -204v708h106v-28v-30c20 35 73 66 133 66c147 0 228 -103 228 -260s-81 -260 -228 -260c-52 0 -108 26 -133 62v-30v-228h-106zM429 252c0 103 -52 168 -131 168c-77 0 -130 -65 -130 -168s53 -168 130 -168c79 0 131 65 131 168z" />
    <glyph glyph-name="thorn" unicode="&#xfe;" horiz-adv-x="583" 
d="M72 -204v912h106v-231v-30c20 33 73 65 133 65c147 0 228 -103 228 -260s-81 -260 -228 -260c-52 0 -108 26 -133 62v-30v-228h-106zM429 252c0 103 -52 168 -131 168c-77 0 -130 -65 -130 -168s53 -168 130 -168c79 0 131 65 131 168z" />
    <glyph glyph-name="q" unicode="q" horiz-adv-x="583" 
d="M405 -204v228v30c-27 -36 -78 -62 -133 -62c-147 0 -228 103 -228 260s81 260 228 260c60 0 114 -31 133 -64v30v26h106v-708h-106zM415 252c0 103 -51 168 -130 168c-77 0 -131 -65 -131 -168s54 -168 131 -168c79 0 130 65 130 168z" />
    <glyph glyph-name="r" unicode="r" horiz-adv-x="406" 
d="M72 0v504h106v-84c33 60 88 92 149 92c19 0 41 -4 65 -12l-20 -98c-17 10 -36 15 -58 15c-79 0 -136 -76 -136 -233v-184h-106z" />
    <glyph glyph-name="racute" unicode="&#x155;" horiz-adv-x="406" 
d="M72 0v504h106v-84c33 60 88 92 149 92c19 0 41 -4 65 -12l-20 -98c-17 10 -36 15 -58 15c-79 0 -136 -76 -136 -233v-184h-106zM176 554l68 152h145l-135 -152h-78z" />
    <glyph glyph-name="rcaron" unicode="&#x159;" horiz-adv-x="406" 
d="M72 0v504h106v-84c33 60 88 92 149 92c19 0 41 -4 65 -12l-20 -98c-17 10 -36 15 -58 15c-79 0 -136 -76 -136 -233v-184h-106zM203 560l-153 164h102l66 -72l67 72h101l-152 -164h-31z" />
    <glyph glyph-name="uni0157" unicode="&#x157;" horiz-adv-x="406" 
d="M72 0v504h106v-84c33 60 88 92 149 92c19 0 41 -4 65 -12l-20 -98c-17 10 -36 15 -58 15c-79 0 -136 -76 -136 -233v-184h-106zM16 -231l43 179h133l-118 -179h-58z" />
    <glyph glyph-name="s" unicode="s" horiz-adv-x="438" 
d="M38 129l85 45c21 -60 58 -90 109 -90c39 0 67 22 67 61c0 35 -37 56 -106 83c-79 29 -122 71 -122 146c0 78 66 138 154 138c68 0 121 -28 152 -81l-65 -59c-21 32 -50 48 -86 48c-32 0 -56 -19 -56 -48s25 -48 106 -79c82 -29 123 -77 123 -142
c0 -97 -67 -159 -167 -159c-104 0 -173 61 -194 137z" />
    <glyph glyph-name="sacute" unicode="&#x15b;" horiz-adv-x="438" 
d="M38 129l85 45c21 -60 58 -90 109 -90c39 0 67 22 67 61c0 35 -37 56 -106 83c-79 29 -122 71 -122 146c0 78 66 138 154 138c68 0 121 -28 152 -81l-65 -59c-21 32 -50 48 -86 48c-32 0 -56 -19 -56 -48s25 -48 106 -79c82 -29 123 -77 123 -142
c0 -97 -67 -159 -167 -159c-104 0 -173 61 -194 137zM182 554l68 152h145l-135 -152h-78z" />
    <glyph glyph-name="scaron" unicode="&#x161;" horiz-adv-x="438" 
d="M38 129l85 45c21 -60 58 -90 109 -90c39 0 67 22 67 61c0 35 -37 56 -106 83c-79 29 -122 71 -122 146c0 78 66 138 154 138c68 0 121 -28 152 -81l-65 -59c-21 32 -50 48 -86 48c-32 0 -56 -19 -56 -48s25 -48 106 -79c82 -29 123 -77 123 -142
c0 -97 -67 -159 -167 -159c-104 0 -173 61 -194 137zM210 560l-153 164h102l66 -72l67 72h101l-152 -164h-31z" />
    <glyph glyph-name="scedilla" unicode="&#x15f;" horiz-adv-x="438" 
d="M38 129l85 45c21 -60 58 -90 109 -90c39 0 67 22 67 61c0 35 -37 56 -106 83c-79 29 -122 71 -122 146c0 78 66 138 154 138c68 0 121 -28 152 -81l-65 -59c-21 32 -50 48 -86 48c-32 0 -56 -19 -56 -48s25 -48 106 -79c82 -29 123 -77 123 -142
c0 -97 -67 -159 -167 -159c-104 0 -173 61 -194 137zM193 -250l-125 55l128 135h79z" />
    <glyph glyph-name="scircumflex" unicode="&#x15d;" horiz-adv-x="438" 
d="M38 129l85 45c21 -60 58 -90 109 -90c39 0 67 22 67 61c0 35 -37 56 -106 83c-79 29 -122 71 -122 146c0 78 66 138 154 138c68 0 121 -28 152 -81l-65 -59c-21 32 -50 48 -86 48c-32 0 -56 -19 -56 -48s25 -48 106 -79c82 -29 123 -77 123 -142
c0 -97 -67 -159 -167 -159c-104 0 -173 61 -194 137zM57 560l153 164h31l152 -164h-101l-67 72l-66 -72h-102z" />
    <glyph glyph-name="uni0219" unicode="&#x219;" horiz-adv-x="438" 
d="M38 129l85 45c21 -60 58 -90 109 -90c39 0 67 22 67 61c0 35 -37 56 -106 83c-79 29 -122 71 -122 146c0 78 66 138 154 138c68 0 121 -28 152 -81l-65 -59c-21 32 -50 48 -86 48c-32 0 -56 -19 -56 -48s25 -48 106 -79c82 -29 123 -77 123 -142
c0 -97 -67 -159 -167 -159c-104 0 -173 61 -194 137zM125 -231l43 179h133l-118 -179h-58z" />
    <glyph glyph-name="germandbls" unicode="&#xdf;" horiz-adv-x="574" 
d="M236 0v94c24 -6 46 -9 66 -9c81 0 119 46 119 122c0 85 -45 127 -136 127h-33v96h26c60 0 96 33 96 92c0 60 -34 94 -89 94c-59 0 -95 -41 -95 -118v-498h-103v334h-53v96h53v66c0 136 79 212 199 212c116 0 185 -70 185 -173c0 -71 -35 -122 -84 -138
c85 -27 137 -83 137 -191c0 -135 -81 -214 -214 -214c-29 0 -54 3 -74 8z" />
    <glyph glyph-name="t" unicode="t" horiz-adv-x="362" 
d="M91 168v244h-81v92h81v137l106 67v-204h134v-92h-134v-246c0 -59 23 -82 67 -82c20 0 38 4 53 13l25 -87c-24 -12 -52 -18 -83 -18c-105 0 -168 59 -168 176z" />
    <glyph glyph-name="tbar" unicode="&#x167;" horiz-adv-x="362" 
d="M317 97l25 -87c-24 -12 -52 -18 -83 -18c-105 0 -168 59 -168 176v66h-72v82h72v96h-81v92h81v137l106 67v-204h134v-92h-134v-96h118v-82h-118v-68c0 -59 23 -82 67 -82c20 0 38 4 53 13z" />
    <glyph glyph-name="tcaron" unicode="&#x165;" horiz-adv-x="362" 
d="M91 168v244h-81v92h81v137l106 67v-204h134v-92h-134v-246c0 -59 23 -82 67 -82c20 0 38 4 53 13l25 -87c-24 -12 -52 -18 -83 -18c-105 0 -168 59 -168 176zM264 542l27 179h118l-77 -179h-68z" />
    <glyph glyph-name="uni0163" unicode="&#x163;" horiz-adv-x="362" 
d="M91 168v244h-81v92h81v137l106 67v-204h134v-92h-134v-246c0 -59 23 -82 67 -82c20 0 38 4 53 13l25 -87c-24 -12 -52 -18 -83 -18c-105 0 -168 59 -168 176zM191 -250l-125 55l128 135h79z" />
    <glyph glyph-name="uni021B" unicode="&#x21b;" horiz-adv-x="362" 
d="M91 168v244h-81v92h81v137l106 67v-204h134v-92h-134v-246c0 -59 23 -82 67 -82c20 0 38 4 53 13l25 -87c-24 -12 -52 -18 -83 -18c-105 0 -168 59 -168 176zM123 -231l43 179h133l-118 -179h-58z" />
    <glyph glyph-name="u" unicode="u" horiz-adv-x="566" 
d="M72 148v356h106v-327c0 -63 29 -93 81 -93c72 0 130 80 130 213v207h105v-504h-105v88c-39 -59 -97 -96 -162 -96c-93 0 -155 56 -155 156z" />
    <glyph glyph-name="uacute" unicode="&#xfa;" horiz-adv-x="566" 
d="M72 148v356h106v-327c0 -63 29 -93 81 -93c72 0 130 80 130 213v207h105v-504h-105v88c-39 -59 -97 -96 -162 -96c-93 0 -155 56 -155 156zM240 554l68 152h145l-135 -152h-78z" />
    <glyph glyph-name="ubreve" unicode="&#x16d;" horiz-adv-x="566" 
d="M72 148v356h106v-327c0 -63 29 -93 81 -93c72 0 130 80 130 213v207h105v-504h-105v88c-39 -59 -97 -96 -162 -96c-93 0 -155 56 -155 156zM169 700h79c0 -23 12 -37 35 -37s35 14 35 37h79c0 -64 -45 -109 -114 -109s-114 45 -114 109z" />
    <glyph glyph-name="ucircumflex" unicode="&#xfb;" horiz-adv-x="566" 
d="M72 148v356h106v-327c0 -63 29 -93 81 -93c72 0 130 80 130 213v207h105v-504h-105v88c-39 -59 -97 -96 -162 -96c-93 0 -155 56 -155 156zM115 560l153 164h31l152 -164h-101l-67 72l-66 -72h-102z" />
    <glyph glyph-name="udieresis" unicode="&#xfc;" horiz-adv-x="566" 
d="M72 148v356h106v-327c0 -63 29 -93 81 -93c72 0 130 80 130 213v207h105v-504h-105v88c-39 -59 -97 -96 -162 -96c-93 0 -155 56 -155 156zM122 644c0 37 28 65 65 65s64 -28 64 -65c0 -36 -27 -64 -64 -64s-65 28 -65 64zM313 644c0 37 27 65 64 65s65 -28 65 -65
c0 -36 -28 -64 -65 -64s-64 28 -64 64z" />
    <glyph glyph-name="ugrave" unicode="&#xf9;" horiz-adv-x="566" 
d="M72 148v356h106v-327c0 -63 29 -93 81 -93c72 0 130 80 130 213v207h105v-504h-105v88c-39 -59 -97 -96 -162 -96c-93 0 -155 56 -155 156zM247 554l-136 152h146l68 -152h-78z" />
    <glyph glyph-name="uhungarumlaut" unicode="&#x171;" horiz-adv-x="566" 
d="M72 148v356h106v-327c0 -63 29 -93 81 -93c72 0 130 80 130 213v207h105v-504h-105v88c-39 -59 -97 -96 -162 -96c-93 0 -155 56 -155 156zM125 560l66 146h145l-131 -146h-80zM313 560l65 146h146l-131 -146h-80z" />
    <glyph glyph-name="umacron" unicode="&#x16b;" horiz-adv-x="566" 
d="M72 148v356h106v-327c0 -63 29 -93 81 -93c72 0 130 80 130 213v207h105v-504h-105v88c-39 -59 -97 -96 -162 -96c-93 0 -155 56 -155 156zM153 597v85h260v-85h-260z" />
    <glyph glyph-name="uogonek" unicode="&#x173;" horiz-adv-x="566" 
d="M494 -97l19 -69c-19 -11 -36 -14 -61 -14c-56 0 -92 33 -92 86c0 36 22 73 55 94h-26v88c-39 -59 -97 -96 -162 -96c-93 0 -155 56 -155 156v356h106v-327c0 -63 29 -93 81 -93c72 0 130 80 130 213v207h105v-504c-39 -32 -58 -58 -58 -79c0 -17 11 -28 28 -28
c10 0 20 3 30 10z" />
    <glyph glyph-name="uring" unicode="&#x16f;" horiz-adv-x="566" 
d="M72 148v356h106v-327c0 -63 29 -93 81 -93c72 0 130 80 130 213v207h105v-504h-105v88c-39 -59 -97 -96 -162 -96c-93 0 -155 56 -155 156zM179 654c0 57 44 101 103 101s104 -44 104 -101s-45 -99 -104 -99s-103 42 -103 99zM320 655c0 23 -15 38 -38 38
c-21 0 -37 -17 -37 -38c0 -23 16 -38 37 -38c23 0 38 15 38 38z" />
    <glyph glyph-name="utilde" unicode="&#x169;" horiz-adv-x="566" 
d="M72 148v356h106v-327c0 -63 29 -93 81 -93c72 0 130 80 130 213v207h105v-504h-105v88c-39 -59 -97 -96 -162 -96c-93 0 -155 56 -155 156zM157 573l-59 49c24 49 68 82 115 82c32 0 51 -8 78 -23c24 -12 35 -18 55 -18c22 0 43 14 63 42l59 -49
c-24 -48 -69 -82 -116 -82c-32 0 -49 8 -77 23c-24 12 -35 18 -55 18c-22 0 -43 -14 -63 -42z" />
    <glyph glyph-name="v" unicode="v" horiz-adv-x="468" 
d="M185 0l-171 504h107l113 -372l113 372h107l-171 -504h-98z" />
    <glyph glyph-name="w" unicode="w" horiz-adv-x="717" 
d="M170 0l-158 504h107l98 -367l92 367h99l92 -367l98 367h107l-158 -504h-96l-92 352l-93 -352h-96z" />
    <glyph glyph-name="wacute" unicode="&#x1e83;" horiz-adv-x="717" 
d="M170 0l-158 504h107l98 -367l92 367h99l92 -367l98 367h107l-158 -504h-96l-92 352l-93 -352h-96zM316 554l68 152h145l-135 -152h-78z" />
    <glyph glyph-name="wcircumflex" unicode="&#x175;" horiz-adv-x="717" 
d="M170 0l-158 504h107l98 -367l92 367h99l92 -367l98 367h107l-158 -504h-96l-92 352l-93 -352h-96zM190 560l153 164h31l152 -164h-101l-67 72l-66 -72h-102z" />
    <glyph glyph-name="wdieresis" unicode="&#x1e85;" horiz-adv-x="717" 
d="M170 0l-158 504h107l98 -367l92 367h99l92 -367l98 367h107l-158 -504h-96l-92 352l-93 -352h-96zM198 644c0 37 28 65 65 65s64 -28 64 -65c0 -36 -27 -64 -64 -64s-65 28 -65 64zM389 644c0 37 27 65 64 65s65 -28 65 -65c0 -36 -28 -64 -65 -64s-64 28 -64 64z" />
    <glyph glyph-name="wgrave" unicode="&#x1e81;" horiz-adv-x="717" 
d="M170 0l-158 504h107l98 -367l92 367h99l92 -367l98 367h107l-158 -504h-96l-92 352l-93 -352h-96zM323 554l-136 152h146l68 -152h-78z" />
    <glyph glyph-name="x" unicode="x" horiz-adv-x="464" 
d="M8 0l168 271l-145 233h112l89 -144l90 144h111l-144 -233l168 -271h-111l-114 181l-114 -181h-110z" />
    <glyph glyph-name="y" unicode="y" horiz-adv-x="479" 
d="M363 504h106l-257 -708h-102l82 229l-182 479h107l125 -338z" />
    <glyph glyph-name="yacute" unicode="&#xfd;" horiz-adv-x="479" 
d="M363 504h106l-257 -708h-102l82 229l-182 479h107l125 -338zM197 554l68 152h145l-135 -152h-78z" />
    <glyph glyph-name="ycircumflex" unicode="&#x177;" horiz-adv-x="479" 
d="M363 504h106l-257 -708h-102l82 229l-182 479h107l125 -338zM72 560l153 164h31l152 -164h-101l-67 72l-66 -72h-102z" />
    <glyph glyph-name="ydieresis" unicode="&#xff;" horiz-adv-x="479" 
d="M363 504h106l-257 -708h-102l82 229l-182 479h107l125 -338zM79 644c0 37 28 65 65 65s64 -28 64 -65c0 -36 -27 -64 -64 -64s-65 28 -65 64zM270 644c0 37 27 65 64 65s65 -28 65 -65c0 -36 -28 -64 -65 -64s-64 28 -64 64z" />
    <glyph glyph-name="ygrave" unicode="&#x1ef3;" horiz-adv-x="479" 
d="M363 504h106l-257 -708h-102l82 229l-182 479h107l125 -338zM204 554l-136 152h146l68 -152h-78z" />
    <glyph glyph-name="z" unicode="z" horiz-adv-x="446" 
d="M32 0v43l230 369h-215v92h347v-44l-227 -368h240v-92h-375z" />
    <glyph glyph-name="zacute" unicode="&#x17a;" horiz-adv-x="446" 
d="M32 0v43l230 369h-215v92h347v-44l-227 -368h240v-92h-375zM178 554l68 152h145l-135 -152h-78z" />
    <glyph glyph-name="zcaron" unicode="&#x17e;" horiz-adv-x="446" 
d="M32 0v43l230 369h-215v92h347v-44l-227 -368h240v-92h-375zM205 560l-153 164h102l66 -72l67 72h101l-152 -164h-31z" />
    <glyph glyph-name="zdotaccent" unicode="&#x17c;" horiz-adv-x="446" 
d="M32 0v43l230 369h-215v92h347v-44l-227 -368h240v-92h-375zM149 649c0 40 30 71 71 71s72 -31 72 -71s-31 -71 -72 -71s-71 31 -71 71z" />
    <glyph glyph-name="uni01B6" unicode="&#x1b6;" horiz-adv-x="446" 
d="M32 0v43l112 180h-85v82h135l68 107h-215v92h347v-44l-96 -155h75v-82h-124l-82 -131h240v-92h-375z" />
    <glyph glyph-name="a.ss01" horiz-adv-x="583" 
d="M44 252c0 78 19 141 58 188c39 48 93 72 163 72c60 0 112 -25 140 -61v30v23h106v-504h-106v28v30c-20 -35 -75 -66 -140 -66c-70 0 -124 24 -163 71c-39 48 -58 111 -58 189zM415 252c0 103 -51 168 -130 168c-77 0 -131 -65 -131 -168s54 -168 131 -168
c79 0 130 65 130 168z" />
    <glyph glyph-name="aacute.ss01" horiz-adv-x="583" 
d="M44 252c0 78 19 141 58 188c39 48 93 72 163 72c60 0 112 -25 140 -61v30v23h106v-504h-106v28v30c-20 -35 -75 -66 -140 -66c-70 0 -124 24 -163 71c-39 48 -58 111 -58 189zM415 252c0 103 -51 168 -130 168c-77 0 -131 -65 -131 -168s54 -168 131 -168
c79 0 130 65 130 168zM236 554l68 152h145l-135 -152h-78z" />
    <glyph glyph-name="abreve.ss01" horiz-adv-x="583" 
d="M44 252c0 78 19 141 58 188c39 48 93 72 163 72c60 0 112 -25 140 -61v30v23h106v-504h-106v28v30c-20 -35 -75 -66 -140 -66c-70 0 -124 24 -163 71c-39 48 -58 111 -58 189zM415 252c0 103 -51 168 -130 168c-77 0 -131 -65 -131 -168s54 -168 131 -168
c79 0 130 65 130 168zM165 700h79c0 -23 12 -37 35 -37s35 14 35 37h79c0 -64 -45 -109 -114 -109s-114 45 -114 109z" />
    <glyph glyph-name="acircumflex.ss01" horiz-adv-x="583" 
d="M44 252c0 78 19 141 58 188c39 48 93 72 163 72c60 0 112 -25 140 -61v30v23h106v-504h-106v28v30c-20 -35 -75 -66 -140 -66c-70 0 -124 24 -163 71c-39 48 -58 111 -58 189zM415 252c0 103 -51 168 -130 168c-77 0 -131 -65 -131 -168s54 -168 131 -168
c79 0 130 65 130 168zM111 560l153 164h31l152 -164h-101l-67 72l-66 -72h-102z" />
    <glyph glyph-name="adieresis.ss01" horiz-adv-x="583" 
d="M44 252c0 78 19 141 58 188c39 48 93 72 163 72c60 0 112 -25 140 -61v30v23h106v-504h-106v28v30c-20 -35 -75 -66 -140 -66c-70 0 -124 24 -163 71c-39 48 -58 111 -58 189zM415 252c0 103 -51 168 -130 168c-77 0 -131 -65 -131 -168s54 -168 131 -168
c79 0 130 65 130 168zM118 644c0 37 28 65 65 65s64 -28 64 -65c0 -36 -27 -64 -64 -64s-65 28 -65 64zM309 644c0 37 27 65 64 65s65 -28 65 -65c0 -36 -28 -64 -65 -64s-64 28 -64 64z" />
    <glyph glyph-name="agrave.ss01" horiz-adv-x="583" 
d="M44 252c0 78 19 141 58 188c39 48 93 72 163 72c60 0 112 -25 140 -61v30v23h106v-504h-106v28v30c-20 -35 -75 -66 -140 -66c-70 0 -124 24 -163 71c-39 48 -58 111 -58 189zM415 252c0 103 -51 168 -130 168c-77 0 -131 -65 -131 -168s54 -168 131 -168
c79 0 130 65 130 168zM243 554l-136 152h146l68 -152h-78z" />
    <glyph glyph-name="amacron.ss01" horiz-adv-x="583" 
d="M44 252c0 78 19 141 58 188c39 48 93 72 163 72c60 0 112 -25 140 -61v30v23h106v-504h-106v28v30c-20 -35 -75 -66 -140 -66c-70 0 -124 24 -163 71c-39 48 -58 111 -58 189zM415 252c0 103 -51 168 -130 168c-77 0 -131 -65 -131 -168s54 -168 131 -168
c79 0 130 65 130 168zM149 597v85h260v-85h-260z" />
    <glyph glyph-name="aogonek.ss01" horiz-adv-x="583" 
d="M511 -97l19 -69c-19 -11 -36 -14 -61 -14c-56 0 -92 33 -92 86c0 36 22 73 55 94h-27v28v30c-20 -35 -75 -66 -140 -66c-70 0 -124 24 -163 71c-39 48 -58 111 -58 189s19 141 58 188c39 48 93 72 163 72c60 0 112 -25 140 -61v30v23h106v-504c-39 -32 -58 -58 -58 -79
c0 -17 11 -28 28 -28c10 0 20 3 30 10zM415 252c0 103 -51 168 -130 168c-77 0 -131 -65 -131 -168s54 -168 131 -168c79 0 130 65 130 168z" />
    <glyph glyph-name="aring.ss01" horiz-adv-x="583" 
d="M44 252c0 78 19 141 58 188c39 48 93 72 163 72c60 0 112 -25 140 -61v30v23h106v-504h-106v28v30c-20 -35 -75 -66 -140 -66c-70 0 -124 24 -163 71c-39 48 -58 111 -58 189zM415 252c0 103 -51 168 -130 168c-77 0 -131 -65 -131 -168s54 -168 131 -168
c79 0 130 65 130 168zM175 654c0 57 44 101 103 101s104 -44 104 -101s-45 -99 -104 -99s-103 42 -103 99zM316 655c0 23 -15 38 -38 38c-21 0 -37 -17 -37 -38c0 -23 16 -38 37 -38c23 0 38 15 38 38z" />
    <glyph glyph-name="aringacute.ss01" horiz-adv-x="583" 
d="M44 252c0 78 19 141 58 188c39 48 93 72 163 72c60 0 112 -25 140 -61v30v23h106v-504h-106v28v30c-20 -35 -75 -66 -140 -66c-70 0 -124 24 -163 71c-39 48 -58 111 -58 189zM415 252c0 103 -51 168 -130 168c-77 0 -131 -65 -131 -168s54 -168 131 -168
c79 0 130 65 130 168zM175 654c0 57 44 101 103 101s104 -44 104 -101s-45 -99 -104 -99s-103 42 -103 99zM316 655c0 23 -15 38 -38 38c-21 0 -37 -17 -37 -38c0 -23 16 -38 37 -38c23 0 38 15 38 38zM236 790l68 152h145l-135 -152h-78z" />
    <glyph glyph-name="atilde.ss01" horiz-adv-x="583" 
d="M44 252c0 78 19 141 58 188c39 48 93 72 163 72c60 0 112 -25 140 -61v30v23h106v-504h-106v28v30c-20 -35 -75 -66 -140 -66c-70 0 -124 24 -163 71c-39 48 -58 111 -58 189zM415 252c0 103 -51 168 -130 168c-77 0 -131 -65 -131 -168s54 -168 131 -168
c79 0 130 65 130 168zM153 573l-59 49c24 49 68 82 115 82c32 0 51 -8 78 -23c24 -12 35 -18 55 -18c22 0 43 14 63 42l59 -49c-24 -48 -69 -82 -116 -82c-32 0 -49 8 -77 23c-24 12 -35 18 -55 18c-22 0 -43 -14 -63 -42z" />
    <glyph glyph-name="ae.ss01" horiz-adv-x="910" 
d="M44 252c0 78 19 141 58 188c39 48 93 72 163 72c60 0 112 -25 140 -61v53h106v-50c28 37 80 58 139 58c138 0 216 -120 216 -244v-44h-355c0 -88 49 -140 129 -140c61 0 99 27 132 87l87 -34c-44 -97 -114 -145 -209 -145c-56 0 -108 17 -139 58v-50h-106v58
c-20 -35 -75 -66 -140 -66c-70 0 -124 24 -163 71c-39 48 -58 111 -58 189zM415 252c0 103 -51 168 -130 168c-77 0 -131 -65 -131 -168s54 -168 131 -168c79 0 130 65 130 168zM513 310h245c-12 65 -53 110 -122 110c-67 0 -111 -47 -123 -110z" />
    <glyph glyph-name="aeacute.ss01" horiz-adv-x="910" 
d="M44 252c0 78 19 141 58 188c39 48 93 72 163 72c60 0 112 -25 140 -61v53h106v-50c28 37 80 58 139 58c138 0 216 -120 216 -244v-44h-355c0 -88 49 -140 129 -140c61 0 99 27 132 87l87 -34c-44 -97 -114 -145 -209 -145c-56 0 -108 17 -139 58v-50h-106v58
c-20 -35 -75 -66 -140 -66c-70 0 -124 24 -163 71c-39 48 -58 111 -58 189zM415 252c0 103 -51 168 -130 168c-77 0 -131 -65 -131 -168s54 -168 131 -168c79 0 130 65 130 168zM513 310h245c-12 65 -53 110 -122 110c-67 0 -111 -47 -123 -110zM416 554l68 152h145
l-135 -152h-78z" />
    <glyph glyph-name="dcaron.ss02" horiz-adv-x="715" 
d="M44 252c0 78 19 141 58 188c39 48 93 72 163 72c60 0 112 -25 140 -61v30v227h106v-708h-106v28v30c-20 -35 -75 -66 -140 -66c-70 0 -124 24 -163 71c-39 48 -58 111 -58 189zM415 252c0 103 -51 168 -130 168c-77 0 -131 -65 -131 -168s54 -168 131 -168
c79 0 130 65 130 168zM595 534l-17 22c32 21 53 54 58 90c-33 12 -50 34 -50 61c0 33 27 62 64 62c39 0 65 -29 65 -68c0 -67 -47 -119 -120 -167z" />
    <glyph glyph-name="uni0123.ss02" horiz-adv-x="501" 
d="M34 -46c0 43 16 78 44 102c-20 19 -30 45 -30 79c0 44 23 80 62 101c-24 31 -36 66 -36 106c0 103 80 170 181 170c33 0 63 -7 91 -22l93 50l43 -73l-71 -37c17 -26 25 -55 25 -88c0 -103 -80 -168 -181 -168c-29 0 -56 5 -80 15c-19 -10 -29 -24 -29 -43
c0 -27 20 -41 52 -41h111c104 0 169 -50 169 -143c0 -58 -21 -101 -64 -130s-95 -44 -158 -44c-133 0 -222 61 -222 166zM336 342c0 51 -34 84 -81 84s-81 -33 -81 -84c0 -49 34 -82 81 -82s81 33 81 82zM373 -46c0 45 -31 62 -86 62h-78c-21 0 -40 1 -56 4
c-14 -14 -21 -34 -21 -60c0 -52 47 -82 124 -82c72 0 117 27 117 76zM191 630c0 60 40 116 121 167l16 -22c-32 -21 -53 -55 -58 -90c33 -12 50 -34 50 -61c0 -33 -27 -62 -64 -62s-65 29 -65 68z" />
    <glyph glyph-name="uni0137.ss02" horiz-adv-x="509" 
d="M72 0v708h106v-409l178 205h130l-206 -232l221 -272h-130l-193 246v-246h-106zM219 -281l-17 22c32 21 53 54 58 90c-33 12 -50 34 -50 61c0 33 27 62 64 62c39 0 65 -29 65 -68c0 -67 -47 -119 -120 -167z" />
    <glyph glyph-name="lcaron.ss02" horiz-adv-x="370" 
d="M72 0v708h106v-708h-106zM250 534l-17 22c32 21 53 54 58 90c-33 12 -50 34 -50 61c0 33 27 62 64 62c39 0 65 -29 65 -68c0 -67 -47 -119 -120 -167z" />
    <glyph glyph-name="uni013C.ss02" horiz-adv-x="250" 
d="M72 0v708h106v-708h-106zM73 -281l-17 22c32 21 53 54 58 90c-33 12 -50 34 -50 61c0 33 27 62 64 62c39 0 65 -29 65 -68c0 -67 -47 -119 -120 -167z" />
    <glyph glyph-name="uni0146.ss02" horiz-adv-x="566" 
d="M72 0v504h106v-88c37 59 96 96 161 96c93 0 155 -56 155 -156v-356h-105v328c0 61 -30 92 -82 92c-70 0 -129 -80 -129 -213v-207h-106zM231 -281l-17 22c32 21 53 54 58 90c-33 12 -50 34 -50 61c0 33 27 62 64 62c39 0 65 -29 65 -68c0 -67 -47 -119 -120 -167z" />
    <glyph glyph-name="uni0157.ss02" horiz-adv-x="406" 
d="M72 0v504h106v-84c33 60 88 92 149 92c19 0 41 -4 65 -12l-20 -98c-17 10 -36 15 -58 15c-79 0 -136 -76 -136 -233v-184h-106zM73 -281l-17 22c32 21 53 54 58 90c-33 12 -50 34 -50 61c0 33 27 62 64 62c39 0 65 -29 65 -68c0 -67 -47 -119 -120 -167z" />
    <glyph glyph-name="uni0219.ss02" horiz-adv-x="438" 
d="M38 129l85 45c21 -60 58 -90 109 -90c39 0 67 22 67 61c0 35 -37 56 -106 83c-79 29 -122 71 -122 146c0 78 66 138 154 138c68 0 121 -28 152 -81l-65 -59c-21 32 -50 48 -86 48c-32 0 -56 -19 -56 -48s25 -48 106 -79c82 -29 123 -77 123 -142
c0 -97 -67 -159 -167 -159c-104 0 -173 61 -194 137zM182 -281l-17 22c32 21 53 54 58 90c-33 12 -50 34 -50 61c0 33 27 62 64 62c39 0 65 -29 65 -68c0 -67 -47 -119 -120 -167z" />
    <glyph glyph-name="tcaron.ss02" horiz-adv-x="362" 
d="M91 168v244h-81v92h81v137l106 67v-204h134v-92h-134v-246c0 -59 23 -82 67 -82c20 0 38 4 53 13l25 -87c-24 -12 -52 -18 -83 -18c-105 0 -168 59 -168 176zM281 534l-17 22c32 21 53 54 58 90c-33 12 -50 34 -50 61c0 33 27 62 64 62c39 0 65 -29 65 -68
c0 -67 -47 -119 -120 -167z" />
    <glyph glyph-name="uni021B.ss02" horiz-adv-x="362" 
d="M91 168v244h-81v92h81v137l106 67v-204h134v-92h-134v-246c0 -59 23 -82 67 -82c20 0 38 4 53 13l25 -87c-24 -12 -52 -18 -83 -18c-105 0 -168 59 -168 176zM180 -281l-17 22c32 21 53 54 58 90c-33 12 -50 34 -50 61c0 33 27 62 64 62c39 0 65 -29 65 -68
c0 -67 -47 -119 -120 -167z" />
    <glyph glyph-name="f_b" horiz-adv-x="880" 
d="M475 56v-30v-26h-106v616h-118c-45 0 -67 -25 -67 -75v-37h111v-92h-111v-412h-105v412h-69v92h69v28c0 117 63 176 168 176h228v-227v-30c27 35 80 61 133 61c147 0 228 -103 228 -260s-81 -260 -228 -260c-60 0 -114 31 -133 64zM726 252c0 103 -54 168 -131 168
c-79 0 -130 -65 -130 -168s51 -168 130 -168c77 0 131 65 131 168z" />
    <glyph glyph-name="f_f_b" horiz-adv-x="1170" 
d="M765 56v-30v-26h-105v616h-119c-44 0 -66 -25 -66 -75v-37h110v-92h-110v-412h-106v412h-185v-412h-105v412h-69v92h69v28c0 117 63 176 168 176c35 0 63 -6 84 -18l-23 -87c-19 9 -38 13 -57 13c-45 0 -67 -25 -67 -75v-37h185v28c0 117 64 176 169 176h227v-227v-30
c27 35 80 61 133 61c73 0 130 -24 169 -71c40 -47 60 -110 60 -189s-20 -142 -60 -189c-39 -47 -96 -71 -169 -71c-59 0 -113 31 -133 64zM1016 252c0 103 -52 168 -131 168c-77 0 -130 -65 -130 -168s53 -168 130 -168c79 0 131 65 131 168z" />
    <glyph glyph-name="f_f_h" horiz-adv-x="1160" 
d="M79 0v412h-69v92h69v28c0 117 63 176 168 176c35 0 63 -6 84 -18l-23 -87c-19 9 -38 13 -57 13c-45 0 -67 -25 -67 -75v-37h185v28c0 117 64 176 169 176h227v-294c33 61 95 98 166 98c99 0 157 -55 157 -156v-356h-105v323c0 65 -28 97 -84 97c-71 0 -134 -71 -134 -206
v-214h-105v616h-119c-44 0 -66 -25 -66 -75v-37h110v-92h-110v-412h-106v412h-185v-412h-105z" />
    <glyph glyph-name="f_f_j" horiz-adv-x="819" 
d="M580 -212l-25 94c72 19 105 52 105 132v398h-185v-412h-106v412h-185v-412h-105v412h-69v92h69v28c0 117 63 176 168 176c35 0 63 -6 84 -18l-23 -87c-19 9 -38 13 -57 13c-45 0 -67 -25 -67 -75v-37h185v9c0 127 88 195 223 195c53 0 108 -12 140 -29l-30 -88
c-33 17 -69 25 -107 25c-73 0 -120 -37 -120 -101v-11h290v-483c0 -136 -60 -205 -185 -233z" />
    <glyph glyph-name="f_f_k" horiz-adv-x="1096" 
d="M79 0v412h-69v92h69v28c0 117 63 176 168 176c35 0 63 -6 84 -18l-23 -87c-19 9 -38 13 -57 13c-45 0 -67 -25 -67 -75v-37h185v28c0 117 64 176 169 176h227v-409l178 205h131l-207 -232l221 -272h-130l-193 246v-246h-105v616h-119c-44 0 -66 -25 -66 -75v-37h110v-92
h-110v-412h-106v412h-185v-412h-105z" />
    <glyph glyph-name="f_h" horiz-adv-x="870" 
d="M79 0v412h-69v92h69v28c0 117 63 176 168 176h228v-294c32 60 94 98 166 98c99 0 157 -55 157 -156v-356h-106v323c0 65 -28 97 -84 97c-70 0 -133 -73 -133 -206v-214h-106v616h-118c-45 0 -67 -25 -67 -75v-37h111v-92h-111v-412h-105z" />
    <glyph glyph-name="f_j" horiz-adv-x="528" 
d="M289 -212l-25 94c72 19 105 52 105 132v398h-185v-412h-105v412h-69v92h69v9c0 127 89 195 222 195c53 0 108 -12 140 -29l-29 -88c-33 17 -69 25 -107 25c-75 0 -121 -37 -121 -101v-11h291v-483c0 -136 -59 -205 -186 -233z" />
    <glyph glyph-name="f_k" horiz-adv-x="805" 
d="M79 0v412h-69v92h69v28c0 117 63 176 168 176h228v-409l178 205h130l-207 -232l222 -272h-130l-193 246v-246h-106v616h-118c-45 0 -67 -25 -67 -75v-37h111v-92h-111v-412h-105z" />
    <glyph glyph-name="fi" unicode="&#xfb01;" horiz-adv-x="547" 
d="M79 0v412h-69v92h69v9c0 127 89 195 222 195c53 0 108 -12 140 -29l-29 -88c-33 17 -69 25 -107 25c-75 0 -121 -37 -121 -101v-11h291v-504h-106v412h-185v-412h-105z" />
    <glyph glyph-name="fl" unicode="&#xfb02;" horiz-adv-x="547" 
d="M79 0v412h-69v92h69v28c0 117 63 176 168 176h228v-708h-106v616h-118c-45 0 -67 -25 -67 -75v-37h111v-92h-111v-412h-105z" />
    <glyph glyph-name="ordfeminine" unicode="&#xaa;" horiz-adv-x="443" 
d="M61 416c0 80 69 130 172 130h66v17c0 48 -30 69 -75 69c-39 0 -65 -18 -76 -54l-72 17c12 67 71 109 148 109c105 0 158 -53 158 -158v-246h-68l-9 55c-30 -39 -71 -59 -124 -59c-68 0 -120 45 -120 120zM299 468v12h-65c-55 0 -86 -24 -86 -64c0 -28 18 -47 51 -47
c52 0 100 36 100 99z" />
    <glyph glyph-name="ordmasculine" unicode="&#xba;" horiz-adv-x="519" 
d="M63 500c0 112 75 204 197 204c121 0 196 -92 196 -204s-75 -204 -196 -204c-122 0 -197 92 -197 204zM368 500c0 73 -41 132 -108 132c-68 0 -109 -59 -109 -132s41 -131 109 -131c67 0 108 58 108 131z" />
    <glyph glyph-name="uni0410" unicode="&#x410;" horiz-adv-x="613" 
d="M11 0l241 700h109l242 -700h-119l-56 175h-242l-57 -175h-118zM218 278h177l-88 275z" />
    <glyph glyph-name="uni0411" unicode="&#x411;" horiz-adv-x="590" 
d="M83 0v700h431v-103h-320v-183h145c137 0 214 -80 214 -207c0 -124 -77 -207 -214 -207h-256zM194 103h142c68 0 104 39 104 104c0 67 -36 105 -104 105h-142v-209z" />
    <glyph glyph-name="uni0412" unicode="&#x412;" horiz-adv-x="614" 
d="M83 0v700h247c123 0 198 -66 198 -186c0 -61 -29 -109 -74 -132c69 -27 110 -85 110 -174c0 -131 -85 -208 -226 -208h-255zM194 421h131c63 0 95 27 95 88c0 63 -32 88 -97 88h-129v-176zM194 103h132c87 0 127 35 127 107c0 73 -40 108 -127 108h-132v-215z" />
    <glyph glyph-name="uni0413" unicode="&#x413;" horiz-adv-x="531" 
d="M83 0v700h422v-103h-311v-597h-111z" />
    <glyph glyph-name="uni0403" unicode="&#x403;" horiz-adv-x="531" 
d="M83 0v700h422v-103h-311v-597h-111zM253 750l68 152h145l-135 -152h-78z" />
    <glyph glyph-name="uni0490" unicode="&#x490;" horiz-adv-x="531" 
d="M83 0v700h315v134h107v-237h-311v-597h-111z" />
    <glyph glyph-name="uni0414" unicode="&#x414;" horiz-adv-x="734" 
d="M30 -134v237h56c18 22 31 49 39 82c9 33 16 89 22 168l27 347h454v-597h77v-237h-107v134h-461v-134h-107zM204 103h313v494h-247l-19 -248c-5 -76 -11 -131 -18 -165c-7 -33 -16 -60 -29 -81z" />
    <glyph glyph-name="uni0415" unicode="&#x415;" horiz-adv-x="566" 
d="M83 0v700h422v-103h-311v-173h251v-102h-251v-219h321v-103h-432z" />
    <glyph glyph-name="uni0400" unicode="&#x400;" horiz-adv-x="566" 
d="M83 0v700h422v-103h-311v-173h251v-102h-251v-219h321v-103h-432zM261 750l-136 152h146l68 -152h-78z" />
    <glyph glyph-name="uni0401" unicode="&#x401;" horiz-adv-x="566" 
d="M83 0v700h422v-103h-311v-173h251v-102h-251v-219h321v-103h-432zM137 840c0 37 28 65 65 65s64 -28 64 -65c0 -36 -27 -64 -64 -64s-65 28 -65 64zM328 840c0 37 27 65 64 65s65 -28 65 -65c0 -36 -28 -64 -65 -64s-64 28 -64 64z" />
    <glyph glyph-name="uni0416" unicode="&#x416;" horiz-adv-x="950" 
d="M12 0l306 387l-285 313h137l250 -272v272h111v-272l249 272h138l-286 -313l306 -387h-139l-268 345v-345h-111v345l-268 -345h-140z" />
    <glyph glyph-name="uni0417" unicode="&#x417;" horiz-adv-x="585" 
d="M44 187l105 34c13 -79 75 -131 150 -131c83 0 133 50 133 123c0 39 -15 68 -44 86s-63 27 -103 27h-47v93h43c79 0 127 36 127 101c0 56 -46 94 -114 94c-64 0 -109 -40 -124 -105l-94 19c14 105 104 180 218 180c137 0 216 -70 216 -178c0 -71 -37 -122 -96 -151
c76 -25 127 -87 127 -170c0 -125 -93 -217 -240 -217c-135 0 -230 75 -257 195z" />
    <glyph glyph-name="uni0418" unicode="&#x418;" horiz-adv-x="699" 
d="M83 0v700h111v-511l314 511h108v-700h-111v510l-314 -510h-108z" />
    <glyph glyph-name="uni0419" unicode="&#x419;" horiz-adv-x="699" 
d="M83 0v700h111v-511l314 511h108v-700h-111v510l-314 -510h-108zM211 902h80c0 -44 20 -71 59 -71s58 27 58 71h80c0 -87 -47 -143 -138 -143c-92 0 -139 56 -139 143z" />
    <glyph glyph-name="uni040D" unicode="&#x40d;" horiz-adv-x="699" 
d="M83 0v700h111v-511l314 511h108v-700h-111v510l-314 -510h-108zM314 750l-136 152h146l68 -152h-78z" />
    <glyph glyph-name="uni041A" unicode="&#x41a;" horiz-adv-x="614" 
d="M83 0v700h111v-272l249 272h137l-285 -313l307 -387h-140l-268 345v-345h-111z" />
    <glyph glyph-name="uni040C" unicode="&#x40c;" horiz-adv-x="614" 
d="M83 0v700h111v-272l249 272h137l-285 -313l307 -387h-140l-268 345v-345h-111zM258 750l68 152h145l-135 -152h-78z" />
    <glyph glyph-name="uni041B" unicode="&#x41b;" horiz-adv-x="693" 
d="M33 1v107c12 -5 25 -8 40 -8c45 0 66 34 71 133l28 467h438v-700h-111v597h-228l-23 -374c-9 -159 -56 -230 -164 -230c-16 0 -40 3 -51 8z" />
    <glyph glyph-name="uni041C" unicode="&#x41c;" horiz-adv-x="775" 
d="M83 0v700h127l178 -464l178 464h126v-700h-110v474l-155 -410h-78l-155 410v-474h-111z" />
    <glyph glyph-name="uni041D" unicode="&#x41d;" horiz-adv-x="690" 
d="M83 0v700h111v-275h303v275h110v-700h-110v322h-303v-322h-111z" />
    <glyph glyph-name="uni041E" unicode="&#x41e;" horiz-adv-x="742" 
d="M48 350c-3 229 147 360 323 358c176 2 326 -129 323 -358c3 -229 -147 -360 -323 -358c-176 -2 -326 129 -323 358zM581 350c0 170 -93 255 -210 255s-210 -85 -210 -255s93 -255 210 -255s210 85 210 255z" />
    <glyph glyph-name="uni041F" unicode="&#x41f;" horiz-adv-x="687" 
d="M83 0v700h521v-700h-110v597h-300v-597h-111z" />
    <glyph glyph-name="uni0420" unicode="&#x420;" horiz-adv-x="590" 
d="M83 0v700h256c137 0 214 -82 214 -207s-77 -207 -214 -207h-145v-286h-111zM194 389h142c68 0 104 36 104 104s-36 104 -104 104h-142v-208z" />
    <glyph glyph-name="uni0421" unicode="&#x421;" horiz-adv-x="699" 
d="M48 350c-3 229 152 360 324 358c147 0 249 -77 282 -208l-101 -27c-30 88 -90 132 -181 132c-119 0 -211 -87 -211 -255s92 -255 211 -255c91 0 151 44 181 132l101 -27c-33 -131 -135 -208 -282 -208c-172 -2 -327 129 -324 358z" />
    <glyph glyph-name="uni0422" unicode="&#x422;" horiz-adv-x="561" 
d="M225 0v597h-199v103h509v-103h-199v-597h-111z" />
    <glyph glyph-name="uni0423" unicode="&#x423;" horiz-adv-x="552" 
d="M430 700h112l-302 -700h-110l89 207l-209 493h116l151 -358z" />
    <glyph glyph-name="uni040E" unicode="&#x40e;" horiz-adv-x="552" 
d="M430 700h112l-302 -700h-110l89 207l-209 493h116l151 -358zM138 902h80c0 -44 20 -71 59 -71s58 27 58 71h80c0 -87 -47 -143 -138 -143c-92 0 -139 56 -139 143z" />
    <glyph glyph-name="uni0424" unicode="&#x424;" horiz-adv-x="810" 
d="M352 -10v81h-2c-186 6 -302 121 -302 279c0 159 116 274 302 280h2v80h106v-80h2c186 -6 302 -121 302 -280c0 -158 -116 -273 -302 -279h-2v-81h-106zM349 162h3v376h-3c-113 -7 -191 -77 -191 -188s78 -181 191 -188zM458 162h3c113 7 191 77 191 188s-78 181 -191 188
h-3v-376z" />
    <glyph glyph-name="uni0425" unicode="&#x425;" horiz-adv-x="590" 
d="M14 0l220 380l-184 320h121l124 -215l123 215h122l-185 -320l221 -380h-123l-158 274l-158 -274h-123z" />
    <glyph glyph-name="uni0427" unicode="&#x427;" horiz-adv-x="668" 
d="M475 0v289c-51 -20 -100 -28 -169 -28c-144 0 -232 81 -232 252v187h111v-188c0 -100 51 -148 138 -148c64 0 105 7 152 28v308h110v-700h-110z" />
    <glyph glyph-name="uni0426" unicode="&#x426;" horiz-adv-x="704" 
d="M568 -134v134h-485v700h111v-597h293v597h110v-597h78v-237h-107z" />
    <glyph glyph-name="uni0428" unicode="&#x428;" horiz-adv-x="964" 
d="M83 0v700h111v-597h233v597h111v-597h232v597h111v-700h-798z" />
    <glyph glyph-name="uni0429" unicode="&#x429;" horiz-adv-x="988" 
d="M851 -134v134h-768v700h111v-597h233v597h111v-597h232v597h111v-597h78v-237h-108z" />
    <glyph glyph-name="uni040F" unicode="&#x40f;" horiz-adv-x="680" 
d="M286 -134v134h-203v700h111v-597h293v597h110v-700h-203v-134h-108z" />
    <glyph glyph-name="uni042C" unicode="&#x42c;" horiz-adv-x="590" 
d="M83 0v700h111v-260h134c145 0 225 -85 225 -220c0 -132 -81 -220 -225 -220h-245zM194 103h131c75 0 115 42 115 117s-40 117 -115 117h-131v-234z" />
    <glyph glyph-name="uni042A" unicode="&#x42a;" horiz-adv-x="675" 
d="M168 0v602h-148v98h258v-260h134c145 0 226 -85 226 -220c0 -132 -81 -220 -226 -220h-244zM278 103h131c76 0 116 42 116 117c0 73 -41 117 -116 117h-131v-234z" />
    <glyph glyph-name="uni042B" unicode="&#x42b;" horiz-adv-x="830" 
d="M83 0v700h111v-260h134c145 0 225 -85 225 -220c0 -132 -81 -220 -225 -220h-245zM194 103h131c75 0 115 42 115 117s-40 117 -115 117h-131v-234zM636 0v700h111v-700h-111z" />
    <glyph glyph-name="uni0409" unicode="&#x409;" horiz-adv-x="986" 
d="M33 1v107c12 -5 25 -8 40 -8c45 0 66 34 71 133l28 467h418v-260h134c145 0 225 -85 225 -220c0 -132 -81 -220 -225 -220h-245v597h-208l-23 -374c-9 -159 -56 -230 -164 -230c-16 0 -40 3 -51 8zM590 103h131c75 0 115 42 115 117s-40 117 -115 117h-131v-234z" />
    <glyph glyph-name="uni040A" unicode="&#x40a;" horiz-adv-x="1004" 
d="M967 213c0 -128 -77 -213 -216 -213h-254v322h-303v-322h-111v700h111v-275h303v275h110v-275h144c139 0 216 -85 216 -212zM854 213c0 69 -37 109 -106 109h-141v-219h141c69 0 106 41 106 110z" />
    <glyph glyph-name="uni0405" unicode="&#x405;" horiz-adv-x="524" 
d="M35 186l91 56c23 -88 69 -147 146 -147c60 0 101 34 101 99c0 21 -6 38 -18 53c-24 31 -57 48 -122 80l-18 9c-85 43 -139 97 -139 192c0 102 79 180 187 180c91 0 154 -40 189 -121l-89 -57c-19 50 -53 75 -100 75c-45 0 -80 -33 -80 -73c0 -20 6 -38 19 -53
c25 -31 59 -48 123 -76c101 -47 160 -100 160 -204c0 -125 -90 -207 -216 -207c-121 0 -212 86 -234 194z" />
    <glyph glyph-name="uni0404" unicode="&#x404;" horiz-adv-x="699" 
d="M553 227l101 -27c-33 -131 -135 -208 -282 -208c-172 -2 -327 129 -324 358c-3 229 152 360 324 358c147 0 249 -77 282 -208l-101 -27c-30 88 -90 132 -181 132c-109 0 -191 -66 -208 -201h266v-102h-267c15 -137 97 -207 209 -207c91 0 151 44 181 132z" />
    <glyph glyph-name="uni042D" unicode="&#x42d;" horiz-adv-x="699" 
d="M651 350c3 -229 -152 -360 -324 -358c-147 0 -248 77 -283 208l102 27c30 -88 90 -132 181 -132c112 0 194 70 209 207h-267v102h266c-17 135 -99 201 -208 201c-91 0 -151 -44 -181 -132l-102 27c35 131 136 208 283 208c172 2 327 -129 324 -358z" />
    <glyph glyph-name="uni0406" unicode="&#x406;" horiz-adv-x="277" 
d="M83 0v700h111v-700h-111z" />
    <glyph glyph-name="uni0407" unicode="&#x407;" horiz-adv-x="277" 
d="M83 0v700h111v-700h-111zM-22 840c0 37 28 65 65 65s64 -28 64 -65c0 -36 -27 -64 -64 -64s-65 28 -65 64zM169 840c0 37 27 65 64 65s65 -28 65 -65c0 -36 -28 -64 -65 -64s-64 28 -64 64z" />
    <glyph glyph-name="uni0408" unicode="&#x408;" horiz-adv-x="525" 
d="M26 172l110 24c12 -67 45 -101 100 -101c70 0 105 42 105 127v478h111v-466c0 -168 -80 -242 -216 -242c-119 0 -195 71 -210 180z" />
    <glyph glyph-name="uni040B" unicode="&#x40b;" horiz-adv-x="773" 
d="M205 0v597h-179v103h504v-103h-214v-199c53 23 110 35 169 35c143 0 215 -72 215 -216v-217h-110v204c0 88 -45 126 -128 126c-57 0 -110 -16 -146 -40v-290h-111z" />
    <glyph glyph-name="uni042E" unicode="&#x42e;" horiz-adv-x="974" 
d="M927 350c3 -229 -144 -360 -314 -358c-163 0 -302 116 -312 330h-107v-322h-111v700h111v-275h111c28 183 156 283 308 283c170 2 317 -129 314 -358zM814 350c0 170 -90 255 -201 255c-110 0 -200 -85 -200 -255s90 -255 200 -255c111 0 201 85 201 255z" />
    <glyph glyph-name="uni042F" unicode="&#x42f;" horiz-adv-x="627" 
d="M305 700h239v-700h-110v300h-83l-202 -300h-123l205 308c-92 23 -142 90 -142 190c0 124 77 202 216 202zM434 398v199h-125c-67 0 -109 -32 -109 -99c0 -69 42 -100 109 -100h125z" />
    <glyph glyph-name="uni0402" unicode="&#x402;" horiz-adv-x="751" 
d="M412 1v104c18 -7 38 -10 59 -10c73 0 126 41 126 118s-55 117 -136 117c-57 0 -105 -13 -145 -38v-292h-111v597h-179v103h504v-103h-214v-198c39 21 97 34 153 34c149 0 239 -84 239 -220s-87 -221 -230 -221c-21 0 -43 3 -66 9z" />
    <glyph glyph-name="uni0462" unicode="&#x462;" horiz-adv-x="661" 
d="M624 201c0 -59 -19 -108 -57 -145c-37 -37 -90 -56 -158 -56h-255v496h-154v95h154v109h111v-109h237v-95h-237v-93h144c137 0 215 -79 215 -202zM511 201c0 63 -37 99 -109 99h-137v-197h137c72 0 109 35 109 98z" />
    <glyph glyph-name="uni0472" unicode="&#x472;" horiz-adv-x="742" 
d="M694 350c3 -229 -147 -360 -323 -358c-176 -2 -326 129 -323 358c-3 229 147 360 323 358c176 2 326 -129 323 -358zM159 396h424c-15 137 -101 212 -212 212s-197 -75 -212 -212zM583 304h-424c15 -137 101 -211 212 -211s197 74 212 211z" />
    <glyph glyph-name="uni0474" unicode="&#x474;" horiz-adv-x="703" 
d="M249 0l-238 700h121l173 -544l136 421c27 84 72 131 147 131c41 0 70 -8 99 -25l-35 -102c-15 11 -32 16 -49 16c-25 0 -43 -16 -53 -48l-188 -549h-113z" />
    <glyph glyph-name="uni0414.loclBGR" horiz-adv-x="725" 
d="M637 103h58v-237h-107v134h-451v-134h-107v237h57l221 597h109zM362 555l-160 -452h321z" />
    <glyph glyph-name="uni041B.loclBGR" horiz-adv-x="611" 
d="M11 0l238 700h113l238 -700h-121l-174 544l-173 -544h-121z" />
    <glyph glyph-name="uni0430" unicode="&#x430;" horiz-adv-x="517" 
d="M46 145c0 103 83 165 216 165h88v22c0 60 -39 88 -96 88c-49 0 -82 -23 -97 -68l-92 21c16 83 92 139 189 139c125 0 201 -70 201 -201v-311h-85l-14 68c-37 -51 -89 -76 -156 -76c-89 0 -154 54 -154 153zM350 211v13h-84c-72 0 -110 -26 -110 -78c0 -37 28 -62 69 -62
c61 0 125 45 125 127z" />
    <glyph glyph-name="uni0431" unicode="&#x431;" horiz-adv-x="592" 
d="M44 308c0 286 126 363 282 375c83 7 130 15 169 36l29 -85c-23 -14 -48 -24 -74 -29c-25 -5 -64 -11 -117 -16c-112 -10 -181 -52 -195 -197c37 65 102 100 177 100c145 0 233 -107 233 -250s-100 -250 -251 -250c-160 0 -253 108 -253 316zM438 242
c0 92 -53 158 -141 158s-140 -66 -140 -158s52 -158 140 -158s141 66 141 158z" />
    <glyph glyph-name="uni0432" unicode="&#x432;" horiz-adv-x="502" 
d="M72 0v504h193c100 0 162 -46 162 -134c0 -39 -21 -75 -52 -95c47 -23 79 -68 79 -125c0 -96 -63 -150 -168 -150h-214zM178 309h82c42 0 63 17 63 52c0 34 -21 51 -63 51h-82v-103zM178 92h90c53 0 80 21 80 63c0 43 -27 65 -80 65h-90v-128z" />
    <glyph glyph-name="uni0433" unicode="&#x433;" horiz-adv-x="426" 
d="M72 0v504h332v-92h-226v-412h-106z" />
    <glyph glyph-name="uni0453" unicode="&#x453;" horiz-adv-x="426" 
d="M72 0v504h332v-92h-226v-412h-106zM183 554l68 152h145l-135 -152h-78z" />
    <glyph glyph-name="uni0491" unicode="&#x491;" horiz-adv-x="426" 
d="M72 0v504h233v124h99v-216h-226v-412h-106z" />
    <glyph glyph-name="uni0434" unicode="&#x434;" horiz-adv-x="598" 
d="M26 -124v216h50c28 29 39 64 44 136l21 276h364v-412h68v-216h-99v124h-350v-124h-98zM188 92h212v320h-169l-14 -195c-4 -59 -17 -104 -29 -125z" />
    <glyph glyph-name="uni0435" unicode="&#x435;" horiz-adv-x="555" 
d="M511 268v-44h-359c9 -88 58 -140 133 -140c61 0 99 27 132 87l87 -34c-44 -97 -113 -145 -224 -145c-155 0 -236 126 -236 260s81 260 236 260c151 0 231 -120 231 -244zM157 310h246c-12 65 -52 110 -123 110c-60 0 -107 -39 -123 -110z" />
    <glyph glyph-name="uni0450" unicode="&#x450;" horiz-adv-x="555" 
d="M511 268v-44h-359c9 -88 58 -140 133 -140c61 0 99 27 132 87l87 -34c-44 -97 -113 -145 -224 -145c-155 0 -236 126 -236 260s81 260 236 260c151 0 231 -120 231 -244zM157 310h246c-12 65 -52 110 -123 110c-60 0 -107 -39 -123 -110zM245 554l-136 152h146l68 -152
h-78z" />
    <glyph glyph-name="uni0451" unicode="&#x451;" horiz-adv-x="555" 
d="M511 268v-44h-359c9 -88 58 -140 133 -140c61 0 99 27 132 87l87 -34c-44 -97 -113 -145 -224 -145c-155 0 -236 126 -236 260s81 260 236 260c151 0 231 -120 231 -244zM157 310h246c-12 65 -52 110 -123 110c-60 0 -107 -39 -123 -110zM121 644c0 37 28 65 65 65
s64 -28 64 -65c0 -36 -27 -64 -64 -64s-65 28 -65 64zM312 644c0 37 27 65 64 65s65 -28 65 -65c0 -36 -28 -64 -65 -64s-64 28 -64 64z" />
    <glyph glyph-name="uni0436" unicode="&#x436;" horiz-adv-x="767" 
d="M8 0l221 272l-207 232h131l178 -205v205h105v-205l178 205h131l-207 -232l221 -272h-130l-193 246v-246h-105v246l-193 -246h-130z" />
    <glyph glyph-name="uni0437" unicode="&#x437;" horiz-adv-x="452" 
d="M36 152l98 11c7 -48 40 -79 91 -79c48 0 83 28 83 69c0 44 -35 71 -95 71h-29v81h27c49 0 82 23 82 62c0 36 -26 58 -70 58c-40 0 -68 -23 -79 -62l-89 23c16 77 74 126 169 126c101 0 164 -53 164 -130c0 -56 -24 -93 -63 -112c52 -16 85 -59 85 -119
c0 -97 -73 -159 -185 -159c-111 0 -180 64 -189 160z" />
    <glyph glyph-name="uni0438" unicode="&#x438;" horiz-adv-x="565" 
d="M72 0v504h106v-340l208 340h107v-504h-105v340l-208 -340h-108z" />
    <glyph glyph-name="uni0439" unicode="&#x439;" horiz-adv-x="565" 
d="M72 0v504h106v-340l208 340h107v-504h-105v340l-208 -340h-108zM144 700h80c0 -44 20 -71 59 -71c37 0 58 27 58 71h80c0 -87 -49 -143 -138 -143c-91 0 -139 56 -139 143z" />
    <glyph glyph-name="uni045D" unicode="&#x45d;" horiz-adv-x="565" 
d="M72 0v504h106v-340l208 340h107v-504h-105v340l-208 -340h-108zM247 554l-136 152h146l68 -152h-78z" />
    <glyph glyph-name="uni043A" unicode="&#x43a;" horiz-adv-x="509" 
d="M72 0v504h106v-205l178 205h130l-206 -232l221 -272h-130l-193 246v-246h-106z" />
    <glyph glyph-name="uni045C" unicode="&#x45c;" horiz-adv-x="509" 
d="M72 0v504h106v-205l178 205h130l-206 -232l221 -272h-130l-193 246v-246h-106zM219 554l68 152h145l-135 -152h-78z" />
    <glyph glyph-name="uni043B" unicode="&#x43b;" horiz-adv-x="571" 
d="M26 0v92c13 -5 24 -7 34 -7c31 0 41 21 45 76l26 343h367v-504h-105v412h-171l-20 -265c-8 -107 -50 -154 -130 -154c-18 0 -33 2 -46 7z" />
    <glyph glyph-name="uni043C" unicode="&#x43c;" horiz-adv-x="655" 
d="M72 0v504h117l139 -320l139 320h116v-504h-105v298l-114 -252h-73l-113 252v-298h-106z" />
    <glyph glyph-name="uni043D" unicode="&#x43d;" horiz-adv-x="559" 
d="M72 0v504h106v-190h203v190h105v-504h-105v223h-203v-223h-106z" />
    <glyph glyph-name="uni043E" unicode="&#x43e;" horiz-adv-x="588" 
d="M44 252c0 144 95 260 250 260c154 0 250 -116 250 -260s-96 -260 -250 -260c-155 0 -250 116 -250 260zM433 252c0 47 -12 86 -37 119s-59 49 -102 49s-78 -16 -103 -49s-37 -72 -37 -119s12 -86 37 -119s60 -49 103 -49s77 16 102 49s37 72 37 119z" />
    <glyph glyph-name="uni043F" unicode="&#x43f;" horiz-adv-x="551" 
d="M72 0v504h406v-504h-105v412h-195v-412h-106z" />
    <glyph glyph-name="uni0440" unicode="&#x440;" horiz-adv-x="583" 
d="M72 -204v708h106v-28v-30c20 35 73 66 133 66c147 0 228 -103 228 -260s-81 -260 -228 -260c-52 0 -108 26 -133 62v-30v-228h-106zM429 252c0 103 -52 168 -131 168c-77 0 -130 -65 -130 -168s53 -168 130 -168c79 0 131 65 131 168z" />
    <glyph glyph-name="uni0441" unicode="&#x441;" horiz-adv-x="542" 
d="M44 252c0 143 83 260 239 260c108 0 184 -49 221 -142l-94 -39c-27 59 -67 89 -127 89c-84 0 -129 -68 -129 -168s45 -168 129 -168c60 0 99 30 127 89l94 -38c-37 -93 -113 -143 -221 -143c-156 0 -239 117 -239 260z" />
    <glyph glyph-name="uni0442" unicode="&#x442;" horiz-adv-x="445" 
d="M170 0v412h-143v92h391v-92h-143v-412h-105z" />
    <glyph glyph-name="uni0443" unicode="&#x443;" horiz-adv-x="479" 
d="M363 504h106l-257 -708h-102l82 229l-182 479h107l125 -338z" />
    <glyph glyph-name="uni045E" unicode="&#x45e;" horiz-adv-x="479" 
d="M363 504h106l-257 -708h-102l82 229l-182 479h107l125 -338zM101 700h80c0 -44 20 -71 59 -71c37 0 58 27 58 71h80c0 -87 -49 -143 -138 -143c-91 0 -139 56 -139 143z" />
    <glyph glyph-name="uni0444" unicode="&#x444;" horiz-adv-x="709" 
d="M302 -204v196c-156 0 -258 117 -258 260s102 260 258 260v196h105v-196c155 0 258 -117 258 -260s-103 -260 -258 -260v-196h-105zM296 84h6v336h-6c-43 0 -78 -16 -104 -48c-25 -32 -38 -72 -38 -120s13 -88 38 -120c26 -32 61 -48 104 -48zM407 84h6c43 0 77 16 102 48
c26 32 39 72 39 120s-13 88 -39 120c-25 32 -59 48 -102 48h-6v-336z" />
    <glyph glyph-name="uni0445" unicode="&#x445;" horiz-adv-x="464" 
d="M8 0l168 271l-145 233h112l89 -144l90 144h111l-144 -233l168 -271h-111l-114 181l-114 -181h-110z" />
    <glyph glyph-name="uni0447" unicode="&#x447;" horiz-adv-x="541" 
d="M363 0v200c-40 -16 -76 -22 -123 -22c-111 0 -176 57 -176 168v158h106v-139c0 -65 28 -92 89 -92c41 0 71 5 104 20v211h106v-504h-106z" />
    <glyph glyph-name="uni0446" unicode="&#x446;" horiz-adv-x="572" 
d="M448 -124v124h-376v504h106v-412h195v412h105v-412h68v-216h-98z" />
    <glyph glyph-name="uni0448" unicode="&#x448;" horiz-adv-x="803" 
d="M72 0v504h106v-412h171v412h105v-412h172v412h105v-504h-659z" />
    <glyph glyph-name="uni0449" unicode="&#x449;" horiz-adv-x="824" 
d="M700 -124v124h-628v504h106v-412h171v412h105v-412h172v412h105v-412h68v-216h-99z" />
    <glyph glyph-name="uni045F" unicode="&#x45f;" horiz-adv-x="565" 
d="M233 -124v124h-161v504h106v-412h209v412h105v-504h-160v-124h-99z" />
    <glyph glyph-name="uni044C" unicode="&#x44c;" horiz-adv-x="490" 
d="M72 0v504h106v-182h94c113 0 178 -64 178 -161s-65 -161 -178 -161h-200zM178 92h85c52 0 78 23 78 69s-26 69 -78 69h-85v-138z" />
    <glyph glyph-name="uni044A" unicode="&#x44a;" horiz-adv-x="556" 
d="M139 0v412h-119v92h224v-182h94c113 0 178 -64 178 -161s-65 -161 -178 -161h-199zM244 92h85c52 0 78 23 78 69s-26 69 -78 69h-85v-138z" />
    <glyph glyph-name="uni044B" unicode="&#x44b;" horiz-adv-x="716" 
d="M72 0v504h106v-182h94c113 0 178 -64 178 -161s-65 -161 -178 -161h-200zM178 92h85c52 0 78 23 78 69s-26 69 -78 69h-85v-138zM538 0v504h106v-504h-106z" />
    <glyph glyph-name="uni0459" unicode="&#x459;" horiz-adv-x="796" 
d="M26 0v92c13 -5 24 -7 34 -7c31 0 41 21 45 76l26 343h353v-182h94c113 0 178 -64 178 -161s-65 -161 -178 -161h-199v412h-157l-20 -265c-8 -107 -50 -154 -130 -154c-18 0 -33 2 -46 7zM484 92h85c52 0 78 23 78 69s-26 69 -78 69h-85v-138z" />
    <glyph glyph-name="uni045A" unicode="&#x45a;" horiz-adv-x="805" 
d="M72 0v504h106v-190h212v190h105v-190h95c108 0 174 -61 174 -157s-66 -157 -174 -157h-200v223h-212v-223h-106zM495 92h86c50 0 75 22 75 65s-26 66 -75 66h-86v-131z" />
    <glyph glyph-name="uni0455" unicode="&#x455;" horiz-adv-x="438" 
d="M38 129l85 45c21 -60 58 -90 109 -90c39 0 67 22 67 61c0 35 -37 56 -106 83c-79 29 -122 71 -122 146c0 78 66 138 154 138c68 0 121 -28 152 -81l-65 -59c-21 32 -50 48 -86 48c-32 0 -56 -19 -56 -48s25 -48 106 -79c82 -29 123 -77 123 -142
c0 -97 -67 -159 -167 -159c-104 0 -173 61 -194 137z" />
    <glyph glyph-name="uni0454" unicode="&#x454;" horiz-adv-x="542" 
d="M44 252c0 143 83 260 239 260c108 0 184 -49 221 -142l-94 -39c-27 59 -67 89 -127 89c-71 0 -113 -47 -125 -123h195v-90h-195c12 -76 54 -123 125 -123c60 0 99 30 127 89l94 -38c-37 -93 -113 -143 -221 -143c-156 0 -239 117 -239 260z" />
    <glyph glyph-name="uni044D" unicode="&#x44d;" horiz-adv-x="540" 
d="M38 133l95 40c27 -59 70 -89 127 -89c71 0 110 47 122 123h-195v90h195c-12 76 -51 123 -122 123c-57 0 -100 -30 -127 -89l-95 40c37 93 114 141 222 141c154 0 237 -116 237 -260s-83 -260 -237 -260c-108 0 -185 48 -222 141z" />
    <glyph glyph-name="uni0456" unicode="&#x456;" horiz-adv-x="250" 
d="M72 0v504h106v-504h-106zM54 649c0 40 30 71 71 71s72 -31 72 -71s-31 -71 -72 -71s-71 31 -71 71z" />
    <glyph glyph-name="uni0457" unicode="&#x457;" horiz-adv-x="250" 
d="M72 0v504h106v-504h-106zM-37 649c0 40 30 71 71 71s72 -31 72 -71s-31 -71 -72 -71s-71 31 -71 71zM143 649c0 40 31 71 71 71c41 0 72 -31 72 -71s-31 -71 -72 -71c-40 0 -71 31 -71 71z" />
    <glyph glyph-name="uni0458" unicode="&#x458;" horiz-adv-x="250" 
d="M-7 -212l-26 94c72 19 105 52 105 132v490h106v-483c0 -136 -60 -205 -185 -233zM54 649c0 40 30 71 71 71s72 -31 72 -71s-31 -71 -72 -71s-71 31 -71 71z" />
    <glyph glyph-name="uni045B" unicode="&#x45b;" horiz-adv-x="573" 
d="M501 356v-356h-106v323c0 65 -28 97 -84 97c-70 0 -133 -73 -133 -206v-214h-106v565h-61v82h61v61h106v-61h129v-82h-129v-151c33 61 95 98 166 98c99 0 157 -55 157 -156z" />
    <glyph glyph-name="uni044E" unicode="&#x44e;" horiz-adv-x="780" 
d="M736 252c0 -146 -93 -260 -244 -260c-139 0 -231 98 -243 230h-71v-222h-106v504h106v-190h76c11 59 38 106 80 143s95 55 158 55c151 0 244 -114 244 -260zM626 252c0 97 -50 168 -134 168c-83 0 -133 -71 -133 -168s50 -168 133 -168c84 0 134 71 134 168z" />
    <glyph glyph-name="uni044F" unicode="&#x44f;" horiz-adv-x="496" 
d="M220 504h204v-504h-105v188h-79l-104 -188h-113l118 204c-57 25 -92 75 -92 142c0 95 75 158 171 158zM319 280v132h-92c-44 0 -73 -25 -73 -66s29 -66 73 -66h92z" />
    <glyph glyph-name="uni0452" unicode="&#x452;" horiz-adv-x="573" 
d="M316 -212l-26 94c72 19 105 52 105 132v309c0 65 -28 97 -84 97c-70 0 -133 -73 -133 -206v-214h-106v565h-61v82h61v61h106v-61h129v-82h-129v-151c33 61 95 98 166 98c99 0 157 -55 157 -156v-335c0 -136 -60 -205 -185 -233z" />
    <glyph glyph-name="uni0463" unicode="&#x463;" horiz-adv-x="554" 
d="M513 153c0 -93 -65 -153 -174 -153h-200v417h-125v87h125v204h105v-204h160v-87h-160v-111h95c111 0 174 -60 174 -153zM407 153c0 41 -25 62 -75 62h-88v-123h88c49 0 75 18 75 61z" />
    <glyph glyph-name="uni0473" unicode="&#x473;" horiz-adv-x="588" 
d="M544 252c0 -144 -96 -260 -250 -260c-155 0 -250 116 -250 260s95 260 250 260c154 0 250 -116 250 -260zM156 297h276c-15 75 -66 126 -138 126s-123 -51 -138 -126zM432 207h-276c15 -75 66 -126 138 -126s123 51 138 126z" />
    <glyph glyph-name="uni0475" unicode="&#x475;" horiz-adv-x="561" 
d="M185 0l-171 504h107l113 -372l83 274c20 72 69 106 128 106c43 0 71 -9 102 -34l-46 -77c-15 13 -27 19 -46 19s-33 -14 -43 -41l-129 -379h-98z" />
    <glyph glyph-name="uni0432.loclBGR" horiz-adv-x="540" 
d="M72 233v261c0 141 89 214 205 214c111 0 193 -69 193 -174c0 -72 -40 -127 -92 -151c65 -28 115 -94 115 -174c0 -142 -91 -217 -210 -217c-132 0 -211 80 -211 241zM178 419h70c76 0 120 44 120 107c0 60 -34 95 -91 95c-59 0 -99 -36 -99 -123v-79zM386 205
c0 76 -48 121 -133 121h-75v-107c0 -92 41 -133 105 -133c63 0 103 40 103 119z" />
    <glyph glyph-name="uni0433.loclBGR" horiz-adv-x="437" 
d="M39 144c0 71 41 120 122 149c84 32 107 48 107 80c0 29 -25 47 -57 47c-36 0 -65 -16 -86 -48l-66 59c31 52 86 81 153 81c45 0 81 -13 110 -39s44 -59 44 -98c0 -72 -41 -121 -122 -147c-69 -23 -105 -46 -105 -86c0 -39 29 -58 70 -58c53 0 85 33 105 90l85 -45
c-23 -77 -87 -137 -190 -137c-100 0 -170 57 -170 152z" />
    <glyph glyph-name="uni0434.loclBGR" horiz-adv-x="583" 
d="M57 -68l95 31c18 -55 61 -83 130 -83c79 0 123 46 123 126v26v32c-27 -37 -78 -64 -133 -64c-73 0 -129 23 -169 70c-39 47 -59 109 -59 186c0 155 81 256 228 256c60 0 114 -31 133 -64v30v26h106v-495c0 -139 -86 -221 -229 -221c-116 0 -197 55 -225 144zM415 256
c0 101 -51 164 -130 164s-131 -63 -131 -164c0 -99 54 -164 131 -164c79 0 130 64 130 164z" />
    <glyph glyph-name="uni0436.loclBGR" horiz-adv-x="767" 
d="M8 0l221 272l-207 232h131l178 -205v409h105v-409l178 205h131l-207 -232l221 -272h-130l-193 246v-246h-105v246l-193 -246h-130z" />
    <glyph glyph-name="uni0437.loclBGR" horiz-adv-x="491" 
d="M36 -28l98 12c7 -61 45 -103 106 -103c65 0 104 49 104 133c0 79 -50 123 -130 123h-32v83h34c67 0 111 34 111 106c0 63 -36 97 -89 97c-48 0 -85 -27 -97 -87l-87 18c13 93 81 158 184 158c116 0 183 -65 183 -172c0 -76 -36 -127 -87 -155c64 -23 115 -90 115 -171
c0 -142 -86 -226 -209 -226c-115 0 -195 73 -204 184z" />
    <glyph glyph-name="uni0438.loclBGR" horiz-adv-x="566" 
d="M72 148v356h106v-327c0 -63 29 -93 81 -93c72 0 130 80 130 213v207h105v-504h-105v88c-39 -59 -97 -96 -162 -96c-93 0 -155 56 -155 156z" />
    <glyph glyph-name="uni0439.loclBGR" horiz-adv-x="566" 
d="M72 148v356h106v-327c0 -63 29 -93 81 -93c72 0 130 80 130 213v207h105v-504h-105v88c-39 -59 -97 -96 -162 -96c-93 0 -155 56 -155 156zM145 700h80c0 -44 20 -71 59 -71c37 0 58 27 58 71h80c0 -87 -49 -143 -138 -143c-91 0 -139 56 -139 143z" />
    <glyph glyph-name="uni043A.loclBGR" horiz-adv-x="509" 
d="M72 0v708h106v-409l178 205h130l-206 -232l221 -272h-130l-193 246v-246h-106z" />
    <glyph glyph-name="uni043B.loclBGR" horiz-adv-x="468" 
d="M14 0l171 504h98l171 -504h-107l-113 372l-113 -372h-107z" />
    <glyph glyph-name="uni043F.loclBGR" horiz-adv-x="566" 
d="M72 0v504h106v-88c37 59 96 96 161 96c93 0 155 -56 155 -156v-356h-105v328c0 61 -30 92 -82 92c-70 0 -129 -80 -129 -213v-207h-106z" />
    <glyph glyph-name="uni0442.loclBGR" horiz-adv-x="844" 
d="M72 0v504h106v-88c38 64 88 96 149 96c69 0 120 -35 140 -106c36 65 94 106 157 106c96 0 148 -57 148 -158v-354h-105v337c0 57 -23 83 -71 83c-68 0 -121 -77 -121 -216v-204h-105v337c0 57 -23 83 -71 83c-71 0 -121 -81 -121 -224v-196h-106z" />
    <glyph glyph-name="uni0446.loclBGR" horiz-adv-x="587" 
d="M463 -124v124h-74v88c-39 -59 -97 -96 -162 -96c-93 0 -155 56 -155 156v356h106v-327c0 -63 29 -93 81 -93c72 0 130 80 130 213v207h105v-412h68v-216h-99z" />
    <glyph glyph-name="uni0448.loclBGR" horiz-adv-x="844" 
d="M72 150v354h106v-337c0 -57 22 -83 70 -83c69 0 122 78 122 217v203h105v-337c0 -57 22 -83 70 -83c71 0 122 81 122 224v196h105v-504h-105v88c-39 -63 -85 -96 -150 -96c-68 0 -120 37 -140 106c-36 -65 -94 -106 -157 -106c-95 0 -148 57 -148 158z" />
    <glyph glyph-name="uni0449.loclBGR" horiz-adv-x="865" 
d="M741 -124v124h-74v88c-39 -63 -85 -96 -150 -96c-68 0 -120 37 -140 106c-36 -65 -94 -106 -157 -106c-95 0 -148 57 -148 158v354h106v-337c0 -57 22 -83 70 -83c69 0 122 78 122 217v203h105v-337c0 -57 22 -83 70 -83c71 0 122 81 122 224v196h105v-412h68v-216h-99z
" />
    <glyph glyph-name="uni044C.loclBGR" horiz-adv-x="513" 
d="M72 189v315h106v-176c28 7 59 11 94 11c127 0 195 -64 195 -171c0 -100 -88 -176 -199 -176c-121 0 -196 65 -196 197zM360 167c0 52 -36 80 -97 80c-33 0 -61 -4 -85 -11v-51c0 -64 33 -101 90 -101c56 0 92 35 92 83z" />
    <glyph glyph-name="uni044A.loclBGR" horiz-adv-x="573" 
d="M139 189v223h-119v92h224v-176c29 7 61 11 94 11c127 0 195 -64 195 -171c0 -100 -88 -176 -199 -176c-120 0 -195 66 -195 197zM426 167c0 52 -36 80 -97 80c-33 0 -61 -4 -85 -11v-51c0 -64 33 -101 90 -101c56 0 92 35 92 83z" />
    <glyph glyph-name="uni044E.loclBGR" horiz-adv-x="780" 
d="M736 252c0 -146 -93 -260 -244 -260c-139 0 -231 98 -243 230h-71v-222h-106v708h106v-394h76c11 59 38 106 80 143s95 55 158 55c151 0 244 -114 244 -260zM626 252c0 97 -50 168 -134 168c-83 0 -133 -71 -133 -168s50 -168 133 -168c84 0 134 71 134 168z" />
    <glyph glyph-name="uni04570457" horiz-adv-x="500" 
d="M-35 644c0 37 28 65 65 65s64 -28 64 -65c0 -36 -27 -64 -64 -64s-65 28 -65 64zM113 644c0 37 27 65 64 65s64 -28 64 -65c0 -36 -27 -64 -64 -64s-64 28 -64 64zM260 644c0 37 27 65 64 65s65 -28 65 -65c0 -36 -28 -64 -65 -64s-64 28 -64 64zM407 644
c0 37 27 65 64 65s65 -28 65 -65c0 -36 -28 -64 -65 -64s-64 28 -64 64zM72 0v504h106v-504h-106zM323 0v504h105v-504h-105z" />
    <glyph glyph-name="Alpha" unicode="&#x391;" horiz-adv-x="613" 
d="M11 0l241 700h109l242 -700h-119l-56 175h-242l-57 -175h-118zM218 278h177l-88 275z" />
    <glyph glyph-name="Beta" unicode="&#x392;" horiz-adv-x="614" 
d="M83 0v700h247c123 0 198 -66 198 -186c0 -61 -29 -109 -74 -132c69 -27 110 -85 110 -174c0 -131 -85 -208 -226 -208h-255zM194 421h131c63 0 95 27 95 88c0 63 -32 88 -97 88h-129v-176zM194 103h132c87 0 127 35 127 107c0 73 -40 108 -127 108h-132v-215z" />
    <glyph glyph-name="Gamma" unicode="&#x393;" horiz-adv-x="531" 
d="M83 0v700h422v-103h-311v-597h-111z" />
    <glyph glyph-name="uni0394" unicode="&#x394;" horiz-adv-x="613" 
d="M361 700l242 -700h-592l241 700h109zM162 103h289l-144 450z" />
    <glyph glyph-name="Epsilon" unicode="&#x395;" horiz-adv-x="566" 
d="M83 0v700h422v-103h-311v-173h251v-102h-251v-219h321v-103h-432z" />
    <glyph glyph-name="Zeta" unicode="&#x396;" horiz-adv-x="557" 
d="M38 0v52l318 545h-302v103h453v-52l-315 -545h327v-103h-481z" />
    <glyph glyph-name="Eta" unicode="&#x397;" horiz-adv-x="690" 
d="M83 0v700h111v-275h303v275h110v-700h-110v322h-303v-322h-111z" />
    <glyph glyph-name="Theta" unicode="&#x398;" horiz-adv-x="742" 
d="M48 350c-3 229 147 360 323 358c176 2 326 -129 323 -358c3 -229 -147 -360 -323 -358c-176 -2 -326 129 -323 358zM581 350c0 170 -93 255 -210 255s-210 -85 -210 -255s93 -255 210 -255s210 85 210 255zM241 307v86h261v-86h-261z" />
    <glyph glyph-name="Iota" unicode="&#x399;" horiz-adv-x="277" 
d="M83 0v700h111v-700h-111z" />
    <glyph glyph-name="Kappa" unicode="&#x39a;" horiz-adv-x="614" 
d="M83 0v700h111v-272l249 272h137l-285 -313l307 -387h-140l-268 345v-345h-111z" />
    <glyph glyph-name="Lambda" unicode="&#x39b;" horiz-adv-x="613" 
d="M11 0l241 700h109l242 -700h-119l-177 553l-178 -553h-118z" />
    <glyph glyph-name="Mu" unicode="&#x39c;" horiz-adv-x="775" 
d="M83 0v700h127l178 -464l178 464h126v-700h-110v474l-155 -410h-78l-155 410v-474h-111z" />
    <glyph glyph-name="Nu" unicode="&#x39d;" horiz-adv-x="680" 
d="M83 0v700h119l284 -502v502h111v-700h-119l-284 501v-501h-111z" />
    <glyph glyph-name="Xi" unicode="&#x39e;" horiz-adv-x="557" 
d="M60 597v103h437v-103h-437zM113 322v102h331v-102h-331zM52 0v103h454v-103h-454z" />
    <glyph glyph-name="Omicron" unicode="&#x39f;" horiz-adv-x="742" 
d="M48 350c-3 229 147 360 323 358c176 2 326 -129 323 -358c3 -229 -147 -360 -323 -358c-176 -2 -326 129 -323 358zM581 350c0 170 -93 255 -210 255s-210 -85 -210 -255s93 -255 210 -255s210 85 210 255z" />
    <glyph glyph-name="Pi" unicode="&#x3a0;" horiz-adv-x="687" 
d="M83 0v700h521v-700h-110v597h-300v-597h-111z" />
    <glyph glyph-name="Rho" unicode="&#x3a1;" horiz-adv-x="590" 
d="M83 0v700h256c137 0 214 -82 214 -207s-77 -207 -214 -207h-145v-286h-111zM194 389h142c68 0 104 36 104 104s-36 104 -104 104h-142v-208z" />
    <glyph glyph-name="Sigma" unicode="&#x3a3;" horiz-adv-x="551" 
d="M54 0v52l194 298l-194 298v52h437v-103h-280l150 -234v-26l-150 -234h288v-103h-445z" />
    <glyph glyph-name="Tau" unicode="&#x3a4;" horiz-adv-x="561" 
d="M225 0v597h-199v103h509v-103h-199v-597h-111z" />
    <glyph glyph-name="Upsilon" unicode="&#x3a5;" horiz-adv-x="540" 
d="M215 0v300l-205 400h121l139 -290l139 290h121l-205 -400v-300h-110z" />
    <glyph glyph-name="Phi" unicode="&#x3a6;" horiz-adv-x="765" 
d="M327 0v73c-145 -2 -283 111 -279 277c-4 166 134 279 279 277v73h111v-73c145 2 283 -111 279 -277c4 -166 -134 -279 -279 -277v-73h-111zM327 176v348c-47 0 -86 -15 -118 -44s-48 -73 -48 -130s16 -101 48 -130s71 -44 118 -44zM604 350c0 57 -16 101 -48 130
s-71 44 -118 44v-348c47 0 86 15 118 44s48 73 48 130z" />
    <glyph glyph-name="Chi" unicode="&#x3a7;" horiz-adv-x="590" 
d="M14 0l220 380l-184 320h121l124 -215l123 215h122l-185 -320l221 -380h-123l-158 274l-158 -274h-123z" />
    <glyph glyph-name="Psi" unicode="&#x3a8;" horiz-adv-x="753" 
d="M321 0v184c-163 1 -247 99 -247 258v258h111v-258c0 -96 51 -153 135 -156h1v414h111v-414h1c84 3 135 60 135 156v258h111v-258c0 -159 -84 -257 -247 -258v-184h-111z" />
    <glyph glyph-name="uni03A9" unicode="&#x3a9;" horiz-adv-x="689" 
d="M33 0v96h148c-89 84 -151 176 -151 305c0 177 123 307 315 307s315 -130 315 -307c0 -129 -62 -221 -151 -305h148v-96h-267v96c105 83 157 182 157 296c0 132 -84 213 -202 213c-119 0 -202 -81 -202 -213c0 -114 52 -213 156 -296v-96h-266z" />
    <glyph glyph-name="Alphatonos" unicode="&#x386;" horiz-adv-x="613" 
d="M11 0l241 700h109l242 -700h-119l-56 175h-242l-57 -175h-118zM218 278h177l-88 275zM-7 554l43 146h143l-105 -146h-81z" />
    <glyph glyph-name="Epsilontonos" unicode="&#x388;" horiz-adv-x="566" 
d="M83 0v700h422v-103h-311v-173h251v-102h-251v-219h321v-103h-432zM-153 554l43 146h143l-105 -146h-81z" />
    <glyph glyph-name="Etatonos" unicode="&#x389;" horiz-adv-x="690" 
d="M83 0v700h111v-275h303v275h110v-700h-110v322h-303v-322h-111zM-153 554l43 146h143l-105 -146h-81z" />
    <glyph glyph-name="Iotatonos" unicode="&#x38a;" horiz-adv-x="277" 
d="M83 0v700h111v-700h-111zM-153 554l43 146h143l-105 -146h-81z" />
    <glyph glyph-name="Omicrontonos" unicode="&#x38c;" horiz-adv-x="742" 
d="M48 350c-3 229 147 360 323 358c176 2 326 -129 323 -358c3 -229 -147 -360 -323 -358c-176 -2 -326 129 -323 358zM581 350c0 170 -93 255 -210 255s-210 -85 -210 -255s93 -255 210 -255s210 85 210 255zM-98 554l43 146h143l-105 -146h-81z" />
    <glyph glyph-name="Upsilontonos" unicode="&#x38e;" horiz-adv-x="540" 
d="M215 0v300l-205 400h121l139 -290l139 290h121l-205 -400v-300h-110zM-196 554l43 146h143l-105 -146h-81z" />
    <glyph glyph-name="Omegatonos" unicode="&#x38f;" horiz-adv-x="689" 
d="M33 0v96h148c-89 84 -151 176 -151 305c0 177 123 307 315 307s315 -130 315 -307c0 -129 -62 -221 -151 -305h148v-96h-267v96c105 83 157 182 157 296c0 132 -84 213 -202 213c-119 0 -202 -81 -202 -213c0 -114 52 -213 156 -296v-96h-266zM-125 554l43 146h143
l-105 -146h-81z" />
    <glyph glyph-name="Iotadieresis" unicode="&#x3aa;" horiz-adv-x="277" 
d="M83 0v700h111v-700h-111zM-22 840c0 37 28 65 65 65s64 -28 64 -65c0 -36 -27 -64 -64 -64s-65 28 -65 64zM169 840c0 37 27 65 64 65s65 -28 65 -65c0 -36 -28 -64 -65 -64s-64 28 -64 64z" />
    <glyph glyph-name="Upsilondieresis" unicode="&#x3ab;" horiz-adv-x="540" 
d="M215 0v300l-205 400h121l139 -290l139 290h121l-205 -400v-300h-110zM110 840c0 37 28 65 65 65s64 -28 64 -65c0 -36 -27 -64 -64 -64s-65 28 -65 64zM301 840c0 37 27 65 64 65s65 -28 65 -65c0 -36 -28 -64 -65 -64s-64 28 -64 64z" />
    <glyph glyph-name="alpha" unicode="&#x3b1;" horiz-adv-x="583" 
d="M44 252c0 78 19 141 58 188c39 48 93 72 163 72c60 0 112 -25 140 -61v30v23h106v-504h-106v28v30c-20 -35 -75 -66 -140 -66c-70 0 -124 24 -163 71c-39 48 -58 111 -58 189zM415 252c0 103 -51 168 -130 168c-77 0 -131 -65 -131 -168s54 -168 131 -168
c79 0 130 65 130 168z" />
    <glyph glyph-name="beta" unicode="&#x3b2;" horiz-adv-x="553" 
d="M72 -204v698c0 139 87 214 199 214c117 0 188 -69 188 -176c0 -65 -39 -120 -87 -135c79 -21 138 -88 138 -188c0 -137 -82 -217 -205 -217c-56 0 -108 25 -129 58v-254h-104zM406 208c0 81 -53 126 -136 126h-32v96h25c60 0 98 34 98 94c0 57 -35 92 -90 92
c-59 0 -95 -35 -95 -108v-296c0 -80 43 -127 114 -127c76 0 116 48 116 123z" />
    <glyph glyph-name="gamma" unicode="&#x3b3;" horiz-adv-x="472" 
d="M182 -204v218l-168 490h107l115 -368l115 368h107l-171 -490v-218h-105z" />
    <glyph glyph-name="delta" unicode="&#x3b4;" horiz-adv-x="588" 
d="M44 252c0 137 96 246 210 254l-146 110v84h377v-93h-219l164 -130c76 -61 114 -134 114 -225c0 -144 -96 -260 -250 -260c-155 0 -250 116 -250 260zM433 252c0 47 -12 86 -37 119s-59 49 -102 49s-78 -16 -103 -49s-37 -72 -37 -119s12 -86 37 -119s60 -49 103 -49
s77 16 102 49s37 72 37 119z" />
    <glyph glyph-name="epsilon" unicode="&#x3b5;" horiz-adv-x="439" 
d="M42 147c0 60 33 102 84 122c-42 23 -63 60 -63 110c0 76 61 133 161 133c91 0 147 -46 162 -118l-89 -21c-9 37 -33 54 -72 54c-41 0 -69 -24 -69 -60c0 -40 31 -65 82 -65h26v-75h-28c-56 0 -92 -27 -92 -74c0 -41 32 -71 79 -71c45 0 77 26 85 73l95 -14
c-11 -88 -80 -149 -180 -149c-104 0 -181 64 -181 155z" />
    <glyph glyph-name="zeta" unicode="&#x3b6;" horiz-adv-x="484" 
d="M134 -160l56 83c25 -30 59 -45 100 -45c45 0 77 23 77 67c0 43 -31 68 -92 68h-43c-119 0 -196 72 -196 192c0 81 37 142 110 218l178 185h-261v92h396v-84l-234 -248c-59 -63 -83 -103 -83 -158c0 -68 45 -107 113 -107h39c112 0 180 -59 180 -158
c0 -93 -71 -157 -184 -157c-65 0 -117 17 -156 52z" />
    <glyph glyph-name="eta" unicode="&#x3b7;" horiz-adv-x="566" 
d="M389 -204v532c0 61 -30 92 -82 92c-70 0 -129 -80 -129 -213v-207h-106v504h106v-88c37 59 96 96 161 96c93 0 155 -56 155 -156v-560h-105z" />
    <glyph glyph-name="theta" unicode="&#x3b8;" horiz-adv-x="628" 
d="M44 350c0 218 99 358 270 358c172 0 270 -139 270 -358s-98 -358 -270 -358c-171 0 -270 140 -270 358zM156 396h316c-9 145 -67 220 -158 220s-149 -75 -158 -220zM472 304h-316c9 -145 67 -220 158 -220s149 75 158 220z" />
    <glyph glyph-name="iota" unicode="&#x3b9;" horiz-adv-x="250" 
d="M72 0v504h106v-504h-106z" />
    <glyph glyph-name="kappa" unicode="&#x3ba;" horiz-adv-x="509" 
d="M72 0v504h106v-205l178 205h130l-206 -232l221 -272h-130l-193 246v-246h-106z" />
    <glyph glyph-name="lambda" unicode="&#x3bb;" horiz-adv-x="479" 
d="M10 0l183 482l-28 74c-16 43 -31 60 -66 60c-12 0 -22 -2 -29 -5l-24 86c21 7 42 11 63 11c69 -1 116 -36 143 -111l217 -597h-106l-119 344l-127 -344h-107z" />
    <glyph glyph-name="uni03BC" unicode="&#x3bc;" horiz-adv-x="566" 
d="M72 -204v708h106v-327c0 -63 29 -93 81 -93c72 0 130 80 130 213v207h105v-504h-105v88c-33 -64 -79 -96 -136 -96c-33 0 -60 12 -75 29v-225h-106z" />
    <glyph glyph-name="nu" unicode="&#x3bd;" horiz-adv-x="468" 
d="M185 0l-171 504h107l113 -372l113 372h107l-171 -504h-98z" />
    <glyph glyph-name="xi" unicode="&#x3be;" horiz-adv-x="485" 
d="M111 -130l58 66c40 -45 73 -58 113 -58c45 0 77 23 77 67c0 43 -31 68 -92 68h-18c-116 0 -205 72 -205 199c0 85 47 142 111 170c-56 28 -89 79 -89 150c0 93 83 176 206 176c107 0 187 -54 203 -158l-97 -26c-11 60 -50 92 -106 92c-59 0 -101 -37 -101 -94
c0 -56 44 -95 111 -95h73v-88h-77c-72 0 -128 -45 -128 -121c0 -73 49 -115 122 -115h22c108 0 172 -52 172 -156c0 -92 -77 -159 -184 -159c-69 0 -126 27 -171 82z" />
    <glyph glyph-name="omicron" unicode="&#x3bf;" horiz-adv-x="588" 
d="M44 252c0 144 95 260 250 260c154 0 250 -116 250 -260s-96 -260 -250 -260c-155 0 -250 116 -250 260zM433 252c0 47 -12 86 -37 119s-59 49 -102 49s-78 -16 -103 -49s-37 -72 -37 -119s12 -86 37 -119s60 -49 103 -49s77 16 102 49s37 72 37 119z" />
    <glyph glyph-name="pi" unicode="&#x3c0;" horiz-adv-x="584" 
d="M107 0v412h-85v92h540v-92h-85v-412h-105v412h-160v-412h-105z" />
    <glyph glyph-name="rho" unicode="&#x3c1;" horiz-adv-x="583" 
d="M72 -204v461c0 152 90 255 239 255c147 0 228 -103 228 -260s-81 -260 -228 -260c-52 0 -108 26 -133 62v-30v-228h-106zM429 252c0 104 -47 168 -126 168c-77 0 -125 -64 -125 -168s48 -168 125 -168c79 0 126 64 126 168z" />
    <glyph glyph-name="uni03C2" unicode="&#x3c2;" horiz-adv-x="542" 
d="M147 -165l54 82c27 -26 58 -39 95 -39c45 0 78 21 78 61c0 41 -27 65 -75 65h-15c-145 0 -240 104 -240 248c0 143 83 260 239 260c108 0 184 -49 221 -142l-94 -39c-28 59 -67 89 -127 89c-79 0 -129 -64 -129 -160c0 -107 68 -165 156 -165h21c89 0 151 -53 151 -152
c0 -47 -18 -85 -53 -113s-79 -42 -133 -42c-62 0 -112 16 -149 47z" />
    <glyph glyph-name="sigma" unicode="&#x3c3;" horiz-adv-x="589" 
d="M44 252c0 144 95 260 250 260c23 0 45 -3 68 -8h212v-92h-83c35 -42 53 -96 53 -163c0 -141 -96 -257 -250 -257c-155 0 -250 116 -250 260zM433 252c0 47 -12 86 -37 119s-59 49 -102 49s-78 -16 -103 -49s-37 -72 -37 -119s12 -86 37 -119s60 -49 103 -49s77 16 102 49
s37 72 37 119z" />
    <glyph glyph-name="tau" unicode="&#x3c4;" horiz-adv-x="399" 
d="M147 0v412h-137v92h380v-92h-138v-412h-105z" />
    <glyph glyph-name="upsilon" unicode="&#x3c5;" horiz-adv-x="567" 
d="M72 216v288h106v-296c0 -85 43 -124 106 -124c61 0 105 40 105 124v296h106v-288c0 -144 -75 -224 -211 -224s-212 79 -212 224z" />
    <glyph glyph-name="phi" unicode="&#x3c6;" horiz-adv-x="705" 
d="M300 -204v196c-153 2 -256 114 -256 260c0 143 97 251 256 259v110h105v-110c159 -8 256 -116 256 -259c0 -146 -103 -258 -256 -260v-196h-105zM298 84h2v336h-2c-87 -1 -144 -71 -144 -168s57 -167 144 -168zM405 84h2c87 1 144 71 144 168s-57 167 -144 168h-2v-336z
" />
    <glyph glyph-name="chi" unicode="&#x3c7;" horiz-adv-x="464" 
d="M8 0l168 271l-145 233h112l89 -144l90 144h111l-144 -233l168 -271h-111l-114 181l-114 -181h-110z" />
    <glyph glyph-name="psi" unicode="&#x3c8;" horiz-adv-x="722" 
d="M308 -204v196c-148 0 -236 91 -236 238v274h106v-279c0 -85 53 -141 130 -141v537h106v-537c77 0 130 56 130 141v279h106v-274c0 -147 -88 -238 -236 -238v-196h-106z" />
    <glyph glyph-name="omega" unicode="&#x3c9;" horiz-adv-x="749" 
d="M38 211c0 108 38 201 109 301l87 -61c-59 -84 -86 -155 -86 -244c0 -83 39 -123 91 -123s83 42 83 109v181h105v-181c0 -67 31 -109 83 -109s90 40 90 123c0 88 -28 160 -85 244l87 61c71 -100 109 -193 109 -301c0 -154 -90 -219 -187 -219c-79 0 -129 41 -150 104
c-21 -63 -72 -104 -149 -104c-97 0 -187 65 -187 219z" />
    <glyph glyph-name="iotatonos" unicode="&#x3af;" horiz-adv-x="250" 
d="M72 0v504h106v-504h-106zM80 560l43 146h143l-105 -146h-81z" />
    <glyph glyph-name="iotadieresis" unicode="&#x3ca;" horiz-adv-x="250" 
d="M72 0v504h106v-504h-106zM-35 644c0 37 28 65 65 65s64 -28 64 -65c0 -36 -27 -64 -64 -64s-65 28 -65 64zM156 644c0 37 27 65 64 65s65 -28 65 -65c0 -36 -28 -64 -65 -64s-64 28 -64 64z" />
    <glyph glyph-name="iotadieresistonos" unicode="&#x390;" horiz-adv-x="250" 
d="M72 0v504h106v-504h-106zM52 560l44 146h115l-95 -146h-64zM-61 630c0 29 22 52 50 52c31 0 53 -23 53 -52c0 -28 -22 -50 -53 -50c-28 0 -50 22 -50 50zM208 630c0 29 23 52 51 52c29 0 52 -23 52 -52c0 -28 -23 -50 -52 -50c-28 0 -51 22 -51 50z" />
    <glyph glyph-name="upsilontonos" unicode="&#x3cd;" horiz-adv-x="567" 
d="M72 216v288h106v-296c0 -85 43 -124 106 -124c61 0 105 40 105 124v296h106v-288c0 -144 -75 -224 -211 -224s-212 79 -212 224zM239 560l43 146h143l-105 -146h-81z" />
    <glyph glyph-name="upsilondieresis" unicode="&#x3cb;" horiz-adv-x="567" 
d="M72 216v288h106v-296c0 -85 43 -124 106 -124c61 0 105 40 105 124v296h106v-288c0 -144 -75 -224 -211 -224s-212 79 -212 224zM123 644c0 37 28 65 65 65s64 -28 64 -65c0 -36 -27 -64 -64 -64s-65 28 -65 64zM314 644c0 37 27 65 64 65s65 -28 65 -65
c0 -36 -28 -64 -65 -64s-64 28 -64 64z" />
    <glyph glyph-name="upsilondieresistonos" unicode="&#x3b0;" horiz-adv-x="567" 
d="M72 216v288h106v-296c0 -85 43 -124 106 -124c61 0 105 40 105 124v296h106v-288c0 -144 -75 -224 -211 -224s-212 79 -212 224zM210 560l44 146h115l-95 -146h-64zM97 630c0 29 22 52 50 52c31 0 53 -23 53 -52c0 -28 -22 -50 -53 -50c-28 0 -50 22 -50 50zM366 630
c0 29 23 52 51 52c29 0 52 -23 52 -52c0 -28 -23 -50 -52 -50c-28 0 -51 22 -51 50z" />
    <glyph glyph-name="omicrontonos" unicode="&#x3cc;" horiz-adv-x="588" 
d="M44 252c0 144 95 260 250 260c154 0 250 -116 250 -260s-96 -260 -250 -260c-155 0 -250 116 -250 260zM433 252c0 47 -12 86 -37 119s-59 49 -102 49s-78 -16 -103 -49s-37 -72 -37 -119s12 -86 37 -119s60 -49 103 -49s77 16 102 49s37 72 37 119zM249 560l43 146h143
l-105 -146h-81z" />
    <glyph glyph-name="omegatonos" unicode="&#x3ce;" horiz-adv-x="749" 
d="M38 211c0 108 38 201 109 301l87 -61c-59 -84 -86 -155 -86 -244c0 -83 39 -123 91 -123s83 42 83 109v181h105v-181c0 -67 31 -109 83 -109s90 40 90 123c0 88 -28 160 -85 244l87 61c71 -100 109 -193 109 -301c0 -154 -90 -219 -187 -219c-79 0 -129 41 -150 104
c-21 -63 -72 -104 -149 -104c-97 0 -187 65 -187 219zM330 560l43 146h143l-105 -146h-81z" />
    <glyph glyph-name="alphatonos" unicode="&#x3ac;" horiz-adv-x="583" 
d="M44 252c0 78 19 141 58 188c39 48 93 72 163 72c60 0 112 -25 140 -61v30v23h106v-504h-106v28v30c-20 -35 -75 -66 -140 -66c-70 0 -124 24 -163 71c-39 48 -58 111 -58 189zM415 252c0 103 -51 168 -130 168c-77 0 -131 -65 -131 -168s54 -168 131 -168
c79 0 130 65 130 168zM234 560l43 146h143l-105 -146h-81z" />
    <glyph glyph-name="epsilontonos" unicode="&#x3ad;" horiz-adv-x="439" 
d="M42 147c0 60 33 102 84 122c-42 23 -63 60 -63 110c0 76 61 133 161 133c91 0 147 -46 162 -118l-89 -21c-9 37 -33 54 -72 54c-41 0 -69 -24 -69 -60c0 -40 31 -65 82 -65h26v-75h-28c-56 0 -92 -27 -92 -74c0 -41 32 -71 79 -71c45 0 77 26 85 73l95 -14
c-11 -88 -80 -149 -180 -149c-104 0 -181 64 -181 155zM177 560l43 146h143l-105 -146h-81z" />
    <glyph glyph-name="etatonos" unicode="&#x3ae;" horiz-adv-x="566" 
d="M389 -204v532c0 61 -30 92 -82 92c-70 0 -129 -80 -129 -213v-207h-106v504h106v-88c37 59 96 96 161 96c93 0 155 -56 155 -156v-560h-105zM249 560l43 146h143l-105 -146h-81z" />
    <glyph glyph-name="lambda_lambda" horiz-adv-x="832" 
d="M605 597l217 -597h-106l-119 344l-127 -344h-107l-119 344l-127 -344h-107l183 482l-28 74c-16 44 -31 60 -66 60c-12 0 -22 -2 -29 -5l-24 86c21 7 42 11 63 11c69 -1 116 -36 143 -111l165 -454l129 339l-28 74c-16 43 -31 60 -66 60c-12 0 -22 -2 -29 -5l-24 86
c20 7 41 11 63 11c69 0 116 -36 143 -111z" />
    <glyph glyph-name="zero" unicode="0" horiz-adv-x="609" 
d="M52 350c0 224 90 358 253 358s253 -134 253 -358s-90 -358 -253 -358s-253 134 -253 358zM452 350c0 165 -51 260 -147 260c-97 0 -147 -95 -147 -260s50 -260 147 -260c96 0 147 95 147 260z" />
    <glyph glyph-name="one" unicode="1" horiz-adv-x="366" 
d="M176 0v547l-128 -78v116l192 115h43v-700h-107z" />
    <glyph glyph-name="two" unicode="2" horiz-adv-x="506" 
d="M28 0v42l251 325c48 60 62 93 62 140c0 64 -35 103 -98 103c-56 0 -95 -40 -104 -107l-99 19c8 107 92 186 205 186c124 0 203 -78 203 -198c0 -57 -23 -114 -68 -173l-183 -239h267v-98h-436z" />
    <glyph glyph-name="three" unicode="3" horiz-adv-x="548" 
d="M44 193l103 14c15 -73 56 -117 125 -117c77 0 125 51 125 132c0 87 -48 136 -124 136c-21 0 -42 -5 -61 -16l-44 61l146 199h-237v98h391v-36l-172 -231c11 1 20 2 27 2c106 0 181 -84 181 -212c0 -139 -96 -231 -232 -231c-124 0 -216 81 -228 201z" />
    <glyph glyph-name="four" unicode="4" horiz-adv-x="562" 
d="M345 0v139h-303v50l295 511h115v-463h83v-98h-83v-139h-107zM175 237h170v306z" />
    <glyph glyph-name="five" unicode="5" horiz-adv-x="520" 
d="M43 183l101 19c13 -75 53 -112 118 -112c76 0 117 52 117 141s-43 139 -119 139c-53 0 -100 -29 -133 -73l-69 14l38 389h350v-98h-261l-18 -171c31 22 68 33 110 33c135 0 210 -90 210 -233c0 -140 -90 -239 -225 -239c-119 0 -206 72 -219 191z" />
    <glyph glyph-name="six" unicode="6" horiz-adv-x="546" 
d="M44 220c0 41 13 90 37 131l203 357h117l-153 -265c9 3 19 5 31 5c127 0 223 -95 223 -228c0 -129 -97 -228 -229 -228c-130 0 -229 99 -229 228zM395 220c0 80 -51 130 -122 130s-122 -50 -122 -130c0 -77 53 -130 122 -130c71 0 122 53 122 130z" />
    <glyph glyph-name="seven" unicode="7" horiz-adv-x="475" 
d="M71 0l248 602h-287v98h413v-42l-268 -658h-106z" />
    <glyph glyph-name="eight" unicode="8" horiz-adv-x="537" 
d="M46 205c0 80 38 143 98 172c-45 32 -72 83 -72 143c0 105 82 188 196 188c115 0 197 -83 197 -188c0 -60 -28 -111 -73 -143c61 -29 99 -92 99 -172c0 -132 -103 -213 -223 -213c-121 0 -222 81 -222 213zM364 518c0 60 -37 99 -96 99c-57 0 -96 -39 -96 -99
s39 -100 96 -100s96 40 96 100zM384 205c0 72 -48 115 -116 115s-115 -43 -115 -115s47 -115 115 -115s116 43 116 115z" />
    <glyph glyph-name="nine" unicode="9" horiz-adv-x="546" 
d="M145 -8l153 265c-9 -3 -19 -5 -31 -5c-127 0 -223 95 -223 228c0 129 97 228 229 228c130 0 229 -99 229 -228c0 -41 -12 -86 -35 -125l-205 -363h-117zM395 480c0 77 -53 130 -122 130s-122 -53 -122 -130c0 -80 51 -130 122 -130s122 50 122 130z" />
    <glyph glyph-name="zero.osf" horiz-adv-x="588" 
d="M44 252c0 144 95 260 250 260c154 0 250 -116 250 -260s-96 -260 -250 -260c-155 0 -250 116 -250 260zM433 252c0 47 -12 86 -37 119s-59 49 -102 49s-78 -16 -103 -49s-37 -72 -37 -119s12 -86 37 -119s60 -49 103 -49s77 16 102 49s37 72 37 119z" />
    <glyph glyph-name="one.osf" horiz-adv-x="351" 
d="M171 0v349l-128 -78v118l192 115h43v-504h-107z" />
    <glyph glyph-name="two.osf" horiz-adv-x="439" 
d="M35 0v42l142 144l22 22c37 37 61 64 72 80s17 34 17 55c0 45 -30 71 -74 71c-48 0 -81 -28 -88 -85l-94 16c2 96 83 167 182 167c113 0 176 -69 176 -166c0 -23 -4 -45 -13 -64s-20 -36 -33 -51s-33 -36 -60 -64l-68 -69h191v-98h-372z" />
    <glyph glyph-name="three.osf" horiz-adv-x="548" 
d="M44 -3l103 14c15 -73 56 -117 125 -117c77 0 125 51 125 132c0 87 -48 136 -124 136c-21 0 -42 -5 -61 -16l-44 61l146 199h-237v98h391v-36l-172 -231c11 1 20 2 27 2c106 0 181 -84 181 -212c0 -139 -96 -231 -232 -231c-124 0 -216 81 -228 201z" />
    <glyph glyph-name="four.osf" horiz-adv-x="562" 
d="M345 -196v139h-303v50l295 511h115v-463h83v-98h-83v-139h-107zM175 41h170v306z" />
    <glyph glyph-name="five.osf" horiz-adv-x="520" 
d="M43 -13l101 19c13 -75 53 -112 118 -112c76 0 117 52 117 141s-43 139 -119 139c-53 0 -100 -29 -133 -73l-69 14l38 389h350v-98h-261l-18 -171c31 22 68 33 110 33c135 0 210 -90 210 -233c0 -140 -90 -239 -225 -239c-119 0 -206 72 -219 191z" />
    <glyph glyph-name="six.osf" horiz-adv-x="546" 
d="M44 220c0 41 13 90 37 131l203 357h117l-153 -265c9 3 19 5 31 5c127 0 223 -95 223 -228c0 -129 -97 -228 -229 -228c-130 0 -229 99 -229 228zM395 220c0 80 -51 130 -122 130s-122 -50 -122 -130c0 -77 53 -130 122 -130c71 0 122 53 122 130z" />
    <glyph glyph-name="seven.osf" horiz-adv-x="475" 
d="M71 -196l248 602h-287v98h413v-42l-268 -658h-106z" />
    <glyph glyph-name="eight.osf" horiz-adv-x="537" 
d="M46 205c0 80 38 143 98 172c-45 32 -72 83 -72 143c0 105 82 188 196 188c115 0 197 -83 197 -188c0 -60 -28 -111 -73 -143c61 -29 99 -92 99 -172c0 -132 -103 -213 -223 -213c-121 0 -222 81 -222 213zM364 518c0 60 -37 99 -96 99c-57 0 -96 -39 -96 -99
s39 -100 96 -100s96 40 96 100zM384 205c0 72 -48 115 -116 115s-115 -43 -115 -115s47 -115 115 -115s116 43 116 115z" />
    <glyph glyph-name="nine.osf" horiz-adv-x="546" 
d="M145 -204l153 265c-9 -3 -19 -5 -31 -5c-127 0 -223 95 -223 228c0 129 97 228 229 228c130 0 229 -99 229 -228c0 -41 -12 -86 -35 -125l-205 -363h-117zM395 284c0 77 -53 130 -122 130s-122 -53 -122 -130c0 -80 51 -130 122 -130s122 50 122 130z" />
    <glyph glyph-name="zero.osf.zero" horiz-adv-x="588" 
d="M544 252c0 -144 -96 -260 -250 -260c-155 0 -250 116 -250 260s95 260 250 260c154 0 250 -116 250 -260zM154 252c0 -43 10 -79 30 -108l150 270c-12 4 -25 6 -40 6c-43 0 -78 -16 -103 -49s-37 -72 -37 -119zM433 252c0 41 -10 76 -29 107l-149 -269c12 -4 25 -6 39 -6
c43 0 77 16 102 49s37 72 37 119z" />
    <glyph glyph-name="zero.tf" 
d="M57 350c0 224 90 358 253 358s253 -134 253 -358s-90 -358 -253 -358s-253 134 -253 358zM457 350c0 165 -51 260 -147 260c-97 0 -147 -95 -147 -260s50 -260 147 -260c96 0 147 95 147 260z" />
    <glyph glyph-name="one.tf" 
d="M118 0v103h141v442l-129 -78v118l192 115h44v-597h137v-103h-385z" />
    <glyph glyph-name="two.tf" 
d="M92 0v42l251 325c48 60 62 93 62 140c0 64 -35 103 -98 103c-56 0 -95 -40 -104 -107l-99 19c8 107 92 186 205 186c124 0 203 -78 203 -198c0 -57 -23 -114 -68 -173l-183 -239h267v-98h-436z" />
    <glyph glyph-name="three.tf" 
d="M80 193l103 14c15 -73 56 -117 125 -117c77 0 125 51 125 132c0 87 -48 136 -124 136c-21 0 -42 -5 -61 -16l-44 61l146 199h-237v98h391v-36l-172 -231c11 1 20 2 27 2c106 0 181 -84 181 -212c0 -139 -96 -231 -232 -231c-124 0 -216 81 -228 201z" />
    <glyph glyph-name="four.tf" 
d="M366 0v139h-303v50l295 511h115v-463h83v-98h-83v-139h-107zM196 237h170v306z" />
    <glyph glyph-name="five.tf" 
d="M88 183l101 19c13 -75 53 -112 118 -112c76 0 117 52 117 141s-43 139 -119 139c-53 0 -100 -29 -133 -73l-69 14l38 389h350v-98h-261l-18 -171c31 22 68 33 110 33c135 0 210 -90 210 -233c0 -140 -90 -239 -225 -239c-119 0 -206 72 -219 191z" />
    <glyph glyph-name="six.tf" 
d="M81 220c0 41 13 90 37 131l203 357h117l-153 -265c9 3 19 5 31 5c127 0 223 -95 223 -228c0 -129 -97 -228 -229 -228c-130 0 -229 99 -229 228zM432 220c0 80 -51 130 -122 130s-122 -50 -122 -130c0 -77 53 -130 122 -130c71 0 122 53 122 130z" />
    <glyph glyph-name="seven.tf" 
d="M143 0l248 602h-287v98h413v-42l-268 -658h-106z" />
    <glyph glyph-name="eight.tf" 
d="M88 205c0 80 38 143 98 172c-45 32 -72 83 -72 143c0 105 82 188 196 188c115 0 197 -83 197 -188c0 -60 -28 -111 -73 -143c61 -29 99 -92 99 -172c0 -132 -103 -213 -223 -213c-121 0 -222 81 -222 213zM406 518c0 60 -37 99 -96 99c-57 0 -96 -39 -96 -99
s39 -100 96 -100s96 40 96 100zM426 205c0 72 -48 115 -116 115s-115 -43 -115 -115s47 -115 115 -115s116 43 116 115z" />
    <glyph glyph-name="nine.tf" 
d="M182 -8l153 265c-9 -3 -19 -5 -31 -5c-127 0 -223 95 -223 228c0 129 97 228 229 228c130 0 229 -99 229 -228c0 -41 -12 -86 -35 -125l-205 -363h-117zM432 480c0 77 -53 130 -122 130s-122 -53 -122 -130c0 -80 51 -130 122 -130s122 50 122 130z" />
    <glyph glyph-name="zero.tf.zero" 
d="M57 350c0 224 90 358 253 358s253 -134 253 -358s-90 -358 -253 -358s-253 134 -253 358zM181 209l204 375c-21 17 -46 26 -75 26c-97 0 -147 -95 -147 -260c0 -55 6 -102 18 -141zM457 350c0 57 -6 104 -19 141l-204 -374c21 -18 47 -27 76 -27c96 0 147 95 147 260z
" />
    <glyph glyph-name="zero.tosf" 
d="M60 252c0 144 95 260 250 260c154 0 250 -116 250 -260s-96 -260 -250 -260c-155 0 -250 116 -250 260zM449 252c0 47 -12 86 -37 119s-59 49 -102 49s-78 -16 -103 -49s-37 -72 -37 -119s12 -86 37 -119s60 -49 103 -49s77 16 102 49s37 72 37 119z" />
    <glyph glyph-name="one.tosf" 
d="M118 0v98h143v251l-128 -78v118l192 115h43v-406h134v-98h-384z" />
    <glyph glyph-name="two.tosf" 
d="M125 0v42l142 144l22 22c37 37 61 64 72 80s17 34 17 55c0 45 -30 71 -74 71c-48 0 -81 -28 -88 -85l-94 16c2 96 83 167 182 167c113 0 176 -69 176 -166c0 -23 -4 -45 -13 -64s-20 -36 -33 -51s-33 -36 -60 -64l-68 -69h191v-98h-372z" />
    <glyph glyph-name="three.tosf" 
d="M80 -3l103 14c15 -73 56 -117 125 -117c77 0 125 51 125 132c0 87 -48 136 -124 136c-21 0 -42 -5 -61 -16l-44 61l146 199h-237v98h391v-36l-172 -231c11 1 20 2 27 2c106 0 181 -84 181 -212c0 -139 -96 -231 -232 -231c-124 0 -216 81 -228 201z" />
    <glyph glyph-name="four.tosf" 
d="M370 -196v139h-303v50l295 511h115v-463h83v-98h-83v-139h-107zM200 41h170v306z" />
    <glyph glyph-name="five.tosf" 
d="M88 -13l101 19c13 -75 53 -112 118 -112c76 0 117 52 117 141s-43 139 -119 139c-53 0 -100 -29 -133 -73l-69 14l38 389h350v-98h-261l-18 -171c31 22 68 33 110 33c135 0 210 -90 210 -233c0 -140 -90 -239 -225 -239c-119 0 -206 72 -219 191z" />
    <glyph glyph-name="six.tosf" 
d="M81 220c0 41 13 90 37 131l203 357h117l-153 -265c9 3 19 5 31 5c127 0 223 -95 223 -228c0 -129 -97 -228 -229 -228c-130 0 -229 99 -229 228zM432 220c0 80 -51 130 -122 130s-122 -50 -122 -130c0 -77 53 -130 122 -130c71 0 122 53 122 130z" />
    <glyph glyph-name="seven.tosf" 
d="M143 -197l248 602h-287v98h413v-42l-268 -658h-106z" />
    <glyph glyph-name="eight.tosf" 
d="M88 205c0 80 38 143 98 172c-45 32 -72 83 -72 143c0 105 82 188 196 188c115 0 197 -83 197 -188c0 -60 -28 -111 -73 -143c61 -29 99 -92 99 -172c0 -132 -103 -213 -223 -213c-121 0 -222 81 -222 213zM406 518c0 60 -37 99 -96 99c-57 0 -96 -39 -96 -99
s39 -100 96 -100s96 40 96 100zM426 205c0 72 -48 115 -116 115s-115 -43 -115 -115s47 -115 115 -115s116 43 116 115z" />
    <glyph glyph-name="nine.tosf" 
d="M182 -204l153 265c-9 -3 -19 -5 -31 -5c-127 0 -223 95 -223 228c0 129 97 228 229 228c130 0 229 -99 229 -228c0 -41 -12 -86 -35 -125l-205 -363h-117zM432 284c0 77 -53 130 -122 130s-122 -53 -122 -130c0 -80 51 -130 122 -130s122 50 122 130z" />
    <glyph glyph-name="zero.tosf.zero" 
d="M560 252c0 -144 -96 -260 -250 -260c-155 0 -250 116 -250 260s95 260 250 260c154 0 250 -116 250 -260zM170 252c0 -43 10 -79 30 -108l150 270c-12 4 -25 6 -40 6c-43 0 -78 -16 -103 -49s-37 -72 -37 -119zM449 252c0 41 -10 76 -29 107l-149 -269c12 -4 25 -6 39 -6
c43 0 77 16 102 49s37 72 37 119z" />
    <glyph glyph-name="zero.zero" horiz-adv-x="609" 
d="M52 350c0 224 90 358 253 358s253 -134 253 -358s-90 -358 -253 -358s-253 134 -253 358zM176 209l204 375c-21 17 -46 26 -75 26c-97 0 -147 -95 -147 -260c0 -55 6 -102 18 -141zM452 350c0 57 -6 104 -19 141l-204 -374c21 -18 47 -27 76 -27c96 0 147 95 147 260z
" />
    <glyph glyph-name="uni2080" unicode="&#x2080;" horiz-adv-x="403" 
d="M42 -4c0 128 60 204 160 204c99 0 159 -76 159 -204s-60 -204 -159 -204c-100 0 -160 76 -160 204zM281 -4c0 88 -32 132 -79 132s-79 -44 -79 -132c0 -87 32 -131 79 -131s79 44 79 131z" />
    <glyph glyph-name="uni2081" unicode="&#x2081;" horiz-adv-x="238" 
d="M111 -204v292l-85 -38v83l132 63h30v-400h-77z" />
    <glyph glyph-name="uni2082" unicode="&#x2082;" horiz-adv-x="329" 
d="M32 -204v30l146 179c23 28 30 50 30 75c0 29 -17 47 -45 47s-48 -20 -55 -60l-72 20c8 67 59 113 127 113c76 0 127 -47 127 -119c0 -34 -13 -68 -40 -101l-91 -111h138v-73h-265z" />
    <glyph glyph-name="uni2083" unicode="&#x2083;" horiz-adv-x="333" 
d="M34 -85l72 10c7 -39 31 -60 63 -60c37 0 56 25 56 66c0 40 -20 61 -55 61c-13 0 -25 -3 -36 -10l-36 46l73 96h-118v72h230v-30l-92 -120c65 3 115 -46 115 -117c0 -81 -47 -137 -135 -137c-77 0 -132 51 -137 123z" />
    <glyph glyph-name="uni2084" unicode="&#x2084;" horiz-adv-x="343" 
d="M197 -204v70h-168v37l161 293h84v-257h46v-73h-46v-70h-77zM122 -61h75v144z" />
    <glyph glyph-name="uni2085" unicode="&#x2085;" horiz-adv-x="341" 
d="M36 -92l76 9c7 -32 26 -52 57 -52c40 0 61 24 61 67s-20 65 -61 65c-24 0 -45 -10 -64 -30l-60 13l21 216h221v-72h-156l-11 -82c19 13 41 19 66 19c80 0 125 -52 125 -129c0 -87 -55 -140 -142 -140c-69 0 -125 47 -133 116z" />
    <glyph glyph-name="uni2086" unicode="&#x2086;" horiz-adv-x="359" 
d="M42 -76c0 29 7 55 20 78l112 198h86l-90 -150c7 3 15 5 25 5c71 0 122 -47 122 -131c0 -77 -57 -132 -138 -132s-137 55 -137 132zM235 -76c0 36 -21 59 -56 59c-32 0 -56 -23 -56 -59c0 -35 24 -59 56 -59c33 0 56 24 56 59z" />
    <glyph glyph-name="uni2087" unicode="&#x2087;" horiz-adv-x="301" 
d="M47 -204l136 328h-153v72h251v-31l-151 -369h-83z" />
    <glyph glyph-name="uni2088" unicode="&#x2088;" horiz-adv-x="352" 
d="M42 -80c0 47 26 77 59 92c-28 15 -45 45 -45 81c0 60 48 107 120 107s121 -48 121 -107c0 -36 -18 -66 -46 -81c33 -15 59 -45 59 -92c0 -79 -54 -128 -134 -128s-134 49 -134 128zM223 91c0 31 -18 49 -47 49s-47 -18 -47 -49s18 -50 47 -50s47 19 47 50zM229 -80
c0 32 -21 54 -53 54s-53 -22 -53 -54s21 -55 53 -55s53 23 53 55z" />
    <glyph glyph-name="uni2089" unicode="&#x2089;" horiz-adv-x="359" 
d="M99 -208l90 150c-7 -3 -15 -5 -25 -5c-71 0 -122 47 -122 131c0 77 57 132 138 132s137 -53 137 -132c0 -29 -7 -55 -20 -78l-112 -198h-86zM236 68c0 35 -24 60 -56 60c-33 0 -56 -24 -56 -60s21 -58 56 -58c33 0 56 23 56 58z" />
    <glyph glyph-name="zero.dnom" horiz-adv-x="403" 
d="M42 200c0 128 60 204 160 204c99 0 159 -76 159 -204s-60 -204 -159 -204c-100 0 -160 76 -160 204zM281 200c0 88 -32 132 -79 132s-79 -44 -79 -132c0 -87 32 -131 79 -131s79 44 79 131z" />
    <glyph glyph-name="one.dnom" horiz-adv-x="238" 
d="M111 0v292l-85 -38v83l132 63h30v-400h-77z" />
    <glyph glyph-name="two.dnom" horiz-adv-x="329" 
d="M32 0v30l146 179c23 28 30 50 30 75c0 29 -17 47 -45 47s-48 -20 -55 -60l-72 20c8 67 59 113 127 113c76 0 127 -47 127 -119c0 -34 -13 -68 -40 -101l-91 -111h138v-73h-265z" />
    <glyph glyph-name="three.dnom" horiz-adv-x="333" 
d="M34 119l72 10c7 -39 31 -60 63 -60c37 0 56 25 56 66c0 40 -20 61 -55 61c-13 0 -25 -3 -36 -10l-36 46l73 96h-118v72h230v-30l-92 -120c65 3 115 -46 115 -117c0 -81 -47 -137 -135 -137c-77 0 -132 51 -137 123z" />
    <glyph glyph-name="four.dnom" horiz-adv-x="343" 
d="M197 0v70h-168v37l161 293h84v-257h46v-73h-46v-70h-77zM122 143h75v144z" />
    <glyph glyph-name="five.dnom" horiz-adv-x="341" 
d="M36 112l76 9c7 -32 26 -52 57 -52c40 0 61 24 61 67s-20 65 -61 65c-24 0 -45 -10 -64 -30l-60 13l21 216h221v-72h-156l-11 -82c19 13 41 19 66 19c80 0 125 -52 125 -129c0 -87 -55 -140 -142 -140c-69 0 -125 47 -133 116z" />
    <glyph glyph-name="six.dnom" horiz-adv-x="359" 
d="M42 128c0 29 7 55 20 78l112 198h86l-90 -150c7 3 15 5 25 5c71 0 122 -47 122 -131c0 -77 -57 -132 -138 -132s-137 55 -137 132zM235 128c0 36 -21 59 -56 59c-32 0 -56 -23 -56 -59c0 -35 24 -59 56 -59c33 0 56 24 56 59z" />
    <glyph glyph-name="seven.dnom" horiz-adv-x="301" 
d="M47 0l136 328h-153v72h251v-31l-151 -369h-83z" />
    <glyph glyph-name="eight.dnom" horiz-adv-x="352" 
d="M42 124c0 47 26 77 59 92c-28 15 -45 45 -45 81c0 60 48 107 120 107s121 -48 121 -107c0 -36 -18 -66 -46 -81c33 -15 59 -45 59 -92c0 -79 -54 -128 -134 -128s-134 49 -134 128zM223 295c0 31 -18 49 -47 49s-47 -18 -47 -49s18 -50 47 -50s47 19 47 50zM229 124
c0 32 -21 54 -53 54s-53 -22 -53 -54s21 -55 53 -55s53 23 53 55z" />
    <glyph glyph-name="nine.dnom" horiz-adv-x="359" 
d="M99 -4l90 150c-7 -3 -15 -5 -25 -5c-71 0 -122 47 -122 131c0 77 57 132 138 132s137 -53 137 -132c0 -29 -7 -55 -20 -78l-112 -198h-86zM236 272c0 35 -24 60 -56 60c-33 0 -56 -24 -56 -60s21 -58 56 -58c33 0 56 23 56 58z" />
    <glyph glyph-name="zero.numr" horiz-adv-x="403" 
d="M42 500c0 128 60 204 160 204c99 0 159 -76 159 -204s-60 -204 -159 -204c-100 0 -160 76 -160 204zM281 500c0 88 -32 132 -79 132s-79 -44 -79 -132c0 -87 32 -131 79 -131s79 44 79 131z" />
    <glyph glyph-name="one.numr" horiz-adv-x="238" 
d="M111 300v292l-85 -38v83l132 63h30v-400h-77z" />
    <glyph glyph-name="two.numr" horiz-adv-x="329" 
d="M32 300v30l146 179c23 28 30 50 30 75c0 29 -17 47 -45 47s-48 -20 -55 -60l-72 20c8 67 59 113 127 113c76 0 127 -47 127 -119c0 -34 -13 -68 -40 -101l-91 -111h138v-73h-265z" />
    <glyph glyph-name="three.numr" horiz-adv-x="333" 
d="M34 419l72 10c7 -39 31 -60 63 -60c37 0 56 25 56 66c0 40 -20 61 -55 61c-13 0 -25 -3 -36 -10l-36 46l73 96h-118v72h230v-30l-92 -120c65 3 115 -46 115 -117c0 -81 -47 -137 -135 -137c-77 0 -132 51 -137 123z" />
    <glyph glyph-name="four.numr" horiz-adv-x="343" 
d="M197 300v70h-168v37l161 293h84v-257h46v-73h-46v-70h-77zM122 443h75v144z" />
    <glyph glyph-name="five.numr" horiz-adv-x="341" 
d="M36 412l76 9c7 -32 26 -52 57 -52c40 0 61 24 61 67s-20 65 -61 65c-24 0 -45 -10 -64 -30l-60 13l21 216h221v-72h-156l-11 -82c19 13 41 19 66 19c80 0 125 -52 125 -129c0 -87 -55 -140 -142 -140c-69 0 -125 47 -133 116z" />
    <glyph glyph-name="six.numr" horiz-adv-x="359" 
d="M42 428c0 29 7 55 20 78l112 198h86l-90 -150c7 3 15 5 25 5c71 0 122 -47 122 -131c0 -77 -57 -132 -138 -132s-137 55 -137 132zM235 428c0 36 -21 59 -56 59c-32 0 -56 -23 -56 -59c0 -35 24 -59 56 -59c33 0 56 24 56 59z" />
    <glyph glyph-name="seven.numr" horiz-adv-x="301" 
d="M47 300l136 328h-153v72h251v-31l-151 -369h-83z" />
    <glyph glyph-name="eight.numr" horiz-adv-x="352" 
d="M42 424c0 47 26 77 59 92c-28 15 -45 45 -45 81c0 60 48 107 120 107s121 -48 121 -107c0 -36 -18 -66 -46 -81c33 -15 59 -45 59 -92c0 -79 -54 -128 -134 -128s-134 49 -134 128zM223 595c0 31 -18 49 -47 49s-47 -18 -47 -49s18 -50 47 -50s47 19 47 50zM229 424
c0 32 -21 54 -53 54s-53 -22 -53 -54s21 -55 53 -55s53 23 53 55z" />
    <glyph glyph-name="nine.numr" horiz-adv-x="359" 
d="M99 296l90 150c-7 -3 -15 -5 -25 -5c-71 0 -122 47 -122 131c0 77 57 132 138 132s137 -53 137 -132c0 -29 -7 -55 -20 -78l-112 -198h-86zM236 572c0 35 -24 60 -56 60c-33 0 -56 -24 -56 -60s21 -58 56 -58c33 0 56 23 56 58z" />
    <glyph glyph-name="uni2070" unicode="&#x2070;" horiz-adv-x="403" 
d="M42 500c0 128 60 204 160 204c99 0 159 -76 159 -204s-60 -204 -159 -204c-100 0 -160 76 -160 204zM281 500c0 88 -32 132 -79 132s-79 -44 -79 -132c0 -87 32 -131 79 -131s79 44 79 131z" />
    <glyph glyph-name="uni00B9" unicode="&#xb9;" horiz-adv-x="238" 
d="M111 300v292l-85 -38v83l132 63h30v-400h-77z" />
    <glyph glyph-name="uni00B2" unicode="&#xb2;" horiz-adv-x="329" 
d="M32 300v30l146 179c23 28 30 50 30 75c0 29 -17 47 -45 47s-48 -20 -55 -60l-72 20c8 67 59 113 127 113c76 0 127 -47 127 -119c0 -34 -13 -68 -40 -101l-91 -111h138v-73h-265z" />
    <glyph glyph-name="uni00B3" unicode="&#xb3;" horiz-adv-x="333" 
d="M34 419l72 10c7 -39 31 -60 63 -60c37 0 56 25 56 66c0 40 -20 61 -55 61c-13 0 -25 -3 -36 -10l-36 46l73 96h-118v72h230v-30l-92 -120c65 3 115 -46 115 -117c0 -81 -47 -137 -135 -137c-77 0 -132 51 -137 123z" />
    <glyph glyph-name="uni2074" unicode="&#x2074;" horiz-adv-x="343" 
d="M197 300v70h-168v37l161 293h84v-257h46v-73h-46v-70h-77zM122 443h75v144z" />
    <glyph glyph-name="uni2075" unicode="&#x2075;" horiz-adv-x="341" 
d="M36 412l76 9c7 -32 26 -52 57 -52c40 0 61 24 61 67s-20 65 -61 65c-24 0 -45 -10 -64 -30l-60 13l21 216h221v-72h-156l-11 -82c19 13 41 19 66 19c80 0 125 -52 125 -129c0 -87 -55 -140 -142 -140c-69 0 -125 47 -133 116z" />
    <glyph glyph-name="uni2076" unicode="&#x2076;" horiz-adv-x="359" 
d="M42 428c0 29 7 55 20 78l112 198h86l-90 -150c7 3 15 5 25 5c71 0 122 -47 122 -131c0 -77 -57 -132 -138 -132s-137 55 -137 132zM235 428c0 36 -21 59 -56 59c-32 0 -56 -23 -56 -59c0 -35 24 -59 56 -59c33 0 56 24 56 59z" />
    <glyph glyph-name="uni2077" unicode="&#x2077;" horiz-adv-x="301" 
d="M47 300l136 328h-153v72h251v-31l-151 -369h-83z" />
    <glyph glyph-name="uni2078" unicode="&#x2078;" horiz-adv-x="352" 
d="M42 424c0 47 26 77 59 92c-28 15 -45 45 -45 81c0 60 48 107 120 107s121 -48 121 -107c0 -36 -18 -66 -46 -81c33 -15 59 -45 59 -92c0 -79 -54 -128 -134 -128s-134 49 -134 128zM223 595c0 31 -18 49 -47 49s-47 -18 -47 -49s18 -50 47 -50s47 19 47 50zM229 424
c0 32 -21 54 -53 54s-53 -22 -53 -54s21 -55 53 -55s53 23 53 55z" />
    <glyph glyph-name="uni2079" unicode="&#x2079;" horiz-adv-x="359" 
d="M99 296l90 150c-7 -3 -15 -5 -25 -5c-71 0 -122 47 -122 131c0 77 57 132 138 132s137 -53 137 -132c0 -29 -7 -55 -20 -78l-112 -198h-86zM236 572c0 35 -24 60 -56 60c-33 0 -56 -24 -56 -60s21 -58 56 -58c33 0 56 23 56 58z" />
    <glyph glyph-name="fraction" unicode="&#x2044;" horiz-adv-x="306" 
d="M-85 -34l-63 51l539 717l63 -50z" />
    <glyph glyph-name="onehalf" unicode="&#xbd;" horiz-adv-x="873" 
d="M111 300v292l-85 -38v83l132 63h30v-400h-77zM153 -34l-63 51l539 717l63 -50zM576 0v30l146 179c23 28 30 50 30 75c0 29 -17 47 -45 47s-48 -20 -55 -60l-72 20c8 67 59 113 127 113c76 0 127 -47 127 -119c0 -34 -13 -68 -40 -101l-91 -111h138v-73h-265z" />
    <glyph glyph-name="uni2153" unicode="&#x2153;" horiz-adv-x="877" 
d="M111 300v292l-85 -38v83l132 63h30v-400h-77zM153 -34l-63 51l539 717l63 -50zM578 119l72 10c7 -39 31 -60 63 -60c37 0 56 25 56 66c0 40 -20 61 -55 61c-13 0 -25 -3 -36 -10l-36 46l73 96h-118v72h230v-30l-92 -120c65 3 115 -46 115 -117c0 -81 -47 -137 -135 -137
c-77 0 -132 51 -137 123z" />
    <glyph glyph-name="uni2154" unicode="&#x2154;" horiz-adv-x="968" 
d="M32 300v30l146 179c23 28 30 50 30 75c0 29 -17 47 -45 47s-48 -20 -55 -60l-72 20c8 67 59 113 127 113c76 0 127 -47 127 -119c0 -34 -13 -68 -40 -101l-91 -111h138v-73h-265zM244 -34l-63 51l539 717l63 -50zM669 119l72 10c7 -39 31 -60 63 -60c37 0 56 25 56 66
c0 40 -20 61 -55 61c-13 0 -25 -3 -36 -10l-36 46l73 96h-118v72h230v-30l-92 -120c65 3 115 -46 115 -117c0 -81 -47 -137 -135 -137c-77 0 -132 51 -137 123z" />
    <glyph glyph-name="onequarter" unicode="&#xbc;" horiz-adv-x="837" 
d="M111 300v292l-85 -38v83l132 63h30v-400h-77zM153 -34l-63 51l539 717l63 -50zM691 0v70h-168v37l161 293h84v-257h46v-73h-46v-70h-77zM616 143h75v144z" />
    <glyph glyph-name="threequarters" unicode="&#xbe;" horiz-adv-x="922" 
d="M34 419l72 10c7 -39 31 -60 63 -60c37 0 56 25 56 66c0 40 -20 61 -55 61c-13 0 -25 -3 -36 -10l-36 46l73 96h-118v72h230v-30l-92 -120c65 3 115 -46 115 -117c0 -81 -47 -137 -135 -137c-77 0 -132 51 -137 123zM238 -34l-63 51l539 717l63 -50zM776 0v70h-168v37
l161 293h84v-257h46v-73h-46v-70h-77zM701 143h75v144z" />
    <glyph glyph-name="oneeighth" unicode="&#x215b;" horiz-adv-x="886" 
d="M111 300v292l-85 -38v83l132 63h30v-400h-77zM153 -34l-63 51l539 717l63 -50zM576 124c0 47 26 77 59 92c-28 15 -45 45 -45 81c0 60 48 107 120 107s121 -48 121 -107c0 -36 -18 -66 -46 -81c33 -15 59 -45 59 -92c0 -79 -54 -128 -134 -128s-134 49 -134 128zM757 295
c0 31 -18 49 -47 49s-47 -18 -47 -49s18 -50 47 -50s47 19 47 50zM763 124c0 32 -21 54 -53 54s-53 -22 -53 -54s21 -55 53 -55s53 23 53 55z" />
    <glyph glyph-name="threeeighths" unicode="&#x215c;" horiz-adv-x="971" 
d="M34 419l72 10c7 -39 31 -60 63 -60c37 0 56 25 56 66c0 40 -20 61 -55 61c-13 0 -25 -3 -36 -10l-36 46l73 96h-118v72h230v-30l-92 -120c65 3 115 -46 115 -117c0 -81 -47 -137 -135 -137c-77 0 -132 51 -137 123zM238 -34l-63 51l539 717l63 -50zM661 124
c0 47 26 77 59 92c-28 15 -45 45 -45 81c0 60 48 107 120 107s121 -48 121 -107c0 -36 -18 -66 -46 -81c33 -15 59 -45 59 -92c0 -79 -54 -128 -134 -128s-134 49 -134 128zM842 295c0 31 -18 49 -47 49s-47 -18 -47 -49s18 -50 47 -50s47 19 47 50zM848 124
c0 32 -21 54 -53 54s-53 -22 -53 -54s21 -55 53 -55s53 23 53 55z" />
    <glyph glyph-name="fiveeighths" unicode="&#x215d;" horiz-adv-x="979" 
d="M36 412l76 9c7 -32 26 -52 57 -52c40 0 61 24 61 67s-20 65 -61 65c-24 0 -45 -10 -64 -30l-60 13l21 216h221v-72h-156l-11 -82c19 13 41 19 66 19c80 0 125 -52 125 -129c0 -87 -55 -140 -142 -140c-69 0 -125 47 -133 116zM246 -34l-63 51l539 717l63 -50zM669 124
c0 47 26 77 59 92c-28 15 -45 45 -45 81c0 60 48 107 120 107s121 -48 121 -107c0 -36 -18 -66 -46 -81c33 -15 59 -45 59 -92c0 -79 -54 -128 -134 -128s-134 49 -134 128zM850 295c0 31 -18 49 -47 49s-47 -18 -47 -49s18 -50 47 -50s47 19 47 50zM856 124
c0 32 -21 54 -53 54s-53 -22 -53 -54s21 -55 53 -55s53 23 53 55z" />
    <glyph glyph-name="seveneighths" unicode="&#x215e;" horiz-adv-x="899" 
d="M47 300l136 328h-153v72h251v-31l-151 -369h-83zM166 -34l-63 51l539 717l63 -50zM589 124c0 47 26 77 59 92c-28 15 -45 45 -45 81c0 60 48 107 120 107s121 -48 121 -107c0 -36 -18 -66 -46 -81c33 -15 59 -45 59 -92c0 -79 -54 -128 -134 -128s-134 49 -134 128z
M770 295c0 31 -18 49 -47 49s-47 -18 -47 -49s18 -50 47 -50s47 19 47 50zM776 124c0 32 -21 54 -53 54s-53 -22 -53 -54s21 -55 53 -55s53 23 53 55z" />
    <glyph glyph-name="uni2080.zero" horiz-adv-x="403" 
d="M361 -4c0 -128 -60 -204 -159 -204c-100 0 -160 76 -160 204s60 204 160 204c99 0 159 -76 159 -204zM123 -4c0 -27 3 -52 10 -74l85 204c-7 1 -12 2 -16 2c-47 0 -79 -44 -79 -132zM281 -4c0 32 -4 59 -13 82l-87 -211c7 -2 14 -3 21 -3c47 0 79 44 79 132z" />
    <glyph glyph-name="zero.dnom.zero" horiz-adv-x="403" 
d="M361 200c0 -128 -60 -204 -159 -204c-100 0 -160 76 -160 204s60 204 160 204c99 0 159 -76 159 -204zM123 200c0 -27 3 -52 10 -74l85 204c-7 1 -12 2 -16 2c-47 0 -79 -44 -79 -132zM281 200c0 32 -4 59 -13 82l-87 -211c7 -2 14 -3 21 -3c47 0 79 44 79 132z" />
    <glyph glyph-name="zero.numr.zero" horiz-adv-x="403" 
d="M361 500c0 -128 -60 -204 -159 -204c-100 0 -160 76 -160 204s60 204 160 204c99 0 159 -76 159 -204zM123 500c0 -32 4 -58 12 -78l85 207c-5 2 -11 3 -18 3c-47 0 -79 -44 -79 -132zM281 500c0 32 -4 58 -12 78l-85 -207c8 -1 14 -2 18 -2c47 0 79 44 79 131z" />
    <glyph glyph-name="uni2070.zero" horiz-adv-x="403" 
d="M361 500c0 -128 -60 -204 -159 -204c-100 0 -160 76 -160 204s60 204 160 204c99 0 159 -76 159 -204zM123 500c0 -32 4 -58 12 -78l85 207c-5 2 -11 3 -18 3c-47 0 -79 -44 -79 -132zM281 500c0 32 -4 58 -12 78l-85 -207c8 -1 14 -2 18 -2c47 0 79 44 79 131z" />
    <glyph glyph-name="period" unicode="." horiz-adv-x="261" 
d="M57 69c0 43 30 74 73 74s75 -31 75 -74s-32 -74 -75 -74c-41 0 -73 31 -73 74z" />
    <glyph glyph-name="comma" unicode="," horiz-adv-x="260" 
d="M25 -118l62 240h145l-127 -240h-80z" />
    <glyph glyph-name="colon" unicode=":" horiz-adv-x="260" 
d="M56 424c0 43 31 74 74 74s74 -31 74 -74c0 -41 -31 -74 -74 -74s-74 31 -74 74zM56 69c0 43 31 74 74 74s74 -31 74 -74c0 -41 -31 -74 -74 -74s-74 31 -74 74z" />
    <glyph glyph-name="semicolon" unicode=";" horiz-adv-x="260" 
d="M85 424c0 43 30 74 73 74s75 -31 75 -74s-32 -74 -75 -74c-41 0 -73 31 -73 74zM25 -118l62 240h145l-127 -240h-80z" />
    <glyph glyph-name="ellipsis" unicode="&#x2026;" horiz-adv-x="819" 
d="M56 69c0 43 31 74 74 74s74 -31 74 -74c0 -41 -31 -74 -74 -74s-74 31 -74 74zM335 69c0 43 31 74 74 74s75 -31 75 -74s-32 -74 -75 -74c-41 0 -74 33 -74 74zM615 69c0 43 31 74 74 74s74 -31 74 -74c0 -41 -31 -74 -74 -74s-74 31 -74 74z" />
    <glyph glyph-name="exclam" unicode="!" horiz-adv-x="315" 
d="M114 225l-26 475h140l-27 -475h-87zM83 69c0 43 34 75 75 75s74 -34 74 -75s-33 -74 -74 -74c-43 0 -75 33 -75 74z" />
    <glyph glyph-name="exclamdown" unicode="&#xa1;" horiz-adv-x="315" 
d="M83 427c0 41 32 74 75 74c41 0 74 -33 74 -74s-33 -75 -74 -75s-75 34 -75 75zM88 -204l26 475h87l27 -475h-140z" />
    <glyph glyph-name="question" unicode="?" horiz-adv-x="453" 
d="M96 334c0 64 38 102 110 134c80 35 102 54 102 89c0 40 -30 61 -75 61c-47 0 -78 -27 -93 -78l-96 16c17 91 85 152 189 152c107 0 176 -60 176 -153c0 -69 -38 -104 -133 -145c-72 -31 -90 -47 -90 -79c0 -25 18 -42 43 -42c31 0 52 17 64 52l76 -29
c-21 -67 -71 -104 -139 -104c-77 0 -134 49 -134 126zM156 69c0 43 33 75 74 75c43 0 75 -32 75 -75c0 -41 -32 -74 -75 -74c-41 0 -74 33 -74 74z" />
    <glyph glyph-name="questiondown" unicode="&#xbf;" horiz-adv-x="453" 
d="M298 427c0 -41 -32 -75 -75 -75c-41 0 -74 34 -74 75s33 74 74 74c43 0 75 -33 75 -74zM358 162c0 -63 -38 -102 -110 -134c-81 -35 -102 -53 -102 -89c0 -40 29 -61 74 -61c49 0 80 26 94 78l95 -16c-16 -91 -84 -152 -189 -152s-176 61 -176 153c0 35 10 63 31 83
c21 21 55 41 103 62c72 31 90 47 90 79c0 25 -19 42 -44 42c-31 0 -52 -17 -63 -52l-77 29c23 67 72 104 140 104c77 0 134 -49 134 -126z" />
    <glyph glyph-name="middot" unicode="&#xb7;" horiz-adv-x="314" 
d="M84 350c0 43 30 74 73 74s75 -31 75 -74s-32 -74 -75 -74c-41 0 -73 31 -73 74z" />
    <glyph glyph-name="bullet" unicode="&#x2022;" horiz-adv-x="370" 
d="M83 330c0 56 46 102 102 102s102 -46 102 -102s-46 -102 -102 -102s-102 46 -102 102z" />
    <glyph glyph-name="asterisk" unicode="*" horiz-adv-x="485" 
d="M171 346l-74 54l73 99l-118 40l29 85l118 -39v123h88v-123l118 39l28 -85l-118 -40l73 -99l-73 -54l-72 100z" />
    <glyph glyph-name="uni2049" unicode="&#x2049;" horiz-adv-x="701" 
d="M114 225l-26 475h140l-27 -475h-87zM83 69c0 43 34 75 75 75s74 -34 74 -75s-33 -74 -74 -74c-43 0 -75 33 -75 74zM343 334c0 64 38 102 110 134c80 35 102 54 102 89c0 40 -30 61 -75 61c-47 0 -78 -27 -93 -78l-96 16c17 91 85 152 189 152c107 0 176 -60 176 -153
c0 -69 -38 -104 -133 -145c-72 -31 -90 -47 -90 -79c0 -25 18 -42 43 -42c31 0 52 17 64 52l76 -29c-21 -67 -71 -104 -139 -104c-77 0 -134 49 -134 126zM403 69c0 43 33 75 74 75c43 0 75 -32 75 -75c0 -41 -32 -74 -75 -74c-41 0 -74 33 -74 74z" />
    <glyph glyph-name="numbersign" unicode="#" horiz-adv-x="663" 
d="M110 0l40 199h-115v85h133l26 132h-119v85h137l41 199h87l-41 -199h127l41 199h87l-41 -199h115v-85h-132l-27 -132h119v-85h-137l-40 -199h-87l41 199h-128l-40 -199h-87zM254 284h128l27 132h-128z" />
    <glyph glyph-name="uni2048" unicode="&#x2048;" horiz-adv-x="701" 
d="M96 334c0 64 38 102 110 134c80 35 102 54 102 89c0 40 -30 61 -75 61c-47 0 -78 -27 -93 -78l-96 16c17 91 85 152 189 152c107 0 176 -60 176 -153c0 -69 -38 -104 -133 -145c-72 -31 -90 -47 -90 -79c0 -25 18 -42 43 -42c31 0 52 17 64 52l76 -29
c-21 -67 -71 -104 -139 -104c-77 0 -134 49 -134 126zM156 69c0 43 33 75 74 75c43 0 75 -32 75 -75c0 -41 -32 -74 -75 -74c-41 0 -74 33 -74 74zM500 225l-26 475h140l-27 -475h-87zM469 69c0 43 34 75 75 75s74 -34 74 -75s-33 -74 -74 -74c-43 0 -75 33 -75 74z" />
    <glyph glyph-name="slash" unicode="/" horiz-adv-x="546" 
d="M3 -50l436 800h104l-436 -800h-104z" />
    <glyph glyph-name="backslash" unicode="\" horiz-adv-x="546" 
d="M439 -50l-436 800h104l436 -800h-104z" />
    <glyph glyph-name="exclamdown.case" horiz-adv-x="315" 
d="M83 631c0 41 32 74 75 74c41 0 74 -33 74 -74s-33 -75 -74 -75s-75 34 -75 75zM88 0l26 475h87l27 -475h-140z" />
    <glyph glyph-name="questiondown.case" horiz-adv-x="453" 
d="M298 631c0 -41 -32 -75 -75 -75c-41 0 -74 34 -74 75s33 74 74 74c43 0 75 -33 75 -74zM358 366c0 -63 -38 -102 -110 -134c-81 -35 -102 -53 -102 -89c0 -40 29 -61 74 -61c49 0 80 26 94 78l95 -16c-16 -91 -84 -152 -189 -152s-176 61 -176 153c0 35 10 63 31 83
c21 21 55 41 103 62c72 31 90 47 90 79c0 25 -19 42 -44 42c-31 0 -52 -17 -63 -52l-77 29c23 67 72 104 140 104c77 0 134 -49 134 -126z" />
    <glyph glyph-name="bullet.case" horiz-adv-x="370" 
d="M83 350c0 56 46 102 102 102s102 -46 102 -102s-46 -102 -102 -102s-102 46 -102 102z" />
    <glyph glyph-name="comma.ss02" horiz-adv-x="260" 
d="M66 -125l-19 24c36 27 61 63 66 103c-37 13 -56 40 -56 71c0 39 30 70 73 70c44 0 74 -33 74 -78c0 -75 -53 -135 -138 -190z" />
    <glyph glyph-name="semicolon.ss02" horiz-adv-x="260" 
d="M57 424c0 43 30 74 73 74s75 -31 75 -74s-32 -74 -75 -74c-41 0 -73 31 -73 74zM66 -125l-19 24c36 27 61 63 66 103c-37 13 -56 40 -56 71c0 39 30 70 73 70c44 0 74 -33 74 -78c0 -75 -53 -135 -138 -190z" />
    <glyph glyph-name="period.tf" 
d="M237 69c0 43 30 74 73 74s75 -31 75 -74s-32 -74 -75 -74c-41 0 -73 31 -73 74z" />
    <glyph glyph-name="comma.tf" 
d="M178 -118l62 240h145l-127 -240h-80z" />
    <glyph glyph-name="colon.tf" 
d="M236 424c0 43 31 74 74 74s74 -31 74 -74c0 -41 -31 -74 -74 -74s-74 31 -74 74zM236 69c0 43 31 74 74 74s74 -31 74 -74c0 -41 -31 -74 -74 -74s-74 31 -74 74z" />
    <glyph glyph-name="semicolon.tf" 
d="M238 424c0 43 30 74 73 74s75 -31 75 -74s-32 -74 -75 -74c-41 0 -73 31 -73 74zM178 -118l62 240h145l-127 -240h-80z" />
    <glyph glyph-name="comma.ss02.tf" 
d="M246 -125l-19 24c36 27 61 63 66 103c-37 13 -56 40 -56 71c0 39 30 70 73 70c44 0 74 -33 74 -78c0 -75 -53 -135 -138 -190z" />
    <glyph glyph-name="semicolon.ss02.tf" 
d="M237 424c0 43 30 74 73 74s75 -31 75 -74s-32 -74 -75 -74c-41 0 -73 31 -73 74zM246 -125l-19 24c36 27 61 63 66 103c-37 13 -56 40 -56 71c0 39 30 70 73 70c44 0 74 -33 74 -78c0 -75 -53 -135 -138 -190z" />
    <glyph glyph-name="parenleft" unicode="(" horiz-adv-x="269" 
d="M48 350c0 87 9 161 28 221c19 61 45 120 78 179h95c-64 -113 -96 -233 -96 -400c0 -86 8 -160 23 -222c16 -61 40 -121 73 -178h-95c-33 59 -59 118 -78 178c-19 61 -28 135 -28 222z" />
    <glyph glyph-name="parenright" unicode=")" horiz-adv-x="269" 
d="M116 350c0 167 -32 287 -96 400h95c33 -59 59 -119 78 -180c19 -60 28 -133 28 -220s-9 -160 -28 -221c-19 -60 -45 -120 -78 -179h-95c33 57 57 117 72 178c16 62 24 136 24 222z" />
    <glyph glyph-name="braceleft" unicode="{" horiz-adv-x="305" 
d="M110 51v171c0 61 -20 82 -80 82v92c60 0 80 21 80 82v171c0 61 39 101 98 101h75v-92h-28c-32 0 -43 -12 -43 -47v-163c0 -68 -24 -89 -71 -98c47 -9 71 -30 71 -98v-163c0 -35 11 -47 43 -47h28v-92h-75c-59 0 -98 40 -98 101z" />
    <glyph glyph-name="braceright" unicode="}" horiz-adv-x="305" 
d="M22 -50v92h28c32 0 43 12 43 47v163c0 68 24 89 71 98c-47 9 -71 30 -71 98v163c0 35 -11 47 -43 47h-28v92h75c59 0 98 -40 98 -101v-171c0 -61 20 -82 80 -82v-92c-60 0 -80 -21 -80 -82v-171c0 -61 -39 -101 -98 -101h-75z" />
    <glyph glyph-name="bracketleft" unicode="[" horiz-adv-x="319" 
d="M83 -50v800h215v-92h-113v-616h113v-92h-215z" />
    <glyph glyph-name="bracketright" unicode="]" horiz-adv-x="319" 
d="M22 -50v92h112v616h-112v92h214v-800h-214z" />
    <glyph glyph-name="parenleft.case" horiz-adv-x="263" 
d="M48 350c0 144 40 250 99 350h95c-56 -109 -89 -217 -89 -350s34 -241 90 -350h-96c-59 100 -99 206 -99 350z" />
    <glyph glyph-name="parenright.case" horiz-adv-x="263" 
d="M110 350c0 133 -34 239 -90 350h96c59 -100 99 -206 99 -350s-40 -250 -99 -350h-95c56 112 89 218 89 350z" />
    <glyph glyph-name="braceleft.case" horiz-adv-x="305" 
d="M110 101v121c0 61 -20 82 -80 82v92c60 0 80 21 80 82v121c0 61 39 101 98 101h75v-92h-28c-32 0 -43 -12 -43 -47v-113c0 -68 -24 -89 -71 -98c47 -9 71 -30 71 -98v-113c0 -35 11 -47 43 -47h28v-92h-75c-59 0 -98 40 -98 101z" />
    <glyph glyph-name="braceright.case" horiz-adv-x="305" 
d="M22 0v92h28c32 0 43 12 43 47v113c0 68 24 89 71 98c-47 9 -71 30 -71 98v113c0 35 -11 47 -43 47h-28v92h75c59 0 98 -40 98 -101v-121c0 -61 20 -82 80 -82v-92c-60 0 -80 -21 -80 -82v-121c0 -61 -39 -101 -98 -101h-75z" />
    <glyph glyph-name="bracketleft.case" horiz-adv-x="319" 
d="M83 0v700h215v-92h-113v-516h113v-92h-215z" />
    <glyph glyph-name="bracketright.case" horiz-adv-x="319" 
d="M22 0v92h112v516h-112v92h214v-700h-214z" />
    <glyph glyph-name="hyphen" unicode="-" horiz-adv-x="493" 
d="M67 271v92h359v-92h-359z" />
    <glyph glyph-name="uni00AD" unicode="&#xad;" horiz-adv-x="493" 
d="M67 271v92h359v-92h-359z" />
    <glyph glyph-name="endash" unicode="&#x2013;" horiz-adv-x="574" 
d="M67 271v92h441v-92h-441z" />
    <glyph glyph-name="emdash" unicode="&#x2014;" horiz-adv-x="766" 
d="M67 271v92h632v-92h-632z" />
    <glyph glyph-name="underscore" unicode="_" horiz-adv-x="496" 
d="M27 -92v92h442v-92h-442z" />
    <glyph glyph-name="hyphen.case" horiz-adv-x="493" 
d="M67 304v92h359v-92h-359z" />
    <glyph glyph-name="uni00AD.case" horiz-adv-x="493" 
d="M67 304v92h359v-92h-359z" />
    <glyph glyph-name="endash.case" horiz-adv-x="574" 
d="M67 304v92h441v-92h-441z" />
    <glyph glyph-name="emdash.case" horiz-adv-x="766" 
d="M67 304v92h632v-92h-632z" />
    <glyph glyph-name="quotesinglbase" unicode="&#x201a;" horiz-adv-x="294" 
d="M33 -104l73 226h143l-138 -226h-78z" />
    <glyph glyph-name="quotedblbase" unicode="&#x201e;" horiz-adv-x="491" 
d="M33 -104l73 226h143l-138 -226h-78zM230 -104l73 226h143l-138 -226h-78z" />
    <glyph glyph-name="quotedblleft" unicode="&#x201c;" horiz-adv-x="491" 
d="M46 482l137 226h78l-73 -226h-142zM243 482l137 226h78l-73 -226h-142z" />
    <glyph glyph-name="quotedblright" unicode="&#x201d;" horiz-adv-x="491" 
d="M33 482l73 226h143l-138 -226h-78zM230 482l73 226h143l-138 -226h-78z" />
    <glyph glyph-name="quoteleft" unicode="&#x2018;" horiz-adv-x="294" 
d="M46 482l137 226h78l-73 -226h-142z" />
    <glyph glyph-name="quoteright" unicode="&#x2019;" horiz-adv-x="294" 
d="M33 482l73 226h143l-138 -226h-78z" />
    <glyph glyph-name="guillemotleft" unicode="&#xab;" horiz-adv-x="673" 
d="M341 64l-295 211v70l295 211v-110l-189 -136l189 -136v-110zM620 64l-295 211v70l295 211v-110l-189 -136l189 -136v-110z" />
    <glyph glyph-name="guillemotright" unicode="&#xbb;" horiz-adv-x="673" 
d="M53 64v110l189 136l-189 136v110l295 -211v-70zM332 64v110l189 136l-189 136v110l295 -211v-70z" />
    <glyph glyph-name="guilsinglleft" unicode="&#x2039;" horiz-adv-x="394" 
d="M341 64l-295 211v70l295 211v-110l-189 -136l189 -136v-110z" />
    <glyph glyph-name="guilsinglright" unicode="&#x203a;" horiz-adv-x="394" 
d="M53 64v110l189 136l-189 136v110l295 -211v-70z" />
    <glyph glyph-name="quotedbl" unicode="&#x22;" horiz-adv-x="394" 
d="M74 465l-28 243h125l-28 -243h-69zM251 465l-28 243h125l-28 -243h-69z" />
    <glyph glyph-name="quotesingle" unicode="'" horiz-adv-x="217" 
d="M74 465l-28 243h125l-28 -243h-69z" />
    <glyph glyph-name="guillemotleft.case" horiz-adv-x="673" 
d="M341 104l-295 211v70l295 211v-110l-189 -136l189 -136v-110zM620 104l-295 211v70l295 211v-110l-189 -136l189 -136v-110z" />
    <glyph glyph-name="guillemotright.case" horiz-adv-x="673" 
d="M53 104v110l189 136l-189 136v110l295 -211v-70zM332 104v110l189 136l-189 136v110l295 -211v-70z" />
    <glyph glyph-name="guilsinglleft.case" horiz-adv-x="394" 
d="M341 104l-295 211v70l295 211v-110l-189 -136l189 -136v-110z" />
    <glyph glyph-name="guilsinglright.case" horiz-adv-x="394" 
d="M53 104v110l189 136l-189 136v110l295 -211v-70z" />
    <glyph glyph-name="quotesinglbase.ss02" horiz-adv-x="294" 
d="M79 -127l-19 25c36 25 61 62 66 102c-37 15 -56 40 -56 71c0 39 30 71 73 71c44 0 74 -34 74 -78c0 -76 -53 -135 -138 -191z" />
    <glyph glyph-name="quotedblbase.ss02" horiz-adv-x="492" 
d="M79 -127l-19 25c36 25 61 62 66 102c-37 15 -56 40 -56 71c0 39 30 71 73 71c44 0 74 -34 74 -78c0 -76 -53 -135 -138 -191zM276 -127l-19 25c36 25 61 62 66 102c-37 15 -56 40 -56 71c0 39 30 71 73 71c44 0 74 -34 74 -78c0 -76 -53 -135 -138 -191z" />
    <glyph glyph-name="quotedblleft.ss02" horiz-adv-x="492" 
d="M77 529c0 76 54 135 139 191l18 -25c-36 -25 -58 -62 -65 -102c37 -15 56 -42 56 -71c0 -39 -30 -71 -73 -71c-44 0 -75 34 -75 78zM274 529c0 76 54 135 139 191l18 -25c-36 -25 -58 -62 -65 -102c37 -15 56 -42 56 -71c0 -39 -30 -71 -73 -71c-44 0 -75 34 -75 78z" />
    <glyph glyph-name="quotedblright.ss02" horiz-adv-x="492" 
d="M79 451l-19 25c36 25 61 62 66 102c-37 15 -56 40 -56 71c0 39 30 71 73 71c44 0 74 -34 74 -78c0 -76 -53 -135 -138 -191zM276 451l-19 25c36 25 61 62 66 102c-37 15 -56 40 -56 71c0 39 30 71 73 71c44 0 74 -34 74 -78c0 -76 -53 -135 -138 -191z" />
    <glyph glyph-name="quoteleft.ss02" horiz-adv-x="294" 
d="M77 529c0 76 54 135 139 191l18 -25c-36 -25 -58 -62 -65 -102c37 -15 56 -42 56 -71c0 -39 -30 -71 -73 -71c-44 0 -75 34 -75 78z" />
    <glyph glyph-name="quoteright.ss02" horiz-adv-x="294" 
d="M79 451l-19 25c36 25 61 62 66 102c-37 15 -56 40 -56 71c0 39 30 71 73 71c44 0 74 -34 74 -78c0 -76 -53 -135 -138 -191z" />
    <glyph glyph-name="anoteleia" unicode="&#x387;" horiz-adv-x="260" 
d="M57 350c0 43 30 74 73 74s75 -31 75 -74s-32 -74 -75 -74c-41 0 -73 31 -73 74z" />
    <glyph glyph-name="uni037E" unicode="&#x37e;" horiz-adv-x="260" 
d="M85 424c0 43 30 74 73 74s75 -31 75 -74s-32 -74 -75 -74c-41 0 -73 31 -73 74zM25 -118l62 240h145l-127 -240h-80z" />
    <glyph glyph-name="uni037E.ss02" horiz-adv-x="260" 
d="M57 424c0 43 30 74 73 74s75 -31 75 -74s-32 -74 -75 -74c-41 0 -73 31 -73 74zM66 -125l-19 24c36 27 61 63 66 103c-37 13 -56 40 -56 71c0 39 30 70 73 70c44 0 74 -33 74 -78c0 -75 -53 -135 -138 -190z" />
    <glyph glyph-name="uni00A0" unicode="&#xa0;" horiz-adv-x="249" 
 />
    <glyph glyph-name="space.tf" 
 />
    <glyph glyph-name="uni0E3F" unicode="&#xe3f;" horiz-adv-x="614" 
d="M564 208c0 -131 -85 -208 -226 -208h-16v-90h-103v90h-136v700h136v90h103v-90h8c123 0 198 -66 198 -186c0 -61 -29 -109 -74 -132c69 -27 110 -85 110 -174zM194 597v-176h131c63 0 95 27 95 88c0 63 -32 88 -97 88h-129zM453 210c0 73 -40 108 -127 108h-132v-215h132
c87 0 127 35 127 107z" />
    <glyph glyph-name="uni20BF" unicode="&#x20bf;" horiz-adv-x="614" 
d="M385 3v-73h-80v70h-49v-70h-80v70h-93v700h93v70h80v-70h49v70h80v-75c91 -17 143 -80 143 -181c0 -61 -29 -109 -74 -132c69 -27 110 -85 110 -174c0 -116 -66 -189 -179 -205zM323 597h-129v-176h131c63 0 95 27 95 88c0 63 -32 88 -97 88zM453 210
c0 73 -40 108 -127 108h-132v-215h132c87 0 127 35 127 107z" />
    <glyph glyph-name="cent" unicode="&#xa2;" horiz-adv-x="542" 
d="M232 -50v145c-61 11 -107 40 -140 87c-32 47 -48 103 -48 168s16 121 48 168c33 47 79 77 140 88v144h103v-144c81 -14 138 -60 169 -138l-94 -39c-28 59 -67 89 -127 89c-84 0 -129 -68 -129 -168s45 -168 129 -168c60 0 99 30 127 89l94 -38
c-31 -79 -88 -125 -169 -138v-145h-103z" />
    <glyph glyph-name="currency" unicode="&#xa4;" horiz-adv-x="566" 
d="M109 48l-85 85l89 68c-19 31 -29 67 -29 106s10 75 29 106l-89 68l85 85l68 -88c31 21 67 31 106 31s75 -10 106 -31l68 88l85 -85l-89 -68c19 -31 29 -67 29 -106s-10 -75 -29 -106l89 -68l-85 -85l-68 88c-31 -21 -66 -31 -106 -31c-39 0 -75 10 -106 31zM381 307
c0 64 -38 107 -98 107s-99 -43 -99 -107s39 -107 99 -107s98 43 98 107z" />
    <glyph glyph-name="dollar" unicode="$" horiz-adv-x="524" 
d="M322 -3v-87h-103v87c-96 20 -165 96 -184 189l91 56c23 -88 69 -147 146 -147c60 0 101 34 101 99c0 21 -6 38 -18 53c-24 31 -57 48 -122 80l-18 9c-85 43 -139 97 -139 192c0 88 58 157 143 176v86h103v-88c61 -15 104 -54 130 -115l-89 -57c-19 50 -53 75 -100 75
c-45 0 -80 -33 -80 -73c0 -20 6 -38 19 -53c25 -31 59 -48 123 -76c101 -47 160 -100 160 -204c0 -105 -64 -182 -163 -202z" />
    <glyph glyph-name="dong" unicode="&#x20ab;" horiz-adv-x="482" 
d="M48 368c0 116 64 192 165 192c41 0 72 -14 95 -42v30v44h-89v68h89v40h102v-40h39v-68h-39v-410h-102v13v23c-20 -25 -54 -42 -94 -42c-103 0 -166 75 -166 192zM314 368c0 65 -33 105 -82 105c-51 0 -83 -38 -83 -105s32 -105 83 -105s82 38 82 105zM44 62v68h405v-68
h-405z" />
    <glyph glyph-name="Euro" unicode="&#x20ac;" horiz-adv-x="637" 
d="M125 226h-95l44 92h42v32v32h-86l44 92h51c29 148 128 234 265 234c96 0 165 -39 208 -117l-92 -53c-23 45 -65 72 -116 72c-80 0 -134 -45 -157 -136h225l-44 -92h-192v-32v-32h236l-44 -92h-181c23 -91 77 -136 157 -136c51 0 93 26 116 73l92 -54
c-43 -78 -112 -117 -208 -117c-137 0 -236 86 -265 234z" />
    <glyph glyph-name="florin" unicode="&#x192;" horiz-adv-x="481" 
d="M-80 -194l40 87c19 -9 37 -13 55 -13c45 0 72 25 81 75l89 457h-83l19 92h83l5 28c23 120 94 176 201 176c36 0 63 -6 82 -18l-40 -87c-17 9 -35 13 -55 13c-45 0 -72 -25 -81 -75l-7 -37h112l-18 -92h-112l-88 -448c-23 -117 -89 -176 -200 -176c-35 0 -66 7 -83 18z
" />
    <glyph glyph-name="franc" unicode="&#x20a3;" horiz-adv-x="546" 
d="M515 597h-320v-184h259v-103h-259v-106h135v-103h-135v-101h-111v101h-50v103h50v496h431v-103z" />
    <glyph glyph-name="uni20B4" unicode="&#x20b4;" horiz-adv-x="544" 
d="M451 468h54v-93h-470v93h305c15 17 23 39 23 64c0 41 -35 73 -83 73c-57 0 -95 -25 -114 -75l-90 57c35 81 103 121 204 121c111 0 189 -67 189 -159c0 -32 -6 -59 -18 -81zM35 233v92h470v-92h-304c-13 -15 -20 -33 -20 -54c0 -53 38 -84 94 -84c64 0 106 28 126 84
l91 -58c-36 -81 -112 -129 -217 -129c-123 0 -204 67 -204 171c0 26 5 49 14 70h-50z" />
    <glyph glyph-name="uni20AD" unicode="&#x20ad;" horiz-adv-x="611" 
d="M460 0l-265 341h-3v-341h-111v341h-63v91h63v268h111v-268h4l245 268h137l-244 -268h237v-91h-242l270 -341h-139z" />
    <glyph glyph-name="uni20BA" unicode="&#x20ba;" horiz-adv-x="584" 
d="M427 261h111v-54c0 -125 -75 -207 -212 -207h-238v141l-70 -43v100l70 43v55l-70 -43v100l70 43v304h111v-237l171 104v-100l-171 -104v-55l171 104v-100l-171 -104v-105h124c68 0 104 36 104 104v54z" />
    <glyph glyph-name="uni20B1" unicode="&#x20b1;" horiz-adv-x="668" 
d="M636 564v-52h-69c1 -4 1 -10 1 -19s0 -15 -1 -19h69v-52h-77c-25 -85 -95 -136 -204 -136h-146v-286h-111v422h-66v52h66v38h-66v52h66v136h257c109 0 179 -51 204 -136h77zM209 597v-33h225c-17 22 -45 33 -83 33h-142zM454 512h-245v-38h245c1 4 1 10 1 19s0 15 -1 19z
M434 422h-225v-33h142c38 0 66 11 83 33z" />
    <glyph glyph-name="uni20BD" unicode="&#x20bd;" horiz-adv-x="622" 
d="M372 286h-146v-67h248v-95h-248v-124h-111v124h-83v95h83v67h-83v96h83v318h257c137 0 213 -82 213 -207s-76 -207 -213 -207zM226 597v-208h142c68 0 104 36 104 104s-36 104 -104 104h-142z" />
    <glyph glyph-name="uni20A8" unicode="&#x20a8;" horiz-adv-x="1013" 
d="M83 0v700h246c133 0 209 -73 209 -192c0 -96 -49 -163 -137 -184l201 -324h-124l-197 315h-87v-315h-111zM194 418h135c61 0 98 29 98 90c0 59 -33 89 -98 89h-135v-179zM612 129l85 45c21 -60 58 -90 109 -90c39 0 67 22 67 61c0 35 -37 56 -106 83
c-79 29 -122 71 -122 146c0 78 66 138 154 138c68 0 121 -28 152 -81l-65 -59c-21 32 -50 48 -86 48c-32 0 -56 -19 -56 -48s25 -48 106 -79c82 -29 123 -77 123 -142c0 -97 -67 -159 -167 -159c-104 0 -173 61 -194 137z" />
    <glyph glyph-name="uni20B9" unicode="&#x20b9;" horiz-adv-x="562" 
d="M530 628h-92c18 -25 30 -54 35 -88h57v-65h-57c-13 -99 -88 -160 -207 -160h-81l286 -315h-144l-295 324v91h233c54 0 87 20 98 60h-331v65h331c-10 40 -43 60 -98 60h-233v100h498v-72z" />
    <glyph glyph-name="uni20AA" unicode="&#x20aa;" horiz-adv-x="853" 
d="M577 536v-367h-107v368c0 43 -22 65 -65 65h-215v-602h-107v700h322c119 0 172 -45 172 -164zM277 164v367h106v-368c0 -43 22 -65 65 -65h215v602h107v-700h-322c-127 0 -171 33 -171 164z" />
    <glyph glyph-name="sterling" unicode="&#xa3;" horiz-adv-x="545" 
d="M100 -8l-63 70c71 67 109 119 109 187c0 21 -4 44 -12 69h-82v92h54c-13 36 -20 67 -20 92c0 121 81 206 204 206c99 0 169 -52 201 -139l-89 -42c-25 56 -60 82 -112 82c-56 0 -98 -39 -98 -112c0 -28 4 -57 13 -87h170v-92h-141c3 -19 5 -36 5 -53
c0 -66 -27 -123 -80 -170c28 17 63 29 94 29c25 0 41 -7 64 -19c21 -11 34 -16 53 -16c33 0 52 13 81 64l74 -46c-44 -80 -91 -115 -159 -115c-33 0 -53 8 -84 21c-25 13 -41 19 -68 19c-43 0 -70 -12 -114 -40z" />
    <glyph glyph-name="uni20B8" unicode="&#x20b8;" horiz-adv-x="519" 
d="M26 604v96h468v-96h-468zM204 0v436h-178v102h468v-102h-179v-436h-111z" />
    <glyph glyph-name="uni20A9" unicode="&#x20a9;" horiz-adv-x="685" 
d="M673 358v-93h-81l-38 -265h-122l-51 265h-76l-52 -265h-122l-38 265h-81v93h68l-49 342h102l43 -342h62l51 268h108l51 -268h62l42 342h103l-49 -342h67zM323 358h40l-20 102zM200 161l20 104h-33zM486 161l13 104h-33z" />
    <glyph glyph-name="yen" unicode="&#xa5;" horiz-adv-x="527" 
d="M208 0v131h-148v92h148v77h-148v92h103l-153 308h121l133 -289l132 289h122l-154 -308h104v-92h-149v-77h149v-92h-149v-131h-111z" />
    <glyph glyph-name="uni0E3F.tf" 
d="M564 208c0 -131 -86 -208 -227 -208h-15v-90h-104v90h-136v700h136v90h104v-90h7c123 0 199 -66 199 -186c0 -61 -30 -109 -75 -132c71 -27 111 -85 111 -174zM193 597v-176h131c63 0 96 27 96 88c0 63 -33 88 -98 88h-129zM452 210c0 73 -40 108 -127 108h-132v-215h132
c87 0 127 35 127 107z" />
    <glyph glyph-name="uni20BF.tf" 
d="M371 3v-73h-80v70h-49v-70h-80v70h-93v700h93v70h80v-70h49v70h80v-75c91 -17 143 -80 143 -181c0 -61 -29 -109 -74 -132c69 -27 110 -85 110 -174c0 -116 -66 -189 -179 -205zM309 597h-129v-176h131c63 0 95 27 95 88c0 63 -32 88 -97 88zM439 210
c0 73 -40 108 -127 108h-132v-215h132c87 0 127 35 127 107z" />
    <glyph glyph-name="cent.tf" 
d="M268 -50v145c-61 11 -107 40 -140 87c-32 47 -48 103 -48 168s16 121 48 168c33 47 79 77 140 88v144h103v-144c81 -14 138 -60 169 -138l-94 -39c-28 59 -67 89 -127 89c-84 0 -129 -68 -129 -168s45 -168 129 -168c60 0 99 30 127 89l94 -38
c-31 -79 -88 -125 -169 -138v-145h-103z" />
    <glyph glyph-name="currency.tf" 
d="M136 48l-85 85l89 68c-19 31 -29 67 -29 106s10 75 29 106l-89 68l85 85l68 -88c31 21 67 31 106 31s75 -10 106 -31l68 88l85 -85l-89 -68c19 -31 29 -67 29 -106s-10 -75 -29 -106l89 -68l-85 -85l-68 88c-31 -21 -66 -31 -106 -31c-39 0 -75 10 -106 31zM408 307
c0 64 -38 107 -98 107s-99 -43 -99 -107s39 -107 99 -107s98 43 98 107z" />
    <glyph glyph-name="dollar.tf" 
d="M372 -3v-87h-103v87c-96 20 -165 96 -184 189l91 56c23 -88 69 -147 146 -147c60 0 101 34 101 99c0 21 -6 38 -18 53c-24 31 -57 48 -122 80l-18 9c-85 43 -139 97 -139 192c0 88 58 157 143 176v86h103v-88c61 -15 104 -54 130 -115l-89 -57c-19 50 -53 75 -100 75
c-45 0 -80 -33 -80 -73c0 -20 6 -38 19 -53c25 -31 59 -48 123 -76c101 -47 160 -100 160 -204c0 -105 -64 -182 -163 -202z" />
    <glyph glyph-name="dong.tf" 
d="M111 368c0 116 64 192 165 192c41 0 72 -14 95 -42v30v44h-89v68h89v40h102v-40h39v-68h-39v-410h-102v13v23c-20 -25 -54 -42 -94 -42c-103 0 -166 75 -166 192zM377 368c0 65 -33 105 -82 105c-51 0 -83 -38 -83 -105s32 -105 83 -105s82 38 82 105zM107 62v68h405v-68
h-405z" />
    <glyph glyph-name="Euro.tf" 
d="M120 226h-94l43 92h43v32v32h-86l43 92h51c31 148 129 234 265 234c97 0 166 -39 209 -117l-93 -53c-23 45 -65 72 -116 72c-79 0 -135 -45 -156 -136h224l-43 -92h-192v-32v-32h235l-43 -92h-181c21 -91 77 -136 156 -136c51 0 93 26 116 73l93 -54
c-43 -78 -112 -117 -209 -117c-136 0 -234 86 -265 234z" />
    <glyph glyph-name="florin.tf" 
d="M24 -194l40 87c19 -9 37 -13 55 -13c45 0 72 25 81 75l89 457h-83l19 92h83l5 28c23 120 94 176 201 176c36 0 63 -6 82 -18l-40 -87c-17 9 -35 13 -55 13c-45 0 -72 -25 -81 -75l-7 -37h112l-18 -92h-112l-88 -448c-23 -117 -89 -176 -200 -176c-35 0 -66 7 -83 18z" />
    <glyph glyph-name="franc.tf" 
d="M551 597h-320v-184h259v-103h-259v-106h135v-103h-135v-101h-111v101h-50v103h50v496h431v-103z" />
    <glyph glyph-name="uni20B4.tf" 
d="M491 468h54v-93h-470v93h305c15 17 23 39 23 64c0 41 -35 73 -83 73c-57 0 -95 -25 -114 -75l-90 57c35 81 103 121 204 121c111 0 189 -67 189 -159c0 -32 -6 -59 -18 -81zM75 233v92h470v-92h-304c-13 -15 -20 -33 -20 -54c0 -53 38 -84 94 -84c64 0 106 28 126 84
l91 -58c-36 -81 -112 -129 -217 -129c-123 0 -204 67 -204 171c0 26 5 49 14 70h-50z" />
    <glyph glyph-name="uni20AD.tf" 
d="M461 0l-265 341h-3v-341h-111v341h-63v91h63v268h111v-268h4l245 268h137l-244 -268h237v-91h-242l270 -341h-139z" />
    <glyph glyph-name="uni20BA.tf" 
d="M468 261h111v-54c0 -125 -75 -207 -212 -207h-238v141l-70 -43v100l70 43v55l-70 -43v100l70 43v304h111v-237l171 104v-100l-171 -104v-55l171 104v-100l-171 -104v-105h124c68 0 104 36 104 104v54z" />
    <glyph glyph-name="uni20B1.tf" 
d="M591 564v-52h-45c1 -4 1 -10 1 -19s0 -15 -1 -19h45v-52h-53c-25 -85 -95 -136 -204 -136h-146v-286h-111v422h-49v52h49v38h-49v52h49v136h257c109 0 179 -51 204 -136h53zM188 597v-33h225c-17 22 -44 33 -83 33h-142zM433 512h-245v-38h245c1 4 1 10 1 19s0 15 -1 19z
M413 422h-225v-33h142c39 0 66 11 83 33z" />
    <glyph glyph-name="uni20BD.tf" 
d="M368 286h-146v-67h185v-102h-185v-117h-110v117h-84v102h84v67h-84v103h84v311h256c137 0 214 -82 214 -207s-77 -207 -214 -207zM222 597v-208h143c68 0 104 37 104 104s-36 104 -104 104h-143z" />
    <glyph glyph-name="uni20A8.tf" 
d="M66 0v700h143c99 0 171 -76 171 -192c0 -92 -44 -154 -116 -185l107 -323h-94l-104 314h-11v-314h-96zM162 416h48c47 0 75 31 75 92s-28 91 -75 91h-48v-183zM366 100l64 32c7 -43 25 -64 54 -64c23 0 38 15 38 40s-17 44 -60 65c-56 27 -84 64 -84 111
c0 65 47 106 107 106c49 0 85 -25 104 -68l-55 -44c-9 25 -28 40 -48 40c-21 0 -36 -12 -36 -31c0 -24 15 -37 58 -58c59 -29 92 -60 92 -115c0 -72 -49 -122 -118 -122c-60 0 -104 37 -116 108z" />
    <glyph glyph-name="uni20B9.tf" 
d="M559 628h-92c18 -25 30 -54 35 -88h57v-65h-57c-13 -99 -88 -160 -207 -160h-81l286 -315h-144l-295 324v91h233c54 0 87 20 98 60h-331v65h331c-10 40 -43 60 -98 60h-233v100h498v-72z" />
    <glyph glyph-name="uni20AA.tf" 
d="M35 0v700h230c117 0 171 -45 171 -164v-367h-100v368c0 43 -22 65 -65 65h-137v-602h-99zM184 164v367h100v-368c0 -43 22 -65 65 -65h137v602h100v-700h-230c-127 0 -172 33 -172 164z" />
    <glyph glyph-name="sterling.tf" 
d="M129 -8l-63 70c71 67 109 119 109 187c0 21 -4 44 -12 69h-82v92h54c-13 36 -20 67 -20 92c0 121 81 206 204 206c99 0 169 -52 201 -139l-89 -42c-25 56 -60 82 -112 82c-56 0 -98 -39 -98 -112c0 -28 4 -57 13 -87h170v-92h-141c3 -19 5 -36 5 -53
c0 -66 -27 -123 -80 -170c28 17 63 29 94 29c25 0 41 -7 64 -19c21 -11 34 -16 53 -16c33 0 52 13 81 64l74 -46c-44 -80 -91 -115 -159 -115c-33 0 -53 8 -84 21c-25 13 -41 19 -68 19c-43 0 -70 -12 -114 -40z" />
    <glyph glyph-name="uni20B8.tf" 
d="M76 604v96h468v-96h-468zM254 0v436h-178v102h468v-102h-179v-436h-111z" />
    <glyph glyph-name="uni20A9.tf" 
d="M606 358v-93h-58l-32 -265h-122l-47 265h-74l-47 -265h-122l-32 265h-58v93h47l-41 342h102l32 -342h53l49 268h108l49 -268h53l32 342h102l-41 -342h47zM289 358h42l-21 117zM172 163l19 102h-28zM448 163l9 102h-28z" />
    <glyph glyph-name="yen.tf" 
d="M254 0v131h-148v92h148v77h-148v92h103l-153 308h121l133 -289l132 289h122l-154 -308h104v-92h-149v-77h149v-92h-149v-131h-111z" />
    <glyph glyph-name="uni2219" unicode="&#x2219;" horiz-adv-x="361" 
d="M83 303c0 55 45 98 98 98s97 -43 97 -98s-44 -98 -97 -98s-98 45 -98 98z" />
    <glyph glyph-name="uni2215" unicode="&#x2215;" horiz-adv-x="546" 
d="M3 -50l436 800h104l-436 -800h-104z" />
    <glyph glyph-name="plus" unicode="+" horiz-adv-x="589" 
d="M248 89v182h-181v92h181v182h93v-182h182v-92h-182v-182h-93z" />
    <glyph glyph-name="minus" unicode="&#x2212;" horiz-adv-x="589" 
d="M67 271v92h456v-92h-456z" />
    <glyph glyph-name="multiply" unicode="&#xd7;" horiz-adv-x="573" 
d="M130 94l-66 65l157 157l-157 157l66 65l157 -157l156 157l66 -66l-158 -156l158 -157l-66 -65l-156 157z" />
    <glyph glyph-name="divide" unicode="&#xf7;" horiz-adv-x="589" 
d="M220 504c0 43 33 74 74 74c43 0 74 -31 74 -74s-31 -74 -74 -74s-74 31 -74 74zM67 269v93h456v-93h-456zM220 127c0 43 33 74 74 74c43 0 74 -31 74 -74s-31 -74 -74 -74s-74 31 -74 74z" />
    <glyph glyph-name="equal" unicode="=" horiz-adv-x="555" 
d="M67 354v92h422v-92h-422zM67 178v92h422v-92h-422z" />
    <glyph glyph-name="notequal" unicode="&#x2260;" horiz-adv-x="555" 
d="M194 73l-80 44l34 61h-81v92h134l47 84h-181v92h234l60 106l80 -45l-34 -61h82v-92h-135l-47 -84h182v-92h-235z" />
    <glyph glyph-name="greater" unicode="&#x3e;" horiz-adv-x="481" 
d="M57 62v111l261 137l-261 137v111l374 -197v-102z" />
    <glyph glyph-name="less" unicode="&#x3c;" horiz-adv-x="481" 
d="M424 62l-374 197v102l374 197v-111l-261 -137l261 -137v-111z" />
    <glyph glyph-name="greaterequal" unicode="&#x2265;" horiz-adv-x="589" 
d="M108 154v111l261 137l-261 137v111l374 -197v-102zM67 0v92h456v-92h-456z" />
    <glyph glyph-name="lessequal" unicode="&#x2264;" horiz-adv-x="589" 
d="M481 154l-374 197v102l374 197v-111l-261 -137l261 -137v-111zM67 0v92h456v-92h-456z" />
    <glyph glyph-name="plusminus" unicode="&#xb1;" horiz-adv-x="589" 
d="M248 171v182h-181v92h181v182h93v-182h182v-92h-182v-182h-93zM67 0v92h456v-92h-456z" />
    <glyph glyph-name="approxequal" unicode="&#x2248;" horiz-adv-x="574" 
d="M281 177c-36 19 -57 27 -88 27c-36 0 -68 -20 -91 -49l-57 60c28 56 83 101 142 101c39 0 63 -10 106 -31c36 -19 57 -27 88 -27c35 0 66 16 91 49l57 -60c-28 -56 -83 -101 -142 -101c-39 0 -63 10 -106 31zM281 382c-36 19 -57 27 -88 27c-36 0 -68 -20 -91 -49l-57 60
c28 56 83 101 142 101c39 0 63 -10 106 -31c36 -19 57 -27 88 -27c35 0 66 16 91 49l57 -60c-28 -56 -83 -101 -142 -101c-39 0 -63 10 -106 31z" />
    <glyph glyph-name="asciitilde" unicode="~" horiz-adv-x="574" 
d="M281 281c-36 19 -57 27 -88 27c-36 0 -68 -20 -91 -49l-57 60c28 56 83 101 142 101c39 0 63 -10 106 -31c36 -19 57 -27 88 -27c35 0 66 16 91 49l57 -60c-28 -56 -83 -101 -142 -101c-39 0 -63 10 -106 31z" />
    <glyph glyph-name="logicalnot" unicode="&#xac;" horiz-adv-x="586" 
d="M414 142v161h-347v96h453v-257h-106z" />
    <glyph glyph-name="asciicircum" unicode="^" horiz-adv-x="533" 
d="M30 411l192 289h89l192 -289h-105l-131 196l-132 -196h-105z" />
    <glyph glyph-name="infinity" unicode="&#x221e;" horiz-adv-x="878" 
d="M52 359c0 115 70 191 189 191c76 0 150 -35 198 -106c48 71 122 106 198 106c119 0 189 -76 189 -191s-70 -191 -189 -191c-76 0 -150 35 -198 106c-48 -71 -122 -106 -198 -106c-119 0 -189 76 -189 191zM386 359c-35 68 -84 101 -129 101c-61 0 -102 -36 -102 -101
c0 -64 41 -101 102 -101c45 0 94 33 129 101zM724 359c0 65 -40 101 -103 101c-45 0 -93 -33 -128 -101c35 -68 83 -101 128 -101c63 0 103 37 103 101z" />
    <glyph glyph-name="integral" unicode="&#x222b;" horiz-adv-x="481" 
d="M-80 -194l40 87c19 -9 37 -13 55 -13c45 0 72 25 81 75l113 577c24 123 92 176 199 176c35 0 67 -7 84 -18l-40 -87c-17 9 -35 13 -55 13c-45 0 -72 -25 -81 -75l-113 -577c-24 -124 -90 -176 -195 -176c-36 0 -71 7 -88 18z" />
    <glyph glyph-name="uni2126" unicode="&#x2126;" horiz-adv-x="689" 
d="M33 0v96h148c-89 84 -151 176 -151 305c0 177 123 307 315 307s315 -130 315 -307c0 -129 -62 -221 -151 -305h148v-96h-267v96c105 83 157 182 157 296c0 132 -84 213 -202 213c-119 0 -202 -81 -202 -213c0 -114 52 -213 156 -296v-96h-266z" />
    <glyph glyph-name="uni2206" unicode="&#x2206;" horiz-adv-x="601" 
d="M11 0v27l244 673h91l245 -673v-27h-580zM137 93h327l-163 473z" />
    <glyph glyph-name="product" unicode="&#x220f;" horiz-adv-x="558" 
d="M83 0v700h392v-700h-105v608h-182v-608h-105z" />
    <glyph glyph-name="summation" unicode="&#x2211;" horiz-adv-x="539" 
d="M54 0v43l194 307l-194 307v43h433v-92h-287l154 -246v-24l-154 -246h287v-92h-433z" />
    <glyph glyph-name="radical" unicode="&#x221a;" horiz-adv-x="549" 
d="M242 0l-97 294h-109v95h169l77 -242l163 561h101l-218 -708h-86z" />
    <glyph glyph-name="uni00B5" unicode="&#xb5;" horiz-adv-x="566" 
d="M72 -204v708h106v-327c0 -63 29 -93 81 -93c72 0 130 80 130 213v207h105v-504h-105v88c-39 -59 -97 -96 -162 -96c-19 0 -36 3 -49 10v-206h-106z" />
    <glyph glyph-name="partialdiff" unicode="&#x2202;" horiz-adv-x="601" 
d="M44 208c-3 169 126 307 300 304c37 0 78 -12 102 -32c-12 88 -55 136 -127 136c-54 0 -94 -26 -119 -78l-98 29c14 41 40 74 79 101s83 40 132 40c168 0 245 -116 245 -344c0 -109 -25 -198 -74 -268c-49 -69 -125 -104 -228 -104c-123 0 -212 87 -212 216zM439 289
c0 87 -35 131 -106 131c-102 3 -175 -105 -173 -206c0 -75 38 -130 110 -130c104 0 169 97 169 205z" />
    <glyph glyph-name="percent" unicode="%" horiz-adv-x="844" 
d="M184 -34l-63 51l539 717l63 -50zM57 548c0 90 69 160 162 160s162 -70 162 -160s-69 -160 -162 -160s-162 70 -162 160zM293 548c0 45 -29 77 -74 77s-74 -32 -74 -77s29 -77 74 -77s74 32 74 77zM463 152c0 90 69 160 162 160s162 -70 162 -160s-69 -160 -162 -160
s-162 70 -162 160zM699 152c0 45 -29 77 -74 77s-74 -32 -74 -77s29 -77 74 -77s74 32 74 77z" />
    <glyph glyph-name="perthousand" unicode="&#x2030;" horiz-adv-x="1217" 
d="M184 -34l-63 51l539 717l63 -50zM57 548c0 90 69 160 162 160s162 -70 162 -160s-69 -160 -162 -160s-162 70 -162 160zM293 548c0 45 -29 77 -74 77s-74 -32 -74 -77s29 -77 74 -77s74 32 74 77zM463 152c0 90 69 160 162 160s162 -70 162 -160s-69 -160 -162 -160
s-162 70 -162 160zM836 152c0 90 69 160 162 160s162 -70 162 -160s-69 -160 -162 -160s-162 70 -162 160zM699 152c0 45 -29 77 -74 77s-74 -32 -74 -77s29 -77 74 -77s74 32 74 77zM1073 152c0 45 -28 77 -75 77c-45 0 -74 -32 -74 -77s29 -77 74 -77c47 0 75 32 75 77z
" />
    <glyph glyph-name="uni2215.tf" 
d="M40 -50l436 800h104l-436 -800h-104z" />
    <glyph glyph-name="plus.tf" 
d="M263 89v182h-181v92h181v182h93v-182h182v-92h-182v-182h-93z" />
    <glyph glyph-name="minus.tf" 
d="M82 271v92h456v-92h-456z" />
    <glyph glyph-name="multiply.tf" 
d="M154 94l-66 65l157 157l-157 157l66 65l157 -157l156 157l66 -66l-158 -156l158 -157l-66 -65l-156 157z" />
    <glyph glyph-name="divide.tf" 
d="M235 504c0 43 33 74 74 74c43 0 74 -31 74 -74s-31 -74 -74 -74s-74 31 -74 74zM82 269v93h456v-93h-456zM235 127c0 43 33 74 74 74c43 0 74 -31 74 -74s-31 -74 -74 -74s-74 31 -74 74z" />
    <glyph glyph-name="equal.tf" 
d="M99 354v92h422v-92h-422zM99 178v92h422v-92h-422z" />
    <glyph glyph-name="notequal.tf" 
d="M226 73l-80 44l34 61h-81v92h134l47 84h-181v92h234l60 106l80 -45l-34 -61h82v-92h-135l-47 -84h182v-92h-235z" />
    <glyph glyph-name="greater.tf" 
d="M123 62v111l261 137l-261 137v111l374 -197v-102z" />
    <glyph glyph-name="less.tf" 
d="M496 62l-374 197v102l374 197v-111l-261 -137l261 -137v-111z" />
    <glyph glyph-name="greaterequal.tf" 
d="M123 154v111l261 137l-261 137v111l374 -197v-102zM82 0v92h456v-92h-456z" />
    <glyph glyph-name="lessequal.tf" 
d="M496 154l-374 197v102l374 197v-111l-261 -137l261 -137v-111zM82 0v92h456v-92h-456z" />
    <glyph glyph-name="plusminus.tf" 
d="M263 171v182h-181v92h181v182h93v-182h182v-92h-182v-182h-93zM82 0v92h456v-92h-456z" />
    <glyph glyph-name="approxequal.tf" 
d="M304 177c-36 19 -57 27 -88 27c-36 0 -68 -20 -91 -49l-57 60c28 56 83 101 142 101c39 0 63 -10 106 -31c36 -19 57 -27 88 -27c35 0 66 16 91 49l57 -60c-28 -56 -83 -101 -142 -101c-39 0 -63 10 -106 31zM304 382c-36 19 -57 27 -88 27c-36 0 -68 -20 -91 -49l-57 60
c28 56 83 101 142 101c39 0 63 -10 106 -31c36 -19 57 -27 88 -27c35 0 66 16 91 49l57 -60c-28 -56 -83 -101 -142 -101c-39 0 -63 10 -106 31z" />
    <glyph glyph-name="asciitilde.tf" 
d="M304 281c-36 19 -57 27 -88 27c-36 0 -68 -20 -91 -49l-57 60c28 56 83 101 142 101c39 0 63 -10 106 -31c36 -19 57 -27 88 -27c35 0 66 16 91 49l57 -60c-28 -56 -83 -101 -142 -101c-39 0 -63 10 -106 31z" />
    <glyph glyph-name="logicalnot.tf" 
d="M431 142v161h-347v96h453v-257h-106z" />
    <glyph glyph-name="percent.tf" 
d="M14 548c0 90 69 160 162 160c92 0 161 -70 161 -160s-69 -160 -161 -160c-93 0 -162 70 -162 160zM257 548c0 49 -32 85 -81 85s-82 -36 -82 -85s33 -85 82 -85s81 36 81 85zM80 134l-46 60l499 364l45 -60zM283 152c0 90 69 160 162 160c92 0 161 -70 161 -160
s-69 -160 -161 -160c-93 0 -162 70 -162 160zM526 152c0 49 -32 85 -81 85s-82 -36 -82 -85s33 -85 82 -85s81 36 81 85z" />
    <glyph glyph-name="perthousand.tf" 
d="M34 575c0 72 58 133 133 133c38 0 70 -13 95 -39c25 -25 38 -57 38 -94s-13 -69 -38 -95c-25 -25 -57 -38 -95 -38c-75 0 -133 61 -133 133zM230 575c0 37 -24 66 -63 66c-40 0 -65 -27 -65 -66c0 -37 25 -65 65 -65c39 0 63 28 63 65zM71 199l-46 59l495 370l45 -59z
M126 125c0 72 58 133 133 133c43 0 80 -18 104 -50c23 32 60 50 103 50c38 0 70 -13 95 -39c25 -25 38 -57 38 -94s-13 -69 -38 -95c-25 -25 -57 -38 -95 -38c-43 0 -80 18 -103 50c-24 -32 -61 -50 -104 -50c-75 0 -133 61 -133 133zM322 125c0 37 -24 66 -63 66
c-40 0 -65 -27 -65 -66c0 -37 25 -65 65 -65c39 0 63 28 63 65zM530 125c0 39 -25 66 -64 66s-64 -27 -64 -66c0 -37 25 -65 64 -65s64 28 64 65z" />
    <glyph glyph-name="arrowup" unicode="&#x2191;" horiz-adv-x="644" 
d="M276 67v392l-136 -134l-64 62l246 246l246 -246l-64 -62l-136 134v-392h-92z" />
    <glyph glyph-name="uni2197" unicode="&#x2197;" horiz-adv-x="645" 
d="M173 133l-65 66l276 275h-191v93h348v-349h-93v192z" />
    <glyph glyph-name="arrowright" unicode="&#x2192;" horiz-adv-x="656" 
d="M361 104l-62 64l134 136h-392v92h392l-134 136l62 64l246 -246z" />
    <glyph glyph-name="uni2198" unicode="&#x2198;" horiz-adv-x="645" 
d="M193 133v93h191l-276 275l65 66l275 -277v192h93v-349h-348z" />
    <glyph glyph-name="arrowdown" unicode="&#x2193;" horiz-adv-x="644" 
d="M322 67l-246 246l64 62l136 -134v392h92v-392l136 134l64 -62z" />
    <glyph glyph-name="uni2199" unicode="&#x2199;" horiz-adv-x="645" 
d="M104 133v349h92v-192l276 277l65 -66l-276 -275h191v-93h-348z" />
    <glyph glyph-name="arrowleft" unicode="&#x2190;" horiz-adv-x="656" 
d="M288 104l-247 246l247 246l62 -64l-134 -136h391v-92h-391l134 -136z" />
    <glyph glyph-name="uni2196" unicode="&#x2196;" horiz-adv-x="645" 
d="M472 133l-275 277v-192h-93v349h348v-93h-191l276 -275z" />
    <glyph glyph-name="arrowboth" unicode="&#x2194;" horiz-adv-x="827" 
d="M533 596l246 -246l-246 -246l-62 64l134 136h-389l134 -136l-62 -64l-247 246l247 246l62 -64l-134 -136h389l-134 136z" />
    <glyph glyph-name="arrowupdn" unicode="&#x2195;" horiz-adv-x="644" 
d="M368 155l136 134l64 -62l-246 -246l-246 246l64 62l136 -134v392l-136 -134l-64 62l246 247l246 -247l-64 -62l-136 134v-392z" />
    <glyph glyph-name="arrowup.ss03" horiz-adv-x="644" 
d="M276 2v522l-136 -135l-64 62l246 247l246 -247l-64 -62l-136 135v-522h-92z" />
    <glyph glyph-name="uni2197.ss03" horiz-adv-x="735" 
d="M173 86l-65 66l366 365h-191v93h348v-348h-92v191z" />
    <glyph glyph-name="arrowright.ss03" horiz-adv-x="785" 
d="M491 104l-62 64l134 136h-522v92h522l-134 136l62 64l246 -246z" />
    <glyph glyph-name="uni2198.ss03" horiz-adv-x="735" 
d="M283 86v93h191l-366 366l65 65l366 -366v191h92v-349h-348z" />
    <glyph glyph-name="arrowdown.ss03" horiz-adv-x="644" 
d="M322 3l-246 246l64 62l136 -134v521h92v-521l136 134l64 -62z" />
    <glyph glyph-name="uni2199.ss03" horiz-adv-x="735" 
d="M104 86v349h92v-191l366 366l66 -65l-367 -366h191v-93h-348z" />
    <glyph glyph-name="arrowleft.ss03" horiz-adv-x="785" 
d="M288 104l-247 246l247 246l62 -64l-134 -136h521v-92h-521l134 -136z" />
    <glyph glyph-name="uni2196.ss03" horiz-adv-x="735" 
d="M563 86l-366 367v-191h-93v348h348v-93h-190l366 -365z" />
    <glyph glyph-name="lozenge" unicode="&#x25ca;" horiz-adv-x="592" 
d="M245 0l-182 350l182 350h102l182 -350l-182 -350h-102zM296 93l127 257l-127 257l-127 -257z" />
    <glyph glyph-name="uniF8FF" unicode="&#xf8ff;" horiz-adv-x="792" 
d="M100 22v595c0 9 7 19 16 22l270 78l10 2l10 -2l270 -78c9 -3 16 -13 16 -22v-595c0 -12 -10 -22 -22 -22l-7 1l-267 77l-267 -77l-7 -1c-12 0 -22 10 -22 22zM374 366v303l-230 -67c8 -124 106 -226 230 -236zM648 602l-230 67v-303c124 10 222 112 230 236zM143 51
l231 67v204c-97 8 -183 61 -231 141v-412zM649 51v412c-49 -80 -134 -133 -231 -141v-204z" />
    </font>
</defs>
</svg>
