<?xml version="1.0" standalone="no"?>
<!DOCTYPE svg PUBLIC "-//W3C//DTD SVG 1.1//EN" "http://www.w3.org/Graphics/SVG/1.1/DTD/svg11.dtd" >
<svg xmlns="http://www.w3.org/2000/svg" xmlns:xlink="http://www.w3.org/1999/xlink" version="1.1">
<metadata>
Created by FontForge 20170924 at Mon Mar 18 22:53:09 2019
 By www-data
Copyright \(c\) 2010-2018 by Colophon Foundry. All rights reserved.
</metadata>
<defs>
<font id="ApercuPro-Regular" horiz-adv-x="620" >
  <font-face 
    font-family="Apercu Pro"
    font-weight="400"
    font-stretch="normal"
    units-per-em="1000"
    panose-1="2 11 5 3 5 6 1 4 1 3"
    ascent="788"
    descent="-212"
    x-height="504"
    cap-height="700"
    bbox="-640 -262 1150 1119"
    underline-thickness="62"
    underline-position="-160"
    stemh="74"
    stemv="82"
    unicode-range="U+000D-FB02"
  />
<missing-glyph horiz-adv-x="608" 
d="M87 0v700h434v-700h-434zM169 74h270v552h-270v-552z" />
    <glyph glyph-name="f_f" unicode="ff" horiz-adv-x="609" 
d="M86 0v430h-75v74h75v30c0 117 59 174 162 174c27 0 51 -5 71 -15l-18 -71c-17 8 -35 12 -54 12c-51 0 -79 -30 -79 -90v-40h204v30c0 117 59 174 162 174c27 0 51 -5 71 -15l-18 -71c-18 8 -36 12 -55 12c-49 0 -78 -30 -78 -90v-40h117v-74h-117v-430h-82v430h-204v-430
h-82z" />
    <glyph glyph-name="f_f_i" unicode="ffi" horiz-adv-x="796" 
d="M86 0v430h-75v74h75v30c0 117 59 174 162 174c27 0 51 -5 71 -15l-18 -71c-17 8 -35 12 -54 12c-51 0 -79 -30 -79 -90v-40h204v13c0 61 19 108 58 141s89 50 150 50c48 0 93 -10 124 -29l-21 -72c-32 18 -67 27 -104 27c-76 0 -125 -43 -125 -111v-19h286v-504h-82v430
h-204v-430h-82v430h-204v-430h-82z" />
    <glyph glyph-name="f_f_l" unicode="ffl" horiz-adv-x="815" 
d="M86 0v430h-75v74h75v30c0 117 59 174 162 174c27 0 51 -5 71 -15l-18 -71c-17 8 -35 12 -54 12c-51 0 -79 -30 -79 -90v-40h204v30c0 117 59 174 162 174h206v-708h-82v634h-126c-49 0 -78 -30 -78 -90v-40h117v-74h-117v-430h-82v430h-204v-430h-82z" />
    <glyph glyph-name="f_i" unicode="fi" horiz-adv-x="529" 
d="M86 0v430h-75v74h75v13c0 61 19 108 58 141s89 50 150 50c48 0 93 -10 124 -29l-21 -72c-32 18 -67 27 -104 27c-76 0 -125 -43 -125 -111v-19h286v-504h-82v430h-204v-430h-82z" />
    <glyph glyph-name="f_l" unicode="fl" horiz-adv-x="529" 
d="M86 0v430h-75v74h75v30c0 117 59 174 162 174h206v-708h-82v634h-125c-51 0 -79 -30 -79 -90v-40h117v-74h-117v-430h-82z" />
    <glyph glyph-name=".notdef" horiz-adv-x="608" 
d="M87 0v700h434v-700h-434zM169 74h270v552h-270v-552z" />
    <glyph glyph-name="CR" unicode="&#xd;" horiz-adv-x="251" 
 />
    <glyph glyph-name="space" unicode=" " horiz-adv-x="251" 
 />
    <glyph glyph-name="A" unicode="A" horiz-adv-x="600" 
d="M11 0l248 700h82l247 -700h-91l-64 188h-266l-64 -188h-92zM193 269h214l-107 314z" />
    <glyph glyph-name="Aacute" unicode="&#xc1;" horiz-adv-x="600" 
d="M11 0l248 700h82l247 -700h-91l-64 188h-266l-64 -188h-92zM193 269h214l-107 314zM267 753l69 146h117l-123 -146h-63z" />
    <glyph glyph-name="Abreve" unicode="&#x102;" horiz-adv-x="600" 
d="M11 0l248 700h82l247 -700h-91l-64 188h-266l-64 -188h-92zM193 269h214l-107 314zM190 896h64c0 -29 17 -49 46 -49s45 20 45 49h64c0 -64 -42 -109 -109 -109s-110 45 -110 109z" />
    <glyph glyph-name="Acircumflex" unicode="&#xc2;" horiz-adv-x="600" 
d="M11 0l248 700h82l247 -700h-91l-64 188h-266l-64 -188h-92zM193 269h214l-107 314zM144 756l142 151h26l143 -151h-85l-71 75l-70 -75h-85z" />
    <glyph glyph-name="Adieresis" unicode="&#xc4;" horiz-adv-x="600" 
d="M11 0l248 700h82l247 -700h-91l-64 188h-266l-64 -188h-92zM193 269h214l-107 314zM159 837c0 32 24 57 56 57s56 -25 56 -57s-24 -56 -56 -56c-33 0 -56 24 -56 56zM330 837c0 32 24 57 55 57c33 0 57 -25 57 -57s-24 -56 -57 -56c-31 0 -55 24 -55 56z" />
    <glyph glyph-name="Agrave" unicode="&#xc0;" horiz-adv-x="600" 
d="M11 0l248 700h82l247 -700h-91l-64 188h-266l-64 -188h-92zM193 269h214l-107 314zM270 753l-124 146h118l69 -146h-63z" />
    <glyph glyph-name="Amacron" unicode="&#x100;" horiz-adv-x="600" 
d="M11 0l248 700h82l247 -700h-91l-64 188h-266l-64 -188h-92zM193 269h214l-107 314zM174 797v69h250v-69h-250z" />
    <glyph glyph-name="Aogonek" unicode="&#x104;" horiz-adv-x="600" 
d="M11 0l248 700h82l247 -700h-91l-64 188h-266l-64 -188h-92zM193 269h214l-107 314zM467 -93c0 35 20 70 52 93h70c-39 -35 -57 -58 -57 -79c0 -20 12 -31 31 -31c9 0 19 3 28 9l17 -59c-17 -11 -32 -14 -56 -14c-52 0 -85 32 -85 81z" />
    <glyph glyph-name="Aring" unicode="&#xc5;" horiz-adv-x="600" 
d="M11 0l248 700h82l247 -700h-91l-64 188h-266l-64 -188h-92zM193 269h214l-107 314zM200 850c0 56 43 99 100 99s100 -43 100 -99c0 -55 -43 -97 -100 -97s-100 42 -100 97zM345 850c0 27 -20 47 -45 47s-45 -20 -45 -47c0 -25 20 -45 45 -45c27 0 45 20 45 45z" />
    <glyph glyph-name="Aringacute" unicode="&#x1fa;" horiz-adv-x="600" 
d="M11 0l248 700h82l247 -700h-91l-64 188h-266l-64 -188h-92zM193 269h214l-107 314zM200 850c0 56 43 99 100 99s100 -43 100 -99c0 -55 -43 -97 -100 -97s-100 42 -100 97zM345 850c0 27 -20 47 -45 47s-45 -20 -45 -47c0 -25 20 -45 45 -45c27 0 45 20 45 45zM267 973
l69 146h117l-123 -146h-63z" />
    <glyph glyph-name="Atilde" unicode="&#xc3;" horiz-adv-x="600" 
d="M11 0l248 700h82l247 -700h-91l-64 188h-266l-64 -188h-92zM193 269h214l-107 314zM175 774l-52 42c24 44 66 75 107 75c32 0 51 -8 78 -23c24 -13 35 -18 54 -18c22 0 43 14 62 41l52 -42c-24 -44 -64 -75 -107 -75c-32 0 -49 8 -77 23c-21 12 -34 18 -54 18
c-22 0 -43 -14 -63 -41z" />
    <glyph glyph-name="AE" unicode="&#xc6;" horiz-adv-x="836" 
d="M11 0l307 700h454v-81h-321v-206h261v-80h-261v-252h331v-81h-417v188h-181l-81 -188h-92zM218 269h147v314h-12z" />
    <glyph glyph-name="AEacute" unicode="&#x1fc;" horiz-adv-x="836" 
d="M11 0l307 700h454v-81h-321v-206h261v-80h-261v-252h331v-81h-417v188h-181l-81 -188h-92zM218 269h147v314h-12zM528 753l69 146h117l-123 -146h-63z" />
    <glyph glyph-name="B" unicode="B" horiz-adv-x="609" 
d="M87 0v700h235c123 0 196 -66 196 -182c0 -67 -33 -112 -81 -135c72 -28 117 -86 117 -178c0 -127 -84 -205 -220 -205h-247zM174 412h146c75 0 112 34 112 103s-38 104 -113 104h-145v-207zM174 81h148c96 0 144 38 144 125s-48 125 -144 125h-148v-250z" />
    <glyph glyph-name="C" unicode="C" horiz-adv-x="686" 
d="M50 350c-3 231 151 360 316 358c139 0 237 -76 273 -204l-82 -22c-28 92 -91 145 -191 145c-131 0 -226 -99 -226 -277s95 -277 226 -277c100 0 163 53 191 145l82 -22c-36 -128 -134 -204 -273 -204c-165 -2 -319 127 -316 358z" />
    <glyph glyph-name="Cacute" unicode="&#x106;" horiz-adv-x="686" 
d="M50 350c-3 231 151 360 316 358c139 0 237 -76 273 -204l-82 -22c-28 92 -91 145 -191 145c-131 0 -226 -99 -226 -277s95 -277 226 -277c100 0 163 53 191 145l82 -22c-36 -128 -134 -204 -273 -204c-165 -2 -319 127 -316 358zM333 753l69 146h117l-123 -146h-63z" />
    <glyph glyph-name="Ccaron" unicode="&#x10c;" horiz-adv-x="686" 
d="M50 350c-3 231 151 360 316 358c139 0 237 -76 273 -204l-82 -22c-28 92 -91 145 -191 145c-131 0 -226 -99 -226 -277s95 -277 226 -277c100 0 163 53 191 145l82 -22c-36 -128 -134 -204 -273 -204c-165 -2 -319 127 -316 358zM352 756l-142 151h85l70 -75l71 75h85
l-143 -151h-26z" />
    <glyph glyph-name="Ccedilla" unicode="&#xc7;" horiz-adv-x="686" 
d="M50 350c-3 231 151 360 316 358c139 0 237 -76 273 -204l-82 -22c-28 92 -91 145 -191 145c-131 0 -226 -99 -226 -277s95 -277 226 -277c100 0 163 53 191 145l82 -22c-36 -128 -134 -204 -273 -204c-165 -2 -319 127 -316 358zM327 -231l-97 42l112 129h66z" />
    <glyph glyph-name="Ccircumflex" unicode="&#x108;" horiz-adv-x="686" 
d="M50 350c-3 231 151 360 316 358c139 0 237 -76 273 -204l-82 -22c-28 92 -91 145 -191 145c-131 0 -226 -99 -226 -277s95 -277 226 -277c100 0 163 53 191 145l82 -22c-36 -128 -134 -204 -273 -204c-165 -2 -319 127 -316 358zM210 756l142 151h26l143 -151h-85l-71 75
l-70 -75h-85z" />
    <glyph glyph-name="Cdotaccent" unicode="&#x10a;" horiz-adv-x="686" 
d="M50 350c-3 231 151 360 316 358c139 0 237 -76 273 -204l-82 -22c-28 92 -91 145 -191 145c-131 0 -226 -99 -226 -277s95 -277 226 -277c100 0 163 53 191 145l82 -22c-36 -128 -134 -204 -273 -204c-165 -2 -319 127 -316 358zM306 845c0 35 27 60 60 60
c35 0 61 -25 61 -60s-26 -60 -61 -60c-33 0 -60 27 -60 60z" />
    <glyph glyph-name="D" unicode="D" horiz-adv-x="653" 
d="M87 0v700h195c178 0 321 -128 321 -350s-143 -350 -321 -350h-195zM174 81h95c130 0 244 80 244 269s-114 269 -244 269h-95v-538z" />
    <glyph glyph-name="Eth" unicode="&#xd0;" horiz-adv-x="653" 
d="M603 350c0 -222 -143 -350 -321 -350h-195v312h-71v76h71v312h195c178 0 321 -128 321 -350zM513 350c0 189 -114 269 -244 269h-95v-231h103v-76h-103v-231h95c130 0 244 80 244 269z" />
    <glyph glyph-name="Dcaron" unicode="&#x10e;" horiz-adv-x="653" 
d="M87 0v700h195c178 0 321 -128 321 -350s-143 -350 -321 -350h-195zM174 81h95c130 0 244 80 244 269s-114 269 -244 269h-95v-538zM236 756l-142 151h85l70 -75l71 75h85l-143 -151h-26z" />
    <glyph glyph-name="Dcroat" unicode="&#x110;" horiz-adv-x="653" 
d="M603 350c0 -222 -143 -350 -321 -350h-195v312h-71v76h71v312h195c178 0 321 -128 321 -350zM513 350c0 189 -114 269 -244 269h-95v-231h103v-76h-103v-231h95c130 0 244 80 244 269z" />
    <glyph glyph-name="E" unicode="E" horiz-adv-x="558" 
d="M87 0v700h407v-81h-320v-206h260v-80h-260v-252h330v-81h-417z" />
    <glyph glyph-name="Eacute" unicode="&#xc9;" horiz-adv-x="558" 
d="M87 0v700h407v-81h-320v-206h260v-80h-260v-252h330v-81h-417zM264 753l69 146h117l-123 -146h-63z" />
    <glyph glyph-name="Ebreve" unicode="&#x114;" horiz-adv-x="558" 
d="M87 0v700h407v-81h-320v-206h260v-80h-260v-252h330v-81h-417zM186 896h64c0 -29 17 -49 46 -49s45 20 45 49h64c0 -64 -42 -109 -109 -109s-110 45 -110 109z" />
    <glyph glyph-name="Ecaron" unicode="&#x11a;" horiz-adv-x="558" 
d="M87 0v700h407v-81h-320v-206h260v-80h-260v-252h330v-81h-417zM283 756l-142 151h85l70 -75l71 75h85l-143 -151h-26z" />
    <glyph glyph-name="Ecircumflex" unicode="&#xca;" horiz-adv-x="558" 
d="M87 0v700h407v-81h-320v-206h260v-80h-260v-252h330v-81h-417zM141 756l142 151h26l143 -151h-85l-71 75l-70 -75h-85z" />
    <glyph glyph-name="Edieresis" unicode="&#xcb;" horiz-adv-x="558" 
d="M87 0v700h407v-81h-320v-206h260v-80h-260v-252h330v-81h-417zM156 837c0 32 24 57 56 57s56 -25 56 -57s-24 -56 -56 -56c-33 0 -56 24 -56 56zM327 837c0 32 24 57 55 57c33 0 57 -25 57 -57s-24 -56 -57 -56c-31 0 -55 24 -55 56z" />
    <glyph glyph-name="Edotaccent" unicode="&#x116;" horiz-adv-x="558" 
d="M87 0v700h407v-81h-320v-206h260v-80h-260v-252h330v-81h-417zM236 845c0 35 27 60 60 60c35 0 61 -25 61 -60s-26 -60 -61 -60c-33 0 -60 27 -60 60z" />
    <glyph glyph-name="Egrave" unicode="&#xc8;" horiz-adv-x="558" 
d="M87 0v700h407v-81h-320v-206h260v-80h-260v-252h330v-81h-417zM266 753l-124 146h118l69 -146h-63z" />
    <glyph glyph-name="Emacron" unicode="&#x112;" horiz-adv-x="558" 
d="M87 0v700h407v-81h-320v-206h260v-80h-260v-252h330v-81h-417zM171 797v69h250v-69h-250z" />
    <glyph glyph-name="Eogonek" unicode="&#x118;" horiz-adv-x="558" 
d="M87 0v700h407v-81h-320v-206h260v-80h-260v-252h330v-81h-417zM383 -93c0 35 20 70 52 93h70c-39 -35 -57 -58 -57 -79c0 -20 12 -31 31 -31c9 0 19 3 28 9l17 -59c-17 -11 -32 -14 -56 -14c-52 0 -85 32 -85 81z" />
    <glyph glyph-name="F" unicode="F" horiz-adv-x="536" 
d="M87 0v700h415v-81h-328v-215h268v-81h-268v-323h-87z" />
    <glyph glyph-name="G" unicode="G" horiz-adv-x="706" 
d="M50 350c0 231 149 358 316 358c141 0 241 -81 276 -210l-82 -22c-33 96 -99 151 -194 151c-132 0 -226 -97 -226 -277c0 -181 94 -277 225 -277c121 0 187 75 191 203h-152v77h237v-353h-74l-9 97c-35 -63 -107 -105 -196 -105c-164 -1 -315 128 -312 358z" />
    <glyph glyph-name="Gbreve" unicode="&#x11e;" horiz-adv-x="706" 
d="M50 350c0 231 149 358 316 358c141 0 241 -81 276 -210l-82 -22c-33 96 -99 151 -194 151c-132 0 -226 -97 -226 -277c0 -181 94 -277 225 -277c121 0 187 75 191 203h-152v77h237v-353h-74l-9 97c-35 -63 -107 -105 -196 -105c-164 -1 -315 128 -312 358zM255 896h64
c0 -29 17 -49 46 -49s45 20 45 49h64c0 -64 -42 -109 -109 -109s-110 45 -110 109z" />
    <glyph glyph-name="Gcircumflex" unicode="&#x11c;" horiz-adv-x="706" 
d="M50 350c0 231 149 358 316 358c141 0 241 -81 276 -210l-82 -22c-33 96 -99 151 -194 151c-132 0 -226 -97 -226 -277c0 -181 94 -277 225 -277c121 0 187 75 191 203h-152v77h237v-353h-74l-9 97c-35 -63 -107 -105 -196 -105c-164 -1 -315 128 -312 358zM210 756
l142 151h26l143 -151h-85l-71 75l-70 -75h-85z" />
    <glyph glyph-name="uni0122" unicode="&#x122;" horiz-adv-x="706" 
d="M50 350c0 231 149 358 316 358c141 0 241 -81 276 -210l-82 -22c-33 96 -99 151 -194 151c-132 0 -226 -97 -226 -277c0 -181 94 -277 225 -277c121 0 187 75 191 203h-152v77h237v-353h-74l-9 97c-35 -63 -107 -105 -196 -105c-164 -1 -315 128 -312 358zM274 -224
l42 172h109l-104 -172h-47z" />
    <glyph glyph-name="Gdotaccent" unicode="&#x120;" horiz-adv-x="706" 
d="M50 350c0 231 149 358 316 358c141 0 241 -81 276 -210l-82 -22c-33 96 -99 151 -194 151c-132 0 -226 -97 -226 -277c0 -181 94 -277 225 -277c121 0 187 75 191 203h-152v77h237v-353h-74l-9 97c-35 -63 -107 -105 -196 -105c-164 -1 -315 128 -312 358zM305 845
c0 35 27 60 60 60c35 0 61 -25 61 -60s-26 -60 -61 -60c-33 0 -60 27 -60 60z" />
    <glyph glyph-name="H" unicode="H" horiz-adv-x="678" 
d="M87 0v700h87v-286h331v286h87v-700h-87v333h-331v-333h-87z" />
    <glyph glyph-name="Hbar" unicode="&#x126;" horiz-adv-x="678" 
d="M659 594v-74h-67v-520h-87v333h-331v-333h-87v520h-68v74h68v106h87v-106h331v106h87v-106h67zM505 414v106h-331v-106h331z" />
    <glyph glyph-name="Hcircumflex" unicode="&#x124;" horiz-adv-x="678" 
d="M87 0v700h87v-286h331v286h87v-700h-87v333h-331v-333h-87zM183 756l142 151h26l143 -151h-85l-71 75l-70 -75h-85z" />
    <glyph glyph-name="I" unicode="I" horiz-adv-x="260" 
d="M87 0v700h87v-700h-87z" />
    <glyph glyph-name="IJ" unicode="&#x132;" horiz-adv-x="772" 
d="M87 0v700h87v-700h-87zM286 172l88 19c11 -76 49 -118 116 -118c72 0 119 43 119 136v491h86v-482c0 -149 -84 -226 -205 -226c-119 0 -191 75 -204 180z" />
    <glyph glyph-name="Iacute" unicode="&#xcd;" horiz-adv-x="260" 
d="M87 0v700h87v-700h-87zM97 753l69 146h117l-123 -146h-63z" />
    <glyph glyph-name="Ibreve" unicode="&#x12c;" horiz-adv-x="260" 
d="M87 0v700h87v-700h-87zM20 896h64c0 -29 17 -49 46 -49s45 20 45 49h64c0 -64 -42 -109 -109 -109s-110 45 -110 109z" />
    <glyph glyph-name="Icircumflex" unicode="&#xce;" horiz-adv-x="260" 
d="M87 0v700h87v-700h-87zM-26 756l142 151h26l143 -151h-85l-71 75l-70 -75h-85z" />
    <glyph glyph-name="Idieresis" unicode="&#xcf;" horiz-adv-x="260" 
d="M87 0v700h87v-700h-87zM-11 837c0 32 24 57 56 57s56 -25 56 -57s-24 -56 -56 -56c-33 0 -56 24 -56 56zM160 837c0 32 24 57 55 57c33 0 57 -25 57 -57s-24 -56 -57 -56c-31 0 -55 24 -55 56z" />
    <glyph glyph-name="Idot" unicode="&#x130;" horiz-adv-x="260" 
d="M87 0v700h87v-700h-87zM70 845c0 35 27 60 60 60c35 0 61 -25 61 -60s-26 -60 -61 -60c-33 0 -60 27 -60 60z" />
    <glyph glyph-name="Igrave" unicode="&#xcc;" horiz-adv-x="260" 
d="M87 0v700h87v-700h-87zM100 753l-124 146h118l69 -146h-63z" />
    <glyph glyph-name="Imacron" unicode="&#x12a;" horiz-adv-x="260" 
d="M87 0v700h87v-700h-87zM5 797v69h250v-69h-250z" />
    <glyph glyph-name="Iogonek" unicode="&#x12e;" horiz-adv-x="260" 
d="M87 0v700h87v-700h-87zM52 -93c0 35 20 70 52 93h70c-39 -35 -57 -58 -57 -79c0 -20 12 -31 31 -31c9 0 19 3 28 9l17 -59c-17 -11 -32 -14 -56 -14c-52 0 -85 32 -85 81z" />
    <glyph glyph-name="Itilde" unicode="&#x128;" horiz-adv-x="260" 
d="M87 0v700h87v-700h-87zM5 774l-52 42c24 44 66 75 107 75c32 0 51 -8 78 -23c24 -13 35 -18 54 -18c22 0 43 14 62 41l52 -42c-24 -44 -64 -75 -107 -75c-32 0 -49 8 -77 23c-21 12 -34 18 -54 18c-22 0 -43 -14 -63 -41z" />
    <glyph glyph-name="J" unicode="J" horiz-adv-x="513" 
d="M28 172l88 19c11 -76 49 -118 116 -118c72 0 119 43 119 136v491h86v-482c0 -149 -84 -226 -205 -226c-119 0 -191 75 -204 180z" />
    <glyph glyph-name="Jcircumflex" unicode="&#x134;" horiz-adv-x="513" 
d="M28 172l88 19c11 -76 49 -118 116 -118c72 0 119 43 119 136v491h86v-482c0 -149 -84 -226 -205 -226c-119 0 -191 75 -204 180zM238 756l142 151h26l143 -151h-85l-71 75l-70 -75h-85z" />
    <glyph glyph-name="K" unicode="K" horiz-adv-x="582" 
d="M87 0v700h87v-286l262 286h108l-286 -314l310 -386h-109l-285 359v-359h-87z" />
    <glyph glyph-name="uni0136" unicode="&#x136;" horiz-adv-x="582" 
d="M87 0v700h87v-286l262 286h108l-286 -314l310 -386h-109l-285 359v-359h-87zM214 -224l42 172h109l-104 -172h-47z" />
    <glyph glyph-name="L" unicode="L" horiz-adv-x="530" 
d="M87 0v700h87v-619h317v-81h-404z" />
    <glyph glyph-name="Lacute" unicode="&#x139;" horiz-adv-x="530" 
d="M87 0v700h87v-619h317v-81h-404zM97 753l69 146h117l-123 -146h-63z" />
    <glyph glyph-name="Lcaron" unicode="&#x13d;" horiz-adv-x="530" 
d="M87 0v700h87v-619h317v-81h-404zM366 542l28 172h98l-71 -172h-55z" />
    <glyph glyph-name="uni013B" unicode="&#x13b;" horiz-adv-x="530" 
d="M87 0v700h87v-619h317v-81h-404zM194 -224l42 172h109l-104 -172h-47z" />
    <glyph glyph-name="Ldot" unicode="&#x13f;" horiz-adv-x="530" 
d="M87 0v700h87v-619h317v-81h-404zM325 355c0 36 26 62 61 62c36 0 62 -26 62 -62c0 -35 -26 -61 -62 -61c-35 0 -61 26 -61 61z" />
    <glyph glyph-name="Lslash" unicode="&#x141;" horiz-adv-x="530" 
d="M174 81h317v-81h-404v238l-83 -47l-33 63l116 66v380h87v-331l103 59l35 -63l-138 -78v-206z" />
    <glyph glyph-name="M" unicode="M" horiz-adv-x="767" 
d="M87 0v700h103l194 -498l194 498h102v-700h-86v527l-181 -463h-59l-180 463v-527h-87z" />
    <glyph glyph-name="N" unicode="N" horiz-adv-x="675" 
d="M87 0v700h97l318 -552v552h86v-700h-97l-317 550v-550h-87z" />
    <glyph glyph-name="Nacute" unicode="&#x143;" horiz-adv-x="675" 
d="M87 0v700h97l318 -552v552h86v-700h-97l-317 550v-550h-87zM305 753l69 146h117l-123 -146h-63z" />
    <glyph glyph-name="Ncaron" unicode="&#x147;" horiz-adv-x="675" 
d="M87 0v700h97l318 -552v552h86v-700h-97l-317 550v-550h-87zM324 756l-142 151h85l70 -75l71 75h85l-143 -151h-26z" />
    <glyph glyph-name="uni0145" unicode="&#x145;" horiz-adv-x="675" 
d="M87 0v700h97l318 -552v552h86v-700h-97l-317 550v-550h-87zM242 -224l42 172h109l-104 -172h-47z" />
    <glyph glyph-name="Eng" unicode="&#x14a;" horiz-adv-x="675" 
d="M389 -212v81c71 0 112 36 113 127v4l-328 550v-550h-87v700h97l318 -540v540h86v-699c0 -144 -75 -213 -199 -213z" />
    <glyph glyph-name="Ntilde" unicode="&#xd1;" horiz-adv-x="675" 
d="M87 0v700h97l318 -552v552h86v-700h-97l-317 550v-550h-87zM213 774l-52 42c24 44 66 75 107 75c32 0 51 -8 78 -23c24 -13 35 -18 54 -18c22 0 43 14 62 41l52 -42c-24 -44 -64 -75 -107 -75c-32 0 -49 8 -77 23c-21 12 -34 18 -54 18c-22 0 -43 -14 -63 -41z" />
    <glyph glyph-name="O" unicode="O" horiz-adv-x="729" 
d="M50 350c-3 222 145 360 315 358c168 2 317 -136 314 -358c3 -222 -146 -360 -314 -358c-170 -2 -318 136 -315 358zM590 350c0 182 -99 277 -225 277s-225 -95 -225 -277s99 -277 225 -277s225 95 225 277z" />
    <glyph glyph-name="Oacute" unicode="&#xd3;" horiz-adv-x="729" 
d="M50 350c-3 222 145 360 315 358c168 2 317 -136 314 -358c3 -222 -146 -360 -314 -358c-170 -2 -318 136 -315 358zM590 350c0 182 -99 277 -225 277s-225 -95 -225 -277s99 -277 225 -277s225 95 225 277zM331 753l69 146h117l-123 -146h-63z" />
    <glyph glyph-name="Obreve" unicode="&#x14e;" horiz-adv-x="729" 
d="M50 350c-3 222 145 360 315 358c168 2 317 -136 314 -358c3 -222 -146 -360 -314 -358c-170 -2 -318 136 -315 358zM590 350c0 182 -99 277 -225 277s-225 -95 -225 -277s99 -277 225 -277s225 95 225 277zM254 896h64c0 -29 17 -49 46 -49s45 20 45 49h64
c0 -64 -42 -109 -109 -109s-110 45 -110 109z" />
    <glyph glyph-name="Ocircumflex" unicode="&#xd4;" horiz-adv-x="729" 
d="M50 350c-3 222 145 360 315 358c168 2 317 -136 314 -358c3 -222 -146 -360 -314 -358c-170 -2 -318 136 -315 358zM590 350c0 182 -99 277 -225 277s-225 -95 -225 -277s99 -277 225 -277s225 95 225 277zM209 756l142 151h26l143 -151h-85l-71 75l-70 -75h-85z" />
    <glyph glyph-name="Odieresis" unicode="&#xd6;" horiz-adv-x="729" 
d="M50 350c-3 222 145 360 315 358c168 2 317 -136 314 -358c3 -222 -146 -360 -314 -358c-170 -2 -318 136 -315 358zM590 350c0 182 -99 277 -225 277s-225 -95 -225 -277s99 -277 225 -277s225 95 225 277zM224 837c0 32 24 57 56 57s56 -25 56 -57s-24 -56 -56 -56
c-33 0 -56 24 -56 56zM395 837c0 32 24 57 55 57c33 0 57 -25 57 -57s-24 -56 -57 -56c-31 0 -55 24 -55 56z" />
    <glyph glyph-name="Ograve" unicode="&#xd2;" horiz-adv-x="729" 
d="M50 350c-3 222 145 360 315 358c168 2 317 -136 314 -358c3 -222 -146 -360 -314 -358c-170 -2 -318 136 -315 358zM590 350c0 182 -99 277 -225 277s-225 -95 -225 -277s99 -277 225 -277s225 95 225 277zM334 753l-124 146h118l69 -146h-63z" />
    <glyph glyph-name="Ohungarumlaut" unicode="&#x150;" horiz-adv-x="729" 
d="M50 350c-3 222 145 360 315 358c168 2 317 -136 314 -358c3 -222 -146 -360 -314 -358c-170 -2 -318 136 -315 358zM590 350c0 182 -99 277 -225 277s-225 -95 -225 -277s99 -277 225 -277s225 95 225 277zM246 756l68 143h117l-122 -143h-63zM414 756l68 143h118
l-122 -143h-64z" />
    <glyph glyph-name="Omacron" unicode="&#x14c;" horiz-adv-x="729" 
d="M50 350c-3 222 145 360 315 358c168 2 317 -136 314 -358c3 -222 -146 -360 -314 -358c-170 -2 -318 136 -315 358zM590 350c0 182 -99 277 -225 277s-225 -95 -225 -277s99 -277 225 -277s225 95 225 277zM239 797v69h250v-69h-250z" />
    <glyph glyph-name="Oslash" unicode="&#xd8;" horiz-adv-x="729" 
d="M679 350c3 -222 -146 -360 -314 -358c-69 0 -131 20 -184 60l-59 -76l-59 44l65 84c-49 61 -78 146 -78 246c-3 222 145 360 315 358c69 0 130 -20 184 -61l59 77l59 -44l-65 -84c49 -63 77 -146 77 -246zM182 174l316 408c-37 30 -82 45 -133 45
c-126 0 -225 -95 -225 -277c0 -70 14 -129 42 -176zM590 350c0 71 -14 130 -43 175l-315 -407c37 -30 82 -45 133 -45c126 0 225 95 225 277z" />
    <glyph glyph-name="Otilde" unicode="&#xd5;" horiz-adv-x="729" 
d="M50 350c-3 222 145 360 315 358c168 2 317 -136 314 -358c3 -222 -146 -360 -314 -358c-170 -2 -318 136 -315 358zM590 350c0 182 -99 277 -225 277s-225 -95 -225 -277s99 -277 225 -277s225 95 225 277zM240 774l-52 42c24 44 66 75 107 75c32 0 51 -8 78 -23
c24 -13 35 -18 54 -18c22 0 43 14 62 41l52 -42c-24 -44 -64 -75 -107 -75c-32 0 -49 8 -77 23c-21 12 -34 18 -54 18c-22 0 -43 -14 -63 -41z" />
    <glyph glyph-name="OE" unicode="&#x152;" horiz-adv-x="1063" 
d="M50 350c-3 222 145 360 315 358c88 0 170 -38 227 -106v98h407v-81h-320v-206h260v-80h-260v-252h330v-81h-417v98c-57 -68 -139 -106 -227 -106c-170 -2 -318 136 -315 358zM590 350c0 182 -99 277 -225 277s-225 -95 -225 -277s99 -277 225 -277s225 95 225 277z" />
    <glyph glyph-name="P" unicode="P" horiz-adv-x="581" 
d="M87 0v700h246c132 0 208 -76 208 -199c0 -124 -76 -200 -208 -200h-159v-301h-87zM174 382h158c81 0 119 44 119 119c0 73 -38 118 -119 118h-158v-237z" />
    <glyph glyph-name="Thorn" unicode="&#xde;" horiz-adv-x="581" 
d="M87 0v700h87v-150h159c131 0 208 -77 208 -200s-76 -199 -208 -199h-159v-151h-87zM174 231h158c81 0 119 44 119 119s-38 119 -119 119h-158v-238z" />
    <glyph glyph-name="Q" unicode="Q" horiz-adv-x="729" 
d="M50 350c-3 222 145 360 315 358c168 2 317 -136 314 -358c0 -93 -25 -172 -69 -232l67 -66l-60 -60l-64 64c-52 -41 -120 -64 -188 -64c-170 -2 -318 136 -315 358zM494 114l-80 81l60 59l74 -74c28 46 42 103 42 170c0 182 -99 277 -225 277s-225 -95 -225 -277
s99 -277 225 -277c49 0 92 14 129 41z" />
    <glyph glyph-name="R" unicode="R" 
d="M87 0v700h235c129 0 204 -67 204 -184c0 -99 -53 -160 -146 -179l210 -337h-97l-209 332h-110v-332h-87zM174 413h145c79 0 119 32 119 103c0 69 -40 103 -119 103h-145v-206z" />
    <glyph glyph-name="Racute" unicode="&#x154;" 
d="M87 0v700h235c129 0 204 -67 204 -184c0 -99 -53 -160 -146 -179l210 -337h-97l-209 332h-110v-332h-87zM174 413h145c79 0 119 32 119 103c0 69 -40 103 -119 103h-145v-206zM216 753l69 146h117l-123 -146h-63z" />
    <glyph glyph-name="Rcaron" unicode="&#x158;" 
d="M87 0v700h235c129 0 204 -67 204 -184c0 -99 -53 -160 -146 -179l210 -337h-97l-209 332h-110v-332h-87zM174 413h145c79 0 119 32 119 103c0 69 -40 103 -119 103h-145v-206zM235 756l-142 151h85l70 -75l71 75h85l-143 -151h-26z" />
    <glyph glyph-name="uni0156" unicode="&#x156;" 
d="M87 0v700h235c129 0 204 -67 204 -184c0 -99 -53 -160 -146 -179l210 -337h-97l-209 332h-110v-332h-87zM174 413h145c79 0 119 32 119 103c0 69 -40 103 -119 103h-145v-206zM223 -224l42 172h109l-104 -172h-47z" />
    <glyph glyph-name="S" unicode="S" horiz-adv-x="514" 
d="M39 183l72 45c25 -103 76 -155 155 -155c68 0 115 42 115 119c0 25 -7 47 -20 65c-27 36 -62 54 -135 89c-91 44 -147 99 -147 191c0 99 76 171 176 171c92 0 147 -41 179 -114l-71 -45c-21 52 -57 78 -108 78c-55 0 -91 -38 -91 -85c0 -23 6 -43 19 -60
c25 -33 60 -52 125 -81c103 -47 161 -102 161 -205c0 -122 -87 -204 -204 -204c-118 0 -208 86 -226 191z" />
    <glyph glyph-name="Sacute" unicode="&#x15a;" horiz-adv-x="514" 
d="M39 183l72 45c25 -103 76 -155 155 -155c68 0 115 42 115 119c0 25 -7 47 -20 65c-27 36 -62 54 -135 89c-91 44 -147 99 -147 191c0 99 76 171 176 171c92 0 147 -41 179 -114l-71 -45c-21 52 -57 78 -108 78c-55 0 -91 -38 -91 -85c0 -23 6 -43 19 -60
c25 -33 60 -52 125 -81c103 -47 161 -102 161 -205c0 -122 -87 -204 -204 -204c-118 0 -208 86 -226 191zM222 753l69 146h117l-123 -146h-63z" />
    <glyph glyph-name="Scaron" unicode="&#x160;" horiz-adv-x="514" 
d="M39 183l72 45c25 -103 76 -155 155 -155c68 0 115 42 115 119c0 25 -7 47 -20 65c-27 36 -62 54 -135 89c-91 44 -147 99 -147 191c0 99 76 171 176 171c92 0 147 -41 179 -114l-71 -45c-21 52 -57 78 -108 78c-55 0 -91 -38 -91 -85c0 -23 6 -43 19 -60
c25 -33 60 -52 125 -81c103 -47 161 -102 161 -205c0 -122 -87 -204 -204 -204c-118 0 -208 86 -226 191zM241 756l-142 151h85l70 -75l71 75h85l-143 -151h-26z" />
    <glyph glyph-name="Scedilla" unicode="&#x15e;" horiz-adv-x="514" 
d="M39 183l72 45c25 -103 76 -155 155 -155c68 0 115 42 115 119c0 25 -7 47 -20 65c-27 36 -62 54 -135 89c-91 44 -147 99 -147 191c0 99 76 171 176 171c92 0 147 -41 179 -114l-71 -45c-21 52 -57 78 -108 78c-55 0 -91 -38 -91 -85c0 -23 6 -43 19 -60
c25 -33 60 -52 125 -81c103 -47 161 -102 161 -205c0 -122 -87 -204 -204 -204c-118 0 -208 86 -226 191zM216 -231l-97 42l112 129h66z" />
    <glyph glyph-name="Scircumflex" unicode="&#x15c;" horiz-adv-x="514" 
d="M39 183l72 45c25 -103 76 -155 155 -155c68 0 115 42 115 119c0 25 -7 47 -20 65c-27 36 -62 54 -135 89c-91 44 -147 99 -147 191c0 99 76 171 176 171c92 0 147 -41 179 -114l-71 -45c-21 52 -57 78 -108 78c-55 0 -91 -38 -91 -85c0 -23 6 -43 19 -60
c25 -33 60 -52 125 -81c103 -47 161 -102 161 -205c0 -122 -87 -204 -204 -204c-118 0 -208 86 -226 191zM99 756l142 151h26l143 -151h-85l-71 75l-70 -75h-85z" />
    <glyph glyph-name="uni0218" unicode="&#x218;" horiz-adv-x="514" 
d="M39 183l72 45c25 -103 76 -155 155 -155c68 0 115 42 115 119c0 25 -7 47 -20 65c-27 36 -62 54 -135 89c-91 44 -147 99 -147 191c0 99 76 171 176 171c92 0 147 -41 179 -114l-71 -45c-21 52 -57 78 -108 78c-55 0 -91 -38 -91 -85c0 -23 6 -43 19 -60
c25 -33 60 -52 125 -81c103 -47 161 -102 161 -205c0 -122 -87 -204 -204 -204c-118 0 -208 86 -226 191zM167 -224l42 172h109l-104 -172h-47z" />
    <glyph glyph-name="uni1E9E" unicode="&#x1e9e;" horiz-adv-x="634" 
d="M251 10v81c39 -14 73 -21 103 -21c91 0 138 49 138 140c0 100 -68 143 -169 143h-25v34l129 232h-141c-71 0 -112 -46 -112 -139v-480h-87v484c0 139 82 216 199 216h245v-46l-135 -247c98 -8 184 -75 184 -193c0 -138 -89 -222 -220 -222c-33 0 -69 6 -109 18z" />
    <glyph glyph-name="T" unicode="T" horiz-adv-x="552" 
d="M233 0v619h-205v81h496v-81h-205v-619h-86z" />
    <glyph glyph-name="Tbar" unicode="&#x166;" horiz-adv-x="552" 
d="M524 619h-205v-231h88v-76h-88v-312h-86v312h-87v76h87v231h-205v81h496v-81z" />
    <glyph glyph-name="Tcaron" unicode="&#x164;" horiz-adv-x="552" 
d="M233 0v619h-205v81h496v-81h-205v-619h-86zM262 756l-142 151h85l70 -75l71 75h85l-143 -151h-26z" />
    <glyph glyph-name="uni0162" unicode="&#x162;" horiz-adv-x="552" 
d="M233 0v619h-205v81h496v-81h-205v-619h-86zM229 -231l-97 42l112 129h66z" />
    <glyph glyph-name="uni021A" unicode="&#x21a;" horiz-adv-x="552" 
d="M233 0v619h-205v81h496v-81h-205v-619h-86zM180 -224l42 172h109l-104 -172h-47z" />
    <glyph glyph-name="U" unicode="U" horiz-adv-x="646" 
d="M76 238v462h87v-467c0 -96 56 -160 160 -160s160 64 160 160v467h87v-462c0 -162 -109 -246 -247 -246c-140 0 -247 84 -247 246z" />
    <glyph glyph-name="Uacute" unicode="&#xda;" horiz-adv-x="646" 
d="M76 238v462h87v-467c0 -96 56 -160 160 -160s160 64 160 160v467h87v-462c0 -162 -109 -246 -247 -246c-140 0 -247 84 -247 246zM290 753l69 146h117l-123 -146h-63z" />
    <glyph glyph-name="Ubreve" unicode="&#x16c;" horiz-adv-x="646" 
d="M76 238v462h87v-467c0 -96 56 -160 160 -160s160 64 160 160v467h87v-462c0 -162 -109 -246 -247 -246c-140 0 -247 84 -247 246zM213 896h64c0 -29 17 -49 46 -49s45 20 45 49h64c0 -64 -42 -109 -109 -109s-110 45 -110 109z" />
    <glyph glyph-name="Ucircumflex" unicode="&#xdb;" horiz-adv-x="646" 
d="M76 238v462h87v-467c0 -96 56 -160 160 -160s160 64 160 160v467h87v-462c0 -162 -109 -246 -247 -246c-140 0 -247 84 -247 246zM167 756l142 151h26l143 -151h-85l-71 75l-70 -75h-85z" />
    <glyph glyph-name="Udieresis" unicode="&#xdc;" horiz-adv-x="646" 
d="M76 238v462h87v-467c0 -96 56 -160 160 -160s160 64 160 160v467h87v-462c0 -162 -109 -246 -247 -246c-140 0 -247 84 -247 246zM182 837c0 32 24 57 56 57s56 -25 56 -57s-24 -56 -56 -56c-33 0 -56 24 -56 56zM353 837c0 32 24 57 55 57c33 0 57 -25 57 -57
s-24 -56 -57 -56c-31 0 -55 24 -55 56z" />
    <glyph glyph-name="Ugrave" unicode="&#xd9;" horiz-adv-x="646" 
d="M76 238v462h87v-467c0 -96 56 -160 160 -160s160 64 160 160v467h87v-462c0 -162 -109 -246 -247 -246c-140 0 -247 84 -247 246zM293 753l-124 146h118l69 -146h-63z" />
    <glyph glyph-name="Uhungarumlaut" unicode="&#x170;" horiz-adv-x="646" 
d="M76 238v462h87v-467c0 -96 56 -160 160 -160s160 64 160 160v467h87v-462c0 -162 -109 -246 -247 -246c-140 0 -247 84 -247 246zM205 756l68 143h117l-122 -143h-63zM373 756l68 143h118l-122 -143h-64z" />
    <glyph glyph-name="Umacron" unicode="&#x16a;" horiz-adv-x="646" 
d="M76 238v462h87v-467c0 -96 56 -160 160 -160s160 64 160 160v467h87v-462c0 -162 -109 -246 -247 -246c-140 0 -247 84 -247 246zM197 797v69h250v-69h-250z" />
    <glyph glyph-name="Uogonek" unicode="&#x172;" horiz-adv-x="646" 
d="M483 700h87v-462c0 -129 -70 -213 -177 -238c-39 -35 -57 -58 -57 -79c0 -20 12 -31 31 -31c10 0 19 3 28 9l18 -59c-19 -11 -33 -14 -57 -14c-52 0 -85 32 -85 81c0 29 15 62 42 85c-135 4 -237 89 -237 246v462h87v-467c0 -96 56 -160 160 -160s160 64 160 160v467z
" />
    <glyph glyph-name="Uring" unicode="&#x16e;" horiz-adv-x="646" 
d="M76 238v462h87v-467c0 -96 56 -160 160 -160s160 64 160 160v467h87v-462c0 -162 -109 -246 -247 -246c-140 0 -247 84 -247 246zM223 850c0 56 43 99 100 99s100 -43 100 -99c0 -55 -43 -97 -100 -97s-100 42 -100 97zM368 850c0 27 -20 47 -45 47s-45 -20 -45 -47
c0 -25 20 -45 45 -45c27 0 45 20 45 45z" />
    <glyph glyph-name="Utilde" unicode="&#x168;" horiz-adv-x="646" 
d="M76 238v462h87v-467c0 -96 56 -160 160 -160s160 64 160 160v467h87v-462c0 -162 -109 -246 -247 -246c-140 0 -247 84 -247 246zM198 774l-52 42c24 44 66 75 107 75c32 0 51 -8 78 -23c24 -13 35 -18 54 -18c22 0 43 14 62 41l52 -42c-24 -44 -64 -75 -107 -75
c-32 0 -49 8 -77 23c-21 12 -34 18 -54 18c-22 0 -43 -14 -63 -41z" />
    <glyph glyph-name="V" unicode="V" horiz-adv-x="596" 
d="M253 0l-242 700h93l194 -577l194 577h93l-242 -700h-90z" />
    <glyph glyph-name="W" unicode="W" horiz-adv-x="874" 
d="M200 0l-189 700h92l144 -570l152 496h77l151 -496l145 570h91l-189 -700h-88l-149 488l-148 -488h-89z" />
    <glyph glyph-name="Wacute" unicode="&#x1e82;" horiz-adv-x="874" 
d="M200 0l-189 700h92l144 -570l152 496h77l151 -496l145 570h91l-189 -700h-88l-149 488l-148 -488h-89zM404 753l69 146h117l-123 -146h-63z" />
    <glyph glyph-name="Wcircumflex" unicode="&#x174;" horiz-adv-x="874" 
d="M200 0l-189 700h92l144 -570l152 496h77l151 -496l145 570h91l-189 -700h-88l-149 488l-148 -488h-89zM281 756l142 151h26l143 -151h-85l-71 75l-70 -75h-85z" />
    <glyph glyph-name="Wdieresis" unicode="&#x1e84;" horiz-adv-x="874" 
d="M200 0l-189 700h92l144 -570l152 496h77l151 -496l145 570h91l-189 -700h-88l-149 488l-148 -488h-89zM296 837c0 32 24 57 56 57s56 -25 56 -57s-24 -56 -56 -56c-33 0 -56 24 -56 56zM467 837c0 32 24 57 55 57c33 0 57 -25 57 -57s-24 -56 -57 -56
c-31 0 -55 24 -55 56z" />
    <glyph glyph-name="Wgrave" unicode="&#x1e80;" horiz-adv-x="874" 
d="M200 0l-189 700h92l144 -570l152 496h77l151 -496l145 570h91l-189 -700h-88l-149 488l-148 -488h-89zM407 753l-124 146h118l69 -146h-63z" />
    <glyph glyph-name="X" unicode="X" horiz-adv-x="572" 
d="M15 0l223 383l-183 317h95l136 -236l135 236h96l-184 -317l224 -383h-96l-175 300l-175 -300h-96z" />
    <glyph glyph-name="Y" unicode="Y" horiz-adv-x="525" 
d="M219 0v302l-208 398h98l154 -312l154 312h97l-208 -398v-302h-87z" />
    <glyph glyph-name="Yacute" unicode="&#xdd;" horiz-adv-x="525" 
d="M219 0v302l-208 398h98l154 -312l154 312h97l-208 -398v-302h-87zM229 753l69 146h117l-123 -146h-63z" />
    <glyph glyph-name="Ycircumflex" unicode="&#x176;" horiz-adv-x="525" 
d="M219 0v302l-208 398h98l154 -312l154 312h97l-208 -398v-302h-87zM107 756l142 151h26l143 -151h-85l-71 75l-70 -75h-85z" />
    <glyph glyph-name="Ydieresis" unicode="&#x178;" horiz-adv-x="525" 
d="M219 0v302l-208 398h98l154 -312l154 312h97l-208 -398v-302h-87zM122 837c0 32 24 57 56 57s56 -25 56 -57s-24 -56 -56 -56c-33 0 -56 24 -56 56zM293 837c0 32 24 57 55 57c33 0 57 -25 57 -57s-24 -56 -57 -56c-31 0 -55 24 -55 56z" />
    <glyph glyph-name="Ygrave" unicode="&#x1ef2;" horiz-adv-x="525" 
d="M219 0v302l-208 398h98l154 -312l154 312h97l-208 -398v-302h-87zM232 753l-124 146h118l69 -146h-63z" />
    <glyph glyph-name="Z" unicode="Z" horiz-adv-x="544" 
d="M41 0v41l336 578h-323v81h440v-41l-332 -578h341v-81h-462z" />
    <glyph glyph-name="Zacute" unicode="&#x179;" horiz-adv-x="544" 
d="M41 0v41l336 578h-323v81h440v-41l-332 -578h341v-81h-462zM241 753l69 146h117l-123 -146h-63z" />
    <glyph glyph-name="Zcaron" unicode="&#x17d;" horiz-adv-x="544" 
d="M41 0v41l336 578h-323v81h440v-41l-332 -578h341v-81h-462zM260 756l-142 151h85l70 -75l71 75h85l-143 -151h-26z" />
    <glyph glyph-name="Zdotaccent" unicode="&#x17b;" horiz-adv-x="544" 
d="M41 0v41l336 578h-323v81h440v-41l-332 -578h341v-81h-462zM214 845c0 35 27 60 60 60c35 0 61 -25 61 -60s-26 -60 -61 -60c-33 0 -60 27 -60 60z" />
    <glyph glyph-name="uni01B5" unicode="&#x1b5;" horiz-adv-x="544" 
d="M41 0v41l158 272h-107v74h150l135 232h-323v81h440v-41l-156 -272h114v-74h-157l-133 -232h341v-81h-462z" />
    <glyph glyph-name="uni0122.ss02" horiz-adv-x="706" 
d="M50 350c0 231 149 358 316 358c141 0 241 -81 276 -210l-82 -22c-33 96 -99 151 -194 151c-132 0 -226 -97 -226 -277c0 -181 94 -277 225 -277c121 0 187 75 191 203h-152v77h237v-353h-74l-9 97c-35 -63 -107 -105 -196 -105c-164 -1 -315 128 -312 358zM324 -262
l-15 19c31 20 53 54 56 86c-32 9 -48 31 -48 56c0 31 23 55 56 55s58 -26 58 -63c0 -59 -44 -112 -107 -153z" />
    <glyph glyph-name="uni0136.ss02" horiz-adv-x="582" 
d="M87 0v700h87v-286l262 286h108l-286 -314l310 -386h-109l-285 359v-359h-87zM264 -262l-15 19c31 20 53 54 56 86c-32 9 -48 31 -48 56c0 31 23 55 56 55s58 -26 58 -63c0 -59 -44 -112 -107 -153z" />
    <glyph glyph-name="Lcaron.ss02" horiz-adv-x="530" 
d="M87 0v700h87v-619h317v-81h-404zM381 534l-15 19c31 20 53 54 56 86c-32 9 -48 31 -48 56c0 31 23 55 56 55s58 -26 58 -63c0 -59 -44 -112 -107 -153z" />
    <glyph glyph-name="uni013B.ss02" horiz-adv-x="530" 
d="M87 0v700h87v-619h317v-81h-404zM243 -262l-15 19c31 20 53 54 56 86c-32 9 -48 31 -48 56c0 31 23 55 56 55s58 -26 58 -63c0 -59 -44 -112 -107 -153z" />
    <glyph glyph-name="uni0145.ss02" horiz-adv-x="675" 
d="M87 0v700h97l318 -552v552h86v-700h-97l-317 550v-550h-87zM291 -262l-15 19c31 20 53 54 56 86c-32 9 -48 31 -48 56c0 31 23 55 56 55s58 -26 58 -63c0 -59 -44 -112 -107 -153z" />
    <glyph glyph-name="uni0156.ss02" 
d="M87 0v700h235c129 0 204 -67 204 -184c0 -99 -53 -160 -146 -179l210 -337h-97l-209 332h-110v-332h-87zM174 413h145c79 0 119 32 119 103c0 69 -40 103 -119 103h-145v-206zM273 -262l-15 19c31 20 53 54 56 86c-32 9 -48 31 -48 56c0 31 23 55 56 55s58 -26 58 -63
c0 -59 -44 -112 -107 -153z" />
    <glyph glyph-name="uni0218.ss02" horiz-adv-x="514" 
d="M39 183l72 45c25 -103 76 -155 155 -155c68 0 115 42 115 119c0 25 -7 47 -20 65c-27 36 -62 54 -135 89c-91 44 -147 99 -147 191c0 99 76 171 176 171c92 0 147 -41 179 -114l-71 -45c-21 52 -57 78 -108 78c-55 0 -91 -38 -91 -85c0 -23 6 -43 19 -60
c25 -33 60 -52 125 -81c103 -47 161 -102 161 -205c0 -122 -87 -204 -204 -204c-118 0 -208 86 -226 191zM217 -262l-15 19c31 20 53 54 56 86c-32 9 -48 31 -48 56c0 31 23 55 56 55s58 -26 58 -63c0 -59 -44 -112 -107 -153z" />
    <glyph glyph-name="uni021A.ss02" horiz-adv-x="552" 
d="M233 0v619h-205v81h496v-81h-205v-619h-86zM229 -262l-15 19c31 20 53 54 56 86c-32 9 -48 31 -48 56c0 31 23 55 56 55s58 -26 58 -63c0 -59 -44 -112 -107 -153z" />
    <glyph glyph-name="a" unicode="a" horiz-adv-x="505" 
d="M48 145c0 107 84 165 223 165h88v22c0 73 -43 106 -107 106c-55 0 -92 -27 -110 -82l-74 17c7 42 27 76 61 101c35 25 76 38 123 38c113 0 189 -69 189 -189v-323h-65l-15 73c-35 -54 -87 -81 -157 -81c-91 0 -156 52 -156 153zM359 223v16h-85c-93 0 -140 -33 -140 -93
c0 -51 32 -80 85 -80c67 0 140 49 140 157z" />
    <glyph glyph-name="aacute" unicode="&#xe1;" horiz-adv-x="505" 
d="M48 145c0 107 84 165 223 165h88v22c0 73 -43 106 -107 106c-55 0 -92 -27 -110 -82l-74 17c7 42 27 76 61 101c35 25 76 38 123 38c113 0 189 -69 189 -189v-323h-65l-15 73c-35 -54 -87 -81 -157 -81c-91 0 -156 52 -156 153zM359 223v16h-85c-93 0 -140 -33 -140 -93
c0 -51 32 -80 85 -80c67 0 140 49 140 157zM219 557l69 146h117l-123 -146h-63z" />
    <glyph glyph-name="abreve" unicode="&#x103;" horiz-adv-x="505" 
d="M48 145c0 107 84 165 223 165h88v22c0 73 -43 106 -107 106c-55 0 -92 -27 -110 -82l-74 17c7 42 27 76 61 101c35 25 76 38 123 38c113 0 189 -69 189 -189v-323h-65l-15 73c-35 -54 -87 -81 -157 -81c-91 0 -156 52 -156 153zM359 223v16h-85c-93 0 -140 -33 -140 -93
c0 -51 32 -80 85 -80c67 0 140 49 140 157zM142 700h64c0 -29 17 -49 46 -49s45 20 45 49h64c0 -64 -42 -109 -109 -109s-110 45 -110 109z" />
    <glyph glyph-name="acircumflex" unicode="&#xe2;" horiz-adv-x="505" 
d="M48 145c0 107 84 165 223 165h88v22c0 73 -43 106 -107 106c-55 0 -92 -27 -110 -82l-74 17c7 42 27 76 61 101c35 25 76 38 123 38c113 0 189 -69 189 -189v-323h-65l-15 73c-35 -54 -87 -81 -157 -81c-91 0 -156 52 -156 153zM359 223v16h-85c-93 0 -140 -33 -140 -93
c0 -51 32 -80 85 -80c67 0 140 49 140 157zM97 560l142 151h26l143 -151h-85l-71 75l-70 -75h-85z" />
    <glyph glyph-name="adieresis" unicode="&#xe4;" horiz-adv-x="505" 
d="M48 145c0 107 84 165 223 165h88v22c0 73 -43 106 -107 106c-55 0 -92 -27 -110 -82l-74 17c7 42 27 76 61 101c35 25 76 38 123 38c113 0 189 -69 189 -189v-323h-65l-15 73c-35 -54 -87 -81 -157 -81c-91 0 -156 52 -156 153zM359 223v16h-85c-93 0 -140 -33 -140 -93
c0 -51 32 -80 85 -80c67 0 140 49 140 157zM111 641c0 32 24 57 56 57s56 -25 56 -57s-24 -56 -56 -56c-33 0 -56 24 -56 56zM282 641c0 32 24 57 55 57c33 0 57 -25 57 -57s-24 -56 -57 -56c-31 0 -55 24 -55 56z" />
    <glyph glyph-name="agrave" unicode="&#xe0;" horiz-adv-x="505" 
d="M48 145c0 107 84 165 223 165h88v22c0 73 -43 106 -107 106c-55 0 -92 -27 -110 -82l-74 17c7 42 27 76 61 101c35 25 76 38 123 38c113 0 189 -69 189 -189v-323h-65l-15 73c-35 -54 -87 -81 -157 -81c-91 0 -156 52 -156 153zM359 223v16h-85c-93 0 -140 -33 -140 -93
c0 -51 32 -80 85 -80c67 0 140 49 140 157zM222 557l-124 146h118l69 -146h-63z" />
    <glyph glyph-name="amacron" unicode="&#x101;" horiz-adv-x="505" 
d="M48 145c0 107 84 165 223 165h88v22c0 73 -43 106 -107 106c-55 0 -92 -27 -110 -82l-74 17c7 42 27 76 61 101c35 25 76 38 123 38c113 0 189 -69 189 -189v-323h-65l-15 73c-35 -54 -87 -81 -157 -81c-91 0 -156 52 -156 153zM359 223v16h-85c-93 0 -140 -33 -140 -93
c0 -51 32 -80 85 -80c67 0 140 49 140 157zM127 601v69h250v-69h-250z" />
    <glyph glyph-name="aogonek" unicode="&#x105;" horiz-adv-x="505" 
d="M443 -101l17 -59c-17 -11 -32 -14 -57 -14c-51 0 -84 32 -84 81c0 35 21 69 62 93h-5l-15 73c-35 -54 -87 -81 -157 -81c-91 0 -156 52 -156 153c0 107 84 165 223 165h88v22c0 73 -43 106 -107 106c-55 0 -92 -27 -110 -82l-74 17c7 42 27 76 61 101c35 25 76 38 123 38
c113 0 189 -69 189 -189v-323c-39 -35 -57 -58 -57 -79c0 -20 12 -31 31 -31c10 0 19 3 28 9zM359 223v16h-85c-93 0 -140 -33 -140 -93c0 -51 32 -80 85 -80c67 0 140 49 140 157z" />
    <glyph glyph-name="aring" unicode="&#xe5;" horiz-adv-x="505" 
d="M48 145c0 107 84 165 223 165h88v22c0 73 -43 106 -107 106c-55 0 -92 -27 -110 -82l-74 17c7 42 27 76 61 101c35 25 76 38 123 38c113 0 189 -69 189 -189v-323h-65l-15 73c-35 -54 -87 -81 -157 -81c-91 0 -156 52 -156 153zM359 223v16h-85c-93 0 -140 -33 -140 -93
c0 -51 32 -80 85 -80c67 0 140 49 140 157zM152 654c0 56 43 99 100 99s100 -43 100 -99c0 -55 -43 -97 -100 -97s-100 42 -100 97zM297 654c0 27 -20 47 -45 47s-45 -20 -45 -47c0 -25 20 -45 45 -45c27 0 45 20 45 45z" />
    <glyph glyph-name="aringacute" unicode="&#x1fb;" horiz-adv-x="505" 
d="M48 145c0 107 84 165 223 165h88v22c0 73 -43 106 -107 106c-55 0 -92 -27 -110 -82l-74 17c7 42 27 76 61 101c35 25 76 38 123 38c113 0 189 -69 189 -189v-323h-65l-15 73c-35 -54 -87 -81 -157 -81c-91 0 -156 52 -156 153zM359 223v16h-85c-93 0 -140 -33 -140 -93
c0 -51 32 -80 85 -80c67 0 140 49 140 157zM152 654c0 56 43 99 100 99s100 -43 100 -99c0 -55 -43 -97 -100 -97s-100 42 -100 97zM297 654c0 27 -20 47 -45 47s-45 -20 -45 -47c0 -25 20 -45 45 -45c27 0 45 20 45 45zM219 792l69 146h117l-123 -146h-63z" />
    <glyph glyph-name="atilde" unicode="&#xe3;" horiz-adv-x="505" 
d="M48 145c0 107 84 165 223 165h88v22c0 73 -43 106 -107 106c-55 0 -92 -27 -110 -82l-74 17c7 42 27 76 61 101c35 25 76 38 123 38c113 0 189 -69 189 -189v-323h-65l-15 73c-35 -54 -87 -81 -157 -81c-91 0 -156 52 -156 153zM359 223v16h-85c-93 0 -140 -33 -140 -93
c0 -51 32 -80 85 -80c67 0 140 49 140 157zM127 578l-52 42c24 44 66 75 107 75c32 0 51 -8 78 -23c24 -13 35 -18 54 -18c22 0 43 14 62 41l52 -42c-24 -44 -64 -75 -107 -75c-32 0 -49 8 -77 23c-21 12 -34 18 -54 18c-22 0 -43 -14 -63 -41z" />
    <glyph glyph-name="ae" unicode="&#xe6;" horiz-adv-x="860" 
d="M48 145c0 107 85 165 225 165h86v22c0 73 -42 106 -107 106c-56 0 -94 -30 -110 -82l-74 17c13 84 88 139 184 139c73 0 135 -30 164 -85c40 53 100 85 172 85c140 0 226 -106 226 -238v-35h-369c1 -101 55 -173 146 -173c68 0 111 31 143 95l71 -27
c-48 -99 -114 -142 -217 -142c-91 0 -161 47 -196 120c-37 -83 -104 -120 -188 -120c-91 0 -156 52 -156 153zM448 310h281c-12 79 -61 128 -141 128c-73 0 -125 -53 -140 -128zM359 223v16h-85c-93 0 -140 -33 -140 -93c0 -51 31 -80 83 -80c67 0 142 49 142 157z" />
    <glyph glyph-name="aeacute" unicode="&#x1fd;" horiz-adv-x="860" 
d="M48 145c0 107 85 165 225 165h86v22c0 73 -42 106 -107 106c-56 0 -94 -30 -110 -82l-74 17c13 84 88 139 184 139c73 0 135 -30 164 -85c40 53 100 85 172 85c140 0 226 -106 226 -238v-35h-369c1 -101 55 -173 146 -173c68 0 111 31 143 95l71 -27
c-48 -99 -114 -142 -217 -142c-91 0 -161 47 -196 120c-37 -83 -104 -120 -188 -120c-91 0 -156 52 -156 153zM448 310h281c-12 79 -61 128 -141 128c-73 0 -125 -53 -140 -128zM359 223v16h-85c-93 0 -140 -33 -140 -93c0 -51 31 -80 83 -80c67 0 142 49 142 157zM388 557
l69 146h117l-123 -146h-63z" />
    <glyph glyph-name="b" unicode="b" horiz-adv-x="577" 
d="M158 61v-30v-31h-83v708h83v-237v-30c33 43 88 71 147 71c145 0 226 -110 226 -260s-81 -260 -226 -260c-61 0 -123 33 -147 69zM445 252c0 111 -56 186 -148 186c-91 0 -147 -75 -147 -186s55 -186 147 -186s148 75 148 186z" />
    <glyph glyph-name="c" unicode="c" horiz-adv-x="528" 
d="M46 252c0 139 82 260 231 260c105 0 176 -47 211 -141l-74 -29c-26 64 -72 96 -137 96c-95 0 -145 -77 -145 -186c0 -108 50 -186 145 -186c67 0 109 32 137 96l74 -29c-36 -93 -108 -141 -211 -141c-149 0 -231 121 -231 260z" />
    <glyph glyph-name="cacute" unicode="&#x107;" horiz-adv-x="528" 
d="M46 252c0 139 82 260 231 260c105 0 176 -47 211 -141l-74 -29c-26 64 -72 96 -137 96c-95 0 -145 -77 -145 -186c0 -108 50 -186 145 -186c67 0 109 32 137 96l74 -29c-36 -93 -108 -141 -211 -141c-149 0 -231 121 -231 260zM244 557l69 146h117l-123 -146h-63z" />
    <glyph glyph-name="ccaron" unicode="&#x10d;" horiz-adv-x="528" 
d="M46 252c0 139 82 260 231 260c105 0 176 -47 211 -141l-74 -29c-26 64 -72 96 -137 96c-95 0 -145 -77 -145 -186c0 -108 50 -186 145 -186c67 0 109 32 137 96l74 -29c-36 -93 -108 -141 -211 -141c-149 0 -231 121 -231 260zM264 560l-142 151h85l70 -75l71 75h85
l-143 -151h-26z" />
    <glyph glyph-name="ccedilla" unicode="&#xe7;" horiz-adv-x="528" 
d="M46 252c0 139 82 260 231 260c105 0 176 -47 211 -141l-74 -29c-26 64 -72 96 -137 96c-95 0 -145 -77 -145 -186c0 -108 50 -186 145 -186c67 0 109 32 137 96l74 -29c-36 -93 -108 -141 -211 -141c-149 0 -231 121 -231 260zM237 -231l-97 42l112 129h66z" />
    <glyph glyph-name="ccircumflex" unicode="&#x109;" horiz-adv-x="528" 
d="M46 252c0 139 82 260 231 260c105 0 176 -47 211 -141l-74 -29c-26 64 -72 96 -137 96c-95 0 -145 -77 -145 -186c0 -108 50 -186 145 -186c67 0 109 32 137 96l74 -29c-36 -93 -108 -141 -211 -141c-149 0 -231 121 -231 260zM122 560l142 151h26l143 -151h-85l-71 75
l-70 -75h-85z" />
    <glyph glyph-name="cdotaccent" unicode="&#x10b;" horiz-adv-x="528" 
d="M46 252c0 139 82 260 231 260c105 0 176 -47 211 -141l-74 -29c-26 64 -72 96 -137 96c-95 0 -145 -77 -145 -186c0 -108 50 -186 145 -186c67 0 109 32 137 96l74 -29c-36 -93 -108 -141 -211 -141c-149 0 -231 121 -231 260zM217 649c0 35 27 60 60 60
c35 0 61 -25 61 -60s-26 -60 -61 -60c-33 0 -60 27 -60 60z" />
    <glyph glyph-name="d" unicode="d" horiz-adv-x="577" 
d="M46 252c0 150 81 260 223 260c64 0 118 -27 151 -71v30v237h82v-708h-82v36v30c-25 -40 -87 -74 -151 -74c-142 0 -223 110 -223 260zM427 252c0 111 -55 186 -147 186s-148 -75 -148 -186s56 -186 148 -186s147 74 147 186z" />
    <glyph glyph-name="eth" unicode="&#xf0;" horiz-adv-x="566" 
d="M46 252c0 140 89 260 237 260c44 0 90 -17 118 -45c-19 47 -62 97 -117 138l-40 -60l-53 38l39 57c-25 15 -53 29 -82 41l39 58c29 -13 56 -26 83 -41l36 54l53 -38l-35 -51c133 -93 196 -222 196 -403c0 -146 -90 -268 -237 -268c-148 0 -237 120 -237 260zM434 252
c0 98 -52 186 -151 186s-151 -88 -151 -186s52 -186 151 -186s151 88 151 186z" />
    <glyph glyph-name="dcaron" unicode="&#x10f;" horiz-adv-x="703" 
d="M46 252c0 150 81 260 223 260c64 0 118 -27 151 -71v30v237h82v-708h-82v36v30c-25 -40 -87 -74 -151 -74c-142 0 -223 110 -223 260zM427 252c0 111 -55 186 -147 186s-148 -75 -148 -186s56 -186 148 -186s147 74 147 186zM577 542l28 172h98l-71 -172h-55z" />
    <glyph glyph-name="dslash" unicode="&#x111;" horiz-adv-x="577" 
d="M569 640v-68h-67v-572h-82v36v30c-25 -40 -87 -74 -151 -74c-142 0 -223 110 -223 260s81 260 223 260c64 0 118 -27 151 -71v30v101h-133v68h133v68h82v-68h67zM427 252c0 111 -55 186 -147 186s-148 -75 -148 -186s56 -186 148 -186s147 74 147 186z" />
    <glyph glyph-name="e" unicode="e" horiz-adv-x="548" 
d="M501 274v-35h-371c4 -103 59 -173 148 -173c69 0 109 29 144 98l70 -30c-48 -99 -113 -142 -216 -142c-143 0 -230 120 -230 260c0 143 87 260 230 260c139 0 225 -106 225 -238zM135 310h282c-12 79 -61 128 -141 128c-69 0 -124 -45 -141 -128z" />
    <glyph glyph-name="eacute" unicode="&#xe9;" horiz-adv-x="548" 
d="M501 274v-35h-371c4 -103 59 -173 148 -173c69 0 109 29 144 98l70 -30c-48 -99 -113 -142 -216 -142c-143 0 -230 120 -230 260c0 143 87 260 230 260c139 0 225 -106 225 -238zM135 310h282c-12 79 -61 128 -141 128c-69 0 -124 -45 -141 -128zM243 557l69 146h117
l-123 -146h-63z" />
    <glyph glyph-name="ebreve" unicode="&#x115;" horiz-adv-x="548" 
d="M501 274v-35h-371c4 -103 59 -173 148 -173c69 0 109 29 144 98l70 -30c-48 -99 -113 -142 -216 -142c-143 0 -230 120 -230 260c0 143 87 260 230 260c139 0 225 -106 225 -238zM135 310h282c-12 79 -61 128 -141 128c-69 0 -124 -45 -141 -128zM166 700h64
c0 -29 17 -49 46 -49s45 20 45 49h64c0 -64 -42 -109 -109 -109s-110 45 -110 109z" />
    <glyph glyph-name="ecaron" unicode="&#x11b;" horiz-adv-x="548" 
d="M501 274v-35h-371c4 -103 59 -173 148 -173c69 0 109 29 144 98l70 -30c-48 -99 -113 -142 -216 -142c-143 0 -230 120 -230 260c0 143 87 260 230 260c139 0 225 -106 225 -238zM135 310h282c-12 79 -61 128 -141 128c-69 0 -124 -45 -141 -128zM263 560l-142 151h85
l70 -75l71 75h85l-143 -151h-26z" />
    <glyph glyph-name="ecircumflex" unicode="&#xea;" horiz-adv-x="548" 
d="M501 274v-35h-371c4 -103 59 -173 148 -173c69 0 109 29 144 98l70 -30c-48 -99 -113 -142 -216 -142c-143 0 -230 120 -230 260c0 143 87 260 230 260c139 0 225 -106 225 -238zM135 310h282c-12 79 -61 128 -141 128c-69 0 -124 -45 -141 -128zM121 560l142 151h26
l143 -151h-85l-71 75l-70 -75h-85z" />
    <glyph glyph-name="edieresis" unicode="&#xeb;" horiz-adv-x="548" 
d="M501 274v-35h-371c4 -103 59 -173 148 -173c69 0 109 29 144 98l70 -30c-48 -99 -113 -142 -216 -142c-143 0 -230 120 -230 260c0 143 87 260 230 260c139 0 225 -106 225 -238zM135 310h282c-12 79 -61 128 -141 128c-69 0 -124 -45 -141 -128zM135 641
c0 32 24 57 56 57s56 -25 56 -57s-24 -56 -56 -56c-33 0 -56 24 -56 56zM306 641c0 32 24 57 55 57c33 0 57 -25 57 -57s-24 -56 -57 -56c-31 0 -55 24 -55 56z" />
    <glyph glyph-name="edotaccent" unicode="&#x117;" horiz-adv-x="548" 
d="M501 274v-35h-371c4 -103 59 -173 148 -173c69 0 109 29 144 98l70 -30c-48 -99 -113 -142 -216 -142c-143 0 -230 120 -230 260c0 143 87 260 230 260c139 0 225 -106 225 -238zM135 310h282c-12 79 -61 128 -141 128c-69 0 -124 -45 -141 -128zM216 649
c0 35 27 60 60 60c35 0 61 -25 61 -60s-26 -60 -61 -60c-33 0 -60 27 -60 60z" />
    <glyph glyph-name="egrave" unicode="&#xe8;" horiz-adv-x="548" 
d="M501 274v-35h-371c4 -103 59 -173 148 -173c69 0 109 29 144 98l70 -30c-48 -99 -113 -142 -216 -142c-143 0 -230 120 -230 260c0 143 87 260 230 260c139 0 225 -106 225 -238zM135 310h282c-12 79 -61 128 -141 128c-69 0 -124 -45 -141 -128zM246 557l-124 146h118
l69 -146h-63z" />
    <glyph glyph-name="emacron" unicode="&#x113;" horiz-adv-x="548" 
d="M501 274v-35h-371c4 -103 59 -173 148 -173c69 0 109 29 144 98l70 -30c-48 -99 -113 -142 -216 -142c-143 0 -230 120 -230 260c0 143 87 260 230 260c139 0 225 -106 225 -238zM135 310h282c-12 79 -61 128 -141 128c-69 0 -124 -45 -141 -128zM151 601v69h250v-69
h-250z" />
    <glyph glyph-name="eogonek" unicode="&#x119;" horiz-adv-x="548" 
d="M501 274v-35h-371c4 -103 59 -173 148 -173c69 0 109 29 144 98l70 -30c-36 -75 -83 -118 -148 -134c-39 -35 -57 -58 -57 -79c0 -20 12 -31 31 -31c9 0 19 3 28 9l18 -59c-19 -11 -33 -14 -57 -14c-52 0 -85 32 -85 81c0 29 15 62 42 85c-135 6 -218 125 -218 260
c0 143 87 260 230 260c139 0 225 -106 225 -238zM135 310h282c-12 79 -61 128 -141 128c-69 0 -124 -45 -141 -128z" />
    <glyph glyph-name="f" unicode="f" horiz-adv-x="323" 
d="M86 0v430h-75v74h75v30c0 117 59 174 162 174c27 0 51 -5 71 -15l-18 -71c-17 8 -35 12 -54 12c-51 0 -79 -30 -79 -90v-40h117v-74h-117v-430h-82z" />
    <glyph glyph-name="g" unicode="g" horiz-adv-x="490" 
d="M37 -46c0 44 20 81 49 104c-24 17 -36 44 -36 81c0 43 25 76 62 95c-25 30 -37 66 -37 109c0 101 78 169 176 169c31 0 60 -8 89 -23l91 51l36 -62l-71 -38c20 -29 30 -61 30 -97c0 -103 -76 -169 -175 -169c-32 0 -61 7 -88 20c-23 -11 -35 -28 -35 -50
c0 -31 24 -45 57 -45h121c97 0 160 -46 160 -137c0 -59 -20 -102 -60 -131s-91 -43 -154 -43c-131 0 -215 62 -215 166zM347 343c0 61 -41 100 -96 100s-96 -39 -96 -100s41 -100 96 -100s96 39 96 100zM385 -46c0 53 -33 75 -93 75h-91c-19 0 -36 1 -52 3
c-23 -16 -34 -41 -34 -76c0 -60 49 -96 137 -96c84 0 133 37 133 94z" />
    <glyph glyph-name="gbreve" unicode="&#x11f;" horiz-adv-x="490" 
d="M37 -46c0 44 20 81 49 104c-24 17 -36 44 -36 81c0 43 25 76 62 95c-25 30 -37 66 -37 109c0 101 78 169 176 169c31 0 60 -8 89 -23l91 51l36 -62l-71 -38c20 -29 30 -61 30 -97c0 -103 -76 -169 -175 -169c-32 0 -61 7 -88 20c-23 -11 -35 -28 -35 -50
c0 -31 24 -45 57 -45h121c97 0 160 -46 160 -137c0 -59 -20 -102 -60 -131s-91 -43 -154 -43c-131 0 -215 62 -215 166zM347 343c0 61 -41 100 -96 100s-96 -39 -96 -100s41 -100 96 -100s96 39 96 100zM385 -46c0 53 -33 75 -93 75h-91c-19 0 -36 1 -52 3
c-23 -16 -34 -41 -34 -76c0 -60 49 -96 137 -96c84 0 133 37 133 94zM141 700h64c0 -29 17 -49 46 -49s45 20 45 49h64c0 -64 -42 -109 -109 -109s-110 45 -110 109z" />
    <glyph glyph-name="gcircumflex" unicode="&#x11d;" horiz-adv-x="490" 
d="M37 -46c0 44 20 81 49 104c-24 17 -36 44 -36 81c0 43 25 76 62 95c-25 30 -37 66 -37 109c0 101 78 169 176 169c31 0 60 -8 89 -23l91 51l36 -62l-71 -38c20 -29 30 -61 30 -97c0 -103 -76 -169 -175 -169c-32 0 -61 7 -88 20c-23 -11 -35 -28 -35 -50
c0 -31 24 -45 57 -45h121c97 0 160 -46 160 -137c0 -59 -20 -102 -60 -131s-91 -43 -154 -43c-131 0 -215 62 -215 166zM347 343c0 61 -41 100 -96 100s-96 -39 -96 -100s41 -100 96 -100s96 39 96 100zM385 -46c0 53 -33 75 -93 75h-91c-19 0 -36 1 -52 3
c-23 -16 -34 -41 -34 -76c0 -60 49 -96 137 -96c84 0 133 37 133 94zM96 560l142 151h26l143 -151h-85l-71 75l-70 -75h-85z" />
    <glyph glyph-name="uni0123" unicode="&#x123;" horiz-adv-x="490" 
d="M37 -46c0 44 20 81 49 104c-24 17 -36 44 -36 81c0 43 25 76 62 95c-25 30 -37 66 -37 109c0 101 78 169 176 169c31 0 60 -8 89 -23l91 51l36 -62l-71 -38c20 -29 30 -61 30 -97c0 -103 -76 -169 -175 -169c-32 0 -61 7 -88 20c-23 -11 -35 -28 -35 -50
c0 -31 24 -45 57 -45h121c97 0 160 -46 160 -137c0 -59 -20 -102 -60 -131s-91 -43 -154 -43c-131 0 -215 62 -215 166zM347 343c0 61 -41 100 -96 100s-96 -39 -96 -100s41 -100 96 -100s96 39 96 100zM385 -46c0 53 -33 75 -93 75h-91c-19 0 -36 1 -52 3
c-23 -16 -34 -41 -34 -76c0 -60 49 -96 137 -96c84 0 133 37 133 94zM200 586l87 152h57l-42 -152h-102z" />
    <glyph glyph-name="gdotaccent" unicode="&#x121;" horiz-adv-x="490" 
d="M37 -46c0 44 20 81 49 104c-24 17 -36 44 -36 81c0 43 25 76 62 95c-25 30 -37 66 -37 109c0 101 78 169 176 169c31 0 60 -8 89 -23l91 51l36 -62l-71 -38c20 -29 30 -61 30 -97c0 -103 -76 -169 -175 -169c-32 0 -61 7 -88 20c-23 -11 -35 -28 -35 -50
c0 -31 24 -45 57 -45h121c97 0 160 -46 160 -137c0 -59 -20 -102 -60 -131s-91 -43 -154 -43c-131 0 -215 62 -215 166zM347 343c0 61 -41 100 -96 100s-96 -39 -96 -100s41 -100 96 -100s96 39 96 100zM385 -46c0 53 -33 75 -93 75h-91c-19 0 -36 1 -52 3
c-23 -16 -34 -41 -34 -76c0 -60 49 -96 137 -96c84 0 133 37 133 94zM191 649c0 35 27 60 60 60c35 0 61 -25 61 -60s-26 -60 -61 -60c-33 0 -60 27 -60 60z" />
    <glyph glyph-name="h" unicode="h" horiz-adv-x="563" 
d="M75 0v708h83v-305c33 69 101 109 173 109c99 0 157 -57 157 -161v-351h-82v331c0 69 -32 107 -95 107c-82 0 -153 -84 -153 -224v-214h-83z" />
    <glyph glyph-name="hbar" unicode="&#x127;" horiz-adv-x="563" 
d="M488 351v-351h-82v331c0 69 -32 107 -95 107c-82 0 -153 -84 -153 -224v-214h-83v572h-67v68h67v68h83v-68h132v-68h-132v-169c33 69 101 109 173 109c99 0 157 -57 157 -161z" />
    <glyph glyph-name="hcircumflex" unicode="&#x125;" horiz-adv-x="563" 
d="M75 0v708h83v-305c33 69 101 109 173 109c99 0 157 -57 157 -161v-351h-82v331c0 69 -32 107 -95 107c-82 0 -153 -84 -153 -224v-214h-83zM70 756l142 151h26l143 -151h-85l-71 75l-70 -75h-85z" />
    <glyph glyph-name="i" unicode="i" horiz-adv-x="233" 
d="M75 0v504h83v-504h-83zM56 649c0 35 27 60 60 60c35 0 61 -25 61 -60s-26 -60 -61 -60c-33 0 -60 27 -60 60z" />
    <glyph glyph-name="dotlessi" unicode="&#x131;" horiz-adv-x="233" 
d="M75 0v504h83v-504h-83z" />
    <glyph glyph-name="iacute" unicode="&#xed;" horiz-adv-x="233" 
d="M75 0v504h83v-504h-83zM83 557l69 146h117l-123 -146h-63z" />
    <glyph glyph-name="ibreve" unicode="&#x12d;" horiz-adv-x="233" 
d="M75 0v504h83v-504h-83zM6 700h64c0 -29 17 -49 46 -49s45 20 45 49h64c0 -64 -42 -109 -109 -109s-110 45 -110 109z" />
    <glyph glyph-name="icircumflex" unicode="&#xee;" horiz-adv-x="233" 
d="M75 0v504h83v-504h-83zM-39 560l142 151h26l143 -151h-85l-71 75l-70 -75h-85z" />
    <glyph glyph-name="idieresis" unicode="&#xef;" horiz-adv-x="233" 
d="M75 0v504h83v-504h-83zM-24 641c0 32 24 57 56 57s56 -25 56 -57s-24 -56 -56 -56c-33 0 -56 24 -56 56zM147 641c0 32 24 57 55 57c33 0 57 -25 57 -57s-24 -56 -57 -56c-31 0 -55 24 -55 56z" />
    <glyph glyph-name="i.loclTRK" horiz-adv-x="233" 
d="M75 0v504h83v-504h-83zM56 649c0 35 27 60 60 60c35 0 61 -25 61 -60s-26 -60 -61 -60c-33 0 -60 27 -60 60z" />
    <glyph glyph-name="igrave" unicode="&#xec;" horiz-adv-x="233" 
d="M75 0v504h83v-504h-83zM86 557l-124 146h118l69 -146h-63z" />
    <glyph glyph-name="ij" unicode="&#x133;" horiz-adv-x="466" 
d="M75 0v504h83v-504h-83zM56 649c0 35 27 60 60 60c35 0 61 -25 61 -60s-26 -60 -61 -60c-33 0 -60 27 -60 60zM238 -212l-20 75c63 17 90 45 90 114v527h83v-528c0 -111 -52 -168 -153 -188zM289 649c0 35 27 60 60 60c35 0 61 -25 61 -60s-26 -60 -61 -60
c-33 0 -60 27 -60 60z" />
    <glyph glyph-name="imacron" unicode="&#x12b;" horiz-adv-x="233" 
d="M75 0v504h83v-504h-83zM-9 601v69h250v-69h-250z" />
    <glyph glyph-name="iogonek" unicode="&#x12f;" horiz-adv-x="233" 
d="M75 0v504h83v-504h-83zM56 649c0 35 27 60 60 60c35 0 61 -25 61 -60s-26 -60 -61 -60c-33 0 -60 27 -60 60zM36 -93c0 35 20 70 52 93h70c-39 -35 -57 -58 -57 -79c0 -20 12 -31 31 -31c9 0 19 3 28 9l17 -59c-17 -11 -32 -14 -56 -14c-52 0 -85 32 -85 81z" />
    <glyph glyph-name="itilde" unicode="&#x129;" horiz-adv-x="233" 
d="M75 0v504h83v-504h-83zM-8 578l-52 42c24 44 66 75 107 75c32 0 51 -8 78 -23c24 -13 35 -18 54 -18c22 0 43 14 62 41l52 -42c-24 -44 -64 -75 -107 -75c-32 0 -49 8 -77 23c-21 12 -34 18 -54 18c-22 0 -43 -14 -63 -41z" />
    <glyph glyph-name="j" unicode="j" horiz-adv-x="233" 
d="M5 -212l-20 75c63 17 90 45 90 114v527h83v-528c0 -111 -52 -168 -153 -188zM56 649c0 35 27 60 60 60c35 0 61 -25 61 -60s-26 -60 -61 -60c-33 0 -60 27 -60 60z" />
    <glyph glyph-name="uni0237" unicode="&#x237;" horiz-adv-x="233" 
d="M5 -212l-20 75c63 17 90 45 90 114v527h83v-528c0 -111 -52 -168 -153 -188z" />
    <glyph glyph-name="jcircumflex" unicode="&#x135;" horiz-adv-x="233" 
d="M5 -212l-20 75c63 17 90 45 90 114v527h83v-528c0 -111 -52 -168 -153 -188zM-39 560l142 151h26l143 -151h-85l-71 75l-70 -75h-85z" />
    <glyph glyph-name="k" unicode="k" horiz-adv-x="482" 
d="M75 0v708h83v-419l195 215h103l-213 -231l229 -273h-103l-211 256v-256h-83z" />
    <glyph glyph-name="uni0137" unicode="&#x137;" horiz-adv-x="482" 
d="M75 0v708h83v-419l195 215h103l-213 -231l229 -273h-103l-211 256v-256h-83zM159 -224l42 172h109l-104 -172h-47z" />
    <glyph glyph-name="kgreenlandic" unicode="&#x138;" horiz-adv-x="482" 
d="M75 0v504h83v-215l195 215h103l-213 -231l229 -273h-103l-211 256v-256h-83z" />
    <glyph glyph-name="l" unicode="l" horiz-adv-x="233" 
d="M75 0v708h83v-708h-83z" />
    <glyph glyph-name="lacute" unicode="&#x13a;" horiz-adv-x="233" 
d="M75 0v708h83v-708h-83zM83 753l69 146h117l-123 -146h-63z" />
    <glyph glyph-name="lcaron" unicode="&#x13e;" horiz-adv-x="358" 
d="M75 0v708h83v-708h-83zM232 542l28 172h98l-71 -172h-55z" />
    <glyph glyph-name="uni013C" unicode="&#x13c;" horiz-adv-x="233" 
d="M75 0v708h83v-708h-83zM20 -224l42 172h109l-104 -172h-47z" />
    <glyph glyph-name="ldot" unicode="&#x140;" horiz-adv-x="439" 
d="M75 0v708h83v-708h-83zM281 355c0 36 26 62 61 62c36 0 62 -26 62 -62c0 -35 -26 -61 -62 -61c-35 0 -61 26 -61 61z" />
    <glyph glyph-name="lslash" unicode="&#x142;" horiz-adv-x="233" 
d="M261 388l-103 -57v-331h-83v285l-68 -37l-35 63l103 57v340h83v-294l67 37z" />
    <glyph glyph-name="m" unicode="m" horiz-adv-x="832" 
d="M75 0v504h83v-97c35 65 87 105 155 105c72 0 121 -37 138 -109c35 65 96 109 161 109c97 0 145 -54 145 -162v-350h-82v337c0 69 -24 101 -81 101c-76 0 -137 -86 -137 -225v-213h-82v337c0 69 -22 101 -81 101c-76 0 -136 -85 -136 -229v-209h-83z" />
    <glyph glyph-name="n" unicode="n" horiz-adv-x="555" 
d="M75 0v504h83v-97c36 64 99 105 167 105c95 0 155 -58 155 -161v-351h-82v333c0 69 -32 105 -93 105c-82 0 -147 -86 -147 -223v-215h-83z" />
    <glyph glyph-name="nacute" unicode="&#x144;" horiz-adv-x="555" 
d="M75 0v504h83v-97c36 64 99 105 167 105c95 0 155 -58 155 -161v-351h-82v333c0 69 -32 105 -93 105c-82 0 -147 -86 -147 -223v-215h-83zM255 557l69 146h117l-123 -146h-63z" />
    <glyph glyph-name="ncaron" unicode="&#x148;" horiz-adv-x="555" 
d="M75 0v504h83v-97c36 64 99 105 167 105c95 0 155 -58 155 -161v-351h-82v333c0 69 -32 105 -93 105c-82 0 -147 -86 -147 -223v-215h-83zM275 560l-142 151h85l70 -75l71 75h85l-143 -151h-26z" />
    <glyph glyph-name="uni0146" unicode="&#x146;" horiz-adv-x="555" 
d="M75 0v504h83v-97c36 64 99 105 167 105c95 0 155 -58 155 -161v-351h-82v333c0 69 -32 105 -93 105c-82 0 -147 -86 -147 -223v-215h-83zM181 -224l42 172h109l-104 -172h-47z" />
    <glyph glyph-name="eng" unicode="&#x14b;" horiz-adv-x="555" 
d="M327 -212l-19 75c63 17 90 45 90 114v356c0 69 -32 105 -93 105c-82 0 -147 -86 -147 -223v-215h-83v504h83v-97c36 64 99 105 167 105c95 0 155 -58 155 -161v-375c0 -111 -50 -168 -153 -188z" />
    <glyph glyph-name="ntilde" unicode="&#xf1;" horiz-adv-x="555" 
d="M75 0v504h83v-97c36 64 99 105 167 105c95 0 155 -58 155 -161v-351h-82v333c0 69 -32 105 -93 105c-82 0 -147 -86 -147 -223v-215h-83zM164 578l-52 42c24 44 66 75 107 75c32 0 51 -8 78 -23c24 -13 35 -18 54 -18c22 0 43 14 62 41l52 -42c-24 -44 -64 -75 -107 -75
c-32 0 -49 8 -77 23c-21 12 -34 18 -54 18c-22 0 -43 -14 -63 -41z" />
    <glyph glyph-name="o" unicode="o" horiz-adv-x="577" 
d="M46 252c-2 137 97 263 243 260c146 3 244 -123 242 -260c2 -137 -96 -263 -242 -260c-146 -3 -245 123 -243 260zM445 252c0 98 -57 186 -156 186s-157 -88 -157 -186s58 -186 157 -186s156 88 156 186z" />
    <glyph glyph-name="oacute" unicode="&#xf3;" horiz-adv-x="577" 
d="M46 252c-2 137 97 263 243 260c146 3 244 -123 242 -260c2 -137 -96 -263 -242 -260c-146 -3 -245 123 -243 260zM445 252c0 98 -57 186 -156 186s-157 -88 -157 -186s58 -186 157 -186s156 88 156 186zM255 557l69 146h117l-123 -146h-63z" />
    <glyph glyph-name="obreve" unicode="&#x14f;" horiz-adv-x="577" 
d="M46 252c-2 137 97 263 243 260c146 3 244 -123 242 -260c2 -137 -96 -263 -242 -260c-146 -3 -245 123 -243 260zM445 252c0 98 -57 186 -156 186s-157 -88 -157 -186s58 -186 157 -186s156 88 156 186zM178 700h64c0 -29 17 -49 46 -49s45 20 45 49h64
c0 -64 -42 -109 -109 -109s-110 45 -110 109z" />
    <glyph glyph-name="ocircumflex" unicode="&#xf4;" horiz-adv-x="577" 
d="M46 252c-2 137 97 263 243 260c146 3 244 -123 242 -260c2 -137 -96 -263 -242 -260c-146 -3 -245 123 -243 260zM445 252c0 98 -57 186 -156 186s-157 -88 -157 -186s58 -186 157 -186s156 88 156 186zM133 560l142 151h26l143 -151h-85l-71 75l-70 -75h-85z" />
    <glyph glyph-name="odieresis" unicode="&#xf6;" horiz-adv-x="577" 
d="M46 252c-2 137 97 263 243 260c146 3 244 -123 242 -260c2 -137 -96 -263 -242 -260c-146 -3 -245 123 -243 260zM445 252c0 98 -57 186 -156 186s-157 -88 -157 -186s58 -186 157 -186s156 88 156 186zM148 641c0 32 24 57 56 57s56 -25 56 -57s-24 -56 -56 -56
c-33 0 -56 24 -56 56zM319 641c0 32 24 57 55 57c33 0 57 -25 57 -57s-24 -56 -57 -56c-31 0 -55 24 -55 56z" />
    <glyph glyph-name="ograve" unicode="&#xf2;" horiz-adv-x="577" 
d="M46 252c-2 137 97 263 243 260c146 3 244 -123 242 -260c2 -137 -96 -263 -242 -260c-146 -3 -245 123 -243 260zM445 252c0 98 -57 186 -156 186s-157 -88 -157 -186s58 -186 157 -186s156 88 156 186zM258 557l-124 146h118l69 -146h-63z" />
    <glyph glyph-name="ohungarumlaut" unicode="&#x151;" horiz-adv-x="577" 
d="M46 252c-2 137 97 263 243 260c146 3 244 -123 242 -260c2 -137 -96 -263 -242 -260c-146 -3 -245 123 -243 260zM445 252c0 98 -57 186 -156 186s-157 -88 -157 -186s58 -186 157 -186s156 88 156 186zM150 560l68 143h117l-122 -143h-63zM318 560l68 143h118l-122 -143
h-64z" />
    <glyph glyph-name="omacron" unicode="&#x14d;" horiz-adv-x="577" 
d="M46 252c-2 137 97 263 243 260c146 3 244 -123 242 -260c2 -137 -96 -263 -242 -260c-146 -3 -245 123 -243 260zM445 252c0 98 -57 186 -156 186s-157 -88 -157 -186s58 -186 157 -186s156 88 156 186zM163 601v69h250v-69h-250z" />
    <glyph glyph-name="oslash" unicode="&#xf8;" horiz-adv-x="577" 
d="M533 504l-61 -77c39 -48 59 -110 59 -175c2 -137 -96 -263 -242 -260c-49 0 -92 12 -129 36l-57 -72l-59 44l61 77c-39 48 -59 110 -59 175c-2 137 97 263 243 260c49 0 91 -12 128 -36l57 72zM158 145l211 270c-24 15 -51 23 -80 23c-99 0 -157 -88 -157 -186
c0 -40 9 -76 26 -107zM419 359l-211 -270c24 -15 51 -23 81 -23c99 0 156 88 156 186c0 40 -9 76 -26 107z" />
    <glyph glyph-name="otilde" unicode="&#xf5;" horiz-adv-x="577" 
d="M46 252c-2 137 97 263 243 260c146 3 244 -123 242 -260c2 -137 -96 -263 -242 -260c-146 -3 -245 123 -243 260zM445 252c0 98 -57 186 -156 186s-157 -88 -157 -186s58 -186 157 -186s156 88 156 186zM164 578l-52 42c24 44 66 75 107 75c32 0 51 -8 78 -23
c24 -13 35 -18 54 -18c22 0 43 14 62 41l52 -42c-24 -44 -64 -75 -107 -75c-32 0 -49 8 -77 23c-21 12 -34 18 -54 18c-22 0 -43 -14 -63 -41z" />
    <glyph glyph-name="oe" unicode="&#x153;" horiz-adv-x="946" 
d="M46 252c-2 137 97 263 243 260c85 0 154 -40 197 -107c39 67 105 107 189 107c139 0 225 -106 225 -238v-35h-369c3 -108 58 -173 146 -173c69 0 111 30 144 95l70 -27c-48 -99 -113 -142 -216 -142c-84 0 -152 40 -189 107c-43 -67 -112 -107 -197 -107
c-146 -3 -245 123 -243 260zM445 252c0 98 -59 186 -156 186c-99 0 -157 -88 -157 -186s58 -186 157 -186s156 88 156 186zM535 310h281c-12 79 -61 128 -141 128c-73 0 -124 -53 -140 -128z" />
    <glyph glyph-name="p" unicode="p" horiz-adv-x="577" 
d="M75 -204v708h83v-35v-30c24 39 83 73 147 73c145 0 226 -110 226 -260s-81 -260 -226 -260c-57 0 -118 28 -147 71v-30v-237h-83zM445 252c0 111 -56 186 -148 186s-147 -75 -147 -186s56 -186 147 -186c92 0 148 75 148 186z" />
    <glyph glyph-name="thorn" unicode="&#xfe;" horiz-adv-x="577" 
d="M75 -204v912h83v-238v-30c24 39 84 72 147 72c145 0 226 -110 226 -260s-81 -260 -226 -260c-57 0 -118 28 -147 71v-29v-238h-83zM445 252c0 111 -56 186 -148 186s-147 -75 -147 -186s56 -186 147 -186c92 0 148 75 148 186z" />
    <glyph glyph-name="q" unicode="q" horiz-adv-x="577" 
d="M420 -204v237v30c-32 -44 -87 -71 -147 -71c-146 0 -227 110 -227 260s81 260 227 260c61 0 123 -33 147 -69v30v31h82v-708h-82zM427 252c0 112 -55 186 -147 186s-148 -75 -148 -186s56 -186 148 -186s147 75 147 186z" />
    <glyph glyph-name="r" unicode="r" horiz-adv-x="392" 
d="M75 0v504h83v-87c32 61 84 95 148 95c22 0 46 -5 71 -15l-17 -77c-21 11 -42 17 -65 17c-80 0 -137 -86 -137 -247v-190h-83z" />
    <glyph glyph-name="racute" unicode="&#x155;" horiz-adv-x="392" 
d="M75 0v504h83v-87c32 61 84 95 148 95c22 0 46 -5 71 -15l-17 -77c-21 11 -42 17 -65 17c-80 0 -137 -86 -137 -247v-190h-83zM178 557l69 146h117l-123 -146h-63z" />
    <glyph glyph-name="rcaron" unicode="&#x159;" horiz-adv-x="392" 
d="M75 0v504h83v-87c32 61 84 95 148 95c22 0 46 -5 71 -15l-17 -77c-21 11 -42 17 -65 17c-80 0 -137 -86 -137 -247v-190h-83zM197 560l-142 151h85l70 -75l71 75h85l-143 -151h-26z" />
    <glyph glyph-name="uni0157" unicode="&#x157;" horiz-adv-x="392" 
d="M75 0v504h83v-87c32 61 84 95 148 95c22 0 46 -5 71 -15l-17 -77c-21 11 -42 17 -65 17c-80 0 -137 -86 -137 -247v-190h-83zM20 -224l42 172h109l-104 -172h-47z" />
    <glyph glyph-name="s" unicode="s" horiz-adv-x="434" 
d="M42 129l69 37c20 -64 56 -100 119 -100c49 0 80 28 80 76c0 43 -37 65 -109 92c-80 29 -125 70 -125 143c0 80 62 135 147 135c65 0 113 -26 146 -79l-54 -48c-23 35 -54 53 -93 53c-37 0 -66 -24 -66 -61s28 -57 112 -88c82 -30 123 -78 123 -144
c0 -95 -64 -153 -161 -153c-103 0 -168 61 -188 137z" />
    <glyph glyph-name="sacute" unicode="&#x15b;" horiz-adv-x="434" 
d="M42 129l69 37c20 -64 56 -100 119 -100c49 0 80 28 80 76c0 43 -37 65 -109 92c-80 29 -125 70 -125 143c0 80 62 135 147 135c65 0 113 -26 146 -79l-54 -48c-23 35 -54 53 -93 53c-37 0 -66 -24 -66 -61s28 -57 112 -88c82 -30 123 -78 123 -144
c0 -95 -64 -153 -161 -153c-103 0 -168 61 -188 137zM190 557l69 146h117l-123 -146h-63z" />
    <glyph glyph-name="scaron" unicode="&#x161;" horiz-adv-x="434" 
d="M42 129l69 37c20 -64 56 -100 119 -100c49 0 80 28 80 76c0 43 -37 65 -109 92c-80 29 -125 70 -125 143c0 80 62 135 147 135c65 0 113 -26 146 -79l-54 -48c-23 35 -54 53 -93 53c-37 0 -66 -24 -66 -61s28 -57 112 -88c82 -30 123 -78 123 -144
c0 -95 -64 -153 -161 -153c-103 0 -168 61 -188 137zM210 560l-142 151h85l70 -75l71 75h85l-143 -151h-26z" />
    <glyph glyph-name="scedilla" unicode="&#x15f;" horiz-adv-x="434" 
d="M42 129l69 37c20 -64 56 -100 119 -100c49 0 80 28 80 76c0 43 -37 65 -109 92c-80 29 -125 70 -125 143c0 80 62 135 147 135c65 0 113 -26 146 -79l-54 -48c-23 35 -54 53 -93 53c-37 0 -66 -24 -66 -61s28 -57 112 -88c82 -30 123 -78 123 -144
c0 -95 -64 -153 -161 -153c-103 0 -168 61 -188 137zM181 -231l-97 42l112 129h66z" />
    <glyph glyph-name="scircumflex" unicode="&#x15d;" horiz-adv-x="434" 
d="M42 129l69 37c20 -64 56 -100 119 -100c49 0 80 28 80 76c0 43 -37 65 -109 92c-80 29 -125 70 -125 143c0 80 62 135 147 135c65 0 113 -26 146 -79l-54 -48c-23 35 -54 53 -93 53c-37 0 -66 -24 -66 -61s28 -57 112 -88c82 -30 123 -78 123 -144
c0 -95 -64 -153 -161 -153c-103 0 -168 61 -188 137zM68 560l142 151h26l143 -151h-85l-71 75l-70 -75h-85z" />
    <glyph glyph-name="uni0219" unicode="&#x219;" horiz-adv-x="434" 
d="M42 129l69 37c20 -64 56 -100 119 -100c49 0 80 28 80 76c0 43 -37 65 -109 92c-80 29 -125 70 -125 143c0 80 62 135 147 135c65 0 113 -26 146 -79l-54 -48c-23 35 -54 53 -93 53c-37 0 -66 -24 -66 -61s28 -57 112 -88c82 -30 123 -78 123 -144
c0 -95 -64 -153 -161 -153c-103 0 -168 61 -188 137zM132 -224l42 172h109l-104 -172h-47z" />
    <glyph glyph-name="germandbls" unicode="&#xdf;" horiz-adv-x="570" 
d="M227 -1v77c27 -7 50 -10 69 -10c91 0 137 52 137 137c0 96 -59 142 -155 142h-33v74h32c71 0 112 40 112 107c0 68 -41 108 -104 108c-69 0 -112 -49 -112 -142v-492h-82v345h-54v74h54v73c0 140 78 216 194 216c112 0 181 -72 181 -173c0 -73 -37 -129 -90 -144
c83 -24 139 -81 139 -188c0 -131 -83 -211 -212 -211c-26 0 -51 2 -76 7z" />
    <glyph glyph-name="t" unicode="t" horiz-adv-x="352" 
d="M96 154v276h-85v74h85v151l83 53v-204h135v-74h-135v-282c0 -55 23 -82 70 -82c23 0 42 5 58 14l21 -70c-24 -12 -53 -18 -86 -18c-91 0 -146 54 -146 162z" />
    <glyph glyph-name="tbar" unicode="&#x167;" horiz-adv-x="352" 
d="M307 80l21 -70c-24 -12 -53 -18 -86 -18c-91 0 -146 54 -146 162v91h-79v68h79v117h-85v74h85v151l83 53v-204h135v-74h-135v-117h120v-68h-120v-97c0 -55 23 -82 70 -82c23 0 42 5 58 14z" />
    <glyph glyph-name="tcaron" unicode="&#x165;" horiz-adv-x="352" 
d="M96 154v276h-85v74h85v151l83 53v-204h135v-74h-135v-282c0 -55 23 -82 70 -82c23 0 42 5 58 14l21 -70c-24 -12 -53 -18 -86 -18c-91 0 -146 54 -146 162zM260 542l28 172h98l-71 -172h-55z" />
    <glyph glyph-name="uni0163" unicode="&#x163;" horiz-adv-x="352" 
d="M96 154v276h-85v74h85v151l83 53v-204h135v-74h-135v-282c0 -55 23 -82 70 -82c23 0 42 5 58 14l21 -70c-24 -12 -53 -18 -86 -18c-91 0 -146 54 -146 162zM179 -231l-97 42l112 129h66z" />
    <glyph glyph-name="uni021B" unicode="&#x21b;" horiz-adv-x="352" 
d="M96 154v276h-85v74h85v151l83 53v-204h135v-74h-135v-282c0 -55 23 -82 70 -82c23 0 42 5 58 14l21 -70c-24 -12 -53 -18 -86 -18c-91 0 -146 54 -146 162zM130 -224l42 172h109l-104 -172h-47z" />
    <glyph glyph-name="u" unicode="u" horiz-adv-x="555" 
d="M75 153v351h83v-333c0 -69 32 -105 92 -105c83 0 148 86 148 224v214h82v-504h-82v97c-36 -64 -99 -105 -168 -105c-95 0 -155 58 -155 161z" />
    <glyph glyph-name="uacute" unicode="&#xfa;" horiz-adv-x="555" 
d="M75 153v351h83v-333c0 -69 32 -105 92 -105c83 0 148 86 148 224v214h82v-504h-82v97c-36 -64 -99 -105 -168 -105c-95 0 -155 58 -155 161zM244 557l69 146h117l-123 -146h-63z" />
    <glyph glyph-name="ubreve" unicode="&#x16d;" horiz-adv-x="555" 
d="M75 153v351h83v-333c0 -69 32 -105 92 -105c83 0 148 86 148 224v214h82v-504h-82v97c-36 -64 -99 -105 -168 -105c-95 0 -155 58 -155 161zM167 700h64c0 -29 17 -49 46 -49s45 20 45 49h64c0 -64 -42 -109 -109 -109s-110 45 -110 109z" />
    <glyph glyph-name="ucircumflex" unicode="&#xfb;" horiz-adv-x="555" 
d="M75 153v351h83v-333c0 -69 32 -105 92 -105c83 0 148 86 148 224v214h82v-504h-82v97c-36 -64 -99 -105 -168 -105c-95 0 -155 58 -155 161zM122 560l142 151h26l143 -151h-85l-71 75l-70 -75h-85z" />
    <glyph glyph-name="udieresis" unicode="&#xfc;" horiz-adv-x="555" 
d="M75 153v351h83v-333c0 -69 32 -105 92 -105c83 0 148 86 148 224v214h82v-504h-82v97c-36 -64 -99 -105 -168 -105c-95 0 -155 58 -155 161zM137 641c0 32 24 57 56 57s56 -25 56 -57s-24 -56 -56 -56c-33 0 -56 24 -56 56zM308 641c0 32 24 57 55 57c33 0 57 -25 57 -57
s-24 -56 -57 -56c-31 0 -55 24 -55 56z" />
    <glyph glyph-name="ugrave" unicode="&#xf9;" horiz-adv-x="555" 
d="M75 153v351h83v-333c0 -69 32 -105 92 -105c83 0 148 86 148 224v214h82v-504h-82v97c-36 -64 -99 -105 -168 -105c-95 0 -155 58 -155 161zM247 557l-124 146h118l69 -146h-63z" />
    <glyph glyph-name="uhungarumlaut" unicode="&#x171;" horiz-adv-x="555" 
d="M75 153v351h83v-333c0 -69 32 -105 92 -105c83 0 148 86 148 224v214h82v-504h-82v97c-36 -64 -99 -105 -168 -105c-95 0 -155 58 -155 161zM139 560l68 143h117l-122 -143h-63zM307 560l68 143h118l-122 -143h-64z" />
    <glyph glyph-name="umacron" unicode="&#x16b;" horiz-adv-x="555" 
d="M75 153v351h83v-333c0 -69 32 -105 92 -105c83 0 148 86 148 224v214h82v-504h-82v97c-36 -64 -99 -105 -168 -105c-95 0 -155 58 -155 161zM152 601v69h250v-69h-250z" />
    <glyph glyph-name="uogonek" unicode="&#x173;" horiz-adv-x="555" 
d="M482 -101l18 -59c-19 -11 -33 -14 -57 -14c-52 0 -85 32 -85 81c0 35 20 70 52 93h-12v97c-36 -64 -99 -105 -168 -105c-95 0 -155 58 -155 161v351h83v-333c0 -69 32 -105 92 -105c83 0 148 86 148 224v214h82v-504c-39 -35 -57 -58 -57 -79c0 -20 12 -31 31 -31
c10 0 19 3 28 9z" />
    <glyph glyph-name="uring" unicode="&#x16f;" horiz-adv-x="555" 
d="M75 153v351h83v-333c0 -69 32 -105 92 -105c83 0 148 86 148 224v214h82v-504h-82v97c-36 -64 -99 -105 -168 -105c-95 0 -155 58 -155 161zM177 654c0 56 43 99 100 99s100 -43 100 -99c0 -55 -43 -97 -100 -97s-100 42 -100 97zM322 654c0 27 -20 47 -45 47
s-45 -20 -45 -47c0 -25 20 -45 45 -45c27 0 45 20 45 45z" />
    <glyph glyph-name="utilde" unicode="&#x169;" horiz-adv-x="555" 
d="M75 153v351h83v-333c0 -69 32 -105 92 -105c83 0 148 86 148 224v214h82v-504h-82v97c-36 -64 -99 -105 -168 -105c-95 0 -155 58 -155 161zM153 578l-52 42c24 44 66 75 107 75c32 0 51 -8 78 -23c24 -13 35 -18 54 -18c22 0 43 14 62 41l52 -42
c-24 -44 -64 -75 -107 -75c-32 0 -49 8 -77 23c-21 12 -34 18 -54 18c-22 0 -43 -14 -63 -41z" />
    <glyph glyph-name="v" unicode="v" horiz-adv-x="453" 
d="M185 0l-170 504h85l127 -398l126 398h85l-170 -504h-83z" />
    <glyph glyph-name="w" unicode="w" horiz-adv-x="691" 
d="M167 0l-154 504h85l108 -393l100 393h79l99 -393l109 393h85l-155 -504h-78l-100 384l-99 -384h-79z" />
    <glyph glyph-name="wacute" unicode="&#x1e83;" horiz-adv-x="691" 
d="M167 0l-154 504h85l108 -393l100 393h79l99 -393l109 393h85l-155 -504h-78l-100 384l-99 -384h-79zM312 557l69 146h117l-123 -146h-63z" />
    <glyph glyph-name="wcircumflex" unicode="&#x175;" horiz-adv-x="691" 
d="M167 0l-154 504h85l108 -393l100 393h79l99 -393l109 393h85l-155 -504h-78l-100 384l-99 -384h-79zM190 560l142 151h26l143 -151h-85l-71 75l-70 -75h-85z" />
    <glyph glyph-name="wdieresis" unicode="&#x1e85;" horiz-adv-x="691" 
d="M167 0l-154 504h85l108 -393l100 393h79l99 -393l109 393h85l-155 -504h-78l-100 384l-99 -384h-79zM204 641c0 32 24 57 56 57s56 -25 56 -57s-24 -56 -56 -56c-33 0 -56 24 -56 56zM375 641c0 32 24 57 55 57c33 0 57 -25 57 -57s-24 -56 -57 -56c-31 0 -55 24 -55 56z
" />
    <glyph glyph-name="wgrave" unicode="&#x1e81;" horiz-adv-x="691" 
d="M167 0l-154 504h85l108 -393l100 393h79l99 -393l109 393h85l-155 -504h-78l-100 384l-99 -384h-79zM315 557l-124 146h118l69 -146h-63z" />
    <glyph glyph-name="x" unicode="x" horiz-adv-x="445" 
d="M9 0l169 273l-143 231h89l98 -160l99 160h89l-143 -231l169 -273h-86l-128 202l-127 -202h-86z" />
    <glyph glyph-name="y" unicode="y" horiz-adv-x="458" 
d="M364 504h84l-253 -708h-81l77 218l-181 490h85l137 -373z" />
    <glyph glyph-name="yacute" unicode="&#xfd;" horiz-adv-x="458" 
d="M364 504h84l-253 -708h-81l77 218l-181 490h85l137 -373zM196 557l69 146h117l-123 -146h-63z" />
    <glyph glyph-name="ycircumflex" unicode="&#x177;" horiz-adv-x="458" 
d="M364 504h84l-253 -708h-81l77 218l-181 490h85l137 -373zM73 560l142 151h26l143 -151h-85l-71 75l-70 -75h-85z" />
    <glyph glyph-name="ydieresis" unicode="&#xff;" horiz-adv-x="458" 
d="M364 504h84l-253 -708h-81l77 218l-181 490h85l137 -373zM88 641c0 32 24 57 56 57s56 -25 56 -57s-24 -56 -56 -56c-33 0 -56 24 -56 56zM259 641c0 32 24 57 55 57c33 0 57 -25 57 -57s-24 -56 -57 -56c-31 0 -55 24 -55 56z" />
    <glyph glyph-name="ygrave" unicode="&#x1ef3;" horiz-adv-x="458" 
d="M364 504h84l-253 -708h-81l77 218l-181 490h85l137 -373zM199 557l-124 146h118l69 -146h-63z" />
    <glyph glyph-name="z" unicode="z" horiz-adv-x="436" 
d="M34 0v36l244 394h-231v74h337v-39l-242 -391h254v-74h-362z" />
    <glyph glyph-name="zacute" unicode="&#x17a;" horiz-adv-x="436" 
d="M34 0v36l244 394h-231v74h337v-39l-242 -391h254v-74h-362zM183 557l69 146h117l-123 -146h-63z" />
    <glyph glyph-name="zcaron" unicode="&#x17e;" horiz-adv-x="436" 
d="M34 0v36l244 394h-231v74h337v-39l-242 -391h254v-74h-362zM202 560l-142 151h85l70 -75l71 75h85l-143 -151h-26z" />
    <glyph glyph-name="zdotaccent" unicode="&#x17c;" horiz-adv-x="436" 
d="M34 0v36l244 394h-231v74h337v-39l-242 -391h254v-74h-362zM155 649c0 35 27 60 60 60c35 0 61 -25 61 -60s-26 -60 -61 -60c-33 0 -60 27 -60 60z" />
    <glyph glyph-name="uni01B6" unicode="&#x1b6;" horiz-adv-x="436" 
d="M34 0v36l120 194h-93v68h135l82 132h-231v74h337v-39l-104 -167h83v-68h-124l-97 -156h254v-74h-362z" />
    <glyph glyph-name="a.ss01" horiz-adv-x="577" 
d="M46 252c0 150 81 260 223 260c64 0 118 -27 151 -71v30v33h82v-504h-82v36v30c-25 -40 -87 -74 -151 -74c-142 0 -223 110 -223 260zM427 252c0 111 -55 186 -147 186s-148 -75 -148 -186s56 -186 148 -186s147 74 147 186z" />
    <glyph glyph-name="aacute.ss01" horiz-adv-x="577" 
d="M46 252c0 150 81 260 223 260c64 0 118 -27 151 -71v30v33h82v-504h-82v36v30c-25 -40 -87 -74 -151 -74c-142 0 -223 110 -223 260zM427 252c0 111 -55 186 -147 186s-148 -75 -148 -186s56 -186 148 -186s147 74 147 186zM246 557l69 146h117l-123 -146h-63z" />
    <glyph glyph-name="abreve.ss01" horiz-adv-x="577" 
d="M46 252c0 150 81 260 223 260c64 0 118 -27 151 -71v30v33h82v-504h-82v36v30c-25 -40 -87 -74 -151 -74c-142 0 -223 110 -223 260zM427 252c0 111 -55 186 -147 186s-148 -75 -148 -186s56 -186 148 -186s147 74 147 186zM169 700h64c0 -29 17 -49 46 -49s45 20 45 49
h64c0 -64 -42 -109 -109 -109s-110 45 -110 109z" />
    <glyph glyph-name="acircumflex.ss01" horiz-adv-x="577" 
d="M46 252c0 150 81 260 223 260c64 0 118 -27 151 -71v30v33h82v-504h-82v36v30c-25 -40 -87 -74 -151 -74c-142 0 -223 110 -223 260zM427 252c0 111 -55 186 -147 186s-148 -75 -148 -186s56 -186 148 -186s147 74 147 186zM124 560l142 151h26l143 -151h-85l-71 75
l-70 -75h-85z" />
    <glyph glyph-name="adieresis.ss01" horiz-adv-x="577" 
d="M46 252c0 150 81 260 223 260c64 0 118 -27 151 -71v30v33h82v-504h-82v36v30c-25 -40 -87 -74 -151 -74c-142 0 -223 110 -223 260zM427 252c0 111 -55 186 -147 186s-148 -75 -148 -186s56 -186 148 -186s147 74 147 186zM138 641c0 32 24 57 56 57s56 -25 56 -57
s-24 -56 -56 -56c-33 0 -56 24 -56 56zM309 641c0 32 24 57 55 57c33 0 57 -25 57 -57s-24 -56 -57 -56c-31 0 -55 24 -55 56z" />
    <glyph glyph-name="agrave.ss01" horiz-adv-x="577" 
d="M46 252c0 150 81 260 223 260c64 0 118 -27 151 -71v30v33h82v-504h-82v36v30c-25 -40 -87 -74 -151 -74c-142 0 -223 110 -223 260zM427 252c0 111 -55 186 -147 186s-148 -75 -148 -186s56 -186 148 -186s147 74 147 186zM249 557l-124 146h118l69 -146h-63z" />
    <glyph glyph-name="amacron.ss01" horiz-adv-x="577" 
d="M46 252c0 150 81 260 223 260c64 0 118 -27 151 -71v30v33h82v-504h-82v36v30c-25 -40 -87 -74 -151 -74c-142 0 -223 110 -223 260zM427 252c0 111 -55 186 -147 186s-148 -75 -148 -186s56 -186 148 -186s147 74 147 186zM154 601v69h250v-69h-250z" />
    <glyph glyph-name="aogonek.ss01" horiz-adv-x="577" 
d="M504 -101l18 -59c-19 -11 -33 -14 -57 -14c-52 0 -85 32 -85 81c0 35 20 70 52 93h-12v36v30c-25 -40 -87 -74 -151 -74c-142 0 -223 110 -223 260s81 260 223 260c64 0 118 -27 151 -71v30v33h82v-504c-39 -35 -57 -58 -57 -79c0 -20 12 -31 31 -31c10 0 19 3 28 9z
M427 252c0 111 -55 186 -147 186s-148 -75 -148 -186s56 -186 148 -186s147 74 147 186z" />
    <glyph glyph-name="aring.ss01" horiz-adv-x="577" 
d="M46 252c0 150 81 260 223 260c64 0 118 -27 151 -71v30v33h82v-504h-82v36v30c-25 -40 -87 -74 -151 -74c-142 0 -223 110 -223 260zM427 252c0 111 -55 186 -147 186s-148 -75 -148 -186s56 -186 148 -186s147 74 147 186zM179 654c0 56 43 99 100 99s100 -43 100 -99
c0 -55 -43 -97 -100 -97s-100 42 -100 97zM324 654c0 27 -20 47 -45 47s-45 -20 -45 -47c0 -25 20 -45 45 -45c27 0 45 20 45 45z" />
    <glyph glyph-name="aringacute.ss01" horiz-adv-x="577" 
d="M46 252c0 150 81 260 223 260c64 0 118 -27 151 -71v30v33h82v-504h-82v36v30c-25 -40 -87 -74 -151 -74c-142 0 -223 110 -223 260zM427 252c0 111 -55 186 -147 186s-148 -75 -148 -186s56 -186 148 -186s147 74 147 186zM179 654c0 56 43 99 100 99s100 -43 100 -99
c0 -55 -43 -97 -100 -97s-100 42 -100 97zM324 654c0 27 -20 47 -45 47s-45 -20 -45 -47c0 -25 20 -45 45 -45c27 0 45 20 45 45zM246 792l69 146h117l-123 -146h-63z" />
    <glyph glyph-name="atilde.ss01" horiz-adv-x="577" 
d="M46 252c0 150 81 260 223 260c64 0 118 -27 151 -71v30v33h82v-504h-82v36v30c-25 -40 -87 -74 -151 -74c-142 0 -223 110 -223 260zM427 252c0 111 -55 186 -147 186s-148 -75 -148 -186s56 -186 148 -186s147 74 147 186zM155 578l-52 42c24 44 66 75 107 75
c32 0 51 -8 78 -23c24 -13 35 -18 54 -18c22 0 43 14 62 41l52 -42c-24 -44 -64 -75 -107 -75c-32 0 -49 8 -77 23c-21 12 -34 18 -54 18c-22 0 -43 -14 -63 -41z" />
    <glyph glyph-name="ae.ss01" horiz-adv-x="916" 
d="M46 252c0 150 81 260 223 260c64 0 118 -27 151 -71v63h82v-56c33 41 88 64 149 64c134 0 219 -107 219 -238v-35h-368c0 -105 54 -173 145 -173c69 0 109 29 144 98l70 -30c-48 -99 -114 -142 -210 -142c-60 0 -114 21 -149 64v-56h-82v66c-25 -40 -87 -74 -151 -74
c-142 0 -223 110 -223 260zM427 252c0 111 -55 186 -147 186s-148 -75 -148 -186s56 -186 148 -186s147 74 147 186zM505 310h281c-12 79 -61 128 -141 128c-73 0 -125 -53 -140 -128z" />
    <glyph glyph-name="aeacute.ss01" horiz-adv-x="916" 
d="M46 252c0 150 81 260 223 260c64 0 118 -27 151 -71v63h82v-56c33 41 88 64 149 64c134 0 219 -107 219 -238v-35h-368c0 -105 54 -173 145 -173c69 0 109 29 144 98l70 -30c-48 -99 -114 -142 -210 -142c-60 0 -114 21 -149 64v-56h-82v66c-25 -40 -87 -74 -151 -74
c-142 0 -223 110 -223 260zM427 252c0 111 -55 186 -147 186s-148 -75 -148 -186s56 -186 148 -186s147 74 147 186zM505 310h281c-12 79 -61 128 -141 128c-73 0 -125 -53 -140 -128zM428 557l69 146h117l-123 -146h-63z" />
    <glyph glyph-name="dcaron.ss02" horiz-adv-x="699" 
d="M46 252c0 150 81 260 223 260c64 0 118 -27 151 -71v30v237h82v-708h-82v36v30c-25 -40 -87 -74 -151 -74c-142 0 -223 110 -223 260zM427 252c0 111 -55 186 -147 186s-148 -75 -148 -186s56 -186 148 -186s147 74 147 186zM592 534l-15 19c31 20 53 54 56 86
c-32 9 -48 31 -48 56c0 31 23 55 56 55s58 -26 58 -63c0 -59 -44 -112 -107 -153z" />
    <glyph glyph-name="uni0123.ss02" horiz-adv-x="490" 
d="M37 -46c0 44 20 81 49 104c-24 17 -36 44 -36 81c0 43 25 76 62 95c-25 30 -37 66 -37 109c0 101 78 169 176 169c31 0 60 -8 89 -23l91 51l36 -62l-71 -38c20 -29 30 -61 30 -97c0 -103 -76 -169 -175 -169c-32 0 -61 7 -88 20c-23 -11 -35 -28 -35 -50
c0 -31 24 -45 57 -45h121c97 0 160 -46 160 -137c0 -59 -20 -102 -60 -131s-91 -43 -154 -43c-131 0 -215 62 -215 166zM347 343c0 61 -41 100 -96 100s-96 -39 -96 -100s41 -100 96 -100s96 39 96 100zM385 -46c0 53 -33 75 -93 75h-91c-19 0 -36 1 -52 3
c-23 -16 -34 -41 -34 -76c0 -60 49 -96 137 -96c84 0 133 37 133 94zM194 624c0 59 43 111 107 154l15 -19c-31 -20 -53 -54 -56 -86c32 -9 48 -31 48 -56c0 -31 -23 -55 -56 -55s-58 26 -58 62z" />
    <glyph glyph-name="uni0137.ss02" horiz-adv-x="482" 
d="M75 0v708h83v-419l195 215h103l-213 -231l229 -273h-103l-211 256v-256h-83zM208 -262l-15 19c31 20 53 54 56 86c-32 9 -48 31 -48 56c0 31 23 55 56 55s58 -26 58 -63c0 -59 -44 -112 -107 -153z" />
    <glyph glyph-name="lcaron.ss02" horiz-adv-x="342" 
d="M75 0v708h83v-708h-83zM235 534l-15 19c31 20 53 54 56 86c-32 9 -48 31 -48 56c0 31 23 55 56 55s58 -26 58 -63c0 -59 -44 -112 -107 -153z" />
    <glyph glyph-name="uni013C.ss02" horiz-adv-x="233" 
d="M75 0v708h83v-708h-83zM70 -262l-15 19c31 20 53 54 56 86c-32 9 -48 31 -48 56c0 31 23 55 56 55s58 -26 58 -63c0 -59 -44 -112 -107 -153z" />
    <glyph glyph-name="uni0146.ss02" horiz-adv-x="555" 
d="M75 0v504h83v-97c36 64 99 105 167 105c95 0 155 -58 155 -161v-351h-82v333c0 69 -32 105 -93 105c-82 0 -147 -86 -147 -223v-215h-83zM231 -262l-15 19c31 20 53 54 56 86c-32 9 -48 31 -48 56c0 31 23 55 56 55s58 -26 58 -63c0 -59 -44 -112 -107 -153z" />
    <glyph glyph-name="uni0157.ss02" horiz-adv-x="392" 
d="M75 0v504h83v-87c32 61 84 95 148 95c22 0 46 -5 71 -15l-17 -77c-21 11 -42 17 -65 17c-80 0 -137 -86 -137 -247v-190h-83zM70 -262l-15 19c31 20 53 54 56 86c-32 9 -48 31 -48 56c0 31 23 55 56 55s58 -26 58 -63c0 -59 -44 -112 -107 -153z" />
    <glyph glyph-name="uni0219.ss02" horiz-adv-x="434" 
d="M42 129l69 37c20 -64 56 -100 119 -100c49 0 80 28 80 76c0 43 -37 65 -109 92c-80 29 -125 70 -125 143c0 80 62 135 147 135c65 0 113 -26 146 -79l-54 -48c-23 35 -54 53 -93 53c-37 0 -66 -24 -66 -61s28 -57 112 -88c82 -30 123 -78 123 -144
c0 -95 -64 -153 -161 -153c-103 0 -168 61 -188 137zM182 -262l-15 19c31 20 53 54 56 86c-32 9 -48 31 -48 56c0 31 23 55 56 55s58 -26 58 -63c0 -59 -44 -112 -107 -153z" />
    <glyph glyph-name="tcaron.ss02" horiz-adv-x="352" 
d="M96 154v276h-85v74h85v151l83 53v-204h135v-74h-135v-282c0 -55 23 -82 70 -82c23 0 42 5 58 14l21 -70c-24 -12 -53 -18 -86 -18c-91 0 -146 54 -146 162zM275 534l-15 19c31 20 53 54 56 86c-32 9 -48 31 -48 56c0 31 23 55 56 55s58 -26 58 -63
c0 -59 -44 -112 -107 -153z" />
    <glyph glyph-name="uni021B.ss02" horiz-adv-x="352" 
d="M96 154v276h-85v74h85v151l83 53v-204h135v-74h-135v-282c0 -55 23 -82 70 -82c23 0 42 5 58 14l21 -70c-24 -12 -53 -18 -86 -18c-91 0 -146 54 -146 162zM180 -262l-15 19c31 20 53 54 56 86c-32 9 -48 31 -48 56c0 31 23 55 56 55s58 -26 58 -63
c0 -59 -44 -112 -107 -153z" />
    <glyph glyph-name="f_b" horiz-adv-x="874" 
d="M454 61v-30v-31h-82v634h-125c-51 0 -79 -30 -79 -90v-40h117v-74h-117v-430h-82v430h-75v74h75v30c0 117 59 174 162 174h206v-237v-30c32 43 88 71 147 71c145 0 226 -110 226 -260s-81 -260 -226 -260c-61 0 -123 33 -147 69zM741 252c0 111 -56 186 -148 186
c-91 0 -147 -75 -147 -186s55 -186 147 -186s148 75 148 186z" />
    <glyph glyph-name="f_f_b" horiz-adv-x="1159" 
d="M740 61v-30v-31h-82v634h-126c-49 0 -78 -30 -78 -90v-40h117v-74h-117v-430h-82v430h-204v-430h-82v430h-75v74h75v30c0 117 59 174 162 174c27 0 51 -5 71 -15l-18 -71c-17 8 -35 12 -54 12c-51 0 -79 -30 -79 -90v-40h204v30c0 117 59 174 162 174h206v-237v-30
c32 43 88 71 147 71c145 0 226 -110 226 -260s-81 -260 -226 -260c-61 0 -123 33 -147 69zM1027 252c0 111 -56 186 -148 186c-91 0 -147 -75 -147 -186s55 -186 147 -186s148 75 148 186z" />
    <glyph glyph-name="f_f_h" horiz-adv-x="1146" 
d="M86 0v430h-75v74h75v30c0 117 59 174 162 174c27 0 51 -5 71 -15l-18 -71c-17 8 -35 12 -54 12c-51 0 -79 -30 -79 -90v-40h204v30c0 117 59 174 162 174h206v-305c33 69 101 109 173 109c99 0 157 -57 157 -161v-351h-82v331c0 69 -32 107 -95 107
c-82 0 -153 -84 -153 -224v-214h-82v634h-126c-49 0 -78 -30 -78 -90v-40h117v-74h-117v-430h-82v430h-204v-430h-82z" />
    <glyph glyph-name="f_f_j" horiz-adv-x="796" 
d="M587 -212l-19 75c63 17 90 45 90 114v453h-204v-430h-82v430h-204v-430h-82v430h-75v74h75v30c0 117 59 174 162 174c27 0 51 -5 71 -15l-18 -71c-17 8 -35 12 -54 12c-51 0 -79 -30 -79 -90v-40h204v13c0 61 19 108 58 141s89 50 150 50c48 0 93 -10 124 -29l-21 -72
c-32 18 -67 27 -104 27c-76 0 -125 -43 -125 -111v-19h286v-528c0 -111 -50 -168 -153 -188z" />
    <glyph glyph-name="f_f_k" horiz-adv-x="1064" 
d="M86 0v430h-75v74h75v30c0 117 59 174 162 174c27 0 51 -5 71 -15l-18 -71c-17 8 -35 12 -54 12c-51 0 -79 -30 -79 -90v-40h204v30c0 117 59 174 162 174h206v-419l196 215h102l-213 -231l229 -273h-102l-212 256v-256h-82v634h-126c-49 0 -78 -30 -78 -90v-40h117v-74
h-117v-430h-82v430h-204v-430h-82z" />
    <glyph glyph-name="f_h" horiz-adv-x="860" 
d="M86 0v430h-75v74h75v30c0 117 59 174 162 174h206v-305c33 69 101 109 173 109c99 0 157 -57 157 -161v-351h-82v331c0 69 -32 107 -95 107c-82 0 -153 -84 -153 -224v-214h-82v634h-125c-51 0 -79 -30 -79 -90v-40h117v-74h-117v-430h-82z" />
    <glyph glyph-name="f_j" horiz-adv-x="510" 
d="M301 -212l-19 75c63 17 90 45 90 114v453h-204v-430h-82v430h-75v74h75v13c0 61 19 108 58 141s89 50 150 50c48 0 93 -10 124 -29l-21 -72c-32 18 -67 27 -104 27c-76 0 -125 -43 -125 -111v-19h286v-528c0 -111 -50 -168 -153 -188z" />
    <glyph glyph-name="f_k" horiz-adv-x="778" 
d="M86 0v430h-75v74h75v30c0 117 59 174 162 174h206v-419l196 215h102l-213 -231l229 -273h-102l-212 256v-256h-82v634h-125c-51 0 -79 -30 -79 -90v-40h117v-74h-117v-430h-82z" />
    <glyph glyph-name="fi" unicode="&#xfb01;" horiz-adv-x="529" 
d="M86 0v430h-75v74h75v13c0 61 19 108 58 141s89 50 150 50c48 0 93 -10 124 -29l-21 -72c-32 18 -67 27 -104 27c-76 0 -125 -43 -125 -111v-19h286v-504h-82v430h-204v-430h-82z" />
    <glyph glyph-name="fl" unicode="&#xfb02;" horiz-adv-x="529" 
d="M86 0v430h-75v74h75v30c0 117 59 174 162 174h206v-708h-82v634h-125c-51 0 -79 -30 -79 -90v-40h117v-74h-117v-430h-82z" />
    <glyph glyph-name="ordfeminine" unicode="&#xaa;" horiz-adv-x="436" 
d="M65 416c0 81 69 130 176 130h66v17c0 57 -32 82 -84 82c-43 0 -72 -21 -85 -64l-59 14c13 68 69 109 144 109c92 0 149 -44 149 -148v-256h-52l-9 59c-25 -37 -70 -63 -126 -63c-69 0 -120 44 -120 120zM307 477v14h-64c-72 0 -110 -30 -110 -75c0 -37 23 -61 63 -61
c57 0 111 41 111 122z" />
    <glyph glyph-name="ordmasculine" unicode="&#xba;" horiz-adv-x="515" 
d="M67 500c0 109 76 204 191 204c116 0 190 -95 190 -204s-74 -204 -190 -204c-115 0 -191 95 -191 204zM378 500c0 80 -44 145 -120 145s-121 -65 -121 -145s45 -145 121 -145s120 65 120 145z" />
    <glyph glyph-name="uni0410" unicode="&#x410;" horiz-adv-x="600" 
d="M11 0l248 700h82l247 -700h-91l-64 188h-266l-64 -188h-92zM193 269h214l-107 314z" />
    <glyph glyph-name="uni0411" unicode="&#x411;" horiz-adv-x="581" 
d="M87 0v700h415v-81h-328v-215h159c132 0 208 -77 208 -202c0 -124 -77 -202 -208 -202h-246zM174 81h158c80 0 119 46 119 121c0 76 -38 122 -119 122h-158v-243z" />
    <glyph glyph-name="uni0412" unicode="&#x412;" horiz-adv-x="609" 
d="M87 0v700h235c123 0 196 -66 196 -182c0 -67 -33 -112 -81 -135c72 -28 117 -86 117 -178c0 -127 -84 -205 -220 -205h-247zM174 412h146c75 0 112 34 112 103s-38 104 -113 104h-145v-207zM174 81h148c96 0 144 38 144 125s-48 125 -144 125h-148v-250z" />
    <glyph glyph-name="uni0413" unicode="&#x413;" horiz-adv-x="522" 
d="M87 0v700h407v-81h-320v-619h-87z" />
    <glyph glyph-name="uni0403" unicode="&#x403;" horiz-adv-x="522" 
d="M87 0v700h407v-81h-320v-619h-87zM261 753l69 146h117l-123 -146h-63z" />
    <glyph glyph-name="uni0490" unicode="&#x490;" horiz-adv-x="522" 
d="M87 0v700h322v134h85v-215h-320v-619h-87z" />
    <glyph glyph-name="uni0414" unicode="&#x414;" horiz-adv-x="722" 
d="M35 -134v215h51c43 57 50 88 65 288l23 331h437v-619h76v-215h-85v134h-482v-134h-85zM181 81h343v538h-276l-16 -252c-6 -94 -12 -160 -19 -197s-17 -66 -32 -89z" />
    <glyph glyph-name="uni0415" unicode="&#x415;" horiz-adv-x="558" 
d="M87 0v700h407v-81h-320v-206h260v-80h-260v-252h330v-81h-417z" />
    <glyph glyph-name="uni0400" unicode="&#x400;" horiz-adv-x="558" 
d="M87 0v700h407v-81h-320v-206h260v-80h-260v-252h330v-81h-417zM266 753l-124 146h118l69 -146h-63z" />
    <glyph glyph-name="uni0401" unicode="&#x401;" horiz-adv-x="558" 
d="M87 0v700h407v-81h-320v-206h260v-80h-260v-252h330v-81h-417zM156 837c0 32 24 57 56 57s56 -25 56 -57s-24 -56 -56 -56c-33 0 -56 24 -56 56zM327 837c0 32 24 57 55 57c33 0 57 -25 57 -57s-24 -56 -57 -56c-31 0 -55 24 -55 56z" />
    <glyph glyph-name="uni0416" unicode="&#x416;" horiz-adv-x="903" 
d="M14 0l309 386l-287 314h109l263 -286v286h87v-286l263 286h109l-287 -314l309 -386h-108l-286 359v-359h-87v359l-286 -359h-108z" />
    <glyph glyph-name="uni0417" unicode="&#x417;" horiz-adv-x="576" 
d="M46 183l81 25c17 -87 87 -140 172 -140c89 0 146 55 146 138c0 45 -16 77 -48 98c-31 21 -68 32 -111 32h-48v75h46c83 0 135 41 135 114c0 65 -51 109 -130 109c-69 0 -121 -46 -136 -117l-76 15c16 105 107 176 211 176c133 0 212 -73 212 -178
c0 -69 -37 -123 -100 -151c81 -28 130 -89 130 -173c0 -122 -91 -214 -231 -214c-131 0 -226 72 -253 191z" />
    <glyph glyph-name="uni0418" unicode="&#x418;" horiz-adv-x="687" 
d="M87 0v700h87v-552l343 552h83v-700h-86v551l-343 -551h-84z" />
    <glyph glyph-name="uni0419" unicode="&#x419;" horiz-adv-x="687" 
d="M87 0v700h87v-552l343 552h83v-700h-86v551l-343 -551h-84zM215 899h64c0 -51 21 -81 65 -81s65 30 65 81h64c0 -87 -45 -141 -129 -141s-129 54 -129 141z" />
    <glyph glyph-name="uni040D" unicode="&#x40d;" horiz-adv-x="687" 
d="M87 0v700h87v-552l343 552h83v-700h-86v551l-343 -551h-84zM314 753l-124 146h118l69 -146h-63z" />
    <glyph glyph-name="uni041A" unicode="&#x41a;" horiz-adv-x="582" 
d="M87 0v700h87v-286l262 286h108l-286 -314l310 -386h-109l-285 359v-359h-87z" />
    <glyph glyph-name="uni040C" unicode="&#x40c;" horiz-adv-x="582" 
d="M87 0v700h87v-286l262 286h108l-286 -314l310 -386h-109l-285 359v-359h-87zM252 753l69 146h117l-123 -146h-63z" />
    <glyph glyph-name="uni041B" unicode="&#x41b;" horiz-adv-x="686" 
d="M39 0v87c11 -5 24 -7 39 -7c48 0 69 37 74 142l27 478h420v-700h-87v619h-256l-22 -404c-8 -152 -50 -220 -151 -220c-16 0 -31 2 -44 5z" />
    <glyph glyph-name="uni041C" unicode="&#x41c;" horiz-adv-x="767" 
d="M87 0v700h103l194 -498l194 498h102v-700h-86v527l-181 -463h-59l-180 463v-527h-87z" />
    <glyph glyph-name="uni041D" unicode="&#x41d;" horiz-adv-x="678" 
d="M87 0v700h87v-286h331v286h87v-700h-87v333h-331v-333h-87z" />
    <glyph glyph-name="uni041E" unicode="&#x41e;" horiz-adv-x="729" 
d="M50 350c-3 222 145 360 315 358c168 2 317 -136 314 -358c3 -222 -146 -360 -314 -358c-170 -2 -318 136 -315 358zM590 350c0 182 -99 277 -225 277s-225 -95 -225 -277s99 -277 225 -277s225 95 225 277z" />
    <glyph glyph-name="uni041F" unicode="&#x41f;" horiz-adv-x="672" 
d="M87 0v700h498v-700h-87v619h-324v-619h-87z" />
    <glyph glyph-name="uni0420" unicode="&#x420;" horiz-adv-x="581" 
d="M87 0v700h246c132 0 208 -76 208 -199c0 -124 -76 -200 -208 -200h-159v-301h-87zM174 382h158c81 0 119 44 119 119c0 73 -38 118 -119 118h-158v-237z" />
    <glyph glyph-name="uni0421" unicode="&#x421;" horiz-adv-x="686" 
d="M50 350c-3 231 151 360 316 358c139 0 237 -76 273 -204l-82 -22c-28 92 -91 145 -191 145c-131 0 -226 -99 -226 -277s95 -277 226 -277c100 0 163 53 191 145l82 -22c-36 -128 -134 -204 -273 -204c-165 -2 -319 127 -316 358z" />
    <glyph glyph-name="uni0422" unicode="&#x422;" horiz-adv-x="552" 
d="M233 0v619h-205v81h496v-81h-205v-619h-86z" />
    <glyph glyph-name="uni0423" unicode="&#x423;" horiz-adv-x="537" 
d="M438 700h88l-301 -700h-86l84 197l-212 503h91l167 -396z" />
    <glyph glyph-name="uni040E" unicode="&#x40e;" horiz-adv-x="537" 
d="M438 700h88l-301 -700h-86l84 197l-212 503h91l167 -396zM140 899h64c0 -51 21 -81 65 -81s65 30 65 81h64c0 -87 -45 -141 -129 -141s-129 54 -129 141z" />
    <glyph glyph-name="uni0424" unicode="&#x424;" horiz-adv-x="795" 
d="M355 -10v82h-5c-177 4 -300 117 -300 278s123 274 300 278h5v82h85v-82h5c177 -4 300 -117 300 -278s-123 -274 -300 -278h-5v-82h-85zM348 146h7v408h-7c-126 -2 -212 -87 -212 -204s86 -202 212 -204zM440 146h7c126 2 212 87 212 204s-86 202 -212 204h-7v-408z" />
    <glyph glyph-name="uni0425" unicode="&#x425;" horiz-adv-x="572" 
d="M15 0l223 383l-183 317h95l136 -236l135 236h96l-184 -317l224 -383h-96l-175 300l-175 -300h-96z" />
    <glyph glyph-name="uni0427" unicode="&#x427;" horiz-adv-x="654" 
d="M480 0v300c-53 -21 -106 -30 -175 -30c-145 0 -229 73 -229 237v193h87v-191c0 -106 51 -159 152 -159c67 0 114 9 165 32v318h87v-700h-87z" />
    <glyph glyph-name="uni0426" unicode="&#x426;" horiz-adv-x="693" 
d="M573 -134v134h-486v700h87v-619h321v619h87v-619h76v-215h-85z" />
    <glyph glyph-name="uni0428" unicode="&#x428;" horiz-adv-x="954" 
d="M87 0v700h87v-619h260v619h87v-619h260v619h87v-700h-781z" />
    <glyph glyph-name="uni0429" unicode="&#x429;" horiz-adv-x="979" 
d="M859 -134v134h-772v700h87v-619h260v619h87v-619h260v619h87v-619h76v-215h-85z" />
    <glyph glyph-name="uni040F" unicode="&#x40f;" horiz-adv-x="668" 
d="M291 -134v134h-204v700h87v-619h321v619h87v-700h-205v-134h-86z" />
    <glyph glyph-name="uni042C" unicode="&#x42c;" horiz-adv-x="581" 
d="M87 0v700h87v-273h146c140 0 221 -81 221 -213c0 -131 -82 -214 -221 -214h-233zM174 81h145c89 0 132 50 132 133c0 81 -43 132 -132 132h-145v-265z" />
    <glyph glyph-name="uni042A" unicode="&#x42a;" horiz-adv-x="674" 
d="M180 0v621h-158v79h244v-273h147c140 0 221 -81 221 -213c0 -131 -82 -214 -221 -214h-233zM266 81h146c89 0 132 50 132 133c0 81 -43 132 -132 132h-146v-265z" />
    <glyph glyph-name="uni042B" unicode="&#x42b;" horiz-adv-x="809" 
d="M87 0v700h87v-273h146c140 0 221 -81 221 -213c0 -131 -82 -214 -221 -214h-233zM174 81h145c89 0 132 50 132 133c0 81 -43 132 -132 132h-145v-265zM635 0v700h87v-700h-87z" />
    <glyph glyph-name="uni0409" unicode="&#x409;" horiz-adv-x="989" 
d="M39 0v87c11 -5 24 -7 39 -7c48 0 69 37 74 142l27 478h402v-273h146c140 0 221 -81 221 -213c0 -131 -82 -214 -221 -214h-233v619h-238l-22 -404c-8 -152 -50 -220 -151 -220c-16 0 -31 2 -44 5zM581 81h145c89 0 133 50 133 133c0 81 -44 132 -133 132h-145v-265z" />
    <glyph glyph-name="uni040A" unicode="&#x40a;" horiz-adv-x="1000" 
d="M959 209c0 -128 -79 -209 -211 -209h-243v333h-331v-333h-87v700h87v-286h331v286h87v-286h156c132 0 211 -80 211 -205zM869 209c0 77 -39 124 -122 124h-155v-252h155c83 0 122 48 122 128z" />
    <glyph glyph-name="uni0405" unicode="&#x405;" horiz-adv-x="514" 
d="M39 183l72 45c25 -103 76 -155 155 -155c68 0 115 42 115 119c0 25 -7 47 -20 65c-27 36 -62 54 -135 89c-91 44 -147 99 -147 191c0 99 76 171 176 171c92 0 147 -41 179 -114l-71 -45c-21 52 -57 78 -108 78c-55 0 -91 -38 -91 -85c0 -23 6 -43 19 -60
c25 -33 60 -52 125 -81c103 -47 161 -102 161 -205c0 -122 -87 -204 -204 -204c-118 0 -208 86 -226 191z" />
    <glyph glyph-name="uni0404" unicode="&#x404;" horiz-adv-x="686" 
d="M557 218l82 -22c-36 -128 -134 -204 -273 -204c-165 -2 -319 127 -316 358c-3 231 151 360 316 358c139 0 237 -76 273 -204l-82 -22c-28 92 -91 145 -191 145c-123 0 -209 -81 -224 -230h278v-81h-279c11 -157 100 -243 225 -243c100 0 163 53 191 145z" />
    <glyph glyph-name="uni042D" unicode="&#x42d;" horiz-adv-x="686" 
d="M636 350c3 -231 -151 -360 -316 -358c-139 0 -237 76 -273 204l82 22c28 -92 91 -145 191 -145c125 0 214 86 226 243h-280v81h279c-16 149 -102 230 -225 230c-100 0 -163 -53 -191 -145l-82 22c36 128 134 204 273 204c165 2 319 -127 316 -358z" />
    <glyph glyph-name="uni0406" unicode="&#x406;" horiz-adv-x="260" 
d="M87 0v700h87v-700h-87z" />
    <glyph glyph-name="uni0407" unicode="&#x407;" horiz-adv-x="260" 
d="M87 0v700h87v-700h-87zM-11 837c0 32 24 57 56 57s56 -25 56 -57s-24 -56 -56 -56c-33 0 -56 24 -56 56zM160 837c0 32 24 57 55 57c33 0 57 -25 57 -57s-24 -56 -57 -56c-31 0 -55 24 -55 56z" />
    <glyph glyph-name="uni0408" unicode="&#x408;" horiz-adv-x="513" 
d="M28 172l88 19c11 -76 49 -118 116 -118c72 0 119 43 119 136v491h86v-482c0 -149 -84 -226 -205 -226c-119 0 -191 75 -204 180z" />
    <glyph glyph-name="uni040B" unicode="&#x40b;" horiz-adv-x="765" 
d="M214 0v619h-186v81h490v-81h-218v-227c56 25 114 37 174 37c139 0 215 -67 215 -206v-223h-86v214c0 95 -52 134 -147 134c-58 0 -110 -14 -156 -43v-305h-86z" />
    <glyph glyph-name="uni042E" unicode="&#x42e;" horiz-adv-x="951" 
d="M901 350c3 -222 -142 -360 -307 -358c-162 0 -301 129 -307 341h-113v-333h-87v700h87v-286h117c24 186 152 294 303 294c165 2 310 -136 307 -358zM812 350c0 182 -96 277 -218 277s-218 -95 -218 -277s96 -277 218 -277s218 95 218 277z" />
    <glyph glyph-name="uni042F" unicode="&#x42f;" 
d="M302 700h231v-700h-86v315h-109l-211 -315h-97l212 320c-95 19 -148 83 -148 187c0 124 76 193 208 193zM447 394v225h-141c-79 0 -124 -36 -124 -112c0 -75 41 -113 124 -113h141z" />
    <glyph glyph-name="uni0402" unicode="&#x402;" horiz-adv-x="744" 
d="M420 1v82c17 -6 35 -9 56 -9c77 0 135 48 135 137s-65 137 -157 137c-57 0 -108 -13 -154 -40v-308h-86v619h-186v81h490v-81h-218v-226c41 21 103 36 160 36c147 0 238 -83 238 -218s-84 -219 -219 -219c-24 0 -44 3 -59 9z" />
    <glyph glyph-name="uni0462" unicode="&#x462;" horiz-adv-x="652" 
d="M611 197c0 -120 -77 -197 -208 -197h-246v503h-157v77h157v120h87v-120h247v-77h-247v-109h159c131 0 208 -76 208 -197zM522 197c0 72 -39 116 -122 116h-156v-232h156c83 0 122 44 122 116z" />
    <glyph glyph-name="uni0472" unicode="&#x472;" horiz-adv-x="729" 
d="M679 350c3 -222 -146 -360 -314 -358c-170 -2 -318 136 -315 358c-3 222 145 360 315 358c168 2 317 -136 314 -358zM139 386h451c-12 156 -104 242 -225 242c-61 0 -112 -21 -154 -62s-66 -101 -72 -180zM590 314h-451c6 -79 30 -139 72 -180s93 -62 154 -62
c121 0 213 86 225 242z" />
    <glyph glyph-name="uni0474" unicode="&#x474;" horiz-adv-x="693" 
d="M253 0l-242 700h93l194 -577l157 464c25 77 66 121 134 121c36 0 59 -7 86 -23l-30 -77c-15 10 -31 15 -48 15c-29 0 -46 -21 -58 -58l-196 -565h-90z" />
    <glyph glyph-name="uni0414.loclBGR" horiz-adv-x="718" 
d="M624 81h59v-215h-85v134h-478v-134h-85v215h59l224 619h82zM359 586l-175 -505h350z" />
    <glyph glyph-name="uni041B.loclBGR" horiz-adv-x="596" 
d="M11 0l242 700h90l242 -700h-93l-194 577l-194 -577h-93z" />
    <glyph glyph-name="uni0430" unicode="&#x430;" horiz-adv-x="505" 
d="M48 145c0 107 84 165 223 165h88v22c0 73 -43 106 -107 106c-55 0 -92 -27 -110 -82l-74 17c7 42 27 76 61 101c35 25 76 38 123 38c113 0 189 -69 189 -189v-323h-65l-15 73c-35 -54 -87 -81 -157 -81c-91 0 -156 52 -156 153zM359 223v16h-85c-93 0 -140 -33 -140 -93
c0 -51 32 -80 85 -80c67 0 140 49 140 157z" />
    <glyph glyph-name="uni0431" unicode="&#x431;" horiz-adv-x="582" 
d="M46 303c0 100 13 177 39 230c26 54 59 90 98 109s87 32 144 37c84 8 125 14 162 35l24 -68c-23 -13 -47 -22 -72 -27s-61 -9 -110 -14c-123 -12 -196 -46 -213 -228c35 76 106 115 191 115c140 0 227 -109 227 -250s-97 -250 -244 -250c-153 0 -246 106 -246 311z
M450 242c0 101 -58 176 -158 176c-49 0 -88 -17 -116 -50c-27 -33 -41 -75 -41 -126s14 -93 41 -126c28 -33 67 -50 116 -50c100 0 158 75 158 176z" />
    <glyph glyph-name="uni0432" unicode="&#x432;" horiz-adv-x="491" 
d="M75 0v504h191c91 0 150 -46 150 -129c0 -43 -22 -79 -54 -99c47 -24 78 -67 78 -124c0 -93 -64 -152 -165 -152h-200zM158 303h105c48 0 72 21 72 64c0 42 -24 63 -72 63h-105v-127zM158 74h107c61 0 92 26 92 78s-32 79 -92 79h-107v-157z" />
    <glyph glyph-name="uni0433" unicode="&#x433;" horiz-adv-x="420" 
d="M75 0v504h320v-74h-237v-430h-83z" />
    <glyph glyph-name="uni0453" unicode="&#x453;" horiz-adv-x="420" 
d="M75 0v504h320v-74h-237v-430h-83zM190 557l69 146h117l-123 -146h-63z" />
    <glyph glyph-name="uni0491" unicode="&#x491;" horiz-adv-x="420" 
d="M75 0v504h240v124h80v-198h-237v-430h-83z" />
    <glyph glyph-name="uni0434" unicode="&#x434;" horiz-adv-x="590" 
d="M28 -124v198h55c25 31 38 77 45 169l19 261h343v-430h72v-198h-79v124h-376v-124h-79zM170 74h238v356h-190l-15 -194c-6 -81 -17 -135 -33 -162z" />
    <glyph glyph-name="uni0435" unicode="&#x435;" horiz-adv-x="548" 
d="M501 274v-35h-371c4 -103 59 -173 148 -173c69 0 109 29 144 98l70 -30c-48 -99 -113 -142 -216 -142c-143 0 -230 120 -230 260c0 143 87 260 230 260c139 0 225 -106 225 -238zM135 310h282c-12 79 -61 128 -141 128c-69 0 -124 -45 -141 -128z" />
    <glyph glyph-name="uni0450" unicode="&#x450;" horiz-adv-x="548" 
d="M501 274v-35h-371c4 -103 59 -173 148 -173c69 0 109 29 144 98l70 -30c-48 -99 -113 -142 -216 -142c-143 0 -230 120 -230 260c0 143 87 260 230 260c139 0 225 -106 225 -238zM135 310h282c-12 79 -61 128 -141 128c-69 0 -124 -45 -141 -128zM246 557l-124 146h118
l69 -146h-63z" />
    <glyph glyph-name="uni0451" unicode="&#x451;" horiz-adv-x="548" 
d="M501 274v-35h-371c4 -103 59 -173 148 -173c69 0 109 29 144 98l70 -30c-48 -99 -113 -142 -216 -142c-143 0 -230 120 -230 260c0 143 87 260 230 260c139 0 225 -106 225 -238zM135 310h282c-12 79 -61 128 -141 128c-69 0 -124 -45 -141 -128zM135 641
c0 32 24 57 56 57s56 -25 56 -57s-24 -56 -56 -56c-33 0 -56 24 -56 56zM306 641c0 32 24 57 55 57c33 0 57 -25 57 -57s-24 -56 -57 -56c-31 0 -55 24 -55 56z" />
    <glyph glyph-name="uni0436" unicode="&#x436;" horiz-adv-x="731" 
d="M10 0l229 273l-213 231h103l196 -215v215h82v-215l195 215h103l-213 -231l229 -273h-103l-211 256v-256h-82v256l-212 -256h-103z" />
    <glyph glyph-name="uni0437" unicode="&#x437;" horiz-adv-x="442" 
d="M38 147l79 9c7 -56 44 -90 104 -90c57 0 95 33 95 81c0 53 -39 85 -106 85h-25v66h24c53 0 92 28 92 73c0 43 -31 69 -82 69c-48 0 -83 -26 -92 -71l-71 19c17 77 76 124 164 124c96 0 158 -53 158 -130c0 -54 -23 -92 -68 -113c55 -17 88 -61 88 -122
c0 -92 -73 -155 -177 -155c-107 0 -174 62 -183 155z" />
    <glyph glyph-name="uni0438" unicode="&#x438;" horiz-adv-x="557" 
d="M75 0v504h83v-381l239 381h85v-504h-82v381l-239 -381h-86z" />
    <glyph glyph-name="uni0439" unicode="&#x439;" horiz-adv-x="557" 
d="M75 0v504h83v-381l239 381h85v-504h-82v381l-239 -381h-86zM149 700h64c0 -51 21 -81 65 -81s65 30 65 81h64c0 -87 -48 -141 -129 -141s-129 54 -129 141z" />
    <glyph glyph-name="uni045D" unicode="&#x45d;" horiz-adv-x="557" 
d="M75 0v504h83v-381l239 381h85v-504h-82v381l-239 -381h-86zM248 557l-124 146h118l69 -146h-63z" />
    <glyph glyph-name="uni043A" unicode="&#x43a;" horiz-adv-x="482" 
d="M75 0v504h83v-215l195 215h103l-213 -231l229 -273h-103l-211 256v-256h-83z" />
    <glyph glyph-name="uni045C" unicode="&#x45c;" horiz-adv-x="482" 
d="M75 0v504h83v-215l195 215h103l-213 -231l229 -273h-103l-211 256v-256h-83zM219 557l69 146h117l-123 -146h-63z" />
    <glyph glyph-name="uni043B" unicode="&#x43b;" horiz-adv-x="562" 
d="M28 0v74c12 -4 23 -6 33 -6c36 0 49 25 54 94l25 342h346v-504h-82v430h-193l-20 -278c-7 -109 -43 -158 -124 -158c-13 0 -26 2 -39 6z" />
    <glyph glyph-name="uni043C" unicode="&#x43c;" horiz-adv-x="640" 
d="M75 0v504h99l146 -343l145 343h99v-504h-82v356l-133 -310h-58l-133 310v-356h-83z" />
    <glyph glyph-name="uni043D" unicode="&#x43d;" horiz-adv-x="551" 
d="M75 0v504h83v-199h235v199h82v-504h-82v232h-235v-232h-83z" />
    <glyph glyph-name="uni043E" unicode="&#x43e;" horiz-adv-x="577" 
d="M46 252c-2 137 97 263 243 260c146 3 244 -123 242 -260c2 -137 -96 -263 -242 -260c-146 -3 -245 123 -243 260zM445 252c0 98 -57 186 -156 186s-157 -88 -157 -186s58 -186 157 -186s156 88 156 186z" />
    <glyph glyph-name="uni043F" unicode="&#x43f;" horiz-adv-x="542" 
d="M75 0v504h391v-504h-82v430h-226v-430h-83z" />
    <glyph glyph-name="uni0440" unicode="&#x440;" horiz-adv-x="577" 
d="M75 -204v708h83v-35v-30c24 39 83 73 147 73c145 0 226 -110 226 -260s-81 -260 -226 -260c-57 0 -118 28 -147 71v-30v-237h-83zM445 252c0 111 -56 186 -148 186s-147 -75 -147 -186s56 -186 147 -186c92 0 148 75 148 186z" />
    <glyph glyph-name="uni0441" unicode="&#x441;" horiz-adv-x="528" 
d="M46 252c0 139 82 260 231 260c105 0 176 -47 211 -141l-74 -29c-26 64 -72 96 -137 96c-95 0 -145 -77 -145 -186c0 -108 50 -186 145 -186c67 0 109 32 137 96l74 -29c-36 -93 -108 -141 -211 -141c-149 0 -231 121 -231 260z" />
    <glyph glyph-name="uni0442" unicode="&#x442;" horiz-adv-x="449" 
d="M183 0v430h-153v74h389v-74h-154v-430h-82z" />
    <glyph glyph-name="uni0443" unicode="&#x443;" horiz-adv-x="458" 
d="M364 504h84l-253 -708h-81l77 218l-181 490h85l137 -373z" />
    <glyph glyph-name="uni045E" unicode="&#x45e;" horiz-adv-x="458" 
d="M364 504h84l-253 -708h-81l77 218l-181 490h85l137 -373zM100 700h64c0 -51 21 -81 65 -81s65 30 65 81h64c0 -87 -48 -141 -129 -141s-129 54 -129 141z" />
    <glyph glyph-name="uni0444" unicode="&#x444;" horiz-adv-x="694" 
d="M306 -204v196c-159 0 -260 117 -260 260s101 260 260 260v196h82v-196c159 0 260 -117 260 -260s-101 -260 -260 -260v-196h-82zM300 66h6v372h-6c-104 0 -168 -77 -168 -186s64 -186 168 -186zM388 66h7c51 0 92 17 122 52s45 80 45 134s-15 98 -45 133s-71 53 -122 53
h-7v-372z" />
    <glyph glyph-name="uni0445" unicode="&#x445;" horiz-adv-x="445" 
d="M9 0l169 273l-143 231h89l98 -160l99 160h89l-143 -231l169 -273h-86l-128 202l-127 -202h-86z" />
    <glyph glyph-name="uni0447" unicode="&#x447;" horiz-adv-x="531" 
d="M373 0v208c-40 -17 -83 -26 -129 -26c-112 0 -177 56 -177 167v155h83v-145c0 -73 34 -103 105 -103c48 0 81 6 118 25v223h82v-504h-82z" />
    <glyph glyph-name="uni0446" unicode="&#x446;" horiz-adv-x="567" 
d="M460 -124v124h-385v504h83v-430h226v430h82v-430h73v-198h-79z" />
    <glyph glyph-name="uni0448" unicode="&#x448;" horiz-adv-x="795" 
d="M75 0v504h83v-430h199v430h82v-430h199v430h82v-504h-645z" />
    <glyph glyph-name="uni0449" unicode="&#x449;" horiz-adv-x="820" 
d="M713 -124v124h-638v504h83v-430h199v430h82v-430h199v430h82v-430h72v-198h-79z" />
    <glyph glyph-name="uni045F" unicode="&#x45f;" horiz-adv-x="548" 
d="M235 -124v124h-160v504h83v-430h233v430h82v-504h-159v-124h-79z" />
    <glyph glyph-name="uni044C" unicode="&#x44c;" horiz-adv-x="476" 
d="M75 0v504h83v-193h103c109 0 171 -60 171 -155s-62 -156 -171 -156h-186zM158 74h95c61 0 91 26 91 82c0 55 -30 82 -91 82h-95v-164z" />
    <glyph glyph-name="uni044A" unicode="&#x44a;" horiz-adv-x="544" 
d="M143 0v430h-121v74h203v-193h103c111 0 171 -60 171 -155c0 -96 -60 -156 -171 -156h-185zM225 74h95c61 0 92 26 92 82c0 55 -31 82 -92 82h-95v-164z" />
    <glyph glyph-name="uni044B" unicode="&#x44b;" horiz-adv-x="686" 
d="M75 0v504h83v-193h103c109 0 171 -60 171 -155s-62 -156 -171 -156h-186zM158 74h95c61 0 91 26 91 82c0 55 -30 82 -91 82h-95v-164zM528 0v504h83v-504h-83z" />
    <glyph glyph-name="uni0459" unicode="&#x459;" horiz-adv-x="787" 
d="M28 0v74c12 -4 23 -6 33 -6c36 0 49 25 54 94l25 342h329v-193h103c111 0 171 -60 171 -155c0 -96 -60 -156 -171 -156h-185v430h-176l-20 -278c-7 -109 -43 -158 -124 -158c-13 0 -26 2 -39 6zM469 74h95c61 0 92 27 92 82s-31 82 -92 82h-95v-164z" />
    <glyph glyph-name="uni045A" unicode="&#x45a;" horiz-adv-x="797" 
d="M75 0v504h83v-199h240v199h82v-199h103c108 0 169 -59 169 -152s-61 -153 -169 -153h-185v232h-240v-232h-83zM480 74h95c60 0 90 26 90 79s-30 79 -90 79h-95v-158z" />
    <glyph glyph-name="uni0455" unicode="&#x455;" horiz-adv-x="434" 
d="M42 129l69 37c20 -64 56 -100 119 -100c49 0 80 28 80 76c0 43 -37 65 -109 92c-80 29 -125 70 -125 143c0 80 62 135 147 135c65 0 113 -26 146 -79l-54 -48c-23 35 -54 53 -93 53c-37 0 -66 -24 -66 -61s28 -57 112 -88c82 -30 123 -78 123 -144
c0 -95 -64 -153 -161 -153c-103 0 -168 61 -188 137z" />
    <glyph glyph-name="uni0454" unicode="&#x454;" horiz-adv-x="528" 
d="M46 252c0 139 82 260 231 260c105 0 176 -47 211 -141l-74 -29c-26 64 -72 96 -137 96c-83 0 -132 -61 -143 -150h209v-72h-209c11 -89 60 -150 143 -150c67 0 109 32 137 96l74 -29c-36 -93 -108 -141 -211 -141c-149 0 -231 121 -231 260z" />
    <glyph glyph-name="uni044D" unicode="&#x44d;" horiz-adv-x="525" 
d="M40 130l75 32c28 -64 71 -96 139 -96c83 0 127 59 136 150h-209v72h209c-9 91 -53 150 -136 150c-68 0 -111 -32 -139 -96l-75 32c39 91 113 138 213 138c148 0 226 -121 226 -260s-78 -260 -226 -260c-100 0 -174 47 -213 138z" />
    <glyph glyph-name="uni0456" unicode="&#x456;" horiz-adv-x="233" 
d="M75 0v504h83v-504h-83zM56 649c0 35 27 60 60 60c35 0 61 -25 61 -60s-26 -60 -61 -60c-33 0 -60 27 -60 60z" />
    <glyph glyph-name="uni0457" unicode="&#x457;" horiz-adv-x="233" 
d="M75 0v504h83v-504h-83zM-26 649c0 35 27 60 60 60c35 0 61 -25 61 -60s-26 -60 -61 -60c-33 0 -60 27 -60 60zM138 649c0 35 27 60 60 60c35 0 61 -25 61 -60s-26 -60 -61 -60c-33 0 -60 27 -60 60z" />
    <glyph glyph-name="uni0458" unicode="&#x458;" horiz-adv-x="233" 
d="M5 -212l-20 75c63 17 90 45 90 114v527h83v-528c0 -111 -52 -168 -153 -188zM56 649c0 35 27 60 60 60c35 0 61 -25 61 -60s-26 -60 -61 -60c-33 0 -60 27 -60 60z" />
    <glyph glyph-name="uni045B" unicode="&#x45b;" horiz-adv-x="563" 
d="M488 351v-351h-82v331c0 69 -32 107 -95 107c-82 0 -153 -84 -153 -224v-214h-83v572h-67v68h67v68h83v-68h132v-68h-132v-169c33 69 101 109 173 109c99 0 157 -57 157 -161z" />
    <glyph glyph-name="uni044E" unicode="&#x44e;" horiz-adv-x="756" 
d="M710 252c0 -143 -91 -260 -236 -260c-138 0 -228 104 -236 239h-80v-231h-83v504h83v-199h83c11 61 36 110 77 149s93 58 156 58c145 0 236 -117 236 -260zM624 252c0 53 -13 98 -40 133c-26 35 -63 53 -110 53s-84 -18 -111 -53c-26 -35 -39 -80 -39 -133
s13 -98 39 -133c27 -35 64 -53 111 -53s84 18 110 53c27 35 40 80 40 133z" />
    <glyph glyph-name="uni044F" unicode="&#x44f;" horiz-adv-x="482" 
d="M220 504h186v-504h-82v201h-100l-109 -201h-90l122 214c-59 23 -95 73 -95 138c0 45 16 81 47 109c32 29 72 43 121 43zM324 275v155h-103c-53 0 -87 -27 -87 -78c0 -49 34 -77 87 -77h103z" />
    <glyph glyph-name="uni0452" unicode="&#x452;" horiz-adv-x="563" 
d="M335 -212l-19 75c63 17 90 45 90 114v354c0 69 -32 107 -95 107c-82 0 -153 -84 -153 -224v-214h-83v572h-67v68h67v68h83v-68h132v-68h-132v-169c33 69 101 109 173 109c99 0 157 -57 157 -161v-375c0 -111 -50 -168 -153 -188z" />
    <glyph glyph-name="uni0463" unicode="&#x463;" horiz-adv-x="539" 
d="M495 151c0 -92 -61 -151 -170 -151h-185v434h-125v70h125v204h82v-204h167v-70h-167v-132h103c109 0 170 -59 170 -151zM412 151c0 52 -30 77 -90 77h-100v-154h100c61 0 90 24 90 77z" />
    <glyph glyph-name="uni0473" unicode="&#x473;" horiz-adv-x="577" 
d="M531 252c2 -137 -96 -263 -242 -260c-146 -3 -245 123 -243 260c-2 137 97 263 243 260c146 3 244 -123 242 -260zM134 288h309c-12 88 -69 152 -154 152c-87 0 -143 -64 -155 -152zM443 216h-309c12 -88 68 -152 155 -152c85 0 142 64 154 152z" />
    <glyph glyph-name="uni0475" unicode="&#x475;" horiz-adv-x="543" 
d="M185 0l-170 504h85l127 -398l99 312c17 60 60 94 116 94c34 0 63 -10 86 -29l-37 -63c-14 12 -29 18 -45 18c-20 0 -34 -12 -43 -37l-135 -401h-83z" />
    <glyph glyph-name="uni0432.loclBGR" horiz-adv-x="530" 
d="M75 228v268c0 143 89 212 198 212c104 0 185 -66 185 -171c0 -77 -41 -127 -97 -154c68 -25 118 -91 118 -175c0 -136 -82 -216 -203 -216c-127 0 -201 81 -201 236zM158 411h93c75 0 126 47 126 118c0 68 -40 107 -104 107c-65 0 -115 -38 -115 -141v-84zM396 204
c0 85 -51 133 -151 133h-87v-115c0 -103 39 -155 118 -155c77 0 120 48 120 137z" />
    <glyph glyph-name="uni0433.loclBGR" horiz-adv-x="433" 
d="M43 140c0 73 47 122 122 149c83 29 112 52 112 91c0 36 -29 58 -66 58c-39 0 -70 -18 -93 -53l-55 48c29 52 82 79 147 79c87 0 147 -52 147 -132c0 -76 -46 -121 -125 -146c-72 -25 -108 -48 -108 -95s30 -73 81 -73c61 0 97 36 117 100l69 -37
c-23 -79 -85 -137 -186 -137c-97 0 -162 55 -162 148z" />
    <glyph glyph-name="uni0434.loclBGR" horiz-adv-x="577" 
d="M61 -67l77 25c22 -64 70 -96 145 -96c80 0 137 50 137 141v38v35c-32 -47 -88 -76 -147 -76c-146 0 -227 108 -227 256s80 256 227 256c61 0 123 -33 147 -69v30v31h82v-498c0 -135 -84 -218 -219 -218c-115 0 -193 56 -222 145zM427 256c0 109 -55 182 -147 182
s-148 -73 -148 -182c0 -107 57 -182 148 -182c92 0 147 75 147 182z" />
    <glyph glyph-name="uni0436.loclBGR" horiz-adv-x="731" 
d="M10 0l229 273l-213 231h103l196 -215v419h82v-419l195 215h103l-213 -231l229 -273h-103l-211 256v-256h-82v256l-212 -256h-103z" />
    <glyph glyph-name="uni0437.loclBGR" horiz-adv-x="484" 
d="M38 -29l79 9c8 -69 51 -118 120 -118c73 0 119 57 119 146c0 85 -56 137 -144 137h-31v70h37c71 0 118 39 118 115c0 71 -40 110 -100 110c-56 0 -98 -31 -110 -98l-70 15c13 91 81 155 180 155c111 0 177 -66 177 -171c0 -76 -41 -132 -92 -156c69 -25 118 -93 118 -177
c0 -135 -88 -220 -202 -220c-111 0 -190 71 -199 183z" />
    <glyph glyph-name="uni0438.loclBGR" horiz-adv-x="555" 
d="M75 153v351h83v-333c0 -69 32 -105 92 -105c83 0 148 86 148 224v214h82v-504h-82v97c-36 -64 -99 -105 -168 -105c-95 0 -155 58 -155 161z" />
    <glyph glyph-name="uni0439.loclBGR" horiz-adv-x="555" 
d="M75 153v351h83v-333c0 -69 32 -105 92 -105c83 0 148 86 148 224v214h82v-504h-82v97c-36 -64 -99 -105 -168 -105c-95 0 -155 58 -155 161zM149 700h64c0 -51 21 -81 65 -81s65 30 65 81h64c0 -87 -48 -141 -129 -141s-129 54 -129 141z" />
    <glyph glyph-name="uni043A.loclBGR" horiz-adv-x="482" 
d="M75 0v708h83v-419l195 215h103l-213 -231l229 -273h-103l-211 256v-256h-83z" />
    <glyph glyph-name="uni043B.loclBGR" horiz-adv-x="453" 
d="M15 0l170 504h83l170 -504h-85l-126 398l-127 -398h-85z" />
    <glyph glyph-name="uni043F.loclBGR" horiz-adv-x="555" 
d="M75 0v504h83v-97c36 64 99 105 167 105c95 0 155 -58 155 -161v-351h-82v333c0 69 -32 105 -93 105c-82 0 -147 -86 -147 -223v-215h-83z" />
    <glyph glyph-name="uni0442.loclBGR" horiz-adv-x="832" 
d="M75 0v504h83v-97c35 65 87 105 155 105c72 0 121 -37 138 -109c35 65 96 109 161 109c97 0 145 -54 145 -162v-350h-82v337c0 69 -24 101 -81 101c-76 0 -137 -86 -137 -225v-213h-82v337c0 69 -22 101 -81 101c-76 0 -136 -85 -136 -229v-209h-83z" />
    <glyph glyph-name="uni0446.loclBGR" horiz-adv-x="580" 
d="M473 -124v124h-75v97c-36 -64 -99 -105 -168 -105c-95 0 -155 58 -155 161v351h83v-333c0 -69 32 -105 92 -105c83 0 148 86 148 224v214h82v-430h72v-198h-79z" />
    <glyph glyph-name="uni0448.loclBGR" horiz-adv-x="832" 
d="M75 154v350h83v-337c0 -69 23 -101 80 -101c76 0 137 86 137 225v213h82v-337c0 -69 24 -101 81 -101c76 0 137 85 137 229v209h82v-504h-82v97c-35 -65 -87 -105 -155 -105c-72 0 -122 37 -139 109c-35 -65 -96 -109 -161 -109c-96 0 -145 57 -145 162z" />
    <glyph glyph-name="uni0449.loclBGR" horiz-adv-x="857" 
d="M750 -124v124h-75v97c-35 -65 -87 -105 -155 -105c-72 0 -122 37 -139 109c-35 -65 -96 -109 -161 -109c-96 0 -145 57 -145 162v350h83v-337c0 -69 23 -101 80 -101c76 0 137 86 137 225v213h82v-337c0 -69 24 -101 81 -101c76 0 137 85 137 229v209h82v-430h72v-198
h-79z" />
    <glyph glyph-name="uni044C.loclBGR" horiz-adv-x="500" 
d="M75 182v322h83v-190c33 9 67 14 103 14c121 0 188 -63 188 -166c0 -98 -83 -170 -190 -170c-113 0 -184 66 -184 190zM366 161c0 60 -45 94 -113 94c-35 0 -67 -5 -95 -15v-59c0 -76 34 -115 101 -115c65 0 107 39 107 95z" />
    <glyph glyph-name="uni044A.loclBGR" horiz-adv-x="561" 
d="M143 182v248h-121v74h203v-190c34 9 68 14 103 14c121 0 189 -65 189 -166c0 -98 -83 -170 -190 -170c-113 0 -184 66 -184 190zM434 161c0 60 -45 94 -114 94c-35 0 -67 -5 -95 -15v-59c0 -76 35 -115 102 -115c65 0 107 39 107 95z" />
    <glyph glyph-name="uni044E.loclBGR" horiz-adv-x="756" 
d="M710 252c0 -143 -91 -260 -236 -260c-138 0 -228 104 -236 239h-80v-231h-83v708h83v-403h83c11 61 36 110 77 149s93 58 156 58c145 0 236 -117 236 -260zM624 252c0 53 -13 98 -40 133c-26 35 -63 53 -110 53s-84 -18 -111 -53c-26 -35 -39 -80 -39 -133
s13 -98 39 -133c27 -35 64 -53 111 -53s84 18 110 53c27 35 40 80 40 133z" />
    <glyph glyph-name="uni04570457" horiz-adv-x="466" 
d="M-25 641c0 32 24 57 56 57s56 -25 56 -57s-23 -56 -56 -56s-56 24 -56 56zM110 641c0 32 24 57 56 57s56 -25 56 -57s-24 -56 -56 -56c-33 0 -56 24 -56 56zM244 641c0 32 24 57 56 57c33 0 57 -25 57 -57s-24 -56 -57 -56c-32 0 -56 24 -56 56zM379 641
c0 32 24 57 56 57s56 -25 56 -57s-24 -56 -56 -56s-56 24 -56 56zM75 0v504h83v-504h-83zM308 0v504h83v-504h-83z" />
    <glyph glyph-name="Alpha" unicode="&#x391;" horiz-adv-x="600" 
d="M11 0l248 700h82l247 -700h-91l-64 188h-266l-64 -188h-92zM193 269h214l-107 314z" />
    <glyph glyph-name="Beta" unicode="&#x392;" horiz-adv-x="609" 
d="M87 0v700h235c123 0 196 -66 196 -182c0 -67 -33 -112 -81 -135c72 -28 117 -86 117 -178c0 -127 -84 -205 -220 -205h-247zM174 412h146c75 0 112 34 112 103s-38 104 -113 104h-145v-207zM174 81h148c96 0 144 38 144 125s-48 125 -144 125h-148v-250z" />
    <glyph glyph-name="Gamma" unicode="&#x393;" horiz-adv-x="522" 
d="M87 0v700h407v-81h-320v-619h-87z" />
    <glyph glyph-name="uni0394" unicode="&#x394;" horiz-adv-x="600" 
d="M341 700l247 -700h-577l248 700h82zM130 81h340l-170 502z" />
    <glyph glyph-name="Epsilon" unicode="&#x395;" horiz-adv-x="558" 
d="M87 0v700h407v-81h-320v-206h260v-80h-260v-252h330v-81h-417z" />
    <glyph glyph-name="Zeta" unicode="&#x396;" horiz-adv-x="544" 
d="M41 0v41l336 578h-323v81h440v-41l-332 -578h341v-81h-462z" />
    <glyph glyph-name="Eta" unicode="&#x397;" horiz-adv-x="678" 
d="M87 0v700h87v-286h331v286h87v-700h-87v333h-331v-333h-87z" />
    <glyph glyph-name="Theta" unicode="&#x398;" horiz-adv-x="729" 
d="M50 350c-3 222 145 360 315 358c168 2 317 -136 314 -358c3 -222 -146 -360 -314 -358c-170 -2 -318 136 -315 358zM590 350c0 182 -99 277 -225 277s-225 -95 -225 -277s99 -277 225 -277s225 95 225 277zM240 315v70h250v-70h-250z" />
    <glyph glyph-name="Iota" unicode="&#x399;" horiz-adv-x="260" 
d="M87 0v700h87v-700h-87z" />
    <glyph glyph-name="Kappa" unicode="&#x39a;" horiz-adv-x="582" 
d="M87 0v700h87v-286l262 286h108l-286 -314l310 -386h-109l-285 359v-359h-87z" />
    <glyph glyph-name="Lambda" unicode="&#x39b;" horiz-adv-x="600" 
d="M11 0l248 700h82l247 -700h-91l-197 583l-197 -583h-92z" />
    <glyph glyph-name="Mu" unicode="&#x39c;" horiz-adv-x="767" 
d="M87 0v700h103l194 -498l194 498h102v-700h-86v527l-181 -463h-59l-180 463v-527h-87z" />
    <glyph glyph-name="Nu" unicode="&#x39d;" horiz-adv-x="675" 
d="M87 0v700h97l318 -552v552h86v-700h-97l-317 550v-550h-87z" />
    <glyph glyph-name="Xi" unicode="&#x39e;" horiz-adv-x="546" 
d="M61 619v81h425v-81h-425zM112 333v80h322v-80h-322zM54 0v81h438v-81h-438z" />
    <glyph glyph-name="Omicron" unicode="&#x39f;" horiz-adv-x="729" 
d="M50 350c-3 222 145 360 315 358c168 2 317 -136 314 -358c3 -222 -146 -360 -314 -358c-170 -2 -318 136 -315 358zM590 350c0 182 -99 277 -225 277s-225 -95 -225 -277s99 -277 225 -277s225 95 225 277z" />
    <glyph glyph-name="Pi" unicode="&#x3a0;" horiz-adv-x="672" 
d="M87 0v700h498v-700h-87v619h-324v-619h-87z" />
    <glyph glyph-name="Rho" unicode="&#x3a1;" horiz-adv-x="581" 
d="M87 0v700h246c132 0 208 -76 208 -199c0 -124 -76 -200 -208 -200h-159v-301h-87zM174 382h158c81 0 119 44 119 119c0 73 -38 118 -119 118h-158v-237z" />
    <glyph glyph-name="Sigma" unicode="&#x3a3;" horiz-adv-x="539" 
d="M55 0v41l206 309l-206 309v41h422v-81h-296l169 -258v-22l-169 -258h304v-81h-430z" />
    <glyph glyph-name="Tau" unicode="&#x3a4;" horiz-adv-x="552" 
d="M233 0v619h-205v81h496v-81h-205v-619h-86z" />
    <glyph glyph-name="Upsilon" unicode="&#x3a5;" horiz-adv-x="525" 
d="M219 0v302l-208 398h98l154 -312l154 312h97l-208 -398v-302h-87z" />
    <glyph glyph-name="Phi" unicode="&#x3a6;" horiz-adv-x="761" 
d="M337 0v73c-163 0 -287 109 -287 277s124 277 287 277v73h87v-73c163 0 287 -109 287 -277s-124 -277 -287 -277v-73h-87zM337 154v393c-117 0 -197 -73 -197 -197s80 -196 197 -196zM622 350c0 124 -79 197 -198 197v-393c119 0 198 72 198 196z" />
    <glyph glyph-name="Chi" unicode="&#x3a7;" horiz-adv-x="572" 
d="M15 0l223 383l-183 317h95l136 -236l135 236h96l-184 -317l224 -383h-96l-175 300l-175 -300h-96z" />
    <glyph glyph-name="Psi" unicode="&#x3a8;" horiz-adv-x="736" 
d="M325 0v186c-159 0 -249 107 -249 259v255h87v-255c0 -108 61 -177 158 -178h4v433h87v-433h3c97 1 158 70 158 178v255h87v-255c0 -77 -22 -140 -65 -187s-104 -71 -183 -72v-186h-87z" />
    <glyph glyph-name="uni03A9" unicode="&#x3a9;" horiz-adv-x="681" 
d="M39 0v78h154c-96 91 -161 189 -161 320c0 179 120 310 309 310c188 0 308 -131 308 -310c0 -131 -65 -229 -161 -320h154v-78h-253v78c116 97 171 191 171 316c0 141 -90 233 -219 233c-130 0 -219 -92 -219 -233c0 -125 55 -219 170 -316v-78h-253z" />
    <glyph glyph-name="Alphatonos" unicode="&#x386;" horiz-adv-x="600" 
d="M11 0l248 700h82l247 -700h-91l-64 188h-266l-64 -188h-92zM193 269h214l-107 314zM16 557l45 143h116l-97 -143h-64z" />
    <glyph glyph-name="Epsilontonos" unicode="&#x388;" horiz-adv-x="558" 
d="M87 0v700h407v-81h-320v-206h260v-80h-260v-252h330v-81h-417zM-124 557l45 143h116l-97 -143h-64z" />
    <glyph glyph-name="Etatonos" unicode="&#x389;" horiz-adv-x="678" 
d="M87 0v700h87v-286h331v286h87v-700h-87v333h-331v-333h-87zM-124 557l45 143h116l-97 -143h-64z" />
    <glyph glyph-name="Iotatonos" unicode="&#x38a;" horiz-adv-x="260" 
d="M87 0v700h87v-700h-87zM-124 557l45 143h116l-97 -143h-64z" />
    <glyph glyph-name="Omicrontonos" unicode="&#x38c;" horiz-adv-x="729" 
d="M50 350c-3 222 145 360 315 358c168 2 317 -136 314 -358c3 -222 -146 -360 -314 -358c-170 -2 -318 136 -315 358zM590 350c0 182 -99 277 -225 277s-225 -95 -225 -277s99 -277 225 -277s225 95 225 277zM-71 557l45 143h116l-97 -143h-64z" />
    <glyph glyph-name="Upsilontonos" unicode="&#x38e;" horiz-adv-x="525" 
d="M219 0v302l-208 398h98l154 -312l154 312h97l-208 -398v-302h-87zM-170 557l45 143h116l-97 -143h-64z" />
    <glyph glyph-name="Omegatonos" unicode="&#x38f;" horiz-adv-x="681" 
d="M39 0v78h154c-96 91 -161 189 -161 320c0 179 120 310 309 310c188 0 308 -131 308 -310c0 -131 -65 -229 -161 -320h154v-78h-253v78c116 97 171 191 171 316c0 141 -90 233 -219 233c-130 0 -219 -92 -219 -233c0 -125 55 -219 170 -316v-78h-253zM-100 557l45 143h116
l-97 -143h-64z" />
    <glyph glyph-name="Iotadieresis" unicode="&#x3aa;" horiz-adv-x="260" 
d="M87 0v700h87v-700h-87zM-11 837c0 32 24 57 56 57s56 -25 56 -57s-24 -56 -56 -56c-33 0 -56 24 -56 56zM160 837c0 32 24 57 55 57c33 0 57 -25 57 -57s-24 -56 -57 -56c-31 0 -55 24 -55 56z" />
    <glyph glyph-name="Upsilondieresis" unicode="&#x3ab;" horiz-adv-x="525" 
d="M219 0v302l-208 398h98l154 -312l154 312h97l-208 -398v-302h-87zM122 837c0 32 24 57 56 57s56 -25 56 -57s-24 -56 -56 -56c-33 0 -56 24 -56 56zM293 837c0 32 24 57 55 57c33 0 57 -25 57 -57s-24 -56 -57 -56c-31 0 -55 24 -55 56z" />
    <glyph glyph-name="alpha" unicode="&#x3b1;" horiz-adv-x="577" 
d="M46 252c0 150 81 260 223 260c64 0 118 -27 151 -71v30v33h82v-504h-82v36v30c-25 -40 -87 -74 -151 -74c-142 0 -223 110 -223 260zM427 252c0 111 -55 186 -147 186s-148 -75 -148 -186s56 -186 148 -186s147 74 147 186z" />
    <glyph glyph-name="beta" unicode="&#x3b2;" horiz-adv-x="546" 
d="M75 -204v703c0 133 86 209 196 209c112 0 185 -72 185 -176c0 -68 -43 -126 -95 -141c76 -20 139 -86 139 -187c0 -131 -86 -212 -206 -212c-59 0 -113 26 -136 62v-258h-83zM418 203c0 93 -63 142 -156 142h-32v74h32c71 0 114 42 114 110c0 64 -44 105 -105 105
c-69 0 -113 -40 -113 -127v-298c0 -92 49 -143 129 -143c87 0 131 54 131 137z" />
    <glyph glyph-name="gamma" unicode="&#x3b3;" horiz-adv-x="461" 
d="M189 -204v213l-174 495h85l131 -389l131 389h84l-175 -495v-213h-82z" />
    <glyph glyph-name="delta" unicode="&#x3b4;" horiz-adv-x="577" 
d="M46 252c0 133 89 245 218 255l-158 121v72h369v-76h-243l179 -139c83 -65 120 -141 120 -233c2 -137 -96 -263 -242 -260c-146 -3 -245 123 -243 260zM445 252c0 98 -57 186 -156 186s-157 -88 -157 -186s58 -186 157 -186s156 88 156 186z" />
    <glyph glyph-name="epsilon" unicode="&#x3b5;" horiz-adv-x="431" 
d="M44 143c0 63 36 103 88 124c-44 21 -68 62 -68 111c0 79 61 134 156 134c85 0 143 -45 156 -118l-71 -17c-11 43 -39 65 -84 65c-48 0 -81 -27 -81 -70c0 -47 34 -75 89 -75h26v-64h-26c-64 0 -103 -30 -103 -86c0 -49 40 -82 93 -82s86 27 99 82l75 -12
c-12 -87 -77 -143 -174 -143c-99 0 -175 63 -175 151z" />
    <glyph glyph-name="zeta" unicode="&#x3b6;" horiz-adv-x="470" 
d="M127 -152l47 68c27 -37 65 -55 113 -55c51 0 87 27 87 78c0 47 -31 77 -99 77h-45c-112 0 -192 66 -192 183c0 75 33 135 104 211l201 216h-280v74h388v-66l-246 -267c-59 -64 -83 -108 -83 -164c0 -75 47 -114 124 -114h42c105 0 171 -59 171 -148
c0 -85 -65 -153 -172 -153c-67 0 -120 20 -160 60z" />
    <glyph glyph-name="eta" unicode="&#x3b7;" horiz-adv-x="555" 
d="M398 -204v537c0 69 -32 105 -93 105c-82 0 -147 -86 -147 -223v-215h-83v504h83v-97c36 64 99 105 167 105c95 0 155 -58 155 -161v-555h-82z" />
    <glyph glyph-name="theta" unicode="&#x3b8;" horiz-adv-x="618" 
d="M46 350c0 219 101 358 263 358s263 -139 263 -358s-101 -358 -263 -358s-263 139 -263 358zM134 387h351c-8 161 -72 247 -176 247s-168 -86 -175 -247zM485 313h-351c7 -161 71 -247 175 -247s168 86 176 247z" />
    <glyph glyph-name="iota" unicode="&#x3b9;" horiz-adv-x="233" 
d="M75 0v504h83v-504h-83z" />
    <glyph glyph-name="kappa" unicode="&#x3ba;" horiz-adv-x="482" 
d="M75 0v504h83v-215l195 215h103l-213 -231l229 -273h-103l-211 256v-256h-83z" />
    <glyph glyph-name="lambda" unicode="&#x3bb;" horiz-adv-x="458" 
d="M10 0l182 494l-27 75c-19 49 -39 66 -76 66c-11 0 -21 -2 -30 -6l-18 69c20 7 39 10 56 10c65 0 110 -35 135 -106l216 -602h-84l-130 378l-139 -378h-85z" />
    <glyph glyph-name="uni03BC" unicode="&#x3bc;" horiz-adv-x="555" 
d="M75 -204v708h83v-333c0 -69 32 -105 92 -105c83 0 148 86 148 224v214h82v-504h-82v97c-33 -65 -88 -105 -153 -105c-39 0 -71 14 -87 37v-233h-83z" />
    <glyph glyph-name="nu" unicode="&#x3bd;" horiz-adv-x="453" 
d="M185 0l-170 504h85l127 -398l126 398h85l-170 -504h-83z" />
    <glyph glyph-name="xi" unicode="&#x3be;" horiz-adv-x="472" 
d="M114 -127l51 52c39 -48 74 -64 115 -64c52 0 88 26 88 78c0 48 -31 77 -99 77h-27c-109 0 -196 74 -196 195c0 88 50 144 115 171c-57 28 -94 80 -94 149c0 94 78 177 199 177c101 0 178 -55 195 -158l-79 -18c-13 65 -53 102 -116 102c-68 0 -115 -43 -115 -108
c0 -64 48 -107 124 -107h69v-72h-75c-79 0 -139 -47 -139 -132c0 -84 56 -126 131 -126h25c104 0 167 -53 167 -146c0 -89 -70 -155 -173 -155c-67 0 -123 28 -166 85z" />
    <glyph glyph-name="omicron" unicode="&#x3bf;" horiz-adv-x="577" 
d="M46 252c-2 137 97 263 243 260c146 3 244 -123 242 -260c2 -137 -96 -263 -242 -260c-146 -3 -245 123 -243 260zM445 252c0 98 -57 186 -156 186s-157 -88 -157 -186s58 -186 157 -186s156 88 156 186z" />
    <glyph glyph-name="pi" unicode="&#x3c0;" horiz-adv-x="567" 
d="M111 0v431h-87v73h519v-73h-87v-431h-82v431h-181v-431h-82z" />
    <glyph glyph-name="rho" unicode="&#x3c1;" horiz-adv-x="577" 
d="M75 -204v463c0 75 20 136 60 183c41 47 97 70 170 70c145 0 226 -110 226 -260s-81 -260 -226 -260c-57 0 -118 28 -147 71v-30v-237h-83zM445 252c0 112 -53 186 -144 186s-143 -74 -143 -186c0 -111 52 -186 143 -186s144 75 144 186z" />
    <glyph glyph-name="uni03C2" unicode="&#x3c2;" horiz-adv-x="528" 
d="M144 -165l45 67c29 -27 63 -41 100 -41c56 0 90 25 90 70c0 50 -28 75 -83 75h-16c-133 0 -234 101 -234 246c0 139 82 260 231 260c105 0 176 -47 211 -141l-74 -29c-28 64 -70 96 -137 96c-92 0 -145 -75 -145 -182c0 -115 77 -176 167 -176h20c85 0 145 -52 145 -144
c0 -87 -70 -148 -175 -148c-60 0 -108 16 -145 47z" />
    <glyph glyph-name="sigma" unicode="&#x3c3;" horiz-adv-x="580" 
d="M46 252c-2 137 97 263 243 260c23 0 44 -3 64 -8h217v-74h-104c43 -47 65 -111 65 -180c0 -137 -95 -258 -242 -258c-146 -3 -245 123 -243 260zM445 252c0 98 -57 186 -156 186s-157 -88 -157 -186s58 -186 157 -186s156 88 156 186z" />
    <glyph glyph-name="tau" unicode="&#x3c4;" horiz-adv-x="384" 
d="M151 0v430h-140v74h362v-74h-140v-430h-82z" />
    <glyph glyph-name="upsilon" unicode="&#x3c5;" horiz-adv-x="556" 
d="M75 212v292h83v-292c0 -101 47 -146 120 -146s120 45 120 146v292h82v-292c0 -144 -77 -220 -202 -220c-127 0 -203 76 -203 220z" />
    <glyph glyph-name="phi" unicode="&#x3c6;" horiz-adv-x="686" 
d="M302 -204v196c-154 0 -256 115 -256 260c0 142 99 254 256 260v105h82v-105c157 -6 256 -118 256 -260c0 -145 -102 -260 -256 -260v-196h-82zM297 66h5v372h-5c-100 0 -165 -75 -165 -186s65 -186 165 -186zM384 66h5c100 0 165 75 165 186s-65 186 -165 186h-5v-372z
" />
    <glyph glyph-name="chi" unicode="&#x3c7;" horiz-adv-x="445" 
d="M9 0l169 273l-143 231h89l98 -160l99 160h89l-143 -231l169 -273h-86l-128 202l-127 -202h-86z" />
    <glyph glyph-name="psi" unicode="&#x3c8;" horiz-adv-x="715" 
d="M316 -204v196c-151 0 -241 102 -241 250v262h83v-264c0 -104 63 -174 158 -174v551h82v-551c95 0 159 70 159 174v264h82v-262c0 -148 -90 -250 -241 -250v-196h-82z" />
    <glyph glyph-name="omega" unicode="&#x3c9;" horiz-adv-x="742" 
d="M40 215c0 111 37 196 106 297l69 -48c-60 -85 -89 -160 -89 -249c0 -101 46 -149 106 -149c64 0 98 52 98 128v180h82v-180c0 -76 34 -128 98 -128c60 0 106 48 106 149c0 89 -29 164 -89 249l69 48c69 -101 106 -186 106 -297c0 -151 -86 -223 -182 -223
c-73 0 -122 34 -149 101c-27 -67 -76 -101 -149 -101c-96 0 -182 72 -182 223z" />
    <glyph glyph-name="iotatonos" unicode="&#x3af;" horiz-adv-x="233" 
d="M75 0v504h83v-504h-83zM81 560l45 143h116l-97 -143h-64z" />
    <glyph glyph-name="iotadieresis" unicode="&#x3ca;" horiz-adv-x="233" 
d="M75 0v504h83v-504h-83zM-24 641c0 32 24 57 56 57s56 -25 56 -57s-24 -56 -56 -56c-33 0 -56 24 -56 56zM147 641c0 32 24 57 55 57c33 0 57 -25 57 -57s-24 -56 -57 -56c-31 0 -55 24 -55 56z" />
    <glyph glyph-name="iotadieresistonos" unicode="&#x390;" horiz-adv-x="233" 
d="M75 0v504h83v-504h-83zM52 560l44 143h93l-86 -143h-51zM-47 630c0 27 21 47 46 47c28 0 47 -20 47 -47c0 -25 -19 -45 -47 -45c-25 0 -46 20 -46 45zM187 630c0 25 21 47 46 47c27 0 47 -20 47 -47c0 -25 -20 -45 -47 -45c-25 0 -46 20 -46 45z" />
    <glyph glyph-name="upsilontonos" unicode="&#x3cd;" horiz-adv-x="556" 
d="M75 212v292h83v-292c0 -101 47 -146 120 -146s120 45 120 146v292h82v-292c0 -144 -77 -220 -202 -220c-127 0 -203 76 -203 220zM242 560l45 143h116l-97 -143h-64z" />
    <glyph glyph-name="upsilondieresis" unicode="&#x3cb;" horiz-adv-x="556" 
d="M75 212v292h83v-292c0 -101 47 -146 120 -146s120 45 120 146v292h82v-292c0 -144 -77 -220 -202 -220c-127 0 -203 76 -203 220zM137 641c0 32 24 57 56 57s56 -25 56 -57s-24 -56 -56 -56c-33 0 -56 24 -56 56zM308 641c0 32 24 57 55 57c33 0 57 -25 57 -57
s-24 -56 -57 -56c-31 0 -55 24 -55 56z" />
    <glyph glyph-name="upsilondieresistonos" unicode="&#x3b0;" horiz-adv-x="556" 
d="M75 212v292h83v-292c0 -101 47 -146 120 -146s120 45 120 146v292h82v-292c0 -144 -77 -220 -202 -220c-127 0 -203 76 -203 220zM213 560l44 143h93l-86 -143h-51zM114 630c0 27 21 47 46 47c28 0 47 -20 47 -47c0 -25 -19 -45 -47 -45c-25 0 -46 20 -46 45zM348 630
c0 25 21 47 46 47c27 0 47 -20 47 -47c0 -25 -20 -45 -47 -45c-25 0 -46 20 -46 45z" />
    <glyph glyph-name="omicrontonos" unicode="&#x3cc;" horiz-adv-x="577" 
d="M46 252c-2 137 97 263 243 260c146 3 244 -123 242 -260c2 -137 -96 -263 -242 -260c-146 -3 -245 123 -243 260zM445 252c0 98 -57 186 -156 186s-157 -88 -157 -186s58 -186 157 -186s156 88 156 186zM253 560l45 143h116l-97 -143h-64z" />
    <glyph glyph-name="omegatonos" unicode="&#x3ce;" horiz-adv-x="742" 
d="M40 215c0 111 37 196 106 297l69 -48c-60 -85 -89 -160 -89 -249c0 -101 46 -149 106 -149c64 0 98 52 98 128v180h82v-180c0 -76 34 -128 98 -128c60 0 106 48 106 149c0 89 -29 164 -89 249l69 48c69 -101 106 -186 106 -297c0 -151 -86 -223 -182 -223
c-73 0 -122 34 -149 101c-27 -67 -76 -101 -149 -101c-96 0 -182 72 -182 223zM335 560l45 143h116l-97 -143h-64z" />
    <glyph glyph-name="alphatonos" unicode="&#x3ac;" horiz-adv-x="577" 
d="M46 252c0 150 81 260 223 260c64 0 118 -27 151 -71v30v33h82v-504h-82v36v30c-25 -40 -87 -74 -151 -74c-142 0 -223 110 -223 260zM427 252c0 111 -55 186 -147 186s-148 -75 -148 -186s56 -186 148 -186s147 74 147 186zM244 560l45 143h116l-97 -143h-64z" />
    <glyph glyph-name="epsilontonos" unicode="&#x3ad;" horiz-adv-x="431" 
d="M44 143c0 63 36 103 88 124c-44 21 -68 62 -68 111c0 79 61 134 156 134c85 0 143 -45 156 -118l-71 -17c-11 43 -39 65 -84 65c-48 0 -81 -27 -81 -70c0 -47 34 -75 89 -75h26v-64h-26c-64 0 -103 -30 -103 -86c0 -49 40 -82 93 -82s86 27 99 82l75 -12
c-12 -87 -77 -143 -174 -143c-99 0 -175 63 -175 151zM182 560l45 143h116l-97 -143h-64z" />
    <glyph glyph-name="etatonos" unicode="&#x3ae;" horiz-adv-x="555" 
d="M398 -204v537c0 69 -32 105 -93 105c-82 0 -147 -86 -147 -223v-215h-83v504h83v-97c36 64 99 105 167 105c95 0 155 -58 155 -161v-555h-82zM253 560l45 143h116l-97 -143h-64z" />
    <glyph glyph-name="lambda_lambda" horiz-adv-x="812" 
d="M586 602l216 -602h-84l-130 378l-139 -378h-85l-130 378l-139 -378h-85l182 494l-27 75c-17 49 -39 66 -76 66c-11 0 -21 -2 -30 -6l-18 69c20 7 39 10 56 10c65 0 110 -35 135 -106l175 -486l139 378l-27 75c-19 49 -39 66 -76 66c-11 0 -21 -2 -30 -6l-18 69
c20 7 39 10 56 10c65 0 110 -35 135 -106z" />
    <glyph glyph-name="zero" unicode="0" horiz-adv-x="601" 
d="M54 350c0 111 21 198 63 262c43 64 104 96 184 96c160 0 246 -135 246 -358s-86 -358 -246 -358c-80 0 -141 32 -184 96c-42 64 -63 151 -63 262zM464 350c0 173 -59 283 -163 283c-105 0 -163 -110 -163 -283s58 -282 163 -282c104 0 163 109 163 282z" />
    <glyph glyph-name="one" unicode="1" horiz-adv-x="341" 
d="M172 0v576l-122 -75v90l176 109h29v-700h-83z" />
    <glyph glyph-name="two" unicode="2" horiz-adv-x="499" 
d="M30 0v32l253 328c28 35 47 63 56 84c10 21 15 45 15 72c0 72 -43 117 -112 117c-65 0 -110 -50 -121 -126l-77 15c8 108 90 186 199 186c117 0 195 -73 195 -192c0 -61 -26 -117 -77 -181l-200 -259h293v-76h-424z" />
    <glyph glyph-name="three" unicode="3" horiz-adv-x="539" 
d="M46 193l81 11c12 -84 61 -136 140 -136c91 0 142 57 142 150c0 97 -53 152 -141 152c-23 0 -43 -6 -62 -17l-37 49l165 223h-254v75h378v-26l-181 -242c7 2 15 3 26 3c105 0 190 -83 190 -217s-90 -226 -226 -226c-120 0 -208 77 -221 201z" />
    <glyph glyph-name="four" unicode="4" horiz-adv-x="550" 
d="M349 0v151h-306v32l295 517h94v-474h88v-75h-88v-151h-83zM152 226h197v354z" />
    <glyph glyph-name="five" unicode="5" horiz-adv-x="512" 
d="M44 184l80 14c14 -87 59 -130 135 -130c87 0 133 60 133 161c0 105 -49 161 -132 161c-63 0 -111 -33 -144 -84l-55 12l37 382h337v-75h-266l-21 -204c32 29 73 43 124 43c127 0 204 -91 204 -235c0 -139 -85 -237 -217 -237c-117 0 -200 69 -215 192z" />
    <glyph glyph-name="six" unicode="6" horiz-adv-x="539" 
d="M46 220c0 46 14 93 41 141l201 347h89l-154 -271c11 7 33 11 49 11c129 0 220 -97 220 -228c0 -129 -93 -228 -223 -228c-129 0 -223 99 -223 228zM408 220c0 93 -56 153 -139 153c-81 0 -139 -60 -139 -153c0 -89 59 -152 139 -152c81 0 139 63 139 152z" />
    <glyph glyph-name="seven" unicode="7" horiz-adv-x="464" 
d="M76 0l258 625h-301v75h400v-30l-273 -670h-84z" />
    <glyph glyph-name="eight" unicode="8" horiz-adv-x="528" 
d="M48 200c0 83 43 150 106 177c-49 29 -81 81 -81 146c0 106 78 185 191 185s191 -79 191 -185c0 -64 -33 -115 -81 -146c63 -27 106 -94 106 -177c0 -131 -99 -208 -216 -208s-216 77 -216 208zM375 522c0 69 -44 114 -111 114s-111 -45 -111 -114s44 -114 111 -114
s111 45 111 114zM396 200c0 83 -53 133 -132 133s-132 -50 -132 -133s53 -132 132 -132c80 0 132 49 132 132z" />
    <glyph glyph-name="nine" unicode="9" horiz-adv-x="539" 
d="M161 -8l155 271c-11 -7 -33 -11 -49 -11c-129 0 -221 97 -221 228c0 129 94 228 223 228s223 -99 223 -228c0 -41 -13 -87 -36 -127l-206 -361h-89zM408 480c0 45 -13 81 -40 110c-26 29 -59 43 -99 43s-73 -14 -100 -43c-26 -29 -39 -65 -39 -110
c0 -93 58 -152 139 -152c83 0 139 59 139 152z" />
    <glyph glyph-name="zero.osf" horiz-adv-x="577" 
d="M46 252c-2 137 97 263 243 260c146 3 244 -123 242 -260c2 -137 -96 -263 -242 -260c-146 -3 -245 123 -243 260zM445 252c0 98 -57 186 -156 186s-157 -88 -157 -186s58 -186 157 -186s156 88 156 186z" />
    <glyph glyph-name="one.osf" horiz-adv-x="326" 
d="M168 0v375l-122 -75v95l176 109h29v-504h-83z" />
    <glyph glyph-name="two.osf" horiz-adv-x="433" 
d="M36 0v32l156 160l22 22c31 31 52 56 63 73c11 18 17 39 17 64c0 57 -33 86 -84 86c-56 0 -92 -34 -100 -99l-76 14c4 93 79 160 176 160c100 0 166 -60 166 -159c0 -33 -9 -63 -26 -90c-17 -26 -46 -59 -85 -99l-87 -88h222v-76h-364z" />
    <glyph glyph-name="three.osf" horiz-adv-x="539" 
d="M46 -3l81 11c12 -84 61 -136 140 -136c91 0 142 57 142 150c0 97 -53 152 -141 152c-23 0 -43 -6 -62 -17l-37 49l165 223h-254v75h378v-26l-181 -242c7 2 15 3 26 3c105 0 190 -83 190 -217s-90 -226 -226 -226c-120 0 -208 77 -221 201z" />
    <glyph glyph-name="four.osf" horiz-adv-x="550" 
d="M349 -196v151h-306v32l295 517h94v-474h88v-75h-88v-151h-83zM152 30h197v354z" />
    <glyph glyph-name="five.osf" horiz-adv-x="512" 
d="M44 -12l80 14c14 -87 59 -130 135 -130c87 0 133 60 133 161c0 105 -49 161 -132 161c-63 0 -111 -33 -144 -84l-55 12l37 382h337v-75h-266l-21 -204c32 29 73 43 124 43c127 0 204 -91 204 -235c0 -139 -85 -237 -217 -237c-117 0 -200 69 -215 192z" />
    <glyph glyph-name="six.osf" horiz-adv-x="539" 
d="M46 220c0 46 14 93 41 141l201 347h89l-154 -271c11 7 33 11 49 11c129 0 220 -97 220 -228c0 -129 -93 -228 -223 -228c-129 0 -223 99 -223 228zM408 220c0 93 -56 153 -139 153c-81 0 -139 -60 -139 -153c0 -89 59 -152 139 -152c81 0 139 63 139 152z" />
    <glyph glyph-name="seven.osf" horiz-adv-x="464" 
d="M76 -196l258 625h-301v75h400v-30l-273 -670h-84z" />
    <glyph glyph-name="eight.osf" horiz-adv-x="528" 
d="M48 200c0 83 43 150 106 177c-49 29 -81 81 -81 146c0 106 78 185 191 185s191 -79 191 -185c0 -64 -33 -115 -81 -146c63 -27 106 -94 106 -177c0 -131 -99 -208 -216 -208s-216 77 -216 208zM375 522c0 69 -44 114 -111 114s-111 -45 -111 -114s44 -114 111 -114
s111 45 111 114zM396 200c0 83 -53 133 -132 133s-132 -50 -132 -133s53 -132 132 -132c80 0 132 49 132 132z" />
    <glyph glyph-name="nine.osf" horiz-adv-x="539" 
d="M161 -204l155 271c-11 -7 -33 -11 -49 -11c-129 0 -221 97 -221 228c0 129 94 228 223 228s223 -99 223 -228c0 -41 -13 -87 -36 -127l-206 -361h-89zM408 284c0 45 -13 81 -40 110c-26 29 -59 43 -99 43s-73 -14 -100 -43c-26 -29 -39 -65 -39 -110
c0 -93 58 -152 139 -152c83 0 139 59 139 152z" />
    <glyph glyph-name="zero.osf.zero" horiz-adv-x="577" 
d="M531 252c2 -137 -96 -263 -242 -260c-146 -3 -245 123 -243 260c-2 137 97 263 243 260c146 3 244 -123 242 -260zM132 252c0 -49 14 -96 42 -131l174 305c-17 8 -36 12 -59 12c-99 0 -157 -88 -157 -186zM445 252c0 48 -13 94 -40 129l-174 -304c18 -7 37 -11 58 -11
c99 0 156 88 156 186z" />
    <glyph glyph-name="zero.tf" 
d="M63 350c0 111 21 198 63 262c43 64 104 96 184 96c160 0 246 -135 246 -358s-86 -358 -246 -358c-80 0 -141 32 -184 96c-42 64 -63 151 -63 262zM473 350c0 173 -59 283 -163 283c-105 0 -163 -110 -163 -283s58 -282 163 -282c104 0 163 109 163 282z" />
    <glyph glyph-name="one.tf" 
d="M134 0v81h136v490l-122 -75v95l176 109h28v-619h134v-81h-352z" />
    <glyph glyph-name="two.tf" 
d="M98 0v32l253 328c28 35 47 63 56 84c10 21 15 45 15 72c0 72 -43 117 -112 117c-65 0 -110 -50 -121 -126l-77 15c8 108 90 186 199 186c117 0 195 -73 195 -192c0 -61 -26 -117 -77 -181l-200 -259h293v-76h-424z" />
    <glyph glyph-name="three.tf" 
d="M86 193l81 11c12 -84 61 -136 140 -136c91 0 142 57 142 150c0 97 -53 152 -141 152c-23 0 -43 -6 -62 -17l-37 49l165 223h-254v75h378v-26l-181 -242c7 2 15 3 26 3c105 0 190 -83 190 -217s-90 -226 -226 -226c-120 0 -208 77 -221 201z" />
    <glyph glyph-name="four.tf" 
d="M377 0v151h-306v32l295 517h94v-474h88v-75h-88v-151h-83zM180 226h197v354z" />
    <glyph glyph-name="five.tf" 
d="M93 184l80 14c14 -87 59 -130 135 -130c87 0 133 60 133 161c0 105 -49 161 -132 161c-63 0 -111 -33 -144 -84l-55 12l37 382h337v-75h-266l-21 -204c32 29 73 43 124 43c127 0 204 -91 204 -235c0 -139 -85 -237 -217 -237c-117 0 -200 69 -215 192z" />
    <glyph glyph-name="six.tf" 
d="M87 220c0 46 14 93 41 141l201 347h89l-154 -271c11 7 33 11 49 11c129 0 220 -97 220 -228c0 -129 -93 -228 -223 -228c-129 0 -223 99 -223 228zM449 220c0 93 -56 153 -139 153c-81 0 -139 -60 -139 -153c0 -89 59 -152 139 -152c81 0 139 63 139 152z" />
    <glyph glyph-name="seven.tf" 
d="M153 0l258 625h-301v75h400v-30l-273 -670h-84z" />
    <glyph glyph-name="eight.tf" 
d="M94 200c0 83 43 150 106 177c-49 29 -81 81 -81 146c0 106 78 185 191 185s191 -79 191 -185c0 -64 -33 -115 -81 -146c63 -27 106 -94 106 -177c0 -131 -99 -208 -216 -208s-216 77 -216 208zM421 522c0 69 -44 114 -111 114s-111 -45 -111 -114s44 -114 111 -114
s111 45 111 114zM442 200c0 83 -53 133 -132 133s-132 -50 -132 -133s53 -132 132 -132c80 0 132 49 132 132z" />
    <glyph glyph-name="nine.tf" 
d="M202 -8l155 271c-11 -7 -33 -11 -49 -11c-129 0 -221 97 -221 228c0 129 94 228 223 228s223 -99 223 -228c0 -41 -13 -87 -36 -127l-206 -361h-89zM449 480c0 45 -13 81 -40 110c-26 29 -59 43 -99 43s-73 -14 -100 -43c-26 -29 -39 -65 -39 -110
c0 -93 58 -152 139 -152c83 0 139 59 139 152z" />
    <glyph glyph-name="zero.tf.zero" 
d="M63 350c0 111 21 198 63 262c43 64 104 96 184 96c160 0 246 -135 246 -358s-86 -358 -246 -358c-80 0 -141 32 -184 96c-42 64 -63 151 -63 262zM174 179l227 416c-27 25 -57 38 -91 38c-105 0 -163 -110 -163 -283c0 -69 9 -126 27 -171zM473 350c0 67 -9 124 -28 172
l-227 -416c25 -25 56 -38 92 -38c104 0 163 109 163 282z" />
    <glyph glyph-name="zero.tosf" 
d="M67 252c-2 137 97 263 243 260c146 3 244 -123 242 -260c2 -137 -96 -263 -242 -260c-146 -3 -245 123 -243 260zM466 252c0 98 -57 186 -156 186s-157 -88 -157 -186s58 -186 157 -186s156 88 156 186z" />
    <glyph glyph-name="one.tosf" 
d="M127 0v76h143v299l-122 -75v95l176 109h29v-428h140v-76h-366z" />
    <glyph glyph-name="two.tosf" 
d="M129 0v32l156 160l22 22c31 31 52 56 63 73c11 18 17 39 17 64c0 57 -33 86 -84 86c-56 0 -92 -34 -100 -99l-76 14c4 93 79 160 176 160c100 0 166 -60 166 -159c0 -33 -9 -63 -26 -90c-17 -26 -46 -59 -85 -99l-87 -88h222v-76h-364z" />
    <glyph glyph-name="three.tosf" 
d="M86 -3l81 11c12 -84 61 -136 140 -136c91 0 142 57 142 150c0 97 -53 152 -141 152c-23 0 -43 -6 -62 -17l-37 49l165 223h-254v75h378v-26l-181 -242c7 2 15 3 26 3c105 0 190 -83 190 -217s-90 -226 -226 -226c-120 0 -208 77 -221 201z" />
    <glyph glyph-name="four.tosf" 
d="M381 -196v151h-306v32l295 517h94v-474h88v-75h-88v-151h-83zM184 30h197v354z" />
    <glyph glyph-name="five.tosf" 
d="M93 -12l80 14c14 -87 59 -130 135 -130c87 0 133 60 133 161c0 105 -49 161 -132 161c-63 0 -111 -33 -144 -84l-55 12l37 382h337v-75h-266l-21 -204c32 29 73 43 124 43c127 0 204 -91 204 -235c0 -139 -85 -237 -217 -237c-117 0 -200 69 -215 192z" />
    <glyph glyph-name="six.tosf" 
d="M87 220c0 46 14 93 41 141l201 347h89l-154 -271c11 7 33 11 49 11c129 0 220 -97 220 -228c0 -129 -93 -228 -223 -228c-129 0 -223 99 -223 228zM449 220c0 93 -56 153 -139 153c-81 0 -139 -60 -139 -153c0 -89 59 -152 139 -152c81 0 139 63 139 152z" />
    <glyph glyph-name="seven.tosf" 
d="M153 -197l258 625h-301v75h400v-30l-273 -670h-84z" />
    <glyph glyph-name="eight.tosf" 
d="M94 200c0 83 43 150 106 177c-49 29 -81 81 -81 146c0 106 78 185 191 185s191 -79 191 -185c0 -64 -33 -115 -81 -146c63 -27 106 -94 106 -177c0 -131 -99 -208 -216 -208s-216 77 -216 208zM421 522c0 69 -44 114 -111 114s-111 -45 -111 -114s44 -114 111 -114
s111 45 111 114zM442 200c0 83 -53 133 -132 133s-132 -50 -132 -133s53 -132 132 -132c80 0 132 49 132 132z" />
    <glyph glyph-name="nine.tosf" 
d="M202 -204l155 271c-11 -7 -33 -11 -49 -11c-129 0 -221 97 -221 228c0 129 94 228 223 228s223 -99 223 -228c0 -41 -13 -87 -36 -127l-206 -361h-89zM449 284c0 45 -13 81 -40 110c-26 29 -59 43 -99 43s-73 -14 -100 -43c-26 -29 -39 -65 -39 -110
c0 -93 58 -152 139 -152c83 0 139 59 139 152z" />
    <glyph glyph-name="zero.tosf.zero" 
d="M552 252c2 -137 -96 -263 -242 -260c-146 -3 -245 123 -243 260c-2 137 97 263 243 260c146 3 244 -123 242 -260zM153 252c0 -49 14 -96 42 -131l174 305c-17 8 -36 12 -59 12c-99 0 -157 -88 -157 -186zM466 252c0 48 -13 94 -40 129l-174 -304c18 -7 37 -11 58 -11
c99 0 156 88 156 186z" />
    <glyph glyph-name="zero.zero" horiz-adv-x="601" 
d="M54 350c0 111 21 198 63 262c43 64 104 96 184 96c160 0 246 -135 246 -358s-86 -358 -246 -358c-80 0 -141 32 -184 96c-42 64 -63 151 -63 262zM165 179l227 416c-27 25 -57 38 -91 38c-105 0 -163 -110 -163 -283c0 -69 9 -126 27 -171zM464 350c0 67 -9 124 -28 172
l-227 -416c25 -25 56 -38 92 -38c104 0 163 109 163 282z" />
    <glyph glyph-name="uni2080" unicode="&#x2080;" horiz-adv-x="389" 
d="M43 -4c0 127 56 204 152 204c95 0 151 -77 151 -204s-56 -204 -151 -204c-96 0 -152 77 -152 204zM280 -4c0 95 -34 145 -85 145c-52 0 -86 -50 -86 -145s34 -145 86 -145c51 0 85 50 85 145z" />
    <glyph glyph-name="uni2081" unicode="&#x2081;" horiz-adv-x="229" 
d="M112 -204v310l-85 -40v69l125 61h23v-400h-63z" />
    <glyph glyph-name="uni2082" unicode="&#x2082;" horiz-adv-x="324" 
d="M33 -204v24l146 181c27 32 36 55 36 83c0 35 -19 55 -54 55c-32 0 -53 -25 -60 -68l-62 17c7 65 55 112 122 112c73 0 121 -47 121 -115c0 -35 -13 -70 -39 -103l-102 -125h150v-61h-258z" />
    <glyph glyph-name="uni2083" unicode="&#x2083;" horiz-adv-x="327" 
d="M35 -88l62 9c7 -43 31 -70 70 -70c43 0 64 29 64 76c0 45 -21 72 -64 72c-13 0 -25 -3 -35 -10l-31 40l82 108h-127v59h221v-23l-97 -128l13 1c61 0 105 -47 105 -120c0 -77 -45 -134 -130 -134c-75 0 -128 47 -133 120z" />
    <glyph glyph-name="uni2084" unicode="&#x2084;" horiz-adv-x="337" 
d="M200 -204v77h-170v26l162 297h70v-263h49v-60h-49v-77h-62zM110 -67h90v171z" />
    <glyph glyph-name="uni2085" unicode="&#x2085;" horiz-adv-x="331" 
d="M37 -95l61 9c9 -39 30 -63 67 -63c44 0 69 29 69 78c0 51 -25 78 -69 78c-27 0 -51 -13 -72 -38l-47 10l21 217h209v-59h-156l-12 -100c16 13 44 24 69 24c77 0 123 -52 123 -132c0 -84 -52 -137 -135 -137c-67 0 -119 44 -128 113z" />
    <glyph glyph-name="uni2086" unicode="&#x2086;" horiz-adv-x="354" 
d="M43 -76c0 27 7 55 22 82l110 194h69l-90 -153c6 5 17 8 34 8c72 0 123 -50 123 -131c0 -76 -54 -132 -134 -132c-81 0 -134 55 -134 132zM244 -76c0 44 -26 72 -67 72s-67 -28 -67 -72c0 -43 27 -73 67 -73s67 30 67 73z" />
    <glyph glyph-name="uni2087" unicode="&#x2087;" horiz-adv-x="291" 
d="M49 -204l141 341h-159v59h239v-26l-154 -374h-67z" />
    <glyph glyph-name="uni2088" unicode="&#x2088;" horiz-adv-x="345" 
d="M43 -83c0 47 26 79 61 94c-28 16 -47 46 -47 82c0 61 47 107 115 107c69 0 115 -46 115 -107c0 -36 -18 -66 -46 -82c35 -15 60 -47 60 -94c0 -76 -53 -125 -129 -125c-75 0 -129 49 -129 125zM227 92c0 35 -22 57 -55 57s-55 -22 -55 -57c0 -33 22 -55 55 -55
s55 22 55 55zM235 -83c0 39 -24 63 -63 63s-62 -24 -62 -63c0 -40 23 -66 62 -66s63 26 63 66z" />
    <glyph glyph-name="uni2089" unicode="&#x2089;" horiz-adv-x="354" 
d="M109 -208l91 153c-6 -5 -17 -8 -34 -8c-73 0 -123 50 -123 131c0 76 54 132 134 132s134 -55 134 -132c0 -29 -8 -56 -23 -82l-110 -194h-69zM244 68c0 43 -27 73 -67 73c-41 0 -67 -30 -67 -73c0 -44 26 -72 67 -72c40 0 67 28 67 72z" />
    <glyph glyph-name="zero.dnom" horiz-adv-x="389" 
d="M43 200c0 127 56 204 152 204c95 0 151 -77 151 -204s-56 -204 -151 -204c-96 0 -152 77 -152 204zM280 200c0 95 -34 145 -85 145c-52 0 -86 -50 -86 -145s34 -145 86 -145c51 0 85 50 85 145z" />
    <glyph glyph-name="one.dnom" horiz-adv-x="229" 
d="M112 0v310l-85 -40v69l125 61h23v-400h-63z" />
    <glyph glyph-name="two.dnom" horiz-adv-x="324" 
d="M33 0v24l146 181c27 32 36 55 36 83c0 35 -19 55 -54 55c-32 0 -53 -25 -60 -68l-62 17c7 65 55 112 122 112c73 0 121 -47 121 -115c0 -35 -13 -70 -39 -103l-102 -125h150v-61h-258z" />
    <glyph glyph-name="three.dnom" horiz-adv-x="327" 
d="M35 116l62 9c7 -43 31 -70 70 -70c43 0 64 29 64 76c0 45 -21 72 -64 72c-13 0 -25 -3 -35 -10l-31 40l82 108h-127v59h221v-23l-97 -128l13 1c61 0 105 -47 105 -120c0 -77 -45 -134 -130 -134c-75 0 -128 47 -133 120z" />
    <glyph glyph-name="four.dnom" horiz-adv-x="337" 
d="M200 0v77h-170v26l162 297h70v-263h49v-60h-49v-77h-62zM110 137h90v171z" />
    <glyph glyph-name="five.dnom" horiz-adv-x="331" 
d="M37 109l61 9c9 -39 30 -63 67 -63c44 0 69 29 69 78c0 51 -25 78 -69 78c-27 0 -51 -13 -72 -38l-47 10l21 217h209v-59h-156l-12 -100c16 13 44 24 69 24c77 0 123 -52 123 -132c0 -84 -52 -137 -135 -137c-67 0 -119 44 -128 113z" />
    <glyph glyph-name="six.dnom" horiz-adv-x="354" 
d="M43 128c0 27 7 55 22 82l110 194h69l-90 -153c6 5 17 8 34 8c72 0 123 -50 123 -131c0 -76 -54 -132 -134 -132c-81 0 -134 55 -134 132zM244 128c0 44 -26 72 -67 72s-67 -28 -67 -72c0 -43 27 -73 67 -73s67 30 67 73z" />
    <glyph glyph-name="seven.dnom" horiz-adv-x="291" 
d="M49 0l141 341h-159v59h239v-26l-154 -374h-67z" />
    <glyph glyph-name="eight.dnom" horiz-adv-x="345" 
d="M43 121c0 47 26 79 61 94c-28 16 -47 46 -47 82c0 61 47 107 115 107c69 0 115 -46 115 -107c0 -36 -18 -66 -46 -82c35 -15 60 -47 60 -94c0 -76 -53 -125 -129 -125c-75 0 -129 49 -129 125zM227 296c0 35 -22 57 -55 57s-55 -22 -55 -57c0 -33 22 -55 55 -55
s55 22 55 55zM235 121c0 39 -24 63 -63 63s-62 -24 -62 -63c0 -40 23 -66 62 -66s63 26 63 66z" />
    <glyph glyph-name="nine.dnom" horiz-adv-x="354" 
d="M109 -4l91 153c-6 -5 -17 -8 -34 -8c-73 0 -123 50 -123 131c0 76 54 132 134 132s134 -55 134 -132c0 -29 -8 -56 -23 -82l-110 -194h-69zM244 272c0 43 -27 73 -67 73c-41 0 -67 -30 -67 -73c0 -44 26 -72 67 -72c40 0 67 28 67 72z" />
    <glyph glyph-name="zero.numr" horiz-adv-x="389" 
d="M43 500c0 127 56 204 152 204c95 0 151 -77 151 -204s-56 -204 -151 -204c-96 0 -152 77 -152 204zM280 500c0 95 -34 145 -85 145c-52 0 -86 -50 -86 -145s34 -145 86 -145c51 0 85 50 85 145z" />
    <glyph glyph-name="one.numr" horiz-adv-x="229" 
d="M112 300v310l-85 -40v69l125 61h23v-400h-63z" />
    <glyph glyph-name="two.numr" horiz-adv-x="324" 
d="M33 300v24l146 181c27 32 36 55 36 83c0 35 -19 55 -54 55c-32 0 -53 -25 -60 -68l-62 17c7 65 55 112 122 112c73 0 121 -47 121 -115c0 -35 -13 -70 -39 -103l-102 -125h150v-61h-258z" />
    <glyph glyph-name="three.numr" horiz-adv-x="327" 
d="M35 416l62 9c7 -43 31 -70 70 -70c43 0 64 29 64 76c0 45 -21 72 -64 72c-13 0 -25 -3 -35 -10l-31 40l82 108h-127v59h221v-23l-97 -128l13 1c61 0 105 -47 105 -120c0 -77 -45 -134 -130 -134c-75 0 -128 47 -133 120z" />
    <glyph glyph-name="four.numr" horiz-adv-x="337" 
d="M200 300v77h-170v26l162 297h70v-263h49v-60h-49v-77h-62zM110 437h90v171z" />
    <glyph glyph-name="five.numr" horiz-adv-x="331" 
d="M37 409l61 9c9 -39 30 -63 67 -63c44 0 69 29 69 78c0 51 -25 78 -69 78c-27 0 -51 -13 -72 -38l-47 10l21 217h209v-59h-156l-12 -100c16 13 44 24 69 24c77 0 123 -52 123 -132c0 -84 -52 -137 -135 -137c-67 0 -119 44 -128 113z" />
    <glyph glyph-name="six.numr" horiz-adv-x="354" 
d="M43 428c0 27 7 55 22 82l110 194h69l-90 -153c6 5 17 8 34 8c72 0 123 -50 123 -131c0 -76 -54 -132 -134 -132c-81 0 -134 55 -134 132zM244 428c0 44 -26 72 -67 72s-67 -28 -67 -72c0 -43 27 -73 67 -73s67 30 67 73z" />
    <glyph glyph-name="seven.numr" horiz-adv-x="291" 
d="M49 300l141 341h-159v59h239v-26l-154 -374h-67z" />
    <glyph glyph-name="eight.numr" horiz-adv-x="345" 
d="M43 421c0 47 26 79 61 94c-28 16 -47 46 -47 82c0 61 47 107 115 107c69 0 115 -46 115 -107c0 -36 -18 -66 -46 -82c35 -15 60 -47 60 -94c0 -76 -53 -125 -129 -125c-75 0 -129 49 -129 125zM227 596c0 35 -22 57 -55 57s-55 -22 -55 -57c0 -33 22 -55 55 -55
s55 22 55 55zM235 421c0 39 -24 63 -63 63s-62 -24 -62 -63c0 -40 23 -66 62 -66s63 26 63 66z" />
    <glyph glyph-name="nine.numr" horiz-adv-x="354" 
d="M109 296l91 153c-6 -5 -17 -8 -34 -8c-73 0 -123 50 -123 131c0 76 54 132 134 132s134 -55 134 -132c0 -29 -8 -56 -23 -82l-110 -194h-69zM244 572c0 43 -27 73 -67 73c-41 0 -67 -30 -67 -73c0 -44 26 -72 67 -72c40 0 67 28 67 72z" />
    <glyph glyph-name="uni2070" unicode="&#x2070;" horiz-adv-x="389" 
d="M43 500c0 127 56 204 152 204c95 0 151 -77 151 -204s-56 -204 -151 -204c-96 0 -152 77 -152 204zM280 500c0 95 -34 145 -85 145c-52 0 -86 -50 -86 -145s34 -145 86 -145c51 0 85 50 85 145z" />
    <glyph glyph-name="uni00B9" unicode="&#xb9;" horiz-adv-x="229" 
d="M112 300v310l-85 -40v69l125 61h23v-400h-63z" />
    <glyph glyph-name="uni00B2" unicode="&#xb2;" horiz-adv-x="324" 
d="M33 300v24l146 181c27 32 36 55 36 83c0 35 -19 55 -54 55c-32 0 -53 -25 -60 -68l-62 17c7 65 55 112 122 112c73 0 121 -47 121 -115c0 -35 -13 -70 -39 -103l-102 -125h150v-61h-258z" />
    <glyph glyph-name="uni00B3" unicode="&#xb3;" horiz-adv-x="327" 
d="M35 416l62 9c7 -43 31 -70 70 -70c43 0 64 29 64 76c0 45 -21 72 -64 72c-13 0 -25 -3 -35 -10l-31 40l82 108h-127v59h221v-23l-97 -128l13 1c61 0 105 -47 105 -120c0 -77 -45 -134 -130 -134c-75 0 -128 47 -133 120z" />
    <glyph glyph-name="uni2074" unicode="&#x2074;" horiz-adv-x="337" 
d="M200 300v77h-170v26l162 297h70v-263h49v-60h-49v-77h-62zM110 437h90v171z" />
    <glyph glyph-name="uni2075" unicode="&#x2075;" horiz-adv-x="331" 
d="M37 409l61 9c9 -39 30 -63 67 -63c44 0 69 29 69 78c0 51 -25 78 -69 78c-27 0 -51 -13 -72 -38l-47 10l21 217h209v-59h-156l-12 -100c16 13 44 24 69 24c77 0 123 -52 123 -132c0 -84 -52 -137 -135 -137c-67 0 -119 44 -128 113z" />
    <glyph glyph-name="uni2076" unicode="&#x2076;" horiz-adv-x="354" 
d="M43 428c0 27 7 55 22 82l110 194h69l-90 -153c6 5 17 8 34 8c72 0 123 -50 123 -131c0 -76 -54 -132 -134 -132c-81 0 -134 55 -134 132zM244 428c0 44 -26 72 -67 72s-67 -28 -67 -72c0 -43 27 -73 67 -73s67 30 67 73z" />
    <glyph glyph-name="uni2077" unicode="&#x2077;" horiz-adv-x="291" 
d="M49 300l141 341h-159v59h239v-26l-154 -374h-67z" />
    <glyph glyph-name="uni2078" unicode="&#x2078;" horiz-adv-x="345" 
d="M43 421c0 47 26 79 61 94c-28 16 -47 46 -47 82c0 61 47 107 115 107c69 0 115 -46 115 -107c0 -36 -18 -66 -46 -82c35 -15 60 -47 60 -94c0 -76 -53 -125 -129 -125c-75 0 -129 49 -129 125zM227 596c0 35 -22 57 -55 57s-55 -22 -55 -57c0 -33 22 -55 55 -55
s55 22 55 55zM235 421c0 39 -24 63 -63 63s-62 -24 -62 -63c0 -40 23 -66 62 -66s63 26 63 66z" />
    <glyph glyph-name="uni2079" unicode="&#x2079;" horiz-adv-x="354" 
d="M109 296l91 153c-6 -5 -17 -8 -34 -8c-73 0 -123 50 -123 131c0 76 54 132 134 132s134 -55 134 -132c0 -29 -8 -56 -23 -82l-110 -194h-69zM244 572c0 43 -27 73 -67 73c-41 0 -67 -30 -67 -73c0 -44 26 -72 67 -72c40 0 67 28 67 72z" />
    <glyph glyph-name="fraction" unicode="&#x2044;" horiz-adv-x="296" 
d="M-96 -29l-52 42l541 716l51 -41z" />
    <glyph glyph-name="onehalf" unicode="&#xbd;" horiz-adv-x="849" 
d="M112 300v310l-85 -40v69l125 61h23v-400h-63zM133 -29l-52 42l541 716l51 -41zM558 0v24l146 181c27 32 36 55 36 83c0 35 -19 55 -54 55c-32 0 -53 -25 -60 -68l-62 17c7 65 55 112 122 112c73 0 121 -47 121 -115c0 -35 -13 -70 -39 -103l-102 -125h150v-61h-258z" />
    <glyph glyph-name="uni2153" unicode="&#x2153;" horiz-adv-x="852" 
d="M112 300v310l-85 -40v69l125 61h23v-400h-63zM133 -29l-52 42l541 716l51 -41zM560 116l62 9c7 -43 31 -70 70 -70c43 0 64 29 64 76c0 45 -21 72 -64 72c-13 0 -25 -3 -35 -10l-31 40l82 108h-127v59h221v-23l-97 -128l13 1c61 0 105 -47 105 -120
c0 -77 -45 -134 -130 -134c-75 0 -128 47 -133 120z" />
    <glyph glyph-name="uni2154" unicode="&#x2154;" horiz-adv-x="947" 
d="M33 300v24l146 181c27 32 36 55 36 83c0 35 -19 55 -54 55c-32 0 -53 -25 -60 -68l-62 17c7 65 55 112 122 112c73 0 121 -47 121 -115c0 -35 -13 -70 -39 -103l-102 -125h150v-61h-258zM228 -29l-52 42l541 716l51 -41zM655 116l62 9c7 -43 31 -70 70 -70
c43 0 64 29 64 76c0 45 -21 72 -64 72c-13 0 -25 -3 -35 -10l-31 40l82 108h-127v59h221v-23l-97 -128l13 1c61 0 105 -47 105 -120c0 -77 -45 -134 -130 -134c-75 0 -128 47 -133 120z" />
    <glyph glyph-name="onequarter" unicode="&#xbc;" horiz-adv-x="812" 
d="M112 300v310l-85 -40v69l125 61h23v-400h-63zM133 -29l-52 42l541 716l51 -41zM675 0v77h-170v26l162 297h70v-263h49v-60h-49v-77h-62zM585 137h90v171z" />
    <glyph glyph-name="threequarters" unicode="&#xbe;" horiz-adv-x="900" 
d="M35 416l62 9c7 -43 31 -70 70 -70c43 0 64 29 64 76c0 45 -21 72 -64 72c-13 0 -25 -3 -35 -10l-31 40l82 108h-127v59h221v-23l-97 -128l13 1c61 0 105 -47 105 -120c0 -77 -45 -134 -130 -134c-75 0 -128 47 -133 120zM221 -29l-52 42l541 716l51 -41zM763 0v77h-170
v26l162 297h70v-263h49v-60h-49v-77h-62zM673 137h90v171z" />
    <glyph glyph-name="oneeighth" unicode="&#x215b;" horiz-adv-x="860" 
d="M112 300v310l-85 -40v69l125 61h23v-400h-63zM133 -29l-52 42l541 716l51 -41zM558 121c0 47 26 79 61 94c-28 16 -47 46 -47 82c0 61 47 107 115 107c69 0 115 -46 115 -107c0 -36 -18 -66 -46 -82c35 -15 60 -47 60 -94c0 -76 -53 -125 -129 -125
c-75 0 -129 49 -129 125zM742 296c0 35 -22 57 -55 57s-55 -22 -55 -57c0 -33 22 -55 55 -55s55 22 55 55zM750 121c0 39 -24 63 -63 63s-62 -24 -62 -63c0 -40 23 -66 62 -66s63 26 63 66z" />
    <glyph glyph-name="threeeighths" unicode="&#x215c;" horiz-adv-x="948" 
d="M35 416l62 9c7 -43 31 -70 70 -70c43 0 64 29 64 76c0 45 -21 72 -64 72c-13 0 -25 -3 -35 -10l-31 40l82 108h-127v59h221v-23l-97 -128l13 1c61 0 105 -47 105 -120c0 -77 -45 -134 -130 -134c-75 0 -128 47 -133 120zM221 -29l-52 42l541 716l51 -41zM646 121
c0 47 26 79 61 94c-28 16 -47 46 -47 82c0 61 47 107 115 107c69 0 115 -46 115 -107c0 -36 -18 -66 -46 -82c35 -15 60 -47 60 -94c0 -76 -53 -125 -129 -125c-75 0 -129 49 -129 125zM830 296c0 35 -22 57 -55 57s-55 -22 -55 -57c0 -33 22 -55 55 -55s55 22 55 55z
M838 121c0 39 -24 63 -63 63s-62 -24 -62 -63c0 -40 23 -66 62 -66s63 26 63 66z" />
    <glyph glyph-name="fiveeighths" unicode="&#x215d;" horiz-adv-x="952" 
d="M37 409l61 9c9 -39 30 -63 67 -63c44 0 69 29 69 78c0 51 -25 78 -69 78c-27 0 -51 -13 -72 -38l-47 10l21 217h209v-59h-156l-12 -100c16 13 44 24 69 24c77 0 123 -52 123 -132c0 -84 -52 -137 -135 -137c-67 0 -119 44 -128 113zM225 -29l-52 42l541 716l51 -41z
M650 121c0 47 26 79 61 94c-28 16 -47 46 -47 82c0 61 47 107 115 107c69 0 115 -46 115 -107c0 -36 -18 -66 -46 -82c35 -15 60 -47 60 -94c0 -76 -53 -125 -129 -125c-75 0 -129 49 -129 125zM834 296c0 35 -22 57 -55 57s-55 -22 -55 -57c0 -33 22 -55 55 -55
s55 22 55 55zM842 121c0 39 -24 63 -63 63s-62 -24 -62 -63c0 -40 23 -66 62 -66s63 26 63 66z" />
    <glyph glyph-name="seveneighths" unicode="&#x215e;" horiz-adv-x="872" 
d="M49 300l141 341h-159v59h239v-26l-154 -374h-67zM145 -29l-52 42l541 716l51 -41zM570 121c0 47 26 79 61 94c-28 16 -47 46 -47 82c0 61 47 107 115 107c69 0 115 -46 115 -107c0 -36 -18 -66 -46 -82c35 -15 60 -47 60 -94c0 -76 -53 -125 -129 -125
c-75 0 -129 49 -129 125zM754 296c0 35 -22 57 -55 57s-55 -22 -55 -57c0 -33 22 -55 55 -55s55 22 55 55zM762 121c0 39 -24 63 -63 63s-62 -24 -62 -63c0 -40 23 -66 62 -66s63 26 63 66z" />
    <glyph glyph-name="uni2080.zero" horiz-adv-x="389" 
d="M346 -4c0 -127 -56 -204 -151 -204c-96 0 -152 77 -152 204s56 204 152 204c95 0 151 -77 151 -204zM109 -4c0 -38 5 -68 15 -90l96 230c-9 3 -17 5 -25 5c-52 0 -86 -50 -86 -145zM280 -4c0 40 -6 72 -17 96l-98 -234c9 -5 19 -7 30 -7c51 0 85 50 85 145z" />
    <glyph glyph-name="zero.dnom.zero" horiz-adv-x="389" 
d="M346 200c0 -127 -56 -204 -151 -204c-96 0 -152 77 -152 204s56 204 152 204c95 0 151 -77 151 -204zM109 200c0 -38 5 -68 15 -90l96 230c-9 3 -17 5 -25 5c-52 0 -86 -50 -86 -145zM280 200c0 40 -6 72 -17 96l-98 -234c9 -5 19 -7 30 -7c51 0 85 50 85 145z" />
    <glyph glyph-name="zero.numr.zero" horiz-adv-x="389" 
d="M346 500c0 -127 -56 -204 -151 -204c-96 0 -152 77 -152 204s56 204 152 204c95 0 151 -77 151 -204zM109 500c0 -38 5 -69 16 -94l97 234c-9 3 -18 5 -27 5c-52 0 -86 -50 -86 -145zM280 500c0 38 -5 69 -16 94l-97 -233c9 -4 19 -6 28 -6c51 0 85 50 85 145z" />
    <glyph glyph-name="uni2070.zero" horiz-adv-x="389" 
d="M346 500c0 -127 -56 -204 -151 -204c-96 0 -152 77 -152 204s56 204 152 204c95 0 151 -77 151 -204zM109 500c0 -38 5 -69 16 -94l97 234c-9 3 -18 5 -27 5c-52 0 -86 -50 -86 -145zM280 500c0 38 -5 69 -16 94l-97 -233c9 -4 19 -6 28 -6c51 0 85 50 85 145z" />
    <glyph glyph-name="period" unicode="." horiz-adv-x="243" 
d="M60 58c0 36 26 62 61 62c36 0 62 -26 62 -62c0 -35 -26 -61 -62 -61c-35 0 -61 26 -61 61z" />
    <glyph glyph-name="comma" unicode="," horiz-adv-x="240" 
d="M28 -96l55 200h117l-111 -200h-61z" />
    <glyph glyph-name="colon" unicode=":" horiz-adv-x="240" 
d="M58 419c0 35 26 62 62 62c35 0 62 -27 62 -62c0 -36 -26 -61 -62 -61s-62 25 -62 61zM58 58c0 36 26 62 62 62c35 0 62 -26 62 -62c0 -35 -27 -61 -62 -61c-36 0 -62 26 -62 61z" />
    <glyph glyph-name="semicolon" unicode=";" horiz-adv-x="240" 
d="M78 419c0 36 26 62 61 62c36 0 62 -26 62 -62c0 -35 -26 -61 -62 -61c-35 0 -61 26 -61 61zM28 -96l55 200h117l-111 -200h-61z" />
    <glyph glyph-name="ellipsis" unicode="&#x2026;" horiz-adv-x="742" 
d="M58 58c0 36 26 62 62 62c35 0 62 -26 62 -62c0 -35 -27 -61 -62 -61c-36 0 -62 26 -62 61zM309 58c0 36 26 62 62 62c35 0 62 -26 62 -62c0 -35 -27 -61 -62 -61c-36 0 -62 26 -62 61zM561 58c0 36 26 62 62 62c35 0 61 -26 61 -62c0 -35 -26 -61 -61 -61
c-36 0 -62 26 -62 61z" />
    <glyph glyph-name="exclam" unicode="!" horiz-adv-x="302" 
d="M120 203l-24 497h110l-24 -497h-62zM87 60c0 37 27 65 64 65c36 0 64 -28 64 -65c0 -36 -28 -63 -64 -63c-37 0 -64 27 -64 63z" />
    <glyph glyph-name="exclamdown" unicode="&#xa1;" horiz-adv-x="302" 
d="M87 436c0 36 27 63 64 63c36 0 64 -27 64 -63c0 -37 -28 -65 -64 -65c-37 0 -64 28 -64 65zM96 -204l24 497h62l24 -497h-110z" />
    <glyph glyph-name="question" unicode="?" horiz-adv-x="445" 
d="M99 325c0 64 36 102 112 139c90 43 106 57 106 97c0 48 -33 74 -88 74c-53 0 -88 -30 -104 -91l-78 14c16 91 82 150 186 150c99 0 165 -59 165 -146c0 -33 -10 -59 -29 -80c-19 -20 -52 -41 -99 -64c-39 -19 -64 -35 -77 -48s-19 -28 -19 -47c0 -32 21 -52 52 -52
c36 0 59 18 72 59l62 -23c-20 -69 -65 -105 -132 -105c-73 0 -129 46 -129 123zM165 60c0 37 27 65 64 65s64 -28 64 -65c0 -36 -27 -63 -64 -63s-64 27 -64 63z" />
    <glyph glyph-name="questiondown" unicode="&#xbf;" horiz-adv-x="445" 
d="M280 436c0 -37 -27 -65 -64 -65c-36 0 -64 28 -64 65c0 36 28 63 64 63c37 0 64 -27 64 -63zM346 171c0 -63 -36 -102 -112 -139c-89 -44 -105 -57 -105 -97c0 -48 32 -74 87 -74c53 0 88 30 104 91l78 -14c-16 -91 -82 -150 -186 -150c-99 0 -165 59 -165 146
c0 33 9 59 28 79c19 21 53 42 100 65c39 19 64 35 77 48s19 28 19 47c0 32 -21 52 -52 52c-36 0 -59 -18 -72 -59l-62 23c20 69 66 105 133 105c73 0 128 -46 128 -123z" />
    <glyph glyph-name="middot" unicode="&#xb7;" horiz-adv-x="297" 
d="M89 350c0 36 26 62 61 62c36 0 62 -26 62 -62c0 -35 -26 -61 -62 -61c-35 0 -61 26 -61 61z" />
    <glyph glyph-name="bullet" unicode="&#x2022;" horiz-adv-x="338" 
d="M87 330c0 45 37 82 82 82s82 -37 82 -82s-37 -82 -82 -82s-82 37 -82 82z" />
    <glyph glyph-name="asterisk" unicode="*" horiz-adv-x="485" 
d="M163 352l-59 43l80 108l-129 44l23 68l129 -42v135h71v-135l129 42l23 -68l-129 -44l80 -108l-59 -43l-80 109z" />
    <glyph glyph-name="uni2049" unicode="&#x2049;" horiz-adv-x="681" 
d="M120 203l-24 497h110l-24 -497h-62zM87 60c0 37 27 65 64 65c36 0 64 -28 64 -65c0 -36 -28 -63 -64 -63c-37 0 -64 27 -64 63zM334 325c0 64 36 102 112 139c90 43 106 57 106 97c0 48 -33 74 -88 74c-53 0 -88 -30 -104 -91l-78 14c16 91 82 150 186 150
c99 0 165 -59 165 -146c0 -33 -10 -59 -29 -80c-19 -20 -52 -41 -99 -64c-39 -19 -64 -35 -77 -48s-19 -28 -19 -47c0 -32 21 -52 52 -52c36 0 59 18 72 59l62 -23c-20 -69 -65 -105 -132 -105c-73 0 -129 46 -129 123zM400 60c0 37 27 65 64 65s64 -28 64 -65
c0 -36 -27 -63 -64 -63s-64 27 -64 63z" />
    <glyph glyph-name="numbersign" unicode="#" horiz-adv-x="652" 
d="M112 0l42 207h-116v68h130l30 150h-120v68h135l42 207h70l-42 -207h145l42 207h70l-42 -207h117v-68h-131l-30 -150h121v-68h-136l-42 -207h-70l42 207h-144l-43 -207h-70zM239 275h145l30 150h-145z" />
    <glyph glyph-name="uni2048" unicode="&#x2048;" horiz-adv-x="681" 
d="M99 325c0 64 36 102 112 139c90 43 106 57 106 97c0 48 -33 74 -88 74c-53 0 -88 -30 -104 -91l-78 14c16 91 82 150 186 150c99 0 165 -59 165 -146c0 -33 -10 -59 -29 -80c-19 -20 -52 -41 -99 -64c-39 -19 -64 -35 -77 -48s-19 -28 -19 -47c0 -32 21 -52 52 -52
c36 0 59 18 72 59l62 -23c-20 -69 -65 -105 -132 -105c-73 0 -129 46 -129 123zM165 60c0 37 27 65 64 65s64 -28 64 -65c0 -36 -27 -63 -64 -63s-64 27 -64 63zM499 203l-24 497h110l-24 -497h-62zM466 60c0 37 27 65 64 65c36 0 64 -28 64 -65c0 -36 -28 -63 -64 -63
c-37 0 -64 27 -64 63z" />
    <glyph glyph-name="slash" unicode="/" horiz-adv-x="531" 
d="M6 -50l436 800h83l-436 -800h-83z" />
    <glyph glyph-name="backslash" unicode="\" horiz-adv-x="531" 
d="M442 -50l-436 800h83l436 -800h-83z" />
    <glyph glyph-name="exclamdown.case" horiz-adv-x="302" 
d="M87 640c0 36 27 63 64 63c36 0 64 -27 64 -63c0 -37 -28 -65 -64 -65c-37 0 -64 28 -64 65zM96 0l24 497h62l24 -497h-110z" />
    <glyph glyph-name="questiondown.case" horiz-adv-x="445" 
d="M280 640c0 -37 -27 -65 -64 -65c-36 0 -64 28 -64 65c0 36 28 63 64 63c37 0 64 -27 64 -63zM346 375c0 -63 -36 -102 -112 -139c-89 -44 -105 -57 -105 -97c0 -48 32 -74 87 -74c53 0 88 30 104 91l78 -14c-16 -91 -82 -150 -186 -150c-99 0 -165 59 -165 146
c0 33 9 59 28 79c19 21 53 42 100 65c39 19 64 35 77 48s19 28 19 47c0 32 -21 52 -52 52c-36 0 -59 -18 -72 -59l-62 23c20 69 66 105 133 105c73 0 128 -46 128 -123z" />
    <glyph glyph-name="bullet.case" horiz-adv-x="338" 
d="M87 350c0 45 37 82 82 82s82 -37 82 -82s-37 -82 -82 -82s-82 37 -82 82z" />
    <glyph glyph-name="comma.ss02" horiz-adv-x="240" 
d="M66 -111l-15 20c32 23 56 59 59 92c-34 11 -51 31 -51 60c0 33 25 59 61 59s62 -28 62 -67c0 -63 -47 -120 -116 -164z" />
    <glyph glyph-name="semicolon.ss02" horiz-adv-x="240" 
d="M61 419c0 36 26 62 61 62c36 0 62 -26 62 -62c0 -35 -26 -61 -62 -61c-35 0 -61 26 -61 61zM66 -111l-15 20c32 23 56 59 59 92c-34 11 -51 31 -51 60c0 33 25 59 61 59s62 -28 62 -67c0 -63 -47 -120 -116 -164z" />
    <glyph glyph-name="period.tf" 
d="M250 58c0 36 26 62 61 62c36 0 62 -26 62 -62c0 -35 -26 -61 -62 -61c-35 0 -61 26 -61 61z" />
    <glyph glyph-name="comma.tf" 
d="M192 -96l55 200h117l-111 -200h-61z" />
    <glyph glyph-name="colon.tf" 
d="M248 419c0 35 26 62 62 62c35 0 62 -27 62 -62c0 -36 -26 -61 -62 -61s-62 25 -62 61zM248 58c0 36 26 62 62 62c35 0 62 -26 62 -62c0 -35 -27 -61 -62 -61c-36 0 -62 26 -62 61z" />
    <glyph glyph-name="semicolon.tf" 
d="M250 419c0 36 26 62 61 62c36 0 62 -26 62 -62c0 -35 -26 -61 -62 -61c-35 0 -61 26 -61 61zM200 -96l55 200h117l-111 -200h-61z" />
    <glyph glyph-name="comma.ss02.tf" 
d="M247 -111l-15 20c32 23 56 59 59 92c-34 11 -51 31 -51 60c0 33 25 59 61 59s62 -28 62 -67c0 -63 -47 -120 -116 -164z" />
    <glyph glyph-name="semicolon.ss02.tf" 
d="M251 419c0 36 26 62 61 62c36 0 62 -26 62 -62c0 -35 -26 -61 -62 -61c-35 0 -61 26 -61 61zM256 -111l-15 20c32 23 56 59 59 92c-34 11 -51 31 -51 60c0 33 25 59 61 59s62 -28 62 -67c0 -63 -47 -120 -116 -164z" />
    <glyph glyph-name="parenleft" unicode="(" horiz-adv-x="258" 
d="M50 350c0 168 41 288 108 400h79c-67 -111 -101 -237 -101 -400c0 -165 34 -288 101 -400h-79c-67 112 -108 232 -108 400z" />
    <glyph glyph-name="parenright" unicode=")" horiz-adv-x="258" 
d="M122 350c0 163 -34 289 -101 400h79c67 -112 108 -232 108 -400s-41 -288 -108 -400h-79c67 112 101 235 101 400z" />
    <glyph glyph-name="braceleft" unicode="{" horiz-adv-x="291" 
d="M110 53v177c0 61 -22 84 -79 84v72c57 0 79 23 79 84v177c0 63 39 103 96 103h60v-73h-29c-33 0 -47 -13 -47 -48v-182c0 -61 -23 -85 -67 -97c44 -12 67 -36 67 -97v-182c0 -35 14 -48 47 -48h29v-73h-60c-57 0 -96 40 -96 103z" />
    <glyph glyph-name="braceright" unicode="}" horiz-adv-x="291" 
d="M25 -50v73h29c33 0 47 13 47 48v182c0 61 23 85 67 97c-44 12 -67 36 -67 97v182c0 35 -14 48 -47 48h-29v73h60c57 0 96 -40 96 -103v-177c0 -61 22 -84 79 -84v-72c-57 0 -79 -23 -79 -84v-177c0 -63 -39 -103 -96 -103h-60z" />
    <glyph glyph-name="bracketleft" unicode="[" horiz-adv-x="307" 
d="M87 -50v800h195v-73h-116v-654h116v-73h-195z" />
    <glyph glyph-name="bracketright" unicode="]" horiz-adv-x="307" 
d="M25 -50v73h116v654h-116v73h196v-800h-196z" />
    <glyph glyph-name="parenleft.case" horiz-adv-x="251" 
d="M50 350c0 140 40 250 100 350h80c-59 -105 -94 -217 -94 -350s35 -245 94 -350h-80c-60 100 -100 210 -100 350z" />
    <glyph glyph-name="parenright.case" horiz-adv-x="251" 
d="M115 350c0 133 -35 245 -94 350h80c60 -100 100 -210 100 -350s-40 -250 -100 -350h-80c59 105 94 217 94 350z" />
    <glyph glyph-name="braceleft.case" horiz-adv-x="291" 
d="M110 103v127c0 61 -22 84 -79 84v72c57 0 79 23 79 84v127c0 63 39 103 96 103h60v-73h-29c-33 0 -47 -13 -47 -48v-132c0 -61 -23 -85 -67 -97c44 -12 67 -36 67 -97v-132c0 -35 14 -48 47 -48h29v-73h-60c-57 0 -96 40 -96 103z" />
    <glyph glyph-name="braceright.case" horiz-adv-x="291" 
d="M25 0v73h29c33 0 47 13 47 48v132c0 61 23 85 67 97c-44 12 -67 36 -67 97v132c0 35 -14 48 -47 48h-29v73h60c57 0 96 -40 96 -103v-127c0 -61 22 -84 79 -84v-72c-57 0 -79 -23 -79 -84v-127c0 -63 -39 -103 -96 -103h-60z" />
    <glyph glyph-name="bracketleft.case" horiz-adv-x="307" 
d="M87 0v700h195v-73h-116v-554h116v-73h-195z" />
    <glyph glyph-name="bracketright.case" horiz-adv-x="307" 
d="M25 0v73h116v554h-116v73h196v-700h-196z" />
    <glyph glyph-name="hyphen" unicode="-" horiz-adv-x="480" 
d="M68 281v72h344v-72h-344z" />
    <glyph glyph-name="uni00AD" unicode="&#xad;" horiz-adv-x="480" 
d="M68 281v72h344v-72h-344z" />
    <glyph glyph-name="endash" unicode="&#x2013;" horiz-adv-x="561" 
d="M68 281v72h424v-72h-424z" />
    <glyph glyph-name="emdash" unicode="&#x2014;" horiz-adv-x="760" 
d="M68 281v72h623v-72h-623z" />
    <glyph glyph-name="underscore" unicode="_" horiz-adv-x="485" 
d="M30 -73v73h424v-73h-424z" />
    <glyph glyph-name="hyphen.case" horiz-adv-x="480" 
d="M68 314v72h344v-72h-344z" />
    <glyph glyph-name="uni00AD.case" horiz-adv-x="480" 
d="M68 314v72h344v-72h-344z" />
    <glyph glyph-name="endash.case" horiz-adv-x="561" 
d="M68 314v72h424v-72h-424z" />
    <glyph glyph-name="emdash.case" horiz-adv-x="760" 
d="M68 314v72h623v-72h-623z" />
    <glyph glyph-name="quotesinglbase" unicode="&#x201a;" horiz-adv-x="267" 
d="M36 -99l66 203h117l-123 -203h-60z" />
    <glyph glyph-name="quotedblbase" unicode="&#x201e;" horiz-adv-x="435" 
d="M36 -99l66 203h117l-123 -203h-60zM204 -99l66 203h117l-123 -203h-60z" />
    <glyph glyph-name="quotedblleft" unicode="&#x201c;" horiz-adv-x="435" 
d="M48 505l123 203h61l-67 -203h-117zM216 505l123 203h61l-67 -203h-117z" />
    <glyph glyph-name="quotedblright" unicode="&#x201d;" horiz-adv-x="435" 
d="M36 505l66 203h117l-123 -203h-60zM204 505l66 203h117l-123 -203h-60z" />
    <glyph glyph-name="quoteleft" unicode="&#x2018;" horiz-adv-x="267" 
d="M48 505l123 203h61l-67 -203h-117z" />
    <glyph glyph-name="quoteright" unicode="&#x2019;" horiz-adv-x="267" 
d="M36 505l66 203h117l-123 -203h-60z" />
    <glyph glyph-name="guillemotleft" unicode="&#xab;" horiz-adv-x="636" 
d="M326 80l-278 203v55l278 202v-88l-194 -142l194 -142v-88zM579 80l-278 203v55l278 202v-88l-194 -142l194 -142v-88z" />
    <glyph glyph-name="guillemotright" unicode="&#xbb;" horiz-adv-x="636" 
d="M57 80v88l194 142l-194 142v88l278 -202v-55zM310 80v88l194 142l-194 142v88l278 -202v-55z" />
    <glyph glyph-name="guilsinglleft" unicode="&#x2039;" horiz-adv-x="383" 
d="M326 80l-278 203v55l278 202v-88l-194 -142l194 -142v-88z" />
    <glyph glyph-name="guilsinglright" unicode="&#x203a;" horiz-adv-x="383" 
d="M57 80v88l194 142l-194 142v88l278 -202v-55z" />
    <glyph glyph-name="quotedbl" unicode="&#x22;" horiz-adv-x="363" 
d="M72 473l-24 235h106l-24 -235h-58zM233 473l-24 235h106l-24 -235h-58z" />
    <glyph glyph-name="quotesingle" unicode="'" horiz-adv-x="202" 
d="M72 473l-24 235h106l-24 -235h-58z" />
    <glyph glyph-name="guillemotleft.case" horiz-adv-x="636" 
d="M326 120l-278 203v55l278 202v-88l-194 -142l194 -142v-88zM579 120l-278 203v55l278 202v-88l-194 -142l194 -142v-88z" />
    <glyph glyph-name="guillemotright.case" horiz-adv-x="636" 
d="M57 120v88l194 142l-194 142v88l278 -202v-55zM310 120v88l194 142l-194 142v88l278 -202v-55z" />
    <glyph glyph-name="guilsinglleft.case" horiz-adv-x="383" 
d="M326 120l-278 203v55l278 202v-88l-194 -142l194 -142v-88z" />
    <glyph glyph-name="guilsinglright.case" horiz-adv-x="383" 
d="M57 120v88l194 142l-194 142v88l278 -202v-55z" />
    <glyph glyph-name="quotesinglbase.ss02" horiz-adv-x="267" 
d="M76 -112l-16 20c33 23 57 59 60 92c-35 11 -52 33 -52 61c0 33 26 59 61 59c36 0 62 -28 62 -67c0 -63 -47 -120 -115 -165z" />
    <glyph glyph-name="quotedblbase.ss02" horiz-adv-x="436" 
d="M76 -112l-16 20c33 23 57 59 60 92c-35 11 -52 33 -52 61c0 33 26 59 61 59c36 0 62 -28 62 -67c0 -63 -47 -120 -115 -165zM245 -112l-16 20c33 23 57 59 60 92c-35 11 -52 33 -52 61c0 33 26 59 61 59c36 0 62 -28 62 -67c0 -63 -47 -120 -115 -165z" />
    <glyph glyph-name="quotedblleft.ss02" horiz-adv-x="436" 
d="M76 553c0 59 39 114 116 165l15 -20c-32 -23 -56 -59 -59 -92c33 -11 51 -33 51 -60c0 -33 -25 -60 -61 -60c-35 0 -62 28 -62 67zM245 553c0 59 39 114 116 165l15 -20c-32 -23 -56 -59 -59 -92c33 -11 51 -33 51 -60c0 -33 -25 -60 -61 -60c-35 0 -62 28 -62 67z" />
    <glyph glyph-name="quotedblright.ss02" horiz-adv-x="436" 
d="M76 486l-16 20c33 23 57 59 60 92c-35 11 -52 33 -52 61c0 33 26 59 61 59c36 0 62 -28 62 -67c0 -63 -47 -120 -115 -165zM245 486l-16 20c33 23 57 59 60 92c-35 11 -52 33 -52 61c0 33 26 59 61 59c36 0 62 -28 62 -67c0 -63 -47 -120 -115 -165z" />
    <glyph glyph-name="quoteleft.ss02" horiz-adv-x="267" 
d="M76 553c0 59 39 114 116 165l15 -20c-32 -23 -56 -59 -59 -92c33 -11 51 -33 51 -60c0 -33 -25 -60 -61 -60c-35 0 -62 28 -62 67z" />
    <glyph glyph-name="quoteright.ss02" horiz-adv-x="267" 
d="M76 486l-16 20c33 23 57 59 60 92c-35 11 -52 33 -52 61c0 33 26 59 61 59c36 0 62 -28 62 -67c0 -63 -47 -120 -115 -165z" />
    <glyph glyph-name="anoteleia" unicode="&#x387;" horiz-adv-x="240" 
d="M60 350c0 36 26 62 61 62c36 0 62 -26 62 -62c0 -35 -26 -61 -62 -61c-35 0 -61 26 -61 61z" />
    <glyph glyph-name="uni037E" unicode="&#x37e;" horiz-adv-x="240" 
d="M78 419c0 36 26 62 61 62c36 0 62 -26 62 -62c0 -35 -26 -61 -62 -61c-35 0 -61 26 -61 61zM28 -96l55 200h117l-111 -200h-61z" />
    <glyph glyph-name="uni037E.ss02" horiz-adv-x="240" 
d="M61 419c0 36 26 62 61 62c36 0 62 -26 62 -62c0 -35 -26 -61 -62 -61c-35 0 -61 26 -61 61zM66 -111l-15 20c32 23 56 59 59 92c-34 11 -51 31 -51 60c0 33 25 59 61 59s62 -28 62 -67c0 -63 -47 -120 -116 -164z" />
    <glyph glyph-name="uni00A0" unicode="&#xa0;" horiz-adv-x="251" 
 />
    <glyph glyph-name="space.tf" 
 />
    <glyph glyph-name="uni0E3F" unicode="&#xe3f;" horiz-adv-x="609" 
d="M554 205c0 -127 -84 -205 -220 -205h-34v-90h-80v90h-133v700h133v90h80v-90h22c123 0 196 -66 196 -182c0 -67 -33 -112 -81 -135c72 -28 117 -86 117 -178zM174 619v-207h146c75 0 112 34 112 103s-38 104 -113 104h-145zM466 206c0 87 -48 125 -144 125h-148v-250h148
c96 0 144 38 144 125z" />
    <glyph glyph-name="uni20BF" unicode="&#x20bf;" horiz-adv-x="609" 
d="M378 3v-73h-73v70h-49v-70h-72v70h-97v700h97v70h72v-70h49v70h73v-75c89 -19 140 -80 140 -177c0 -67 -33 -112 -81 -135c72 -28 117 -86 117 -178c0 -112 -65 -187 -176 -202zM174 619v-207h146c75 0 112 34 112 103s-38 104 -113 104h-145zM466 206
c0 87 -48 125 -144 125h-148v-250h148c96 0 144 38 144 125z" />
    <glyph glyph-name="cent" unicode="&#xa2;" horiz-adv-x="528" 
d="M238 -50v143c-124 18 -192 130 -192 257c0 126 68 239 192 257v143h80v-143c81 -11 139 -58 170 -138l-74 -29c-28 64 -70 96 -137 96c-95 0 -145 -77 -145 -186c0 -108 50 -186 145 -186c67 0 109 32 137 96l74 -29c-31 -80 -89 -127 -170 -138v-143h-80z" />
    <glyph glyph-name="currency" unicode="&#xa4;" horiz-adv-x="555" 
d="M95 56l-68 69l87 67c-22 35 -33 73 -33 115s11 80 33 115l-87 67l68 69l67 -86c34 25 73 37 116 37s81 -12 115 -37l67 86l68 -69l-87 -67c23 -35 34 -74 34 -115s-11 -80 -34 -115l87 -67l-68 -69l-67 86c-34 -25 -72 -37 -115 -37s-82 12 -116 37zM398 307
c0 76 -48 129 -120 129c-73 0 -121 -52 -121 -129s48 -129 121 -129c72 0 120 53 120 129z" />
    <glyph glyph-name="dollar" unicode="$" horiz-adv-x="514" 
d="M300 -6v-84h-80v86c-47 9 -87 31 -120 65c-33 35 -53 75 -61 122l72 45c25 -103 76 -155 155 -155c68 0 115 42 115 119c0 25 -7 47 -20 65c-27 36 -62 54 -135 89c-91 44 -147 99 -147 191c0 87 57 153 141 168v85h80v-86c62 -11 107 -47 134 -110l-71 -45
c-21 52 -57 78 -108 78c-55 0 -91 -38 -91 -85c0 -23 6 -43 19 -60c25 -33 60 -52 125 -81c103 -47 161 -102 161 -205c0 -109 -68 -187 -169 -202z" />
    <glyph glyph-name="dong" unicode="&#x20ab;" horiz-adv-x="480" 
d="M51 368c0 115 62 192 165 192c45 0 81 -17 105 -48v30v54h-94v58h94v46h78v-46h45v-58h-45v-414h-78v16v27c-21 -28 -61 -49 -104 -49c-104 0 -166 77 -166 192zM326 368c0 75 -37 123 -97 123c-61 0 -98 -48 -98 -123c0 -76 37 -124 98 -124c60 0 97 48 97 124zM46 66
v58h398v-58h-398z" />
    <glyph glyph-name="Euro" unicode="&#x20ac;" horiz-adv-x="623" 
d="M121 238h-88l36 73h46v39v39h-82l36 73h52c25 152 121 246 262 246c92 0 156 -40 199 -116l-72 -41c-27 52 -72 82 -127 82c-93 0 -156 -60 -177 -171h243l-36 -73h-215v-39v-39h251l-36 -73h-207c21 -111 84 -170 177 -170c55 0 102 29 127 81l72 -41
c-43 -76 -107 -116 -199 -116c-141 0 -237 94 -262 246z" />
    <glyph glyph-name="florin" unicode="&#x192;" horiz-adv-x="474" 
d="M-77 -197l32 71c16 -8 33 -12 52 -12c55 0 84 29 96 90l93 478h-87l15 74h87l6 30c23 121 89 174 193 174c28 0 55 -7 70 -15l-31 -71c-17 8 -31 12 -52 12c-52 0 -84 -30 -97 -90l-7 -40h117l-14 -74h-118l-91 -468c-24 -123 -87 -174 -190 -174c-29 0 -58 7 -74 15z
" />
    <glyph glyph-name="franc" unicode="&#x20a3;" horiz-adv-x="538" 
d="M504 619h-328v-215h268v-81h-268v-126h139v-81h-139v-116h-87v116h-53v81h53v503h415v-81z" />
    <glyph glyph-name="uni20B4" unicode="&#x20b4;" horiz-adv-x="534" 
d="M432 458h57v-73h-450v73h296c25 23 38 51 38 84c0 47 -37 85 -93 85c-55 0 -94 -26 -115 -78l-71 45c35 76 97 114 186 114c101 0 177 -67 177 -159c0 -35 -8 -66 -25 -91zM39 242v73h450v-73h-307c-13 -17 -20 -37 -20 -60c0 -69 44 -109 109 -109c67 0 112 35 136 96
l73 -45c-35 -81 -110 -132 -209 -132c-115 0 -197 75 -197 182c0 25 5 48 14 68h-49z" />
    <glyph glyph-name="uni20AD" unicode="&#x20ad;" horiz-adv-x="568" 
d="M445 0l-277 349h-8v-349h-87v349h-53v72h53v279h87v-279h6l256 279h108l-254 -279h255v-72h-257l280 -349h-109z" />
    <glyph glyph-name="uni20BA" unicode="&#x20ba;" horiz-adv-x="552" 
d="M418 260h87v-60c0 -124 -74 -200 -205 -200h-206v163l-74 -46v79l74 46v57l-74 -46v80l74 46v321h87v-268l174 107v-79l-174 -108v-57l174 108v-80l-174 -107v-135h118c80 0 119 44 119 119v60z" />
    <glyph glyph-name="uni20B1" unicode="&#x20b1;" horiz-adv-x="653" 
d="M619 577v-57h-67c1 -4 1 -10 1 -19s0 -15 -1 -19h67v-58h-78c-27 -79 -95 -123 -196 -123h-160v-301h-86v424h-65v58h65v38h-65v57h65v123h246c101 0 171 -44 196 -123h78zM185 619v-42h257c-19 28 -52 42 -98 42h-159zM462 520h-277v-38h277c1 4 1 10 1 19s0 15 -1 19z
M442 424h-257v-42h159c46 0 79 14 98 42z" />
    <glyph glyph-name="uni20BD" unicode="&#x20bd;" horiz-adv-x="607" 
d="M358 301h-159v-79h250v-78h-250v-144h-87v144h-78v78h78v79h-78v78h78v321h246c132 0 208 -76 208 -199c0 -124 -76 -200 -208 -200zM199 619v-237h158c81 0 119 44 119 119c0 73 -38 118 -119 118h-158z" />
    <glyph glyph-name="uni20A8" unicode="&#x20a8;" horiz-adv-x="989" 
d="M87 0v700h235c129 0 204 -67 204 -184c0 -99 -53 -160 -146 -179l210 -337h-97l-209 332h-110v-332h-87zM174 413h145c79 0 119 32 119 103c0 69 -40 103 -119 103h-145v-206zM597 129l69 37c20 -64 56 -100 119 -100c49 0 80 28 80 76c0 43 -37 65 -109 92
c-80 29 -125 70 -125 143c0 80 62 135 147 135c65 0 113 -26 146 -79l-54 -48c-23 35 -54 53 -93 53c-37 0 -66 -24 -66 -61s28 -57 112 -88c82 -30 123 -78 123 -144c0 -95 -64 -153 -161 -153c-103 0 -168 61 -188 137z" />
    <glyph glyph-name="uni20B9" unicode="&#x20b9;" horiz-adv-x="552" 
d="M518 635h-95c20 -25 32 -55 36 -89h59v-61h-59c-12 -96 -86 -153 -202 -153h-90l294 -332h-113l-314 352v58h220c69 0 108 25 119 75h-339v61h339c-11 51 -50 76 -119 76h-220v78h484v-65z" />
    <glyph glyph-name="uni20AA" unicode="&#x20aa;" horiz-adv-x="797" 
d="M530 540v-378h-83v379c0 56 -28 84 -84 84h-193v-625h-83v700h276c112 0 167 -49 167 -160zM267 160v378h83v-379c0 -56 27 -83 84 -83h193v624h83v-700h-276c-117 0 -167 44 -167 160z" />
    <glyph glyph-name="sterling" unicode="&#xa3;" horiz-adv-x="531" 
d="M94 -8l-56 62c73 69 109 129 109 200c0 23 -4 47 -12 73h-83v74h59c-15 39 -23 67 -23 104c0 61 18 110 53 147s82 56 140 56c93 0 160 -52 193 -140l-71 -33c-29 65 -65 96 -122 96c-64 0 -109 -46 -109 -129c0 -36 6 -64 18 -101h167v-74h-144c5 -23 8 -45 8 -66
c0 -68 -35 -138 -80 -178c28 15 61 25 89 25s47 -8 74 -23c24 -13 37 -19 54 -19c40 0 59 16 92 75l60 -36c-44 -81 -86 -113 -153 -113c-35 0 -54 8 -85 23c-27 13 -43 20 -68 20c-43 0 -70 -14 -110 -43z" />
    <glyph glyph-name="uni20B8" unicode="&#x20b8;" horiz-adv-x="511" 
d="M28 622v78h455v-78h-455zM212 0v463h-184v80h455v-80h-184v-463h-87z" />
    <glyph glyph-name="uni20A9" unicode="&#x20a9;" horiz-adv-x="640" 
d="M624 351v-76h-70l-42 -275h-92l-57 275h-86l-57 -275h-93l-42 275h-70v76h59l-53 349h82l48 -349h71l57 275h82l57 -275h71l48 349h82l-53 -349h58zM293 351h54l-27 133zM179 143l27 132h-45zM461 143l18 132h-45z" />
    <glyph glyph-name="yen" unicode="&#xa5;" horiz-adv-x="512" 
d="M212 0v147h-155v73h155v82h-155v73h119l-165 325h98l147 -310l147 310h98l-165 -325h118v-73h-155v-82h155v-73h-155v-147h-87z" />
    <glyph glyph-name="uni0E3F.tf" 
d="M553 205c0 -127 -85 -205 -220 -205h-34v-90h-80v90h-134v700h134v90h80v-90h21c123 0 197 -66 197 -182c0 -67 -33 -112 -82 -135c73 -28 118 -86 118 -178zM172 619v-207h146c75 0 113 34 113 103s-38 104 -114 104h-145zM464 206c0 88 -47 125 -144 125h-148v-250h148
c97 0 144 37 144 125z" />
    <glyph glyph-name="uni20BF.tf" 
d="M367 3v-73h-73v70h-49v-70h-72v70h-97v700h97v70h72v-70h49v70h73v-75c89 -19 140 -80 140 -177c0 -67 -33 -112 -81 -135c72 -28 117 -86 117 -178c0 -112 -65 -187 -176 -202zM163 619v-207h146c75 0 112 34 112 103s-38 104 -113 104h-145zM455 206
c0 87 -48 125 -144 125h-148v-250h148c96 0 144 38 144 125z" />
    <glyph glyph-name="cent.tf" 
d="M281 -50v143c-124 18 -192 130 -192 257c0 126 68 239 192 257v143h80v-143c81 -11 139 -58 170 -138l-74 -29c-28 64 -70 96 -137 96c-95 0 -145 -77 -145 -186c0 -108 50 -186 145 -186c67 0 109 32 137 96l74 -29c-31 -80 -89 -127 -170 -138v-143h-80z" />
    <glyph glyph-name="currency.tf" 
d="M127 56l-68 69l87 67c-22 35 -33 73 -33 115s11 80 33 115l-87 67l68 69l67 -86c34 25 73 37 116 37s81 -12 115 -37l67 86l68 -69l-87 -67c23 -35 34 -74 34 -115s-11 -80 -34 -115l87 -67l-68 -69l-67 86c-34 -25 -72 -37 -115 -37s-82 12 -116 37zM430 307
c0 76 -48 129 -120 129c-73 0 -121 -52 -121 -129s48 -129 121 -129c72 0 120 53 120 129z" />
    <glyph glyph-name="dollar.tf" 
d="M356 -6v-84h-80v86c-47 9 -87 31 -120 65c-33 35 -53 75 -61 122l72 45c25 -103 76 -155 155 -155c68 0 115 42 115 119c0 25 -7 47 -20 65c-27 36 -62 54 -135 89c-91 44 -147 99 -147 191c0 87 57 153 141 168v85h80v-86c62 -11 107 -47 134 -110l-71 -45
c-21 52 -57 78 -108 78c-55 0 -91 -38 -91 -85c0 -23 6 -43 19 -60c25 -33 60 -52 125 -81c103 -47 161 -102 161 -205c0 -109 -68 -187 -169 -202z" />
    <glyph glyph-name="dong.tf" 
d="M116 368c0 115 62 192 165 192c45 0 81 -17 105 -48v30v54h-94v58h94v46h78v-46h45v-58h-45v-414h-78v16v27c-21 -28 -61 -49 -104 -49c-104 0 -166 77 -166 192zM391 368c0 75 -37 123 -97 123c-61 0 -98 -48 -98 -123c0 -76 37 -124 98 -124c60 0 97 48 97 124zM111 66
v58h398v-58h-398z" />
    <glyph glyph-name="Euro.tf" 
d="M123 238h-88l36 73h46v39v39h-82l36 73h52c27 152 122 246 262 246c93 0 156 -39 199 -116l-72 -41c-25 52 -72 82 -127 82c-92 0 -155 -59 -176 -171h242l-36 -73h-214v-39v-39h250l-36 -73h-206c21 -111 83 -170 176 -170c56 0 102 29 127 81l72 -41
c-43 -77 -106 -116 -199 -116c-140 0 -235 94 -262 246z" />
    <glyph glyph-name="florin.tf" 
d="M31 -197l32 71c16 -8 33 -12 52 -12c55 0 84 29 96 90l93 478h-87l15 74h87l6 30c23 121 89 174 193 174c28 0 55 -7 70 -15l-31 -71c-17 8 -31 12 -52 12c-52 0 -84 -30 -97 -90l-7 -40h117l-14 -74h-118l-91 -468c-24 -123 -87 -174 -190 -174c-29 0 -58 7 -74 15z" />
    <glyph glyph-name="franc.tf" 
d="M544 619h-328v-215h268v-81h-268v-126h139v-81h-139v-116h-87v116h-53v81h53v503h415v-81z" />
    <glyph glyph-name="uni20B4.tf" 
d="M478 458h57v-73h-450v73h296c25 23 38 51 38 84c0 47 -37 85 -93 85c-55 0 -94 -26 -115 -78l-71 45c35 76 97 114 186 114c101 0 177 -67 177 -159c0 -35 -8 -66 -25 -91zM85 242v73h450v-73h-307c-13 -17 -20 -37 -20 -60c0 -69 44 -109 109 -109c67 0 112 35 136 96
l73 -45c-35 -81 -110 -132 -209 -132c-115 0 -197 75 -197 182c0 25 5 48 14 68h-49z" />
    <glyph glyph-name="uni20AD.tf" 
d="M465 0l-278 349h-8v-349h-86v349h-53v72h53v279h86v-279h6l256 279h109l-254 -279h255v-72h-257l279 -349h-108z" />
    <glyph glyph-name="uni20BA.tf" 
d="M466 260h87v-60c0 -124 -74 -200 -205 -200h-206v163l-74 -46v79l74 46v57l-74 -46v80l74 46v321h87v-268l174 107v-79l-174 -108v-57l174 108v-80l-174 -107v-135h118c80 0 119 44 119 119v60z" />
    <glyph glyph-name="uni20B1.tf" 
d="M586 577v-57h-52c1 -4 1 -10 1 -19s0 -15 -1 -19h52v-58h-63c-27 -79 -95 -123 -195 -123h-160v-301h-87v424h-51v58h51v38h-51v57h51v123h247c101 0 170 -46 195 -123h63zM168 619v-42h257c-21 28 -53 42 -98 42h-159zM445 520h-277v-38h277c1 4 1 10 1 19s0 15 -1 19z
M425 424h-257v-42h159c45 0 77 14 98 42z" />
    <glyph glyph-name="uni20BD.tf" 
d="M360 301h-160v-79h221v-81h-221v-141h-87v141h-77v81h77v79h-77v81h77v318h247c131 0 207 -76 207 -199c0 -124 -76 -200 -207 -200zM200 619v-237h159c80 0 119 44 119 119c0 73 -39 118 -119 118h-159z" />
    <glyph glyph-name="uni20A8.tf" 
d="M69 0v700h137c105 0 176 -68 176 -184c0 -95 -53 -157 -134 -178l124 -338h-78l-123 331h-24v-331h-78zM147 409h60c61 0 97 36 97 107s-37 107 -97 107h-60v-214zM365 101l54 29c9 -48 30 -72 63 -72c25 0 45 17 45 45c0 29 -18 48 -63 71c-53 28 -86 63 -86 114
c0 63 47 102 104 102c48 0 83 -22 105 -65l-47 -41c-13 28 -33 44 -56 44c-25 0 -42 -17 -42 -38c0 -28 16 -43 63 -66c59 -29 90 -60 90 -113c0 -69 -47 -118 -115 -118c-60 0 -102 37 -115 108z" />
    <glyph glyph-name="uni20B9.tf" 
d="M552 635h-95c20 -25 32 -55 36 -89h59v-61h-59c-12 -96 -86 -153 -202 -153h-90l294 -332h-113l-314 352v58h220c69 0 108 25 119 75h-339v61h339c-11 51 -50 76 -119 76h-220v78h484v-65z" />
    <glyph glyph-name="uni20AA.tf" 
d="M51 0v700h208c112 0 166 -49 166 -160v-378h-80v379c0 56 -28 84 -84 84h-130v-625h-80zM195 160v378h80v-379c0 -56 27 -83 84 -83h130v624h80v-700h-207c-117 0 -167 44 -167 160z" />
    <glyph glyph-name="sterling.tf" 
d="M131 -8l-56 62c73 69 109 129 109 200c0 23 -4 47 -12 73h-83v74h59c-15 39 -23 67 -23 104c0 61 18 110 53 147s82 56 140 56c93 0 160 -52 193 -140l-71 -33c-29 65 -65 96 -122 96c-64 0 -109 -46 -109 -129c0 -36 6 -64 18 -101h167v-74h-144c5 -23 8 -45 8 -66
c0 -68 -35 -138 -80 -178c28 15 61 25 89 25s47 -8 74 -23c24 -13 37 -19 54 -19c40 0 59 16 92 75l60 -36c-44 -81 -86 -113 -153 -113c-35 0 -54 8 -85 23c-27 13 -43 20 -68 20c-43 0 -70 -14 -110 -43z" />
    <glyph glyph-name="uni20B8.tf" 
d="M82 622v78h455v-78h-455zM266 0v463h-184v80h455v-80h-184v-463h-87z" />
    <glyph glyph-name="uni20A9.tf" 
d="M597 351v-76h-60l-37 -275h-93l-54 275h-86l-54 -275h-93l-37 275h-60v76h49l-47 349h83l40 -349h65l56 275h82l56 -275h65l40 349h83l-47 -349h49zM282 351h56l-28 142zM172 147l26 128h-41zM448 147l15 128h-41z" />
    <glyph glyph-name="yen.tf" 
d="M266 0v147h-155v73h155v82h-155v73h119l-165 325h98l147 -310l147 310h98l-165 -325h118v-73h-155v-82h155v-73h-155v-147h-87z" />
    <glyph glyph-name="uni2219" unicode="&#x2219;" horiz-adv-x="361" 
d="M87 303c0 52 41 94 93 94s94 -42 94 -94s-42 -94 -94 -94s-93 42 -93 94z" />
    <glyph glyph-name="uni2215" unicode="&#x2215;" horiz-adv-x="531" 
d="M6 -50l436 800h83l-436 -800h-83z" />
    <glyph glyph-name="plus" unicode="+" horiz-adv-x="568" 
d="M248 101v179h-180v73h180v178h73v-178h179v-73h-179v-179h-73z" />
    <glyph glyph-name="minus" unicode="&#x2212;" horiz-adv-x="568" 
d="M68 280v73h432v-73h-432z" />
    <glyph glyph-name="multiply" unicode="&#xd7;" horiz-adv-x="547" 
d="M118 109l-51 52l155 155l-155 155l51 52l155 -156l154 155l52 -52l-155 -154l156 -155l-52 -52l-155 155z" />
    <glyph glyph-name="divide" unicode="&#xf7;" horiz-adv-x="568" 
d="M222 501c0 35 26 62 61 62c36 0 62 -27 62 -62c0 -36 -26 -61 -62 -61c-35 0 -61 25 -61 61zM68 279v73h432v-73h-432zM222 130c0 35 26 62 61 62c36 0 62 -27 62 -62c0 -36 -26 -62 -62 -62c-35 0 -61 26 -61 62z" />
    <glyph glyph-name="equal" unicode="=" horiz-adv-x="540" 
d="M68 363v73h404v-73h-404zM68 192v73h404v-73h-404z" />
    <glyph glyph-name="notequal" unicode="&#x2260;" horiz-adv-x="540" 
d="M180 85l-63 35l42 73h-91v73h132l56 98h-188v72h230l62 109l63 -36l-42 -73h91v-72h-132l-56 -98h188v-73h-230z" />
    <glyph glyph-name="greater" unicode="&#x3e;" horiz-adv-x="466" 
d="M60 80v85l273 145l-273 145v85l352 -188v-84z" />
    <glyph glyph-name="less" unicode="&#x3c;" horiz-adv-x="466" 
d="M406 80l-353 188v84l353 188v-85l-273 -145l273 -145v-85z" />
    <glyph glyph-name="greaterequal" unicode="&#x2265;" horiz-adv-x="568" 
d="M108 172v85l273 145l-273 145v85l353 -188v-84zM68 0v73h432v-73h-432z" />
    <glyph glyph-name="lessequal" unicode="&#x2264;" horiz-adv-x="568" 
d="M460 172l-353 188v84l353 188v-85l-273 -145l273 -145v-85zM68 0v73h432v-73h-432z" />
    <glyph glyph-name="plusminus" unicode="&#xb1;" horiz-adv-x="568" 
d="M248 183v179h-180v73h180v178h73v-178h179v-73h-179v-179h-73zM68 0v73h432v-73h-432z" />
    <glyph glyph-name="approxequal" unicode="&#x2248;" horiz-adv-x="552" 
d="M274 189c-33 17 -56 27 -88 27c-35 0 -67 -18 -90 -47l-48 48c31 51 80 89 131 89c36 0 59 -9 98 -29c35 -19 57 -27 89 -27c34 0 64 16 90 47l48 -48c-31 -51 -80 -89 -132 -89c-36 0 -59 9 -98 29zM274 392c-33 17 -56 27 -88 27c-35 0 -67 -18 -90 -47l-48 48
c31 51 80 89 131 89c36 0 59 -9 98 -29c35 -19 57 -27 89 -27c34 0 64 16 90 47l48 -48c-31 -51 -80 -89 -132 -89c-36 0 -59 9 -98 29z" />
    <glyph glyph-name="asciitilde" unicode="~" horiz-adv-x="552" 
d="M274 291c-33 17 -56 27 -88 27c-35 0 -67 -18 -90 -47l-48 48c31 51 80 89 131 89c36 0 59 -9 98 -29c35 -19 57 -27 89 -27c34 0 64 16 90 47l48 -48c-31 -51 -80 -89 -132 -89c-36 0 -59 9 -98 29z" />
    <glyph glyph-name="logicalnot" unicode="&#xac;" horiz-adv-x="574" 
d="M422 142v171h-354v76h437v-247h-83z" />
    <glyph glyph-name="asciicircum" unicode="^" horiz-adv-x="504" 
d="M31 421l188 279h67l187 -279h-85l-136 205l-135 -205h-86z" />
    <glyph glyph-name="infinity" unicode="&#x221e;" horiz-adv-x="874" 
d="M55 359c0 115 71 191 184 191c77 0 143 -40 198 -121c55 81 121 121 198 121c113 0 184 -76 184 -191s-71 -191 -184 -191c-77 0 -143 40 -198 121c-55 -81 -121 -121 -198 -121c-113 0 -184 76 -184 191zM398 359c-40 79 -92 119 -145 119c-71 0 -117 -44 -117 -119
s46 -119 117 -119c53 0 105 40 145 119zM738 359c0 75 -46 119 -117 119c-53 0 -105 -40 -145 -119c40 -79 92 -119 145 -119c71 0 117 44 117 119z" />
    <glyph glyph-name="integral" unicode="&#x222b;" horiz-adv-x="474" 
d="M-77 -197l32 71c16 -8 33 -12 52 -12c55 0 84 29 96 90l114 582c24 124 87 174 191 174c29 0 57 -7 72 -15l-31 -71c-17 8 -31 12 -52 12c-52 0 -84 -30 -97 -90l-113 -582c-24 -125 -84 -174 -188 -174c-29 0 -60 7 -76 15z" />
    <glyph glyph-name="uni2126" unicode="&#x2126;" horiz-adv-x="681" 
d="M39 0v78h154c-96 91 -161 189 -161 320c0 179 120 310 309 310c188 0 308 -131 308 -310c0 -131 -65 -229 -161 -320h154v-78h-253v78c116 97 171 191 171 316c0 141 -90 233 -219 233c-130 0 -219 -92 -219 -233c0 -125 55 -219 170 -316v-78h-253z" />
    <glyph glyph-name="uni2206" unicode="&#x2206;" horiz-adv-x="580" 
d="M11 0v21l240 679h78l240 -679v-21h-558zM114 74h352l-176 514z" />
    <glyph glyph-name="product" unicode="&#x220f;" horiz-adv-x="545" 
d="M87 0v700h371v-700h-82v627h-207v-627h-82z" />
    <glyph glyph-name="summation" unicode="&#x2211;" horiz-adv-x="534" 
d="M55 0v28l206 322l-206 322v28h425v-73h-306l169 -267v-20l-169 -267h306v-73h-425z" />
    <glyph glyph-name="radical" unicode="&#x221a;" horiz-adv-x="528" 
d="M241 0l-103 315h-101v74h150l85 -263l174 582h76l-216 -708h-65z" />
    <glyph glyph-name="uni00B5" unicode="&#xb5;" horiz-adv-x="555" 
d="M75 -204v708h83v-333c0 -69 32 -105 92 -105c83 0 148 86 148 224v214h82v-504h-82v97c-36 -64 -99 -105 -168 -105c-29 0 -53 6 -72 19v-215h-83z" />
    <glyph glyph-name="partialdiff" unicode="&#x2202;" horiz-adv-x="587" 
d="M46 207c-2 165 119 308 286 305c47 0 98 -18 122 -46c-12 105 -65 168 -146 168c-55 0 -96 -28 -124 -84l-81 22c32 80 110 136 206 136c153 0 232 -121 232 -349c0 -203 -92 -367 -290 -367c-120 0 -205 87 -205 215zM449 292c0 93 -46 146 -127 146
c-113 0 -187 -112 -187 -227c0 -84 46 -145 122 -145c114 0 192 106 192 226z" />
    <glyph glyph-name="percent" unicode="%" horiz-adv-x="844" 
d="M178 -29l-52 42l540 716l52 -41zM60 548c0 88 68 160 159 160s159 -72 159 -160s-68 -160 -159 -160s-159 72 -159 160zM309 548c0 55 -35 93 -90 93s-90 -38 -90 -93s35 -93 90 -93s90 38 90 93zM466 152c0 88 68 160 159 160s159 -72 159 -160s-68 -160 -159 -160
s-159 72 -159 160zM715 152c0 55 -35 93 -90 93s-90 -38 -90 -93s35 -93 90 -93s90 38 90 93z" />
    <glyph glyph-name="perthousand" unicode="&#x2030;" horiz-adv-x="1210" 
d="M178 -29l-52 42l540 716l52 -41zM60 548c0 88 68 160 159 160s159 -72 159 -160s-68 -160 -159 -160s-159 72 -159 160zM309 548c0 55 -35 93 -90 93s-90 -38 -90 -93s35 -93 90 -93s90 38 90 93zM466 152c0 88 68 160 159 160s159 -72 159 -160s-68 -160 -159 -160
s-159 72 -159 160zM832 152c0 88 68 160 159 160s159 -72 159 -160s-68 -160 -159 -160s-159 72 -159 160zM715 152c0 55 -35 93 -90 93s-90 -38 -90 -93s35 -93 90 -93s90 38 90 93zM1081 152c0 55 -35 93 -90 93s-89 -38 -89 -93s34 -93 89 -93s90 38 90 93z" />
    <glyph glyph-name="uni2215.tf" 
d="M51 -50l436 800h83l-436 -800h-83z" />
    <glyph glyph-name="plus.tf" 
d="M274 101v179h-180v73h180v178h73v-178h179v-73h-179v-179h-73z" />
    <glyph glyph-name="minus.tf" 
d="M94 280v73h432v-73h-432z" />
    <glyph glyph-name="multiply.tf" 
d="M155 109l-51 52l155 155l-155 155l51 52l155 -156l154 155l52 -52l-155 -154l156 -155l-52 -52l-155 155z" />
    <glyph glyph-name="divide.tf" 
d="M248 501c0 35 26 62 61 62c36 0 62 -27 62 -62c0 -36 -26 -61 -62 -61c-35 0 -61 25 -61 61zM94 279v73h432v-73h-432zM248 130c0 35 26 62 61 62c36 0 62 -27 62 -62c0 -36 -26 -62 -62 -62c-35 0 -61 26 -61 62z" />
    <glyph glyph-name="equal.tf" 
d="M108 363v73h404v-73h-404zM108 192v73h404v-73h-404z" />
    <glyph glyph-name="notequal.tf" 
d="M220 85l-63 35l42 73h-91v73h132l56 98h-188v72h230l62 109l63 -36l-42 -73h91v-72h-132l-56 -98h188v-73h-230z" />
    <glyph glyph-name="greater.tf" 
d="M134 80v85l273 145l-273 145v85l352 -188v-84z" />
    <glyph glyph-name="less.tf" 
d="M486 80l-353 188v84l353 188v-85l-273 -145l273 -145v-85z" />
    <glyph glyph-name="greaterequal.tf" 
d="M134 172v85l273 145l-273 145v85l353 -188v-84zM94 0v73h432v-73h-432z" />
    <glyph glyph-name="lessequal.tf" 
d="M486 172l-353 188v84l353 188v-85l-273 -145l273 -145v-85zM94 0v73h432v-73h-432z" />
    <glyph glyph-name="plusminus.tf" 
d="M274 183v179h-180v73h180v178h73v-178h179v-73h-179v-179h-73zM94 0v73h432v-73h-432z" />
    <glyph glyph-name="approxequal.tf" 
d="M308 189c-33 17 -56 27 -88 27c-35 0 -67 -18 -90 -47l-48 48c31 51 80 89 131 89c36 0 59 -9 98 -29c35 -19 57 -27 89 -27c34 0 64 16 90 47l48 -48c-31 -51 -80 -89 -132 -89c-36 0 -59 9 -98 29zM308 392c-33 17 -56 27 -88 27c-35 0 -67 -18 -90 -47l-48 48
c31 51 80 89 131 89c36 0 59 -9 98 -29c35 -19 57 -27 89 -27c34 0 64 16 90 47l48 -48c-31 -51 -80 -89 -132 -89c-36 0 -59 9 -98 29z" />
    <glyph glyph-name="asciitilde.tf" 
d="M308 291c-33 17 -56 27 -88 27c-35 0 -67 -18 -90 -47l-48 48c31 51 80 89 131 89c36 0 59 -9 98 -29c35 -19 57 -27 89 -27c34 0 64 16 90 47l48 -48c-31 -51 -80 -89 -132 -89c-36 0 -59 9 -98 29z" />
    <glyph glyph-name="logicalnot.tf" 
d="M445 142v171h-354v76h437v-247h-83z" />
    <glyph glyph-name="percent.tf" 
d="M14 548c0 88 67 160 160 160c91 0 159 -72 159 -160s-68 -160 -159 -160c-93 0 -160 72 -160 160zM267 548c0 55 -37 96 -93 96c-57 0 -93 -40 -93 -96s36 -96 93 -96c56 0 93 41 93 96zM76 143l-38 52l503 357l37 -52zM287 152c0 88 68 160 159 160
c93 0 160 -72 160 -160s-67 -160 -160 -160c-91 0 -159 72 -159 160zM539 152c0 56 -36 96 -93 96c-56 0 -93 -41 -93 -96s37 -96 93 -96c57 0 93 40 93 96z" />
    <glyph glyph-name="perthousand.tf" 
d="M31 575c0 72 58 133 133 133c38 0 70 -13 95 -39c25 -25 38 -57 38 -94s-13 -69 -38 -95c-25 -25 -57 -38 -95 -38c-75 0 -133 61 -133 133zM236 575c0 43 -28 75 -72 75c-45 0 -74 -31 -74 -75s29 -75 74 -75c44 0 72 32 72 75zM69 202l-39 49l491 375l38 -48zM123 125
c0 72 58 133 133 133c45 0 82 -19 105 -54c23 35 61 54 106 54c38 0 70 -13 95 -39c25 -25 38 -57 38 -94s-13 -69 -38 -95c-25 -25 -57 -38 -95 -38c-45 0 -83 19 -106 54c-23 -35 -60 -54 -105 -54c-75 0 -133 61 -133 133zM328 125c0 43 -28 75 -72 75
c-45 0 -74 -31 -74 -75s29 -75 74 -75c44 0 72 32 72 75zM540 125c0 43 -29 75 -73 75c-45 0 -74 -32 -74 -75s29 -75 74 -75c44 0 73 32 73 75z" />
    <glyph glyph-name="arrowup" unicode="&#x2191;" horiz-adv-x="637" 
d="M281 75v407l-145 -143l-52 51l234 235l235 -235l-52 -51l-146 143v-407h-74z" />
    <glyph glyph-name="uni2197" unicode="&#x2197;" horiz-adv-x="639" 
d="M167 142l-54 54l287 286h-204v76h332v-333h-76v204z" />
    <glyph glyph-name="arrowright" unicode="&#x2192;" horiz-adv-x="649" 
d="M362 115l-51 52l143 146h-406v74h406l-143 146l51 52l235 -235z" />
    <glyph glyph-name="uni2198" unicode="&#x2198;" horiz-adv-x="639" 
d="M196 142v77h204l-287 285l54 54l285 -287v204h76v-333h-332z" />
    <glyph glyph-name="arrowdown" unicode="&#x2193;" horiz-adv-x="637" 
d="M318 75l-234 235l52 51l145 -143v407h74v-407l146 143l52 -51z" />
    <glyph glyph-name="uni2199" unicode="&#x2199;" horiz-adv-x="639" 
d="M111 142v333h75v-204l286 287l54 -54l-287 -285h204v-77h-332z" />
    <glyph glyph-name="arrowleft" unicode="&#x2190;" horiz-adv-x="649" 
d="M284 115l-236 235l236 235l50 -52l-143 -146h406v-74h-406l143 -146z" />
    <glyph glyph-name="uni2196" unicode="&#x2196;" horiz-adv-x="639" 
d="M473 142l-286 287v-204h-75v333h331v-76h-203l286 -286z" />
    <glyph glyph-name="arrowboth" unicode="&#x2194;" horiz-adv-x="785" 
d="M499 585l235 -235l-235 -235l-51 52l143 146h-400l143 -146l-50 -52l-236 235l236 235l50 -52l-143 -146h400l-143 146z" />
    <glyph glyph-name="arrowupdn" unicode="&#x2195;" horiz-adv-x="637" 
d="M355 147l146 143l52 -51l-235 -235l-234 235l52 51l145 -143v407l-145 -143l-52 51l234 235l235 -235l-52 -51l-146 143v-407z" />
    <glyph glyph-name="arrowup.ss03" horiz-adv-x="637" 
d="M281 5v547l-145 -144l-52 51l234 236l235 -236l-52 -51l-146 144v-547h-74z" />
    <glyph glyph-name="uni2197.ss03" horiz-adv-x="738" 
d="M167 89l-54 53l385 384h-204v77h333v-333h-76v203z" />
    <glyph glyph-name="arrowright.ss03" horiz-adv-x="789" 
d="M503 115l-51 52l143 146h-547v74h547l-143 146l51 52l235 -235z" />
    <glyph glyph-name="uni2198.ss03" horiz-adv-x="738" 
d="M294 89v76h204l-385 384l54 54l384 -385v203h76v-332h-333z" />
    <glyph glyph-name="arrowdown.ss03" horiz-adv-x="637" 
d="M318 6l-234 236l52 50l145 -143v547h74v-547l146 143l52 -50z" />
    <glyph glyph-name="uni2199.ss03" horiz-adv-x="738" 
d="M111 89v332h75v-203l385 385l54 -54l-385 -384h203v-76h-332z" />
    <glyph glyph-name="arrowleft.ss03" horiz-adv-x="789" 
d="M284 115l-236 235l236 235l50 -52l-143 -146h547v-74h-547l143 -146z" />
    <glyph glyph-name="uni2196.ss03" horiz-adv-x="738" 
d="M572 89l-385 384v-203h-75v333h332v-77h-203l384 -384z" />
    <glyph glyph-name="lozenge" unicode="&#x25ca;" horiz-adv-x="575" 
d="M247 0l-181 350l181 350h81l181 -350l-181 -350h-81zM287 78l138 272l-138 272l-137 -272z" />
    <glyph glyph-name="uniF8FF" unicode="&#xf8ff;" horiz-adv-x="792" 
d="M100 22v595c0 9 7 19 16 22l270 78l10 2l10 -2l270 -78c9 -3 16 -13 16 -22v-595c0 -12 -10 -22 -22 -22l-7 1l-267 77l-267 -77l-7 -1c-12 0 -22 10 -22 22zM374 366v303l-230 -67c8 -124 106 -226 230 -236zM648 602l-230 67v-303c124 10 222 112 230 236zM143 51
l231 67v204c-97 8 -183 61 -231 141v-412zM649 51v412c-49 -80 -134 -133 -231 -141v-204z" />
    <glyph glyph-name="at" unicode="@" horiz-adv-x="891" 
d="M60 301c-4 262 186 419 402 417c224 0 369 -137 369 -366c0 -160 -77 -244 -177 -244c-55 0 -95 34 -108 75c-36 -50 -81 -75 -135 -75c-108 0 -172 75 -172 187c0 123 87 221 210 221c48 0 86 -20 109 -55l13 48h64l-23 -250l-2 -25c0 -37 17 -55 50 -55
c59 0 88 68 88 175c0 188 -108 293 -291 293c-159 2 -317 -129 -314 -346c0 -205 143 -324 313 -324c83 0 151 15 243 64l28 -65c-50 -26 -95 -44 -135 -54c-39 -11 -85 -16 -136 -16c-225 -3 -400 158 -396 395zM541 331c0 71 -35 114 -99 114c-72 0 -121 -64 -121 -153
c0 -73 36 -113 97 -113c37 0 67 15 89 44c23 30 34 66 34 108z" />
    <glyph glyph-name="ampersand" unicode="&#x26;" horiz-adv-x="604" 
d="M40 198c0 103 61 176 137 216c-35 48 -60 96 -60 145c0 45 15 81 44 108c30 27 67 41 111 41c95 0 156 -60 156 -140c0 -79 -58 -137 -137 -178l147 -190c19 34 36 76 53 127l52 -61c-15 -50 -34 -93 -55 -130l106 -136h-97l-57 73c-49 -54 -113 -81 -190 -81
c-125 0 -210 78 -210 206zM350 560c0 45 -29 77 -78 77c-47 0 -77 -30 -77 -78c0 -32 16 -69 49 -111c71 35 106 65 106 112zM392 135l-170 220c-67 -37 -101 -89 -101 -158c0 -76 53 -128 129 -128c60 0 103 21 142 66z" />
    <glyph glyph-name="paragraph" unicode="&#xb6;" horiz-adv-x="681" 
d="M249 -204v523c-105 0 -190 85 -190 190s85 191 190 191h367v-77h-59v-827h-84v827h-140v-827h-84z" />
    </font>
</defs>
</svg>
